M48
;GenerationSoftware,Autodesk,EAGLE,9.0.0*%
;CreationDate,2018-10-20T03:45:27Z*%
FMAT,2
ICI,OFF
METRIC,TZ,000.000
T9C0.254
T8C0.300
T7C0.400
T6C1.000
T5C1.016
T4C1.330
T3C1.500
T2C1.600
T1C2.380
%
G90
M71
T1
X89860Y56574
X89860Y69714
T2
X43510Y60850
X38810Y60850
X48210Y60850
T3
X36905Y70380
X50115Y70380
T4
X91338Y53757
X96288Y54357
X96288Y38657
X91338Y39257
T5
X75910Y16980
X13770Y27230
X13770Y29770
X63210Y16980
X13770Y17070
X75910Y19520
X73370Y19520
X73370Y16980
X70830Y19520
X70830Y16980
X35270Y19520
X68290Y19520
X68290Y16980
X65750Y19520
X65750Y16980
X63210Y19520
X60670Y19520
X60670Y16980
X58130Y19520
X58130Y16980
X55590Y19520
X55590Y16980
X53050Y19520
X53050Y16980
X50510Y19520
X50510Y16980
X47970Y19520
X47970Y16980
X45430Y19520
X45430Y16980
X42890Y19520
X42890Y16980
X40350Y19520
X40350Y16980
X37810Y19520
X37810Y16980
X35270Y16980
X32730Y19520
X32730Y16980
X30190Y19520
X30190Y16980
X27650Y19520
X27650Y16980
X13770Y19610
X13770Y22150
X13770Y24690
T6
X18820Y67430
X21820Y62630
X87150Y66644
X87150Y64144
X87150Y59644
X87150Y62144
X24920Y67430
T7
X87700Y53300
X93700Y35282
X86967Y46152
X84300Y43195
X77140Y59538
X44800Y51000
X52900Y69300
X52900Y70300
X52900Y68200
X69925Y62500
X45700Y51000
X86800Y21700
X91300Y21700
X91300Y20200
X91300Y15600
X89900Y15600
X89900Y20200
X89900Y21700
X88300Y21700
X88300Y20200
X86800Y20200
X88400Y15600
X86800Y15600
X83007Y58979
X83007Y56794
X79400Y37300
X79400Y30200
X47400Y55900
X39000Y47500
X33400Y30300
X50900Y55900
X53300Y55900
X25171Y37592
X29051Y58100
X13900Y48087
T8
X51800Y54400
X67900Y54400
X54200Y34800
X34631Y28781
X51900Y38200
X39929Y34392
X52680Y30963
X78200Y46200
X52600Y44200
X50800Y43500
X50400Y36800
X51900Y34800
X50600Y34800
X49800Y34800
X49027Y34800
X48300Y34800
X47500Y34800
X44532Y34622
X43655Y34648
X44051Y35918
T9
X53200Y30200
X65200Y47700
X74900Y46200
X67000Y39600
X41025Y40308
X45900Y40300
X53900Y36800
X53400Y34800
X51600Y31194
X51500Y36800
X40100Y33300
X64400Y48400
X51200Y38800
X48590Y36830
X47819Y36919
X47092Y36728
X45406Y34648
X50800Y47763
X83900Y52273
X82786Y50986
X70485Y59309
X67234Y56058
X64059Y49174
X55448Y44374
X64846Y55651
X62865Y48565
X54432Y46660
X83700Y48200
X52700Y47000
X50800Y47036
X83200Y49400
X52100Y47800
X83300Y51500
X51600Y47100
X83900Y53000
X74400Y48700
X63400Y39600
X88900Y32000
X88500Y34000
X55300Y46360
X55300Y41400
X64364Y56236
X62343Y49086
X54458Y47600
X53953Y43553
X53500Y47600
X83700Y47473
X54100Y49800
X82403Y49503
X53103Y50409
X51947Y50953
M30