M48
;GenerationSoftware,Autodesk,EAGLE,9.0.0*%
;CreationDate,2018-08-23T05:20:41Z*%
FMAT,2
ICI,OFF
METRIC,TZ,000.000
T8C0.254
T7C0.300
T6C0.400
T5C1.000
T4C1.016
T3C1.414
T2C1.500
T1C1.600
%
G90
M71
T1
X48210Y60850
X43510Y60850
X38810Y60850
T2
X50115Y70380
X36905Y70380
T3
X96700Y44575
X96700Y55425
T4
X63210Y19520
X60670Y16980
X73370Y16980
X70830Y16980
X68290Y16980
X65750Y16980
X63210Y16980
X60670Y19520
X58130Y19520
X55590Y19520
X53050Y19520
X47970Y19520
X50510Y19520
X45430Y19520
X58130Y16980
X55590Y16980
X53050Y16980
X50510Y16980
X47970Y16980
X45430Y16980
X42890Y19520
X42890Y16980
X40350Y19520
X37810Y19520
X35270Y19520
X32730Y19520
X30190Y19520
X27650Y19520
X40350Y16980
X37810Y16980
X35270Y16980
X32730Y16980
X30190Y16980
X27650Y16980
X13770Y19610
X13770Y22150
X13770Y24690
X13770Y27230
X13770Y29770
X75910Y16980
X13770Y17070
X75910Y19520
X73370Y19520
X70830Y19520
X68290Y19520
X65750Y19520
T5
X21820Y62630
X18820Y67430
X24920Y67430
T6
X86800Y20200
X44800Y51000
X52900Y69300
X52900Y70300
X52900Y68200
X73100Y62500
X45700Y51000
X86800Y21700
X91300Y21700
X91300Y20200
X91300Y15600
X89900Y15600
X89900Y20200
X89900Y21700
X88300Y21700
X88300Y20200
X33100Y47500
X88400Y15600
X86800Y15600
X79400Y37300
X79400Y30200
X47400Y55900
X39000Y47500
X33400Y30300
X50900Y55900
X53300Y55900
X29100Y51600
X29000Y58100
X13900Y41000
X87700Y53300
X93700Y36400
X87500Y46000
X87500Y41900
T7
X51800Y54400
X52600Y44200
X50800Y43500
X51900Y34800
X50600Y34800
X78200Y46200
X49800Y34800
X45700Y34800
X49027Y34800
X48300Y34800
X47500Y34800
X54200Y34800
X39000Y31600
X51900Y38200
X50400Y36800
X44900Y34800
X44000Y34800
X67900Y54400
T8
X41000Y39800
X45900Y40300
X53900Y36800
X53400Y34800
X51600Y31600
X51500Y36800
X40100Y33300
X64400Y48400
X51200Y38800
X46600Y34800
X67000Y39600
X53200Y30200
X65200Y47700
X83700Y48200
X52700Y47000
X83200Y49400
X52100Y47800
X83300Y51500
X51600Y47100
X50800Y47036
X83900Y53000
X74400Y48700
X63400Y39600
X74900Y46200
X88500Y34000
X55300Y47300
X55300Y41400
X53953Y43553
X53500Y47600
X83700Y47473
X88900Y32000
X82403Y49503
X53103Y50409
X51947Y50953
X82786Y50986
X83900Y52273
X50800Y47763
X54100Y49800
M30