G04 EAGLE Gerber X2 export*
%TF.Part,Single*%
%TF.FileFunction,Other,Bottom Layer Cooper*%
%TF.FilePolarity,Positive*%
%TF.GenerationSoftware,Autodesk,EAGLE,9.0.0*%
%TF.CreationDate,2018-08-23T05:20:42Z*%
G75*
%MOMM*%
%FSLAX34Y34*%
%LPD*%
%AMOC8*
5,1,8,0,0,1.08239X$1,22.5*%
G01*
%ADD10C,0.000000*%
%ADD11C,2.000000*%
%ADD12C,2.400000*%
%ADD13C,2.250000*%
%ADD14C,2.121000*%
%ADD15C,1.879600*%
%ADD16P,1.649562X8X22.500000*%
%ADD17C,0.600000*%
%ADD18C,0.127000*%
%ADD19C,0.406400*%
%ADD20C,0.200000*%
%ADD21C,0.609600*%
%ADD22C,0.800000*%

G36*
X917000Y144074D02*
X917000Y144074D01*
X917064Y144073D01*
X917139Y144094D01*
X917215Y144105D01*
X917274Y144131D01*
X917336Y144148D01*
X917402Y144189D01*
X917472Y144221D01*
X917521Y144263D01*
X917576Y144296D01*
X917628Y144354D01*
X917686Y144404D01*
X917722Y144458D01*
X917765Y144506D01*
X917798Y144575D01*
X917841Y144640D01*
X917860Y144702D01*
X917888Y144759D01*
X917899Y144829D01*
X917923Y144910D01*
X917924Y144995D01*
X917935Y145064D01*
X917935Y239684D01*
X920316Y242065D01*
X994936Y242065D01*
X995000Y242074D01*
X995064Y242073D01*
X995139Y242094D01*
X995215Y242105D01*
X995274Y242131D01*
X995336Y242148D01*
X995402Y242189D01*
X995472Y242221D01*
X995521Y242263D01*
X995576Y242296D01*
X995628Y242354D01*
X995686Y242404D01*
X995722Y242458D01*
X995765Y242506D01*
X995798Y242575D01*
X995841Y242640D01*
X995860Y242702D01*
X995888Y242759D01*
X995899Y242829D01*
X995923Y242910D01*
X995924Y242995D01*
X995935Y243064D01*
X995935Y714936D01*
X995926Y715000D01*
X995927Y715064D01*
X995906Y715139D01*
X995895Y715215D01*
X995869Y715274D01*
X995852Y715336D01*
X995811Y715402D01*
X995779Y715472D01*
X995737Y715521D01*
X995704Y715576D01*
X995646Y715628D01*
X995596Y715686D01*
X995542Y715722D01*
X995494Y715765D01*
X995425Y715798D01*
X995360Y715841D01*
X995298Y715860D01*
X995241Y715888D01*
X995171Y715899D01*
X995090Y715923D01*
X995005Y715924D01*
X994936Y715935D01*
X513085Y715935D01*
X513053Y715931D01*
X513021Y715933D01*
X512914Y715911D01*
X512806Y715895D01*
X512777Y715882D01*
X512745Y715876D01*
X512649Y715824D01*
X512549Y715779D01*
X512525Y715758D01*
X512496Y715743D01*
X512418Y715667D01*
X512335Y715596D01*
X512317Y715569D01*
X512294Y715546D01*
X512240Y715451D01*
X512181Y715360D01*
X512171Y715329D01*
X512155Y715301D01*
X512130Y715195D01*
X512098Y715090D01*
X512098Y715058D01*
X512090Y715027D01*
X512096Y714917D01*
X512094Y714808D01*
X512103Y714777D01*
X512105Y714745D01*
X512140Y714642D01*
X512170Y714536D01*
X512187Y714509D01*
X512197Y714478D01*
X512250Y714405D01*
X512318Y714296D01*
X512354Y714264D01*
X512379Y714229D01*
X514133Y712475D01*
X516465Y706846D01*
X516465Y700754D01*
X514133Y695125D01*
X509825Y690817D01*
X504196Y688485D01*
X498104Y688485D01*
X492475Y690817D01*
X488167Y695125D01*
X485835Y700754D01*
X485835Y706846D01*
X488167Y712475D01*
X489921Y714229D01*
X489940Y714255D01*
X489965Y714276D01*
X490025Y714368D01*
X490090Y714455D01*
X490102Y714485D01*
X490119Y714512D01*
X490151Y714617D01*
X490190Y714719D01*
X490192Y714751D01*
X490202Y714782D01*
X490203Y714891D01*
X490212Y715000D01*
X490205Y715032D01*
X490206Y715064D01*
X490176Y715169D01*
X490154Y715276D01*
X490139Y715305D01*
X490130Y715336D01*
X490073Y715429D01*
X490022Y715525D01*
X489999Y715548D01*
X489982Y715576D01*
X489901Y715649D01*
X489825Y715727D01*
X489797Y715743D01*
X489773Y715765D01*
X489675Y715812D01*
X489580Y715866D01*
X489548Y715874D01*
X489519Y715888D01*
X489430Y715902D01*
X489305Y715931D01*
X489257Y715929D01*
X489215Y715935D01*
X380985Y715935D01*
X380953Y715931D01*
X380921Y715933D01*
X380814Y715911D01*
X380706Y715895D01*
X380677Y715882D01*
X380645Y715876D01*
X380549Y715824D01*
X380449Y715779D01*
X380425Y715758D01*
X380396Y715743D01*
X380318Y715667D01*
X380235Y715596D01*
X380217Y715569D01*
X380194Y715546D01*
X380140Y715451D01*
X380081Y715360D01*
X380071Y715329D01*
X380055Y715301D01*
X380030Y715195D01*
X379998Y715090D01*
X379998Y715058D01*
X379990Y715027D01*
X379996Y714917D01*
X379994Y714808D01*
X380003Y714777D01*
X380005Y714745D01*
X380040Y714642D01*
X380070Y714536D01*
X380087Y714509D01*
X380097Y714478D01*
X380150Y714405D01*
X380218Y714296D01*
X380254Y714264D01*
X380279Y714229D01*
X382033Y712475D01*
X384365Y706846D01*
X384365Y700754D01*
X382033Y695125D01*
X377725Y690817D01*
X372096Y688485D01*
X366004Y688485D01*
X360375Y690817D01*
X356067Y695125D01*
X353735Y700754D01*
X353735Y706846D01*
X356067Y712475D01*
X357821Y714229D01*
X357840Y714255D01*
X357865Y714276D01*
X357925Y714368D01*
X357990Y714455D01*
X358002Y714485D01*
X358019Y714512D01*
X358051Y714617D01*
X358090Y714719D01*
X358092Y714751D01*
X358102Y714782D01*
X358103Y714891D01*
X358112Y715000D01*
X358105Y715032D01*
X358106Y715064D01*
X358076Y715169D01*
X358054Y715276D01*
X358039Y715305D01*
X358030Y715336D01*
X357973Y715429D01*
X357922Y715525D01*
X357899Y715548D01*
X357882Y715576D01*
X357801Y715649D01*
X357725Y715727D01*
X357697Y715743D01*
X357673Y715765D01*
X357575Y715812D01*
X357480Y715866D01*
X357448Y715874D01*
X357419Y715888D01*
X357330Y715902D01*
X357205Y715931D01*
X357157Y715929D01*
X357115Y715935D01*
X115064Y715935D01*
X115000Y715926D01*
X114936Y715927D01*
X114861Y715906D01*
X114785Y715895D01*
X114726Y715869D01*
X114664Y715852D01*
X114598Y715811D01*
X114528Y715779D01*
X114479Y715737D01*
X114424Y715704D01*
X114372Y715646D01*
X114314Y715596D01*
X114278Y715542D01*
X114235Y715494D01*
X114202Y715425D01*
X114159Y715360D01*
X114140Y715298D01*
X114112Y715241D01*
X114101Y715171D01*
X114077Y715090D01*
X114076Y715005D01*
X114065Y714936D01*
X114065Y145064D01*
X114074Y145000D01*
X114073Y144936D01*
X114094Y144861D01*
X114105Y144785D01*
X114131Y144726D01*
X114148Y144664D01*
X114189Y144598D01*
X114221Y144528D01*
X114263Y144479D01*
X114296Y144424D01*
X114354Y144372D01*
X114404Y144314D01*
X114458Y144278D01*
X114506Y144235D01*
X114575Y144202D01*
X114640Y144159D01*
X114702Y144140D01*
X114759Y144112D01*
X114829Y144101D01*
X114910Y144077D01*
X114995Y144076D01*
X115064Y144065D01*
X916936Y144065D01*
X917000Y144074D01*
G37*
%LPC*%
G36*
X271660Y158115D02*
X271660Y158115D01*
X267381Y162395D01*
X267304Y162452D01*
X267233Y162517D01*
X267192Y162537D01*
X267155Y162564D01*
X267065Y162598D01*
X266979Y162640D01*
X266937Y162646D01*
X266891Y162663D01*
X266764Y162673D01*
X266674Y162687D01*
X264785Y162687D01*
X262171Y163770D01*
X191970Y233971D01*
X190887Y236585D01*
X190887Y401888D01*
X190878Y401950D01*
X190879Y401999D01*
X190879Y402000D01*
X190879Y402016D01*
X190858Y402091D01*
X190847Y402167D01*
X190821Y402226D01*
X190804Y402288D01*
X190763Y402354D01*
X190731Y402424D01*
X190689Y402473D01*
X190656Y402528D01*
X190598Y402580D01*
X190548Y402638D01*
X190494Y402674D01*
X190446Y402717D01*
X190377Y402750D01*
X190312Y402793D01*
X190250Y402812D01*
X190193Y402840D01*
X190123Y402851D01*
X190042Y402875D01*
X189957Y402876D01*
X189888Y402887D01*
X143101Y402887D01*
X143060Y402881D01*
X143018Y402884D01*
X142935Y402864D01*
X142822Y402847D01*
X142787Y402831D01*
X142782Y402831D01*
X142761Y402821D01*
X142719Y402811D01*
X140604Y401935D01*
X137396Y401935D01*
X134432Y403163D01*
X132163Y405432D01*
X130935Y408396D01*
X130935Y411604D01*
X132163Y414568D01*
X134432Y416837D01*
X137396Y418065D01*
X140604Y418065D01*
X142719Y417189D01*
X142759Y417178D01*
X142797Y417160D01*
X142882Y417147D01*
X142992Y417119D01*
X143051Y417121D01*
X143101Y417113D01*
X194640Y417113D01*
X194735Y417126D01*
X194831Y417131D01*
X194874Y417146D01*
X194919Y417153D01*
X195007Y417192D01*
X195097Y417224D01*
X195132Y417249D01*
X195176Y417269D01*
X195273Y417352D01*
X195346Y417405D01*
X226971Y449030D01*
X229585Y450113D01*
X279640Y450113D01*
X279735Y450126D01*
X279831Y450131D01*
X279874Y450146D01*
X279919Y450153D01*
X280007Y450192D01*
X280097Y450224D01*
X280132Y450249D01*
X280176Y450269D01*
X280273Y450352D01*
X280346Y450405D01*
X283595Y453654D01*
X283652Y453730D01*
X283717Y453802D01*
X283737Y453843D01*
X283764Y453879D01*
X283798Y453969D01*
X283840Y454056D01*
X283846Y454098D01*
X283863Y454143D01*
X283873Y454271D01*
X283887Y454360D01*
X283887Y511899D01*
X283881Y511940D01*
X283884Y511982D01*
X283864Y512065D01*
X283847Y512178D01*
X283823Y512231D01*
X283811Y512281D01*
X282935Y514396D01*
X282935Y517604D01*
X283811Y519719D01*
X283822Y519759D01*
X283840Y519797D01*
X283853Y519882D01*
X283881Y519992D01*
X283879Y520051D01*
X283887Y520101D01*
X283887Y575294D01*
X283874Y575389D01*
X283869Y575485D01*
X283854Y575528D01*
X283847Y575573D01*
X283808Y575660D01*
X283776Y575751D01*
X283751Y575786D01*
X283731Y575830D01*
X283648Y575927D01*
X283595Y576000D01*
X283163Y576432D01*
X281935Y579396D01*
X281935Y582604D01*
X283163Y585568D01*
X285432Y587837D01*
X288396Y589065D01*
X291604Y589065D01*
X294568Y587837D01*
X296837Y585568D01*
X298092Y582538D01*
X298105Y582450D01*
X298113Y582432D01*
X298113Y520101D01*
X298119Y520060D01*
X298116Y520018D01*
X298136Y519935D01*
X298153Y519822D01*
X298177Y519769D01*
X298189Y519719D01*
X299065Y517604D01*
X299065Y514396D01*
X298189Y512281D01*
X298178Y512241D01*
X298160Y512203D01*
X298147Y512118D01*
X298119Y512008D01*
X298121Y511949D01*
X298113Y511899D01*
X298113Y449585D01*
X297030Y446971D01*
X287029Y436970D01*
X284415Y435887D01*
X234360Y435887D01*
X234265Y435874D01*
X234169Y435869D01*
X234126Y435854D01*
X234081Y435847D01*
X233993Y435808D01*
X233903Y435776D01*
X233868Y435751D01*
X233824Y435731D01*
X233727Y435648D01*
X233654Y435595D01*
X205405Y407346D01*
X205348Y407270D01*
X205283Y407198D01*
X205263Y407157D01*
X205236Y407121D01*
X205202Y407031D01*
X205160Y406944D01*
X205154Y406902D01*
X205137Y406857D01*
X205127Y406729D01*
X205113Y406640D01*
X205113Y241360D01*
X205126Y241265D01*
X205131Y241169D01*
X205146Y241126D01*
X205153Y241081D01*
X205192Y240993D01*
X205224Y240903D01*
X205249Y240868D01*
X205269Y240824D01*
X205352Y240727D01*
X205405Y240654D01*
X267411Y178648D01*
X267462Y178610D01*
X267507Y178564D01*
X267574Y178526D01*
X267636Y178479D01*
X267696Y178456D01*
X267752Y178425D01*
X267828Y178407D01*
X267900Y178380D01*
X267964Y178375D01*
X268027Y178360D01*
X268104Y178364D01*
X268181Y178358D01*
X268244Y178371D01*
X268308Y178374D01*
X268382Y178400D01*
X268457Y178415D01*
X268514Y178446D01*
X268575Y178467D01*
X268631Y178508D01*
X268706Y178548D01*
X268767Y178607D01*
X268824Y178648D01*
X271660Y181485D01*
X281340Y181485D01*
X285619Y177205D01*
X285696Y177148D01*
X285767Y177083D01*
X285808Y177063D01*
X285845Y177036D01*
X285935Y177002D01*
X286021Y176960D01*
X286063Y176954D01*
X286109Y176937D01*
X286236Y176927D01*
X286326Y176913D01*
X292074Y176913D01*
X292169Y176926D01*
X292265Y176931D01*
X292308Y176946D01*
X292353Y176953D01*
X292441Y176992D01*
X292532Y177024D01*
X292566Y177049D01*
X292610Y177069D01*
X292708Y177152D01*
X292781Y177205D01*
X297060Y181485D01*
X306740Y181485D01*
X308594Y179630D01*
X308620Y179611D01*
X308641Y179586D01*
X308733Y179526D01*
X308820Y179461D01*
X308850Y179450D01*
X308877Y179432D01*
X308982Y179400D01*
X309084Y179361D01*
X309116Y179359D01*
X309147Y179350D01*
X309256Y179348D01*
X309365Y179340D01*
X309397Y179346D01*
X309429Y179346D01*
X309534Y179375D01*
X309641Y179397D01*
X309670Y179412D01*
X309701Y179421D01*
X309794Y179478D01*
X309890Y179530D01*
X309913Y179552D01*
X309941Y179569D01*
X310014Y179650D01*
X310092Y179726D01*
X310108Y179754D01*
X310130Y179778D01*
X310177Y179877D01*
X310231Y179972D01*
X310239Y180003D01*
X310253Y180032D01*
X310267Y180121D01*
X310296Y180246D01*
X310294Y180295D01*
X310300Y180337D01*
X310300Y184663D01*
X310296Y184695D01*
X310298Y184727D01*
X310276Y184834D01*
X310260Y184942D01*
X310247Y184972D01*
X310241Y185003D01*
X310189Y185100D01*
X310144Y185199D01*
X310123Y185224D01*
X310108Y185252D01*
X310032Y185331D01*
X309961Y185414D01*
X309934Y185431D01*
X309911Y185454D01*
X309816Y185508D01*
X309725Y185568D01*
X309694Y185578D01*
X309666Y185593D01*
X309560Y185619D01*
X309455Y185650D01*
X309423Y185651D01*
X309392Y185658D01*
X309282Y185653D01*
X309173Y185654D01*
X309142Y185646D01*
X309110Y185644D01*
X309007Y185608D01*
X308901Y185579D01*
X308874Y185562D01*
X308843Y185552D01*
X308770Y185498D01*
X308661Y185431D01*
X308629Y185395D01*
X308594Y185370D01*
X306740Y183515D01*
X297060Y183515D01*
X292781Y187795D01*
X292704Y187852D01*
X292633Y187917D01*
X292592Y187937D01*
X292555Y187964D01*
X292465Y187998D01*
X292379Y188040D01*
X292337Y188046D01*
X292291Y188063D01*
X292164Y188073D01*
X292074Y188087D01*
X286326Y188087D01*
X286231Y188074D01*
X286135Y188069D01*
X286092Y188054D01*
X286047Y188047D01*
X285959Y188008D01*
X285868Y187976D01*
X285834Y187951D01*
X285790Y187931D01*
X285692Y187848D01*
X285619Y187795D01*
X281340Y183515D01*
X271660Y183515D01*
X264815Y190360D01*
X264815Y200040D01*
X269095Y204319D01*
X269112Y204342D01*
X269132Y204359D01*
X269165Y204410D01*
X269217Y204467D01*
X269237Y204508D01*
X269264Y204545D01*
X269278Y204584D01*
X269286Y204595D01*
X269299Y204637D01*
X269340Y204721D01*
X269346Y204763D01*
X269363Y204809D01*
X269368Y204862D01*
X269368Y204865D01*
X269369Y204875D01*
X269373Y204936D01*
X269387Y205026D01*
X269387Y246915D01*
X270470Y249529D01*
X326070Y305129D01*
X326095Y305163D01*
X326127Y305190D01*
X326171Y305264D01*
X326240Y305355D01*
X326261Y305410D01*
X326287Y305454D01*
X327163Y307568D01*
X329432Y309837D01*
X331546Y310713D01*
X331582Y310734D01*
X331622Y310748D01*
X331691Y310799D01*
X331789Y310857D01*
X331829Y310899D01*
X331871Y310930D01*
X382595Y361654D01*
X382652Y361730D01*
X382717Y361802D01*
X382737Y361843D01*
X382764Y361879D01*
X382798Y361969D01*
X382840Y362056D01*
X382846Y362098D01*
X382863Y362143D01*
X382873Y362271D01*
X382887Y362360D01*
X382887Y470899D01*
X382881Y470940D01*
X382884Y470982D01*
X382864Y471065D01*
X382847Y471178D01*
X382823Y471231D01*
X382811Y471281D01*
X381935Y473396D01*
X381935Y476604D01*
X383163Y479568D01*
X385432Y481837D01*
X388396Y483065D01*
X391604Y483065D01*
X394568Y481837D01*
X396837Y479568D01*
X398065Y476604D01*
X398065Y473396D01*
X397189Y471281D01*
X397178Y471241D01*
X397160Y471203D01*
X397147Y471118D01*
X397119Y471008D01*
X397121Y470949D01*
X397113Y470899D01*
X397113Y357585D01*
X396030Y354971D01*
X341930Y300871D01*
X341905Y300837D01*
X341873Y300810D01*
X341829Y300736D01*
X341760Y300645D01*
X341739Y300590D01*
X341713Y300546D01*
X340837Y298432D01*
X338568Y296163D01*
X336454Y295287D01*
X336418Y295266D01*
X336378Y295252D01*
X336309Y295201D01*
X336211Y295143D01*
X336171Y295101D01*
X336129Y295070D01*
X283905Y242846D01*
X283848Y242770D01*
X283783Y242698D01*
X283763Y242657D01*
X283736Y242621D01*
X283702Y242531D01*
X283660Y242444D01*
X283654Y242402D01*
X283637Y242357D01*
X283627Y242229D01*
X283613Y242140D01*
X283613Y205026D01*
X283626Y204931D01*
X283628Y204898D01*
X283628Y204891D01*
X283628Y204889D01*
X283631Y204835D01*
X283646Y204792D01*
X283653Y204747D01*
X283692Y204660D01*
X283703Y204619D01*
X283710Y204608D01*
X283724Y204568D01*
X283749Y204534D01*
X283769Y204490D01*
X283820Y204430D01*
X283851Y204379D01*
X283882Y204352D01*
X283905Y204319D01*
X285619Y202605D01*
X285696Y202548D01*
X285767Y202483D01*
X285808Y202463D01*
X285845Y202436D01*
X285935Y202402D01*
X286021Y202360D01*
X286063Y202354D01*
X286109Y202337D01*
X286236Y202327D01*
X286326Y202313D01*
X292074Y202313D01*
X292169Y202326D01*
X292265Y202331D01*
X292308Y202346D01*
X292353Y202353D01*
X292441Y202392D01*
X292532Y202424D01*
X292566Y202449D01*
X292610Y202469D01*
X292708Y202552D01*
X292781Y202605D01*
X297060Y206885D01*
X306740Y206885D01*
X308594Y205030D01*
X308620Y205011D01*
X308641Y204986D01*
X308733Y204926D01*
X308820Y204861D01*
X308850Y204850D01*
X308877Y204832D01*
X308982Y204800D01*
X309084Y204761D01*
X309116Y204759D01*
X309147Y204750D01*
X309256Y204748D01*
X309365Y204740D01*
X309397Y204746D01*
X309429Y204746D01*
X309534Y204775D01*
X309641Y204797D01*
X309670Y204812D01*
X309701Y204821D01*
X309794Y204878D01*
X309890Y204930D01*
X309913Y204952D01*
X309941Y204969D01*
X310014Y205050D01*
X310092Y205126D01*
X310108Y205154D01*
X310130Y205178D01*
X310177Y205277D01*
X310231Y205372D01*
X310239Y205403D01*
X310253Y205432D01*
X310267Y205521D01*
X310296Y205646D01*
X310294Y205695D01*
X310300Y205737D01*
X310300Y224947D01*
X313346Y227992D01*
X392776Y307422D01*
X392828Y307491D01*
X392887Y307555D01*
X392912Y307604D01*
X392945Y307648D01*
X392976Y307729D01*
X393015Y307806D01*
X393025Y307860D01*
X393044Y307912D01*
X393051Y307998D01*
X393067Y308083D01*
X393062Y308138D01*
X393066Y308193D01*
X393049Y308278D01*
X393040Y308364D01*
X393020Y308415D01*
X393009Y308469D01*
X392968Y308545D01*
X392936Y308626D01*
X392902Y308669D01*
X392876Y308718D01*
X392816Y308780D01*
X392762Y308848D01*
X392718Y308881D01*
X392679Y308920D01*
X392604Y308963D01*
X392534Y309013D01*
X392482Y309032D01*
X392434Y309059D01*
X392349Y309079D01*
X392268Y309108D01*
X392213Y309111D01*
X392160Y309124D01*
X392073Y309119D01*
X391986Y309124D01*
X391937Y309112D01*
X391878Y309109D01*
X391770Y309072D01*
X391687Y309052D01*
X391405Y308935D01*
X388595Y308935D01*
X385998Y310011D01*
X384011Y311998D01*
X382935Y314595D01*
X382935Y317405D01*
X384011Y320002D01*
X384643Y320634D01*
X384700Y320710D01*
X384765Y320782D01*
X384785Y320823D01*
X384812Y320859D01*
X384846Y320949D01*
X384888Y321036D01*
X384894Y321078D01*
X384911Y321123D01*
X384921Y321251D01*
X384935Y321340D01*
X384935Y338098D01*
X433902Y387065D01*
X503936Y387065D01*
X504000Y387074D01*
X504064Y387073D01*
X504139Y387094D01*
X504215Y387105D01*
X504274Y387131D01*
X504336Y387148D01*
X504402Y387189D01*
X504472Y387221D01*
X504521Y387263D01*
X504576Y387296D01*
X504628Y387354D01*
X504686Y387404D01*
X504722Y387458D01*
X504765Y387506D01*
X504798Y387575D01*
X504841Y387640D01*
X504860Y387702D01*
X504888Y387759D01*
X504899Y387829D01*
X504923Y387910D01*
X504924Y387995D01*
X504935Y388064D01*
X504935Y389405D01*
X506011Y392002D01*
X507998Y393989D01*
X510595Y395065D01*
X512004Y395065D01*
X512099Y395078D01*
X512196Y395083D01*
X512239Y395098D01*
X512284Y395105D01*
X512371Y395144D01*
X512462Y395176D01*
X512496Y395201D01*
X512541Y395221D01*
X512638Y395304D01*
X512711Y395357D01*
X525053Y407700D01*
X546897Y407700D01*
X546929Y407704D01*
X546961Y407702D01*
X547068Y407724D01*
X547176Y407740D01*
X547205Y407753D01*
X547237Y407759D01*
X547333Y407811D01*
X547433Y407856D01*
X547457Y407877D01*
X547486Y407892D01*
X547564Y407968D01*
X547647Y408039D01*
X547665Y408066D01*
X547688Y408089D01*
X547742Y408183D01*
X547802Y408275D01*
X547811Y408306D01*
X547827Y408334D01*
X547852Y408440D01*
X547884Y408545D01*
X547885Y408577D01*
X547892Y408608D01*
X547886Y408718D01*
X547888Y408827D01*
X547879Y408858D01*
X547878Y408890D01*
X547842Y408993D01*
X547813Y409099D01*
X547796Y409126D01*
X547785Y409157D01*
X547732Y409230D01*
X547665Y409339D01*
X547629Y409371D01*
X547603Y409406D01*
X547011Y409998D01*
X545935Y412595D01*
X545935Y415405D01*
X547011Y418002D01*
X548008Y418999D01*
X548065Y419075D01*
X548130Y419147D01*
X548150Y419188D01*
X548177Y419224D01*
X548211Y419314D01*
X548253Y419401D01*
X548259Y419443D01*
X548276Y419488D01*
X548286Y419616D01*
X548300Y419705D01*
X548300Y433216D01*
X548288Y433302D01*
X548285Y433389D01*
X548268Y433441D01*
X548260Y433496D01*
X548225Y433575D01*
X548198Y433657D01*
X548167Y433703D01*
X548144Y433753D01*
X548088Y433819D01*
X548039Y433890D01*
X547997Y433925D01*
X547961Y433967D01*
X547888Y434014D01*
X547821Y434070D01*
X547771Y434091D01*
X547725Y434121D01*
X547642Y434147D01*
X547562Y434181D01*
X547508Y434188D01*
X547455Y434204D01*
X547368Y434205D01*
X547282Y434216D01*
X547228Y434207D01*
X547173Y434207D01*
X547089Y434184D01*
X547004Y434170D01*
X546954Y434147D01*
X546901Y434132D01*
X546827Y434087D01*
X546749Y434049D01*
X546708Y434013D01*
X546661Y433984D01*
X546603Y433920D01*
X546538Y433862D01*
X546512Y433818D01*
X546472Y433775D01*
X546423Y433672D01*
X546378Y433599D01*
X545521Y431530D01*
X543534Y429542D01*
X540937Y428467D01*
X538126Y428467D01*
X535530Y429542D01*
X533542Y431530D01*
X532467Y434126D01*
X532467Y436473D01*
X532453Y436568D01*
X532448Y436664D01*
X532433Y436707D01*
X532427Y436752D01*
X532388Y436839D01*
X532356Y436930D01*
X532331Y436965D01*
X532311Y437009D01*
X532228Y437106D01*
X532174Y437179D01*
X530300Y439053D01*
X530300Y462225D01*
X530284Y462342D01*
X530272Y462460D01*
X530264Y462481D01*
X530260Y462504D01*
X530212Y462612D01*
X530168Y462722D01*
X530154Y462740D01*
X530144Y462761D01*
X530067Y462851D01*
X529994Y462944D01*
X529976Y462958D01*
X529961Y462975D01*
X529862Y463040D01*
X529765Y463109D01*
X529744Y463117D01*
X529725Y463130D01*
X529611Y463164D01*
X529500Y463204D01*
X529477Y463205D01*
X529455Y463212D01*
X529337Y463214D01*
X529218Y463221D01*
X529197Y463215D01*
X529173Y463216D01*
X528993Y463166D01*
X528919Y463148D01*
X528405Y462935D01*
X525595Y462935D01*
X522998Y464011D01*
X521707Y465302D01*
X521655Y465341D01*
X521610Y465387D01*
X521543Y465425D01*
X521481Y465472D01*
X521421Y465494D01*
X521365Y465526D01*
X521290Y465544D01*
X521217Y465571D01*
X521153Y465576D01*
X521090Y465591D01*
X521013Y465587D01*
X520936Y465593D01*
X520873Y465580D01*
X520809Y465577D01*
X520736Y465551D01*
X520660Y465535D01*
X520603Y465505D01*
X520542Y465484D01*
X520486Y465443D01*
X520411Y465403D01*
X520350Y465344D01*
X520293Y465302D01*
X520002Y465011D01*
X517405Y463935D01*
X514595Y463935D01*
X513067Y464568D01*
X513057Y464571D01*
X513049Y464575D01*
X512921Y464606D01*
X512793Y464638D01*
X512784Y464638D01*
X512775Y464640D01*
X512642Y464633D01*
X512512Y464629D01*
X512503Y464626D01*
X512493Y464626D01*
X512369Y464583D01*
X512243Y464542D01*
X512236Y464536D01*
X512227Y464533D01*
X512165Y464488D01*
X512010Y464383D01*
X512006Y464377D01*
X509405Y463300D01*
X506595Y463300D01*
X503998Y464376D01*
X502011Y466363D01*
X501515Y467561D01*
X501491Y467600D01*
X501478Y467639D01*
X501074Y468418D01*
X500910Y468647D01*
X500900Y468655D01*
X500894Y468664D01*
X494076Y475482D01*
X491030Y478527D01*
X491030Y524473D01*
X507257Y540700D01*
X510225Y540700D01*
X510342Y540716D01*
X510460Y540728D01*
X510481Y540736D01*
X510504Y540740D01*
X510612Y540788D01*
X510722Y540832D01*
X510740Y540846D01*
X510761Y540856D01*
X510851Y540933D01*
X510944Y541006D01*
X510958Y541024D01*
X510975Y541039D01*
X511040Y541139D01*
X511109Y541235D01*
X511117Y541256D01*
X511130Y541275D01*
X511164Y541389D01*
X511204Y541500D01*
X511205Y541523D01*
X511212Y541545D01*
X511214Y541663D01*
X511221Y541782D01*
X511215Y541803D01*
X511216Y541827D01*
X511166Y542006D01*
X511148Y542081D01*
X510935Y542595D01*
X510935Y545405D01*
X511949Y547854D01*
X511979Y547968D01*
X512014Y548082D01*
X512014Y548105D01*
X512019Y548127D01*
X512016Y548245D01*
X512017Y548364D01*
X512011Y548386D01*
X512010Y548409D01*
X511974Y548521D01*
X511942Y548636D01*
X511930Y548655D01*
X511923Y548677D01*
X511856Y548775D01*
X511794Y548876D01*
X511777Y548891D01*
X511764Y548910D01*
X511673Y548985D01*
X511585Y549065D01*
X511564Y549075D01*
X511546Y549089D01*
X511437Y549136D01*
X511331Y549188D01*
X511309Y549191D01*
X511287Y549201D01*
X511103Y549223D01*
X511026Y549235D01*
X468812Y549235D01*
X468717Y549222D01*
X468621Y549217D01*
X468578Y549202D01*
X468533Y549195D01*
X468445Y549156D01*
X468354Y549124D01*
X468320Y549099D01*
X468276Y549079D01*
X468178Y548996D01*
X468105Y548943D01*
X467998Y548835D01*
X463802Y548835D01*
X460835Y551802D01*
X460835Y614698D01*
X471264Y625126D01*
X471272Y625137D01*
X471282Y625145D01*
X472726Y626665D01*
X474822Y626665D01*
X474836Y626667D01*
X474848Y626665D01*
X489962Y627053D01*
X490034Y627065D01*
X490096Y627065D01*
X491764Y627334D01*
X491806Y627304D01*
X491831Y627291D01*
X491854Y627272D01*
X491956Y627225D01*
X492055Y627173D01*
X492084Y627167D01*
X492111Y627155D01*
X492201Y627143D01*
X492332Y627117D01*
X492377Y627121D01*
X492416Y627116D01*
X492467Y627117D01*
X493693Y625953D01*
X493752Y625911D01*
X493796Y625867D01*
X536277Y595192D01*
X536333Y595162D01*
X536383Y595125D01*
X536450Y595101D01*
X536527Y595061D01*
X536608Y595044D01*
X536674Y595021D01*
X537416Y594878D01*
X537992Y594028D01*
X538005Y594013D01*
X538015Y593996D01*
X538079Y593932D01*
X538181Y593820D01*
X538211Y593801D01*
X538234Y593779D01*
X539066Y593178D01*
X539186Y592432D01*
X539205Y592371D01*
X539214Y592309D01*
X539244Y592245D01*
X539270Y592162D01*
X539316Y592093D01*
X539346Y592030D01*
X556769Y566319D01*
X556841Y566240D01*
X556890Y566173D01*
X557965Y565098D01*
X557965Y564861D01*
X557965Y564860D01*
X557965Y564858D01*
X557986Y564715D01*
X558005Y564582D01*
X558005Y564581D01*
X558005Y564579D01*
X558016Y564557D01*
X558121Y564325D01*
X558131Y564313D01*
X558137Y564301D01*
X558270Y564105D01*
X557983Y562611D01*
X557978Y562505D01*
X557965Y562423D01*
X557965Y556912D01*
X557978Y556817D01*
X557983Y556721D01*
X557998Y556678D01*
X558005Y556633D01*
X558044Y556545D01*
X558065Y556486D01*
X558065Y552202D01*
X556268Y550406D01*
X556249Y550380D01*
X556224Y550359D01*
X556164Y550267D01*
X556099Y550180D01*
X556088Y550150D01*
X556070Y550123D01*
X556038Y550018D01*
X555999Y549916D01*
X555997Y549884D01*
X555987Y549853D01*
X555986Y549744D01*
X555978Y549635D01*
X555984Y549603D01*
X555984Y549571D01*
X556013Y549466D01*
X556035Y549359D01*
X556050Y549330D01*
X556059Y549299D01*
X556116Y549206D01*
X556168Y549110D01*
X556190Y549087D01*
X556207Y549059D01*
X556288Y548986D01*
X556364Y548908D01*
X556392Y548892D01*
X556416Y548870D01*
X556515Y548823D01*
X556610Y548769D01*
X556641Y548761D01*
X556670Y548747D01*
X556759Y548733D01*
X556884Y548704D01*
X556933Y548706D01*
X556975Y548700D01*
X673295Y548700D01*
X673390Y548713D01*
X673486Y548718D01*
X673529Y548733D01*
X673574Y548740D01*
X673661Y548779D01*
X673752Y548811D01*
X673787Y548836D01*
X673831Y548856D01*
X673928Y548939D01*
X674001Y548992D01*
X674998Y549989D01*
X677595Y551065D01*
X680405Y551065D01*
X683002Y549989D01*
X684989Y548002D01*
X686065Y545405D01*
X686065Y542595D01*
X685852Y542081D01*
X685823Y541966D01*
X685788Y541853D01*
X685788Y541830D01*
X685782Y541808D01*
X685786Y541690D01*
X685784Y541571D01*
X685790Y541549D01*
X685791Y541526D01*
X685828Y541414D01*
X685859Y541299D01*
X685871Y541280D01*
X685878Y541258D01*
X685945Y541160D01*
X686008Y541059D01*
X686025Y541044D01*
X686037Y541025D01*
X686129Y540950D01*
X686217Y540870D01*
X686237Y540860D01*
X686255Y540846D01*
X686364Y540799D01*
X686471Y540747D01*
X686492Y540744D01*
X686514Y540734D01*
X686699Y540712D01*
X686775Y540700D01*
X834947Y540700D01*
X838289Y537357D01*
X838366Y537300D01*
X838437Y537235D01*
X838478Y537215D01*
X838515Y537188D01*
X838605Y537154D01*
X838691Y537112D01*
X838733Y537106D01*
X838778Y537089D01*
X838906Y537079D01*
X838996Y537065D01*
X840405Y537065D01*
X843002Y535989D01*
X844989Y534002D01*
X846065Y531405D01*
X846065Y528595D01*
X845300Y526747D01*
X845276Y526654D01*
X845243Y526564D01*
X845241Y526518D01*
X845229Y526474D01*
X845233Y526378D01*
X845227Y526282D01*
X845237Y526241D01*
X845239Y526192D01*
X845278Y526071D01*
X845300Y525983D01*
X846065Y524135D01*
X846065Y521325D01*
X844989Y518728D01*
X843002Y516741D01*
X840682Y515780D01*
X840673Y515775D01*
X840664Y515772D01*
X840552Y515703D01*
X840439Y515636D01*
X840432Y515629D01*
X840424Y515624D01*
X840336Y515526D01*
X840246Y515430D01*
X840242Y515422D01*
X840235Y515415D01*
X840178Y515297D01*
X840118Y515179D01*
X840116Y515170D01*
X840112Y515161D01*
X840100Y515085D01*
X840066Y514902D01*
X840068Y514878D01*
X840065Y514857D01*
X840065Y513595D01*
X838989Y510998D01*
X837002Y509011D01*
X835155Y508246D01*
X835072Y508197D01*
X834985Y508155D01*
X834951Y508125D01*
X834912Y508102D01*
X834846Y508032D01*
X834774Y507968D01*
X834752Y507932D01*
X834719Y507896D01*
X834661Y507782D01*
X834614Y507705D01*
X833849Y505857D01*
X831861Y503870D01*
X831062Y503539D01*
X830960Y503479D01*
X830855Y503423D01*
X830838Y503407D01*
X830819Y503395D01*
X830738Y503309D01*
X830653Y503226D01*
X830641Y503206D01*
X830626Y503190D01*
X830572Y503084D01*
X830514Y502981D01*
X830508Y502959D01*
X830498Y502938D01*
X830476Y502822D01*
X830449Y502706D01*
X830450Y502683D01*
X830446Y502661D01*
X830457Y502543D01*
X830463Y502425D01*
X830471Y502403D01*
X830473Y502380D01*
X830517Y502270D01*
X830556Y502158D01*
X830568Y502141D01*
X830577Y502118D01*
X830692Y501971D01*
X830737Y501909D01*
X831289Y501357D01*
X831366Y501300D01*
X831437Y501235D01*
X831478Y501215D01*
X831515Y501188D01*
X831605Y501154D01*
X831691Y501112D01*
X831733Y501106D01*
X831778Y501089D01*
X831906Y501079D01*
X831996Y501065D01*
X833405Y501065D01*
X836002Y499989D01*
X837989Y498002D01*
X839065Y495405D01*
X839065Y492595D01*
X838103Y490272D01*
X838087Y490209D01*
X838061Y490150D01*
X838052Y490074D01*
X838032Y489999D01*
X838035Y489934D01*
X838027Y489870D01*
X838039Y489794D01*
X838041Y489717D01*
X838061Y489655D01*
X838072Y489592D01*
X838105Y489522D01*
X838129Y489448D01*
X838165Y489395D01*
X838193Y489337D01*
X838244Y489279D01*
X838288Y489215D01*
X838337Y489175D01*
X838380Y489127D01*
X838440Y489090D01*
X838505Y489036D01*
X838583Y489003D01*
X838643Y488966D01*
X841002Y487989D01*
X842989Y486002D01*
X844065Y483405D01*
X844065Y480595D01*
X843300Y478747D01*
X843276Y478654D01*
X843243Y478564D01*
X843241Y478518D01*
X843229Y478474D01*
X843233Y478378D01*
X843227Y478282D01*
X843237Y478241D01*
X843239Y478192D01*
X843278Y478071D01*
X843300Y477983D01*
X844065Y476135D01*
X844065Y473325D01*
X842989Y470728D01*
X841002Y468741D01*
X838405Y467665D01*
X835595Y467665D01*
X832998Y468741D01*
X831011Y470728D01*
X829935Y473325D01*
X829935Y473761D01*
X829926Y473825D01*
X829927Y473889D01*
X829906Y473964D01*
X829895Y474040D01*
X829869Y474099D01*
X829852Y474161D01*
X829811Y474227D01*
X829779Y474297D01*
X829737Y474346D01*
X829704Y474401D01*
X829646Y474453D01*
X829596Y474511D01*
X829542Y474547D01*
X829494Y474590D01*
X829425Y474623D01*
X829360Y474666D01*
X829298Y474685D01*
X829241Y474713D01*
X829171Y474724D01*
X829090Y474748D01*
X829005Y474749D01*
X828936Y474760D01*
X826001Y474760D01*
X805294Y495468D01*
X805217Y495525D01*
X805146Y495590D01*
X805105Y495610D01*
X805068Y495637D01*
X804978Y495671D01*
X804892Y495713D01*
X804850Y495719D01*
X804804Y495736D01*
X804677Y495746D01*
X804587Y495760D01*
X746335Y495760D01*
X746249Y495748D01*
X746163Y495745D01*
X746111Y495728D01*
X746056Y495720D01*
X745977Y495685D01*
X745895Y495658D01*
X745849Y495627D01*
X745799Y495604D01*
X745733Y495548D01*
X745662Y495499D01*
X745627Y495457D01*
X745585Y495421D01*
X745537Y495348D01*
X745482Y495281D01*
X745461Y495231D01*
X745431Y495185D01*
X745405Y495102D01*
X745371Y495022D01*
X745364Y494968D01*
X745348Y494915D01*
X745347Y494828D01*
X745336Y494742D01*
X745345Y494688D01*
X745344Y494633D01*
X745368Y494549D01*
X745381Y494464D01*
X745405Y494414D01*
X745420Y494361D01*
X745465Y494288D01*
X745502Y494209D01*
X745539Y494168D01*
X745568Y494121D01*
X745632Y494063D01*
X745690Y493998D01*
X745733Y493972D01*
X745777Y493932D01*
X745879Y493883D01*
X745953Y493838D01*
X748002Y492989D01*
X749989Y491002D01*
X751065Y488405D01*
X751065Y485595D01*
X749989Y482998D01*
X748002Y481011D01*
X745405Y479935D01*
X743996Y479935D01*
X743901Y479922D01*
X743804Y479917D01*
X743761Y479902D01*
X743716Y479895D01*
X743629Y479856D01*
X743538Y479824D01*
X743504Y479799D01*
X743459Y479779D01*
X743362Y479696D01*
X743289Y479643D01*
X668417Y404771D01*
X668398Y404745D01*
X668373Y404724D01*
X668313Y404632D01*
X668248Y404545D01*
X668236Y404515D01*
X668219Y404488D01*
X668187Y404383D01*
X668148Y404281D01*
X668146Y404249D01*
X668136Y404218D01*
X668135Y404109D01*
X668126Y404000D01*
X668133Y403968D01*
X668133Y403936D01*
X668162Y403831D01*
X668184Y403724D01*
X668199Y403695D01*
X668208Y403664D01*
X668265Y403571D01*
X668316Y403475D01*
X668339Y403452D01*
X668356Y403424D01*
X668437Y403351D01*
X668513Y403273D01*
X668541Y403257D01*
X668565Y403235D01*
X668663Y403188D01*
X668759Y403134D01*
X668790Y403126D01*
X668819Y403112D01*
X668908Y403098D01*
X669033Y403069D01*
X669082Y403071D01*
X669124Y403065D01*
X670004Y403065D01*
X670099Y403078D01*
X670196Y403083D01*
X670239Y403098D01*
X670284Y403105D01*
X670371Y403144D01*
X670462Y403176D01*
X670496Y403201D01*
X670541Y403221D01*
X670638Y403304D01*
X670711Y403357D01*
X734053Y466700D01*
X743295Y466700D01*
X743390Y466713D01*
X743486Y466718D01*
X743529Y466733D01*
X743574Y466740D01*
X743661Y466779D01*
X743752Y466811D01*
X743787Y466836D01*
X743831Y466856D01*
X743928Y466939D01*
X744001Y466992D01*
X744998Y467989D01*
X747595Y469065D01*
X750405Y469065D01*
X753002Y467989D01*
X753999Y466992D01*
X754075Y466935D01*
X754147Y466870D01*
X754188Y466850D01*
X754224Y466823D01*
X754314Y466789D01*
X754401Y466747D01*
X754443Y466741D01*
X754488Y466724D01*
X754616Y466714D01*
X754705Y466700D01*
X776295Y466700D01*
X776390Y466713D01*
X776486Y466718D01*
X776529Y466733D01*
X776574Y466740D01*
X776661Y466779D01*
X776752Y466811D01*
X776787Y466836D01*
X776831Y466856D01*
X776928Y466939D01*
X777001Y466992D01*
X777998Y467989D01*
X780595Y469065D01*
X783405Y469065D01*
X786002Y467989D01*
X787989Y466002D01*
X789065Y463405D01*
X789065Y460595D01*
X787989Y457998D01*
X786002Y456011D01*
X783405Y454935D01*
X780595Y454935D01*
X777998Y456011D01*
X777001Y457008D01*
X776925Y457065D01*
X776853Y457130D01*
X776812Y457150D01*
X776776Y457177D01*
X776686Y457211D01*
X776599Y457253D01*
X776557Y457259D01*
X776512Y457276D01*
X776384Y457286D01*
X776295Y457300D01*
X754705Y457300D01*
X754610Y457287D01*
X754514Y457282D01*
X754471Y457267D01*
X754426Y457260D01*
X754339Y457221D01*
X754248Y457189D01*
X754213Y457164D01*
X754169Y457144D01*
X754072Y457061D01*
X753999Y457008D01*
X753002Y456011D01*
X750405Y454935D01*
X747595Y454935D01*
X744998Y456011D01*
X744001Y457008D01*
X743925Y457065D01*
X743853Y457130D01*
X743812Y457150D01*
X743776Y457177D01*
X743686Y457211D01*
X743599Y457253D01*
X743557Y457259D01*
X743512Y457276D01*
X743384Y457286D01*
X743295Y457300D01*
X738361Y457300D01*
X738266Y457287D01*
X738169Y457282D01*
X738126Y457267D01*
X738081Y457260D01*
X737994Y457221D01*
X737903Y457189D01*
X737869Y457164D01*
X737824Y457144D01*
X737727Y457061D01*
X737654Y457008D01*
X677357Y396711D01*
X677300Y396634D01*
X677235Y396563D01*
X677215Y396522D01*
X677188Y396485D01*
X677154Y396395D01*
X677112Y396309D01*
X677106Y396267D01*
X677089Y396222D01*
X677079Y396094D01*
X677065Y396004D01*
X677065Y394595D01*
X675989Y391998D01*
X674002Y390011D01*
X671405Y388935D01*
X668595Y388935D01*
X665998Y390011D01*
X664011Y391998D01*
X662935Y394595D01*
X662935Y396876D01*
X662931Y396908D01*
X662933Y396941D01*
X662927Y396972D01*
X662927Y397003D01*
X662907Y397076D01*
X662895Y397156D01*
X662882Y397185D01*
X662876Y397217D01*
X662860Y397247D01*
X662852Y397275D01*
X662814Y397337D01*
X662779Y397413D01*
X662758Y397437D01*
X662743Y397466D01*
X662718Y397491D01*
X662704Y397515D01*
X662652Y397562D01*
X662596Y397627D01*
X662569Y397645D01*
X662546Y397668D01*
X662514Y397686D01*
X662494Y397704D01*
X662433Y397733D01*
X662360Y397781D01*
X662329Y397791D01*
X662301Y397807D01*
X662264Y397816D01*
X662241Y397827D01*
X662181Y397836D01*
X662090Y397864D01*
X662058Y397864D01*
X662027Y397872D01*
X661971Y397869D01*
X661936Y397874D01*
X661935Y397874D01*
X661880Y397867D01*
X661808Y397867D01*
X661777Y397859D01*
X661745Y397857D01*
X661696Y397840D01*
X661655Y397834D01*
X661603Y397811D01*
X661536Y397792D01*
X661509Y397775D01*
X661478Y397765D01*
X661441Y397738D01*
X661398Y397718D01*
X661352Y397678D01*
X661296Y397644D01*
X661264Y397608D01*
X661229Y397583D01*
X654947Y391300D01*
X639705Y391300D01*
X639610Y391287D01*
X639514Y391282D01*
X639471Y391267D01*
X639426Y391260D01*
X639339Y391221D01*
X639248Y391189D01*
X639213Y391164D01*
X639169Y391144D01*
X639072Y391061D01*
X638999Y391008D01*
X638002Y390011D01*
X635405Y388935D01*
X632595Y388935D01*
X629998Y390011D01*
X628011Y391998D01*
X626935Y394595D01*
X626935Y397405D01*
X628011Y400002D01*
X629998Y401989D01*
X632595Y403065D01*
X635405Y403065D01*
X638002Y401989D01*
X638999Y400992D01*
X639075Y400935D01*
X639147Y400870D01*
X639188Y400850D01*
X639224Y400823D01*
X639314Y400789D01*
X639401Y400747D01*
X639443Y400741D01*
X639488Y400724D01*
X639616Y400714D01*
X639705Y400700D01*
X650639Y400700D01*
X650734Y400713D01*
X650831Y400718D01*
X650874Y400733D01*
X650919Y400740D01*
X651006Y400779D01*
X651097Y400811D01*
X651131Y400836D01*
X651176Y400856D01*
X651273Y400939D01*
X651346Y400992D01*
X736643Y486289D01*
X736700Y486366D01*
X736765Y486437D01*
X736785Y486478D01*
X736812Y486515D01*
X736846Y486605D01*
X736888Y486691D01*
X736894Y486733D01*
X736911Y486778D01*
X736921Y486906D01*
X736935Y486996D01*
X736935Y488405D01*
X738011Y491002D01*
X739998Y492989D01*
X742047Y493838D01*
X742122Y493882D01*
X742201Y493918D01*
X742242Y493954D01*
X742290Y493981D01*
X742349Y494045D01*
X742415Y494101D01*
X742445Y494147D01*
X742483Y494187D01*
X742522Y494264D01*
X742569Y494337D01*
X742586Y494390D01*
X742610Y494439D01*
X742627Y494524D01*
X742652Y494607D01*
X742653Y494662D01*
X742663Y494716D01*
X742654Y494802D01*
X742656Y494889D01*
X742641Y494942D01*
X742636Y494996D01*
X742604Y495077D01*
X742580Y495161D01*
X742552Y495208D01*
X742531Y495258D01*
X742478Y495327D01*
X742432Y495401D01*
X742392Y495437D01*
X742358Y495481D01*
X742287Y495532D01*
X742223Y495590D01*
X742174Y495614D01*
X742129Y495646D01*
X742047Y495675D01*
X741969Y495713D01*
X741919Y495721D01*
X741863Y495740D01*
X741750Y495747D01*
X741665Y495760D01*
X694916Y495760D01*
X694831Y495748D01*
X694746Y495746D01*
X694692Y495728D01*
X694637Y495720D01*
X694559Y495685D01*
X694477Y495659D01*
X694431Y495627D01*
X694380Y495604D01*
X694315Y495549D01*
X694244Y495501D01*
X694211Y495460D01*
X694165Y495421D01*
X694104Y495327D01*
X694050Y495261D01*
X692622Y492787D01*
X689741Y491124D01*
X689599Y491012D01*
X689534Y490965D01*
X689502Y490932D01*
X685501Y490932D01*
X685468Y490965D01*
X685324Y491073D01*
X685261Y491124D01*
X683448Y492170D01*
X683369Y492202D01*
X683294Y492243D01*
X683239Y492255D01*
X683187Y492276D01*
X683102Y492284D01*
X683018Y492302D01*
X682962Y492298D01*
X682906Y492303D01*
X682822Y492288D01*
X682737Y492282D01*
X682688Y492263D01*
X682629Y492252D01*
X682529Y492201D01*
X682449Y492170D01*
X680636Y491124D01*
X680494Y491012D01*
X680429Y490965D01*
X680397Y490932D01*
X676396Y490932D01*
X676364Y490965D01*
X676219Y491073D01*
X676157Y491124D01*
X674344Y492170D01*
X674264Y492202D01*
X674189Y492243D01*
X674134Y492255D01*
X674082Y492276D01*
X673997Y492284D01*
X673913Y492302D01*
X673857Y492298D01*
X673801Y492303D01*
X673717Y492288D01*
X673632Y492282D01*
X673583Y492263D01*
X673524Y492252D01*
X673424Y492201D01*
X673344Y492170D01*
X671531Y491124D01*
X671389Y491012D01*
X671324Y490965D01*
X671292Y490932D01*
X667291Y490932D01*
X667259Y490965D01*
X667114Y491073D01*
X667052Y491124D01*
X665239Y492170D01*
X665159Y492202D01*
X665084Y492243D01*
X665029Y492255D01*
X664977Y492276D01*
X664892Y492284D01*
X664808Y492302D01*
X664752Y492298D01*
X664696Y492303D01*
X664612Y492288D01*
X664527Y492282D01*
X664478Y492263D01*
X664419Y492252D01*
X664319Y492201D01*
X664239Y492170D01*
X662427Y491124D01*
X662284Y491012D01*
X662220Y490965D01*
X662187Y490932D01*
X658186Y490932D01*
X658154Y490965D01*
X658009Y491073D01*
X657947Y491124D01*
X656134Y492170D01*
X656055Y492202D01*
X655979Y492243D01*
X655924Y492255D01*
X655872Y492276D01*
X655787Y492284D01*
X655703Y492302D01*
X655647Y492298D01*
X655592Y492303D01*
X655508Y492288D01*
X655422Y492282D01*
X655373Y492263D01*
X655314Y492252D01*
X655214Y492201D01*
X655135Y492170D01*
X653322Y491124D01*
X653180Y491012D01*
X653115Y490965D01*
X653082Y490932D01*
X649471Y490932D01*
X649439Y490928D01*
X649407Y490930D01*
X649300Y490908D01*
X649192Y490893D01*
X649162Y490879D01*
X649131Y490873D01*
X649034Y490821D01*
X648935Y490776D01*
X648910Y490755D01*
X648882Y490740D01*
X648804Y490664D01*
X648721Y490593D01*
X648703Y490566D01*
X648680Y490543D01*
X648626Y490449D01*
X648566Y490357D01*
X648557Y490326D01*
X648541Y490298D01*
X648516Y490192D01*
X648484Y490087D01*
X648483Y490055D01*
X648476Y490024D01*
X648481Y489914D01*
X648480Y489805D01*
X648489Y489774D01*
X648490Y489742D01*
X648526Y489639D01*
X648555Y489533D01*
X648572Y489506D01*
X648583Y489476D01*
X648636Y489402D01*
X648703Y489293D01*
X648739Y489261D01*
X648764Y489227D01*
X649989Y488002D01*
X651065Y485405D01*
X651065Y485064D01*
X651074Y485000D01*
X651073Y484936D01*
X651094Y484861D01*
X651105Y484785D01*
X651131Y484726D01*
X651148Y484664D01*
X651189Y484598D01*
X651221Y484528D01*
X651263Y484479D01*
X651296Y484424D01*
X651354Y484372D01*
X651404Y484314D01*
X651458Y484278D01*
X651506Y484235D01*
X651575Y484202D01*
X651640Y484159D01*
X651702Y484140D01*
X651759Y484112D01*
X651829Y484101D01*
X651910Y484077D01*
X651995Y484076D01*
X652064Y484065D01*
X653405Y484065D01*
X656002Y482989D01*
X657989Y481002D01*
X659065Y478405D01*
X659065Y475595D01*
X657989Y472998D01*
X656002Y471011D01*
X653405Y469935D01*
X652075Y469935D01*
X651975Y469921D01*
X651874Y469915D01*
X651836Y469901D01*
X651796Y469895D01*
X651704Y469854D01*
X651609Y469820D01*
X651578Y469797D01*
X651539Y469779D01*
X651435Y469690D01*
X651362Y469636D01*
X556985Y373372D01*
X556931Y373299D01*
X556870Y373231D01*
X556864Y373217D01*
X555343Y371697D01*
X555340Y371692D01*
X555336Y371690D01*
X553974Y370300D01*
X552028Y370300D01*
X552023Y370300D01*
X552018Y370300D01*
X549872Y370279D01*
X549760Y370287D01*
X549672Y370300D01*
X547064Y370300D01*
X547000Y370291D01*
X546936Y370292D01*
X546861Y370271D01*
X546785Y370260D01*
X546726Y370234D01*
X546664Y370217D01*
X546598Y370176D01*
X546528Y370144D01*
X546479Y370102D01*
X546424Y370069D01*
X546372Y370011D01*
X546314Y369961D01*
X546278Y369907D01*
X546235Y369859D01*
X546202Y369790D01*
X546159Y369725D01*
X546140Y369663D01*
X546112Y369606D01*
X546101Y369536D01*
X546077Y369455D01*
X546076Y369370D01*
X546065Y369301D01*
X546065Y367996D01*
X546078Y367901D01*
X546083Y367804D01*
X546098Y367761D01*
X546105Y367716D01*
X546144Y367629D01*
X546176Y367538D01*
X546201Y367504D01*
X546221Y367459D01*
X546304Y367362D01*
X546357Y367289D01*
X554700Y358947D01*
X554700Y350361D01*
X554713Y350266D01*
X554718Y350169D01*
X554733Y350126D01*
X554740Y350081D01*
X554779Y349994D01*
X554811Y349903D01*
X554836Y349869D01*
X554856Y349824D01*
X554939Y349727D01*
X554992Y349654D01*
X697654Y206992D01*
X699904Y204742D01*
X699956Y204704D01*
X700001Y204658D01*
X700068Y204619D01*
X700130Y204573D01*
X700190Y204550D01*
X700246Y204518D01*
X700321Y204501D01*
X700394Y204473D01*
X700458Y204468D01*
X700520Y204454D01*
X700598Y204457D01*
X700675Y204452D01*
X700738Y204465D01*
X700802Y204468D01*
X700875Y204493D01*
X700951Y204509D01*
X701008Y204539D01*
X701068Y204560D01*
X701125Y204602D01*
X701200Y204642D01*
X701261Y204701D01*
X701317Y204742D01*
X703460Y206885D01*
X713140Y206885D01*
X719985Y200040D01*
X719985Y190360D01*
X713140Y183515D01*
X703644Y183515D01*
X703611Y183511D01*
X703579Y183513D01*
X703472Y183491D01*
X703364Y183475D01*
X703335Y183462D01*
X703303Y183455D01*
X703207Y183404D01*
X703107Y183359D01*
X703083Y183338D01*
X703054Y183323D01*
X702976Y183247D01*
X702893Y183176D01*
X702875Y183149D01*
X702852Y183126D01*
X702798Y183031D01*
X702739Y182940D01*
X702729Y182909D01*
X702713Y182881D01*
X702688Y182774D01*
X702656Y182670D01*
X702656Y182638D01*
X702648Y182606D01*
X702654Y182497D01*
X702653Y182388D01*
X702661Y182357D01*
X702663Y182324D01*
X702699Y182221D01*
X702728Y182116D01*
X702745Y182089D01*
X702755Y182058D01*
X702809Y181985D01*
X702876Y181876D01*
X702904Y181851D01*
X702908Y181844D01*
X702919Y181835D01*
X702937Y181809D01*
X702969Y181777D01*
X703046Y181720D01*
X703117Y181655D01*
X703158Y181635D01*
X703195Y181608D01*
X703285Y181574D01*
X703371Y181532D01*
X703413Y181526D01*
X703459Y181509D01*
X703586Y181499D01*
X703676Y181485D01*
X713140Y181485D01*
X719985Y174640D01*
X719985Y164960D01*
X713140Y158115D01*
X703460Y158115D01*
X696615Y164960D01*
X696615Y174424D01*
X696602Y174519D01*
X696597Y174615D01*
X696582Y174658D01*
X696575Y174704D01*
X696536Y174791D01*
X696505Y174882D01*
X696479Y174916D01*
X696459Y174961D01*
X696376Y175058D01*
X696323Y175131D01*
X696291Y175163D01*
X696278Y175172D01*
X696276Y175175D01*
X696267Y175181D01*
X696265Y175182D01*
X696244Y175207D01*
X696152Y175267D01*
X696065Y175332D01*
X696035Y175344D01*
X696008Y175361D01*
X695904Y175393D01*
X695802Y175432D01*
X695769Y175434D01*
X695738Y175444D01*
X695629Y175445D01*
X695520Y175454D01*
X695489Y175447D01*
X695456Y175447D01*
X695351Y175418D01*
X695244Y175396D01*
X695216Y175381D01*
X695184Y175372D01*
X695092Y175315D01*
X694995Y175264D01*
X694972Y175241D01*
X694944Y175224D01*
X694871Y175143D01*
X694793Y175067D01*
X694777Y175039D01*
X694755Y175015D01*
X694708Y174917D01*
X694654Y174822D01*
X694646Y174790D01*
X694632Y174761D01*
X694618Y174672D01*
X694589Y174547D01*
X694591Y174499D01*
X694585Y174456D01*
X694585Y164960D01*
X687740Y158115D01*
X678060Y158115D01*
X671215Y164960D01*
X671215Y172724D01*
X671202Y172819D01*
X671197Y172915D01*
X671182Y172958D01*
X671175Y173004D01*
X671136Y173091D01*
X671105Y173182D01*
X671079Y173216D01*
X671059Y173261D01*
X670976Y173358D01*
X670923Y173431D01*
X670891Y173463D01*
X670878Y173472D01*
X670876Y173475D01*
X670867Y173481D01*
X670865Y173482D01*
X670844Y173507D01*
X670752Y173567D01*
X670665Y173632D01*
X670635Y173644D01*
X670608Y173661D01*
X670504Y173693D01*
X670402Y173732D01*
X670369Y173734D01*
X670338Y173744D01*
X670229Y173745D01*
X670120Y173754D01*
X670089Y173747D01*
X670056Y173747D01*
X669951Y173718D01*
X669844Y173696D01*
X669816Y173681D01*
X669784Y173672D01*
X669692Y173615D01*
X669595Y173564D01*
X669572Y173541D01*
X669544Y173524D01*
X669471Y173443D01*
X669393Y173367D01*
X669377Y173339D01*
X669355Y173315D01*
X669308Y173217D01*
X669254Y173122D01*
X669246Y173090D01*
X669232Y173061D01*
X669218Y172972D01*
X669189Y172847D01*
X669191Y172799D01*
X669185Y172756D01*
X669185Y164960D01*
X662340Y158115D01*
X652660Y158115D01*
X645815Y164960D01*
X645815Y174424D01*
X645802Y174519D01*
X645797Y174615D01*
X645782Y174658D01*
X645775Y174704D01*
X645736Y174791D01*
X645705Y174882D01*
X645679Y174916D01*
X645659Y174961D01*
X645576Y175058D01*
X645523Y175131D01*
X645491Y175163D01*
X645478Y175172D01*
X645476Y175175D01*
X645467Y175181D01*
X645465Y175182D01*
X645444Y175207D01*
X645352Y175267D01*
X645265Y175332D01*
X645235Y175344D01*
X645208Y175361D01*
X645104Y175393D01*
X645002Y175432D01*
X644969Y175434D01*
X644938Y175444D01*
X644829Y175445D01*
X644720Y175454D01*
X644689Y175447D01*
X644656Y175447D01*
X644551Y175418D01*
X644444Y175396D01*
X644416Y175381D01*
X644384Y175372D01*
X644292Y175315D01*
X644195Y175264D01*
X644172Y175241D01*
X644144Y175224D01*
X644071Y175143D01*
X643993Y175067D01*
X643977Y175039D01*
X643955Y175015D01*
X643908Y174917D01*
X643854Y174822D01*
X643846Y174790D01*
X643832Y174761D01*
X643818Y174672D01*
X643789Y174547D01*
X643791Y174499D01*
X643785Y174456D01*
X643785Y164960D01*
X636940Y158115D01*
X627260Y158115D01*
X620415Y164960D01*
X620415Y174424D01*
X620402Y174519D01*
X620397Y174615D01*
X620382Y174658D01*
X620375Y174704D01*
X620336Y174791D01*
X620305Y174882D01*
X620279Y174916D01*
X620259Y174961D01*
X620176Y175058D01*
X620123Y175131D01*
X620091Y175163D01*
X620078Y175172D01*
X620076Y175175D01*
X620067Y175181D01*
X620065Y175182D01*
X620044Y175207D01*
X619952Y175267D01*
X619865Y175332D01*
X619835Y175344D01*
X619808Y175361D01*
X619704Y175393D01*
X619602Y175432D01*
X619569Y175434D01*
X619538Y175444D01*
X619429Y175445D01*
X619320Y175454D01*
X619289Y175447D01*
X619256Y175447D01*
X619151Y175418D01*
X619044Y175396D01*
X619016Y175381D01*
X618984Y175372D01*
X618892Y175315D01*
X618795Y175264D01*
X618772Y175241D01*
X618744Y175224D01*
X618671Y175143D01*
X618593Y175067D01*
X618577Y175039D01*
X618555Y175015D01*
X618508Y174917D01*
X618454Y174822D01*
X618446Y174790D01*
X618432Y174761D01*
X618418Y174672D01*
X618389Y174547D01*
X618391Y174499D01*
X618385Y174456D01*
X618385Y164960D01*
X611540Y158115D01*
X601860Y158115D01*
X595015Y164960D01*
X595015Y174424D01*
X595002Y174519D01*
X594997Y174615D01*
X594982Y174658D01*
X594975Y174704D01*
X594936Y174791D01*
X594905Y174882D01*
X594879Y174916D01*
X594859Y174961D01*
X594776Y175058D01*
X594723Y175131D01*
X594691Y175163D01*
X594678Y175172D01*
X594676Y175175D01*
X594667Y175181D01*
X594665Y175182D01*
X594644Y175207D01*
X594552Y175267D01*
X594465Y175332D01*
X594435Y175344D01*
X594408Y175361D01*
X594304Y175393D01*
X594202Y175432D01*
X594169Y175434D01*
X594138Y175444D01*
X594029Y175445D01*
X593920Y175454D01*
X593889Y175447D01*
X593856Y175447D01*
X593751Y175418D01*
X593644Y175396D01*
X593616Y175381D01*
X593584Y175372D01*
X593492Y175315D01*
X593395Y175264D01*
X593372Y175241D01*
X593344Y175224D01*
X593271Y175143D01*
X593193Y175067D01*
X593177Y175039D01*
X593155Y175015D01*
X593108Y174917D01*
X593054Y174822D01*
X593046Y174790D01*
X593032Y174761D01*
X593018Y174672D01*
X592989Y174547D01*
X592991Y174499D01*
X592985Y174456D01*
X592985Y164960D01*
X586140Y158115D01*
X576460Y158115D01*
X569615Y164960D01*
X569615Y174424D01*
X569602Y174519D01*
X569597Y174615D01*
X569582Y174658D01*
X569575Y174704D01*
X569536Y174791D01*
X569505Y174882D01*
X569479Y174916D01*
X569459Y174961D01*
X569376Y175058D01*
X569323Y175131D01*
X569291Y175163D01*
X569278Y175172D01*
X569276Y175175D01*
X569267Y175181D01*
X569265Y175182D01*
X569244Y175207D01*
X569152Y175267D01*
X569065Y175332D01*
X569035Y175344D01*
X569008Y175361D01*
X568904Y175393D01*
X568802Y175432D01*
X568769Y175434D01*
X568738Y175444D01*
X568629Y175445D01*
X568520Y175454D01*
X568489Y175447D01*
X568456Y175447D01*
X568351Y175418D01*
X568244Y175396D01*
X568216Y175381D01*
X568184Y175372D01*
X568092Y175315D01*
X567995Y175264D01*
X567972Y175241D01*
X567944Y175224D01*
X567871Y175143D01*
X567793Y175067D01*
X567777Y175039D01*
X567755Y175015D01*
X567708Y174917D01*
X567654Y174822D01*
X567646Y174790D01*
X567632Y174761D01*
X567618Y174672D01*
X567589Y174547D01*
X567591Y174499D01*
X567585Y174456D01*
X567585Y164960D01*
X560740Y158115D01*
X551060Y158115D01*
X544215Y164960D01*
X544215Y174424D01*
X544202Y174519D01*
X544197Y174616D01*
X544182Y174659D01*
X544175Y174704D01*
X544136Y174791D01*
X544104Y174882D01*
X544079Y174916D01*
X544059Y174961D01*
X543976Y175058D01*
X543923Y175131D01*
X543891Y175163D01*
X543878Y175173D01*
X543876Y175175D01*
X543868Y175180D01*
X543865Y175182D01*
X543844Y175207D01*
X543752Y175267D01*
X543665Y175332D01*
X543635Y175344D01*
X543608Y175361D01*
X543503Y175393D01*
X543401Y175432D01*
X543369Y175434D01*
X543338Y175444D01*
X543229Y175445D01*
X543120Y175454D01*
X543088Y175447D01*
X543056Y175447D01*
X542951Y175418D01*
X542844Y175396D01*
X542815Y175381D01*
X542784Y175372D01*
X542691Y175315D01*
X542595Y175264D01*
X542572Y175241D01*
X542544Y175224D01*
X542471Y175143D01*
X542393Y175067D01*
X542377Y175039D01*
X542355Y175015D01*
X542308Y174917D01*
X542254Y174821D01*
X542246Y174790D01*
X542232Y174761D01*
X542218Y174672D01*
X542189Y174547D01*
X542191Y174498D01*
X542185Y174456D01*
X542185Y164960D01*
X535340Y158115D01*
X525660Y158115D01*
X518815Y164960D01*
X518815Y174424D01*
X518802Y174519D01*
X518797Y174616D01*
X518782Y174659D01*
X518775Y174704D01*
X518736Y174791D01*
X518704Y174882D01*
X518679Y174916D01*
X518659Y174961D01*
X518576Y175058D01*
X518523Y175131D01*
X518491Y175163D01*
X518478Y175173D01*
X518476Y175175D01*
X518468Y175180D01*
X518465Y175182D01*
X518444Y175207D01*
X518352Y175267D01*
X518265Y175332D01*
X518235Y175344D01*
X518208Y175361D01*
X518103Y175393D01*
X518001Y175432D01*
X517969Y175434D01*
X517938Y175444D01*
X517829Y175445D01*
X517720Y175454D01*
X517688Y175447D01*
X517656Y175447D01*
X517551Y175418D01*
X517444Y175396D01*
X517415Y175381D01*
X517384Y175372D01*
X517291Y175315D01*
X517195Y175264D01*
X517172Y175241D01*
X517144Y175224D01*
X517071Y175143D01*
X516993Y175067D01*
X516977Y175039D01*
X516955Y175015D01*
X516908Y174917D01*
X516854Y174821D01*
X516846Y174790D01*
X516832Y174761D01*
X516818Y174672D01*
X516789Y174547D01*
X516791Y174498D01*
X516785Y174456D01*
X516785Y164960D01*
X509940Y158115D01*
X500260Y158115D01*
X493415Y164960D01*
X493415Y174424D01*
X493402Y174519D01*
X493397Y174615D01*
X493382Y174658D01*
X493375Y174704D01*
X493336Y174791D01*
X493305Y174882D01*
X493279Y174916D01*
X493259Y174961D01*
X493176Y175058D01*
X493123Y175131D01*
X493091Y175163D01*
X493078Y175172D01*
X493076Y175175D01*
X493067Y175181D01*
X493065Y175182D01*
X493044Y175207D01*
X492952Y175267D01*
X492865Y175332D01*
X492835Y175344D01*
X492808Y175361D01*
X492704Y175393D01*
X492602Y175432D01*
X492569Y175434D01*
X492538Y175444D01*
X492429Y175445D01*
X492320Y175454D01*
X492289Y175447D01*
X492256Y175447D01*
X492151Y175418D01*
X492044Y175396D01*
X492016Y175381D01*
X491984Y175372D01*
X491892Y175315D01*
X491795Y175264D01*
X491772Y175241D01*
X491744Y175224D01*
X491671Y175143D01*
X491593Y175067D01*
X491577Y175039D01*
X491555Y175015D01*
X491508Y174917D01*
X491454Y174822D01*
X491446Y174790D01*
X491432Y174761D01*
X491418Y174672D01*
X491389Y174547D01*
X491391Y174499D01*
X491385Y174456D01*
X491385Y164960D01*
X484540Y158115D01*
X474860Y158115D01*
X468015Y164960D01*
X468015Y174424D01*
X468002Y174519D01*
X467997Y174616D01*
X467982Y174659D01*
X467975Y174704D01*
X467936Y174791D01*
X467904Y174882D01*
X467879Y174916D01*
X467859Y174961D01*
X467776Y175058D01*
X467723Y175131D01*
X463300Y179553D01*
X463300Y185263D01*
X463296Y185295D01*
X463298Y185327D01*
X463276Y185434D01*
X463260Y185542D01*
X463247Y185572D01*
X463241Y185603D01*
X463189Y185700D01*
X463144Y185799D01*
X463123Y185824D01*
X463108Y185852D01*
X463032Y185931D01*
X462961Y186014D01*
X462934Y186031D01*
X462911Y186054D01*
X462816Y186108D01*
X462725Y186168D01*
X462694Y186178D01*
X462666Y186193D01*
X462560Y186219D01*
X462455Y186250D01*
X462423Y186251D01*
X462392Y186258D01*
X462282Y186253D01*
X462173Y186254D01*
X462142Y186246D01*
X462110Y186244D01*
X462007Y186208D01*
X461901Y186179D01*
X461874Y186162D01*
X461843Y186152D01*
X461770Y186098D01*
X461661Y186031D01*
X461629Y185995D01*
X461594Y185970D01*
X459140Y183515D01*
X449460Y183515D01*
X442615Y190360D01*
X442615Y200040D01*
X449460Y206885D01*
X459140Y206885D01*
X461983Y204042D01*
X462034Y204004D01*
X462079Y203958D01*
X462146Y203919D01*
X462208Y203873D01*
X462268Y203850D01*
X462324Y203818D01*
X462400Y203801D01*
X462472Y203773D01*
X462536Y203768D01*
X462599Y203754D01*
X462676Y203757D01*
X462753Y203752D01*
X462816Y203765D01*
X462880Y203768D01*
X462954Y203793D01*
X463029Y203809D01*
X463086Y203839D01*
X463147Y203860D01*
X463203Y203902D01*
X463278Y203942D01*
X463339Y204001D01*
X463396Y204042D01*
X470008Y210654D01*
X470065Y210731D01*
X470130Y210802D01*
X470150Y210843D01*
X470177Y210880D01*
X470211Y210970D01*
X470253Y211056D01*
X470259Y211098D01*
X470276Y211143D01*
X470286Y211271D01*
X470300Y211361D01*
X470300Y340639D01*
X470284Y340756D01*
X470272Y340874D01*
X470264Y340895D01*
X470260Y340918D01*
X470212Y341026D01*
X470168Y341136D01*
X470154Y341154D01*
X470144Y341175D01*
X470067Y341265D01*
X469994Y341359D01*
X469976Y341372D01*
X469961Y341389D01*
X469862Y341454D01*
X469765Y341524D01*
X469744Y341531D01*
X469725Y341544D01*
X469611Y341578D01*
X469500Y341618D01*
X469477Y341620D01*
X469455Y341626D01*
X469337Y341628D01*
X469218Y341635D01*
X469197Y341630D01*
X469173Y341630D01*
X468994Y341580D01*
X468919Y341562D01*
X467405Y340935D01*
X465996Y340935D01*
X465901Y340922D01*
X465804Y340917D01*
X465761Y340902D01*
X465716Y340895D01*
X465629Y340856D01*
X465538Y340824D01*
X465504Y340799D01*
X465459Y340779D01*
X465362Y340696D01*
X465289Y340643D01*
X464532Y339886D01*
X464475Y339809D01*
X464410Y339738D01*
X464390Y339697D01*
X464363Y339660D01*
X464329Y339570D01*
X464287Y339484D01*
X464281Y339442D01*
X464264Y339397D01*
X464254Y339269D01*
X464240Y339179D01*
X464240Y300001D01*
X394992Y230754D01*
X394935Y230677D01*
X394870Y230606D01*
X394850Y230565D01*
X394823Y230528D01*
X394789Y230438D01*
X394747Y230352D01*
X394741Y230310D01*
X394724Y230264D01*
X394716Y230169D01*
X394712Y230154D01*
X394711Y230121D01*
X394700Y230047D01*
X394700Y205337D01*
X394704Y205305D01*
X394702Y205273D01*
X394724Y205166D01*
X394740Y205058D01*
X394753Y205028D01*
X394759Y204997D01*
X394811Y204900D01*
X394856Y204801D01*
X394877Y204776D01*
X394892Y204748D01*
X394968Y204669D01*
X395039Y204586D01*
X395066Y204569D01*
X395089Y204546D01*
X395184Y204492D01*
X395275Y204432D01*
X395306Y204422D01*
X395334Y204407D01*
X395440Y204381D01*
X395545Y204350D01*
X395577Y204349D01*
X395608Y204342D01*
X395718Y204347D01*
X395827Y204346D01*
X395858Y204354D01*
X395890Y204356D01*
X395993Y204392D01*
X396099Y204421D01*
X396126Y204438D01*
X396157Y204448D01*
X396230Y204502D01*
X396339Y204569D01*
X396371Y204605D01*
X396406Y204630D01*
X398660Y206885D01*
X408340Y206885D01*
X415185Y200040D01*
X415185Y190360D01*
X408340Y183515D01*
X398844Y183515D01*
X398811Y183511D01*
X398779Y183513D01*
X398672Y183491D01*
X398564Y183475D01*
X398535Y183462D01*
X398503Y183455D01*
X398407Y183404D01*
X398307Y183359D01*
X398283Y183338D01*
X398254Y183323D01*
X398176Y183247D01*
X398093Y183176D01*
X398075Y183149D01*
X398052Y183126D01*
X397998Y183031D01*
X397939Y182940D01*
X397929Y182909D01*
X397913Y182881D01*
X397888Y182774D01*
X397856Y182670D01*
X397856Y182638D01*
X397848Y182606D01*
X397854Y182497D01*
X397853Y182388D01*
X397861Y182357D01*
X397863Y182324D01*
X397899Y182221D01*
X397928Y182116D01*
X397945Y182089D01*
X397955Y182058D01*
X398009Y181985D01*
X398076Y181876D01*
X398104Y181851D01*
X398108Y181844D01*
X398119Y181835D01*
X398137Y181809D01*
X398169Y181777D01*
X398246Y181720D01*
X398317Y181655D01*
X398358Y181635D01*
X398395Y181608D01*
X398485Y181574D01*
X398571Y181532D01*
X398613Y181526D01*
X398659Y181509D01*
X398786Y181499D01*
X398876Y181485D01*
X408340Y181485D01*
X415185Y174640D01*
X415185Y164960D01*
X408340Y158115D01*
X398660Y158115D01*
X391815Y164960D01*
X391815Y174424D01*
X391802Y174519D01*
X391797Y174615D01*
X391782Y174658D01*
X391775Y174704D01*
X391736Y174791D01*
X391705Y174882D01*
X391679Y174916D01*
X391659Y174961D01*
X391576Y175058D01*
X391523Y175131D01*
X391491Y175163D01*
X391478Y175172D01*
X391476Y175175D01*
X391467Y175181D01*
X391465Y175182D01*
X391444Y175207D01*
X391352Y175267D01*
X391265Y175332D01*
X391235Y175344D01*
X391208Y175361D01*
X391104Y175393D01*
X391002Y175432D01*
X390969Y175434D01*
X390938Y175444D01*
X390829Y175445D01*
X390720Y175454D01*
X390689Y175447D01*
X390656Y175447D01*
X390551Y175418D01*
X390444Y175396D01*
X390416Y175381D01*
X390384Y175372D01*
X390292Y175315D01*
X390195Y175264D01*
X390172Y175241D01*
X390144Y175224D01*
X390071Y175143D01*
X389993Y175067D01*
X389977Y175039D01*
X389955Y175015D01*
X389908Y174917D01*
X389854Y174822D01*
X389846Y174790D01*
X389832Y174761D01*
X389818Y174672D01*
X389789Y174547D01*
X389791Y174499D01*
X389785Y174456D01*
X389785Y164960D01*
X382940Y158115D01*
X373260Y158115D01*
X366415Y164960D01*
X366415Y174424D01*
X366402Y174519D01*
X366397Y174615D01*
X366382Y174658D01*
X366375Y174704D01*
X366336Y174791D01*
X366305Y174882D01*
X366279Y174916D01*
X366259Y174961D01*
X366176Y175058D01*
X366123Y175131D01*
X366091Y175163D01*
X366078Y175172D01*
X366076Y175175D01*
X366067Y175181D01*
X366065Y175182D01*
X366044Y175207D01*
X365952Y175267D01*
X365865Y175332D01*
X365835Y175344D01*
X365808Y175361D01*
X365704Y175393D01*
X365602Y175432D01*
X365569Y175434D01*
X365538Y175444D01*
X365429Y175445D01*
X365320Y175454D01*
X365289Y175447D01*
X365256Y175447D01*
X365151Y175418D01*
X365044Y175396D01*
X365016Y175381D01*
X364984Y175372D01*
X364892Y175315D01*
X364795Y175264D01*
X364772Y175241D01*
X364744Y175224D01*
X364671Y175143D01*
X364593Y175067D01*
X364577Y175039D01*
X364555Y175015D01*
X364508Y174917D01*
X364454Y174822D01*
X364446Y174790D01*
X364432Y174761D01*
X364418Y174672D01*
X364389Y174547D01*
X364391Y174499D01*
X364385Y174456D01*
X364385Y164960D01*
X357540Y158115D01*
X347860Y158115D01*
X341015Y164960D01*
X341015Y173924D01*
X341002Y174019D01*
X340997Y174116D01*
X340982Y174159D01*
X340975Y174204D01*
X340936Y174291D01*
X340904Y174382D01*
X340879Y174416D01*
X340859Y174461D01*
X340776Y174558D01*
X340723Y174631D01*
X340691Y174663D01*
X340678Y174673D01*
X340676Y174675D01*
X340668Y174680D01*
X340665Y174682D01*
X340644Y174707D01*
X340552Y174767D01*
X340465Y174832D01*
X340435Y174844D01*
X340408Y174861D01*
X340303Y174893D01*
X340201Y174932D01*
X340169Y174934D01*
X340138Y174944D01*
X340029Y174945D01*
X339920Y174954D01*
X339888Y174947D01*
X339856Y174947D01*
X339751Y174918D01*
X339644Y174896D01*
X339615Y174881D01*
X339584Y174872D01*
X339491Y174815D01*
X339395Y174764D01*
X339372Y174741D01*
X339344Y174724D01*
X339271Y174643D01*
X339193Y174567D01*
X339177Y174539D01*
X339155Y174515D01*
X339108Y174417D01*
X339054Y174321D01*
X339046Y174290D01*
X339032Y174261D01*
X339018Y174172D01*
X338989Y174047D01*
X338991Y173998D01*
X338985Y173956D01*
X338985Y164960D01*
X332140Y158115D01*
X322460Y158115D01*
X315615Y164960D01*
X315615Y173324D01*
X315602Y173419D01*
X315597Y173516D01*
X315582Y173559D01*
X315575Y173604D01*
X315536Y173691D01*
X315504Y173782D01*
X315479Y173816D01*
X315459Y173861D01*
X315376Y173958D01*
X315323Y174031D01*
X315291Y174063D01*
X315278Y174073D01*
X315276Y174075D01*
X315268Y174080D01*
X315265Y174082D01*
X315244Y174107D01*
X315152Y174167D01*
X315065Y174232D01*
X315035Y174244D01*
X315008Y174261D01*
X314903Y174293D01*
X314801Y174332D01*
X314769Y174334D01*
X314738Y174344D01*
X314629Y174345D01*
X314520Y174354D01*
X314488Y174347D01*
X314456Y174347D01*
X314351Y174318D01*
X314244Y174296D01*
X314215Y174281D01*
X314184Y174272D01*
X314091Y174215D01*
X313995Y174164D01*
X313972Y174141D01*
X313944Y174124D01*
X313871Y174043D01*
X313793Y173967D01*
X313777Y173939D01*
X313755Y173915D01*
X313708Y173817D01*
X313654Y173721D01*
X313646Y173690D01*
X313632Y173661D01*
X313618Y173572D01*
X313589Y173447D01*
X313591Y173398D01*
X313585Y173356D01*
X313585Y164960D01*
X306740Y158115D01*
X297060Y158115D01*
X292781Y162395D01*
X292704Y162452D01*
X292633Y162517D01*
X292592Y162537D01*
X292555Y162564D01*
X292465Y162598D01*
X292379Y162640D01*
X292337Y162646D01*
X292291Y162663D01*
X292164Y162673D01*
X292074Y162687D01*
X286326Y162687D01*
X286231Y162674D01*
X286135Y162669D01*
X286092Y162654D01*
X286047Y162647D01*
X285959Y162608D01*
X285868Y162576D01*
X285834Y162551D01*
X285790Y162531D01*
X285692Y162448D01*
X285619Y162395D01*
X281340Y158115D01*
X271660Y158115D01*
G37*
%LPD*%
G36*
X465919Y552910D02*
X465919Y552910D01*
X466028Y552909D01*
X466059Y552918D01*
X466091Y552919D01*
X466194Y552955D01*
X466300Y552984D01*
X466327Y553001D01*
X466358Y553012D01*
X466431Y553065D01*
X466540Y553132D01*
X466572Y553168D01*
X466607Y553193D01*
X466714Y553301D01*
X553000Y553301D01*
X553032Y553305D01*
X553064Y553303D01*
X553171Y553325D01*
X553279Y553341D01*
X553309Y553354D01*
X553340Y553360D01*
X553437Y553412D01*
X553536Y553457D01*
X553561Y553478D01*
X553589Y553493D01*
X553668Y553569D01*
X553750Y553640D01*
X553768Y553667D01*
X553791Y553690D01*
X553845Y553785D01*
X553905Y553876D01*
X553914Y553907D01*
X553930Y553935D01*
X553955Y554042D01*
X553987Y554146D01*
X553988Y554178D01*
X553995Y554209D01*
X553990Y554319D01*
X553991Y554428D01*
X553982Y554459D01*
X553981Y554491D01*
X553945Y554594D01*
X553916Y554700D01*
X553899Y554727D01*
X553899Y563000D01*
X553899Y563001D01*
X553899Y563003D01*
X553878Y563146D01*
X553859Y563279D01*
X553859Y563280D01*
X553859Y563282D01*
X553848Y563304D01*
X553743Y563536D01*
X553733Y563548D01*
X553727Y563561D01*
X535227Y590861D01*
X535214Y590876D01*
X535204Y590893D01*
X535139Y590957D01*
X535038Y591069D01*
X535007Y591088D01*
X534985Y591110D01*
X491085Y622810D01*
X491059Y622824D01*
X491037Y622843D01*
X490935Y622889D01*
X490835Y622941D01*
X490807Y622947D01*
X490780Y622959D01*
X490690Y622971D01*
X490559Y622998D01*
X490514Y622994D01*
X490474Y622999D01*
X474874Y622599D01*
X474792Y622585D01*
X474709Y622581D01*
X474654Y622562D01*
X474596Y622552D01*
X474521Y622516D01*
X474442Y622488D01*
X474399Y622456D01*
X474342Y622429D01*
X474261Y622356D01*
X474193Y622307D01*
X465193Y613307D01*
X465136Y613230D01*
X465071Y613158D01*
X465051Y613117D01*
X465024Y613081D01*
X464990Y612991D01*
X464948Y612905D01*
X464942Y612863D01*
X464925Y612817D01*
X464915Y612690D01*
X464901Y612600D01*
X464901Y553900D01*
X464905Y553868D01*
X464903Y553836D01*
X464925Y553729D01*
X464941Y553621D01*
X464954Y553591D01*
X464960Y553560D01*
X465012Y553463D01*
X465057Y553364D01*
X465078Y553339D01*
X465093Y553311D01*
X465169Y553233D01*
X465240Y553150D01*
X465267Y553132D01*
X465290Y553109D01*
X465385Y553055D01*
X465476Y552995D01*
X465507Y552986D01*
X465535Y552970D01*
X465642Y552945D01*
X465746Y552913D01*
X465778Y552912D01*
X465809Y552905D01*
X465919Y552910D01*
G37*
%LPC*%
G36*
X935396Y355935D02*
X935396Y355935D01*
X932432Y357163D01*
X930163Y359432D01*
X928935Y362396D01*
X928935Y365604D01*
X930163Y368568D01*
X932432Y370837D01*
X935396Y372065D01*
X937029Y372065D01*
X937124Y372078D01*
X937220Y372083D01*
X937263Y372098D01*
X937308Y372105D01*
X937395Y372144D01*
X937486Y372176D01*
X937521Y372201D01*
X937565Y372221D01*
X937662Y372304D01*
X937735Y372357D01*
X939611Y374233D01*
X939668Y374309D01*
X939733Y374381D01*
X939753Y374422D01*
X939780Y374458D01*
X939814Y374548D01*
X939856Y374635D01*
X939862Y374677D01*
X939879Y374722D01*
X939889Y374850D01*
X939903Y374939D01*
X939903Y529061D01*
X939890Y529156D01*
X939885Y529252D01*
X939870Y529295D01*
X939863Y529340D01*
X939824Y529427D01*
X939792Y529518D01*
X939767Y529553D01*
X939747Y529597D01*
X939664Y529694D01*
X939611Y529767D01*
X932767Y536611D01*
X932691Y536668D01*
X932619Y536733D01*
X932578Y536753D01*
X932542Y536780D01*
X932452Y536814D01*
X932365Y536856D01*
X932323Y536862D01*
X932278Y536879D01*
X932150Y536889D01*
X932061Y536903D01*
X903939Y536903D01*
X903844Y536890D01*
X903748Y536885D01*
X903705Y536870D01*
X903660Y536863D01*
X903573Y536824D01*
X903482Y536792D01*
X903447Y536767D01*
X903403Y536747D01*
X903306Y536664D01*
X903233Y536611D01*
X894454Y527831D01*
X892213Y526903D01*
X882722Y526903D01*
X882627Y526890D01*
X882531Y526885D01*
X882488Y526870D01*
X882443Y526863D01*
X882356Y526824D01*
X882265Y526792D01*
X882230Y526767D01*
X882186Y526747D01*
X882089Y526664D01*
X882016Y526611D01*
X881568Y526163D01*
X878604Y524935D01*
X875396Y524935D01*
X872432Y526163D01*
X870163Y528432D01*
X868935Y531396D01*
X868935Y534604D01*
X870163Y537568D01*
X872432Y539837D01*
X875396Y541065D01*
X878604Y541065D01*
X881568Y539837D01*
X882016Y539389D01*
X882093Y539332D01*
X882164Y539267D01*
X882205Y539247D01*
X882241Y539220D01*
X882331Y539186D01*
X882418Y539144D01*
X882460Y539138D01*
X882505Y539121D01*
X882633Y539111D01*
X882722Y539097D01*
X888061Y539097D01*
X888156Y539110D01*
X888252Y539115D01*
X888295Y539130D01*
X888340Y539137D01*
X888427Y539176D01*
X888518Y539208D01*
X888553Y539233D01*
X888597Y539253D01*
X888694Y539336D01*
X888767Y539389D01*
X897546Y548169D01*
X899787Y549097D01*
X936213Y549097D01*
X938454Y548169D01*
X951169Y535454D01*
X952097Y533213D01*
X952097Y370787D01*
X951169Y368546D01*
X945238Y362616D01*
X945213Y362583D01*
X945182Y362555D01*
X945137Y362482D01*
X945069Y362391D01*
X945055Y362353D01*
X945036Y362325D01*
X945031Y362307D01*
X945022Y362292D01*
X943837Y359432D01*
X941568Y357163D01*
X938604Y355935D01*
X935396Y355935D01*
G37*
%LPD*%
%LPC*%
G36*
X135022Y182637D02*
X135022Y182637D01*
X130074Y184687D01*
X126287Y188474D01*
X124237Y193422D01*
X124237Y198778D01*
X126287Y203726D01*
X130074Y207513D01*
X130952Y207877D01*
X130980Y207893D01*
X131010Y207903D01*
X131101Y207965D01*
X131195Y208020D01*
X131217Y208044D01*
X131243Y208062D01*
X131313Y208147D01*
X131388Y208226D01*
X131402Y208255D01*
X131423Y208280D01*
X131466Y208380D01*
X131515Y208478D01*
X131521Y208509D01*
X131534Y208539D01*
X131547Y208647D01*
X131568Y208755D01*
X131565Y208787D01*
X131569Y208819D01*
X131551Y208927D01*
X131541Y209035D01*
X131529Y209065D01*
X131524Y209097D01*
X131477Y209196D01*
X131436Y209297D01*
X131416Y209323D01*
X131403Y209352D01*
X131330Y209434D01*
X131263Y209520D01*
X131237Y209539D01*
X131215Y209563D01*
X131138Y209610D01*
X131034Y209685D01*
X130988Y209701D01*
X130952Y209723D01*
X130074Y210087D01*
X126287Y213874D01*
X124237Y218822D01*
X124237Y224178D01*
X126287Y229126D01*
X130074Y232913D01*
X130952Y233277D01*
X130980Y233293D01*
X131010Y233303D01*
X131101Y233365D01*
X131195Y233420D01*
X131217Y233444D01*
X131243Y233462D01*
X131313Y233547D01*
X131388Y233626D01*
X131402Y233655D01*
X131423Y233680D01*
X131466Y233780D01*
X131515Y233878D01*
X131521Y233909D01*
X131534Y233939D01*
X131547Y234047D01*
X131568Y234155D01*
X131565Y234187D01*
X131569Y234219D01*
X131551Y234327D01*
X131541Y234435D01*
X131529Y234465D01*
X131524Y234497D01*
X131477Y234596D01*
X131436Y234697D01*
X131416Y234723D01*
X131403Y234752D01*
X131330Y234834D01*
X131263Y234920D01*
X131237Y234939D01*
X131215Y234963D01*
X131138Y235010D01*
X131034Y235085D01*
X130988Y235101D01*
X130952Y235123D01*
X130074Y235487D01*
X126287Y239274D01*
X124237Y244222D01*
X124237Y249578D01*
X126287Y254526D01*
X130074Y258313D01*
X130952Y258677D01*
X130980Y258693D01*
X131010Y258703D01*
X131101Y258765D01*
X131195Y258820D01*
X131217Y258844D01*
X131243Y258862D01*
X131313Y258947D01*
X131388Y259026D01*
X131402Y259055D01*
X131423Y259080D01*
X131466Y259180D01*
X131515Y259278D01*
X131521Y259309D01*
X131534Y259339D01*
X131547Y259447D01*
X131568Y259555D01*
X131565Y259587D01*
X131569Y259619D01*
X131551Y259727D01*
X131541Y259835D01*
X131529Y259865D01*
X131524Y259897D01*
X131477Y259996D01*
X131436Y260097D01*
X131416Y260123D01*
X131403Y260152D01*
X131330Y260234D01*
X131263Y260320D01*
X131237Y260339D01*
X131215Y260363D01*
X131138Y260410D01*
X131034Y260485D01*
X130988Y260501D01*
X130952Y260523D01*
X130074Y260887D01*
X126287Y264674D01*
X124237Y269622D01*
X124237Y274978D01*
X126287Y279926D01*
X130074Y283713D01*
X130952Y284077D01*
X130980Y284093D01*
X131010Y284103D01*
X131101Y284165D01*
X131195Y284220D01*
X131217Y284244D01*
X131243Y284262D01*
X131313Y284347D01*
X131388Y284426D01*
X131402Y284455D01*
X131423Y284480D01*
X131466Y284580D01*
X131515Y284678D01*
X131521Y284709D01*
X131534Y284739D01*
X131547Y284847D01*
X131568Y284955D01*
X131565Y284987D01*
X131569Y285019D01*
X131551Y285127D01*
X131541Y285235D01*
X131529Y285265D01*
X131524Y285297D01*
X131477Y285396D01*
X131436Y285497D01*
X131416Y285523D01*
X131403Y285552D01*
X131330Y285634D01*
X131263Y285720D01*
X131237Y285739D01*
X131215Y285763D01*
X131138Y285810D01*
X131034Y285885D01*
X130988Y285901D01*
X130952Y285923D01*
X130074Y286287D01*
X126287Y290074D01*
X124237Y295022D01*
X124237Y300378D01*
X126287Y305326D01*
X130074Y309113D01*
X135022Y311163D01*
X140378Y311163D01*
X145326Y309113D01*
X149113Y305326D01*
X151163Y300378D01*
X151163Y295022D01*
X149113Y290074D01*
X145326Y286287D01*
X144448Y285923D01*
X144420Y285907D01*
X144390Y285897D01*
X144299Y285835D01*
X144205Y285780D01*
X144183Y285756D01*
X144157Y285738D01*
X144087Y285654D01*
X144012Y285574D01*
X143998Y285545D01*
X143977Y285520D01*
X143934Y285420D01*
X143885Y285322D01*
X143879Y285291D01*
X143866Y285261D01*
X143853Y285153D01*
X143832Y285045D01*
X143835Y285013D01*
X143831Y284981D01*
X143849Y284873D01*
X143859Y284765D01*
X143871Y284735D01*
X143876Y284703D01*
X143923Y284604D01*
X143964Y284503D01*
X143984Y284477D01*
X143997Y284448D01*
X144070Y284366D01*
X144137Y284280D01*
X144163Y284261D01*
X144185Y284237D01*
X144262Y284190D01*
X144366Y284115D01*
X144412Y284099D01*
X144448Y284077D01*
X145326Y283713D01*
X149113Y279926D01*
X151163Y274978D01*
X151163Y269622D01*
X149113Y264674D01*
X145326Y260887D01*
X144448Y260523D01*
X144420Y260507D01*
X144390Y260497D01*
X144299Y260435D01*
X144205Y260380D01*
X144183Y260356D01*
X144157Y260338D01*
X144087Y260254D01*
X144012Y260174D01*
X143998Y260145D01*
X143977Y260120D01*
X143934Y260020D01*
X143885Y259922D01*
X143879Y259891D01*
X143866Y259861D01*
X143853Y259753D01*
X143832Y259645D01*
X143835Y259613D01*
X143831Y259581D01*
X143849Y259473D01*
X143859Y259365D01*
X143871Y259335D01*
X143876Y259303D01*
X143923Y259204D01*
X143964Y259103D01*
X143984Y259077D01*
X143997Y259048D01*
X144070Y258966D01*
X144137Y258880D01*
X144163Y258861D01*
X144185Y258837D01*
X144262Y258790D01*
X144366Y258715D01*
X144412Y258699D01*
X144448Y258677D01*
X145326Y258313D01*
X149113Y254526D01*
X151163Y249578D01*
X151163Y244222D01*
X149113Y239274D01*
X145326Y235487D01*
X144448Y235123D01*
X144420Y235107D01*
X144390Y235097D01*
X144299Y235035D01*
X144205Y234980D01*
X144183Y234956D01*
X144157Y234938D01*
X144087Y234854D01*
X144012Y234774D01*
X143998Y234745D01*
X143977Y234720D01*
X143934Y234620D01*
X143885Y234522D01*
X143879Y234491D01*
X143866Y234461D01*
X143853Y234353D01*
X143832Y234245D01*
X143835Y234213D01*
X143831Y234181D01*
X143849Y234073D01*
X143859Y233965D01*
X143871Y233935D01*
X143876Y233903D01*
X143923Y233804D01*
X143964Y233703D01*
X143984Y233677D01*
X143997Y233648D01*
X144070Y233566D01*
X144137Y233480D01*
X144163Y233461D01*
X144185Y233437D01*
X144262Y233390D01*
X144366Y233315D01*
X144412Y233299D01*
X144448Y233277D01*
X145326Y232913D01*
X149113Y229126D01*
X151163Y224178D01*
X151163Y218822D01*
X149113Y213874D01*
X145326Y210087D01*
X144448Y209723D01*
X144420Y209707D01*
X144390Y209697D01*
X144299Y209635D01*
X144205Y209580D01*
X144183Y209556D01*
X144157Y209538D01*
X144087Y209454D01*
X144012Y209374D01*
X143998Y209345D01*
X143977Y209320D01*
X143934Y209220D01*
X143885Y209122D01*
X143879Y209091D01*
X143866Y209061D01*
X143853Y208953D01*
X143832Y208845D01*
X143835Y208813D01*
X143831Y208781D01*
X143849Y208673D01*
X143859Y208565D01*
X143871Y208535D01*
X143876Y208503D01*
X143923Y208404D01*
X143964Y208303D01*
X143984Y208277D01*
X143997Y208248D01*
X144070Y208166D01*
X144137Y208080D01*
X144163Y208061D01*
X144185Y208037D01*
X144262Y207990D01*
X144366Y207915D01*
X144412Y207899D01*
X144448Y207877D01*
X145326Y207513D01*
X149113Y203726D01*
X151163Y198778D01*
X151163Y193422D01*
X149113Y188474D01*
X145326Y184687D01*
X140378Y182637D01*
X135022Y182637D01*
G37*
%LPD*%
%LPC*%
G36*
X792396Y293935D02*
X792396Y293935D01*
X789432Y295163D01*
X787163Y297432D01*
X785935Y300396D01*
X785935Y303604D01*
X786811Y305719D01*
X786822Y305759D01*
X786840Y305797D01*
X786853Y305882D01*
X786881Y305992D01*
X786879Y306051D01*
X786887Y306101D01*
X786887Y368899D01*
X786881Y368940D01*
X786884Y368982D01*
X786879Y369002D01*
X786879Y369024D01*
X786859Y369096D01*
X786847Y369178D01*
X786823Y369231D01*
X786811Y369281D01*
X785935Y371396D01*
X785935Y374604D01*
X787163Y377568D01*
X789432Y379837D01*
X792396Y381065D01*
X795604Y381065D01*
X798568Y379837D01*
X800837Y377568D01*
X802065Y374604D01*
X802065Y371396D01*
X801189Y369281D01*
X801178Y369241D01*
X801160Y369203D01*
X801149Y369128D01*
X801125Y369050D01*
X801124Y369030D01*
X801119Y369008D01*
X801121Y368949D01*
X801113Y368899D01*
X801113Y306101D01*
X801119Y306060D01*
X801116Y306018D01*
X801136Y305935D01*
X801153Y305822D01*
X801177Y305769D01*
X801189Y305719D01*
X802065Y303604D01*
X802065Y300396D01*
X800837Y297432D01*
X798568Y295163D01*
X795604Y293935D01*
X792396Y293935D01*
G37*
%LPD*%
%LPC*%
G36*
X246402Y650235D02*
X246402Y650235D01*
X241233Y652377D01*
X237277Y656333D01*
X235135Y661502D01*
X235135Y687098D01*
X237277Y692267D01*
X241233Y696223D01*
X246402Y698365D01*
X251998Y698365D01*
X257167Y696223D01*
X261123Y692267D01*
X263265Y687098D01*
X263265Y661502D01*
X261123Y656333D01*
X257167Y652377D01*
X251998Y650235D01*
X246402Y650235D01*
G37*
%LPD*%
%LPC*%
G36*
X431905Y592435D02*
X431905Y592435D01*
X426000Y594881D01*
X421481Y599400D01*
X419035Y605304D01*
X419035Y611695D01*
X421481Y617600D01*
X426000Y622119D01*
X431905Y624565D01*
X438295Y624565D01*
X444200Y622119D01*
X448719Y617600D01*
X451165Y611695D01*
X451165Y605304D01*
X448719Y599400D01*
X444200Y594881D01*
X438295Y592435D01*
X431905Y592435D01*
G37*
%LPD*%
%LPC*%
G36*
X384905Y592435D02*
X384905Y592435D01*
X379000Y594881D01*
X374481Y599400D01*
X372035Y605304D01*
X372035Y611695D01*
X374481Y617600D01*
X379000Y622119D01*
X384905Y624565D01*
X391295Y624565D01*
X397200Y622119D01*
X401719Y617600D01*
X404165Y611695D01*
X404165Y605304D01*
X401719Y599400D01*
X397200Y594881D01*
X391295Y592435D01*
X384905Y592435D01*
G37*
%LPD*%
%LPC*%
G36*
X832316Y164935D02*
X832316Y164935D01*
X829935Y167316D01*
X829935Y188684D01*
X832316Y191065D01*
X858684Y191065D01*
X861065Y188684D01*
X861065Y167316D01*
X858684Y164935D01*
X832316Y164935D01*
G37*
%LPD*%
%LPC*%
G36*
X873396Y410935D02*
X873396Y410935D01*
X870432Y412163D01*
X868163Y414432D01*
X866935Y417396D01*
X866935Y420604D01*
X868163Y423568D01*
X868611Y424016D01*
X868668Y424093D01*
X868733Y424164D01*
X868753Y424205D01*
X868780Y424241D01*
X868814Y424331D01*
X868856Y424418D01*
X868862Y424460D01*
X868879Y424505D01*
X868889Y424633D01*
X868903Y424722D01*
X868903Y454278D01*
X868890Y454372D01*
X868885Y454469D01*
X868870Y454512D01*
X868863Y454557D01*
X868824Y454644D01*
X868792Y454735D01*
X868767Y454770D01*
X868747Y454814D01*
X868664Y454911D01*
X868611Y454984D01*
X868163Y455432D01*
X866935Y458396D01*
X866935Y461604D01*
X868163Y464568D01*
X870432Y466837D01*
X873396Y468065D01*
X876604Y468065D01*
X879568Y466837D01*
X881837Y464568D01*
X883065Y461604D01*
X883065Y458396D01*
X881837Y455432D01*
X881389Y454984D01*
X881332Y454907D01*
X881267Y454836D01*
X881247Y454795D01*
X881220Y454759D01*
X881186Y454669D01*
X881144Y454582D01*
X881138Y454540D01*
X881121Y454495D01*
X881111Y454367D01*
X881097Y454278D01*
X881097Y424722D01*
X881110Y424627D01*
X881115Y424531D01*
X881130Y424488D01*
X881137Y424443D01*
X881176Y424356D01*
X881208Y424265D01*
X881233Y424230D01*
X881253Y424186D01*
X881336Y424089D01*
X881389Y424016D01*
X881837Y423568D01*
X883065Y420604D01*
X883065Y417396D01*
X881837Y414432D01*
X879568Y412163D01*
X876604Y410935D01*
X873396Y410935D01*
G37*
%LPD*%
%LPC*%
G36*
X408595Y390935D02*
X408595Y390935D01*
X405998Y392011D01*
X404011Y393998D01*
X402935Y396595D01*
X402935Y399405D01*
X404011Y402002D01*
X405998Y403989D01*
X408595Y405065D01*
X409488Y405065D01*
X409583Y405078D01*
X409679Y405083D01*
X409722Y405098D01*
X409767Y405105D01*
X409855Y405144D01*
X409946Y405176D01*
X409980Y405201D01*
X410024Y405221D01*
X410122Y405304D01*
X410195Y405357D01*
X412902Y408065D01*
X453660Y408065D01*
X453755Y408078D01*
X453851Y408083D01*
X453894Y408098D01*
X453939Y408105D01*
X454026Y408144D01*
X454117Y408176D01*
X454152Y408201D01*
X454196Y408221D01*
X454293Y408304D01*
X454366Y408357D01*
X454998Y408989D01*
X457595Y410065D01*
X460405Y410065D01*
X463002Y408989D01*
X464989Y407002D01*
X466065Y404405D01*
X466065Y401595D01*
X464989Y398998D01*
X463002Y397011D01*
X460405Y395935D01*
X457595Y395935D01*
X454998Y397011D01*
X454366Y397643D01*
X454290Y397700D01*
X454218Y397765D01*
X454177Y397785D01*
X454141Y397812D01*
X454051Y397846D01*
X453964Y397888D01*
X453922Y397894D01*
X453877Y397911D01*
X453749Y397921D01*
X453660Y397935D01*
X418064Y397935D01*
X418000Y397926D01*
X417936Y397927D01*
X417861Y397906D01*
X417785Y397895D01*
X417726Y397869D01*
X417664Y397852D01*
X417598Y397811D01*
X417528Y397779D01*
X417479Y397737D01*
X417424Y397704D01*
X417372Y397646D01*
X417314Y397596D01*
X417278Y397542D01*
X417235Y397494D01*
X417202Y397425D01*
X417159Y397360D01*
X417140Y397298D01*
X417112Y397241D01*
X417101Y397171D01*
X417077Y397090D01*
X417076Y397005D01*
X417065Y396936D01*
X417065Y396595D01*
X415989Y393998D01*
X414002Y392011D01*
X411405Y390935D01*
X408595Y390935D01*
G37*
%LPD*%
%LPC*%
G36*
X424060Y183515D02*
X424060Y183515D01*
X417215Y190360D01*
X417215Y200040D01*
X424060Y206885D01*
X433740Y206885D01*
X440585Y200040D01*
X440585Y190360D01*
X433740Y183515D01*
X424060Y183515D01*
G37*
%LPD*%
%LPC*%
G36*
X887595Y312935D02*
X887595Y312935D01*
X884998Y314011D01*
X883011Y315998D01*
X881935Y318595D01*
X881935Y321405D01*
X882827Y323559D01*
X882838Y323599D01*
X882856Y323636D01*
X882868Y323714D01*
X882887Y323776D01*
X882887Y323791D01*
X882897Y323832D01*
X882895Y323891D01*
X882903Y323941D01*
X882903Y332554D01*
X882902Y332563D01*
X882903Y332573D01*
X882882Y332703D01*
X882863Y332833D01*
X882860Y332842D01*
X882858Y332851D01*
X882801Y332970D01*
X882747Y333090D01*
X882741Y333097D01*
X882737Y333106D01*
X882649Y333205D01*
X882564Y333304D01*
X882556Y333310D01*
X882550Y333317D01*
X882484Y333357D01*
X882328Y333459D01*
X882305Y333466D01*
X882286Y333477D01*
X880998Y334011D01*
X879011Y335998D01*
X877935Y338595D01*
X877935Y341405D01*
X879011Y344002D01*
X880998Y345989D01*
X883595Y347065D01*
X886405Y347065D01*
X889002Y345989D01*
X890989Y344002D01*
X891881Y341848D01*
X891902Y341813D01*
X891916Y341773D01*
X891967Y341704D01*
X892025Y341606D01*
X892068Y341565D01*
X892098Y341524D01*
X892313Y341309D01*
X894169Y339454D01*
X895097Y337213D01*
X895097Y323941D01*
X895103Y323900D01*
X895100Y323858D01*
X895110Y323818D01*
X895110Y323802D01*
X895124Y323750D01*
X895137Y323662D01*
X895161Y323608D01*
X895173Y323559D01*
X896065Y321405D01*
X896065Y318595D01*
X894989Y315998D01*
X893002Y314011D01*
X890405Y312935D01*
X887595Y312935D01*
G37*
%LPD*%
D10*
X110000Y140000D02*
X1000000Y140000D01*
X1000000Y720000D01*
X110000Y720000D01*
X110000Y140000D01*
D11*
X249200Y664300D02*
X249200Y684300D01*
X188200Y684300D02*
X188200Y664300D01*
X208200Y626300D02*
X228200Y626300D01*
D12*
X388100Y608500D03*
X435100Y608500D03*
X482100Y608500D03*
D13*
X369050Y703800D03*
X501150Y703800D03*
D14*
X967000Y445750D03*
X967000Y554250D03*
D15*
X137700Y297700D03*
X137700Y272300D03*
X137700Y246900D03*
X137700Y221500D03*
X137700Y196100D03*
X137700Y170700D03*
D16*
X276500Y169800D03*
X301900Y169800D03*
X327300Y169800D03*
X352700Y169800D03*
X378100Y169800D03*
X403500Y169800D03*
X276500Y195200D03*
X301900Y195200D03*
X327300Y195200D03*
X352700Y195200D03*
X378100Y195200D03*
X403500Y195200D03*
X428900Y169800D03*
X428900Y195200D03*
X454300Y169800D03*
X479700Y169800D03*
X505100Y169800D03*
X530500Y169800D03*
X555900Y169800D03*
X581300Y169800D03*
X454300Y195200D03*
X479700Y195200D03*
X505100Y195200D03*
X530500Y195200D03*
X555900Y195200D03*
X581300Y195200D03*
X606700Y169800D03*
X606700Y195200D03*
X632100Y169800D03*
X657500Y169800D03*
X682900Y169800D03*
X708300Y169800D03*
X733700Y169800D03*
X759100Y169800D03*
X632100Y195200D03*
X657500Y195200D03*
X682900Y195200D03*
X708300Y195200D03*
X733700Y195200D03*
X759100Y195200D03*
D17*
X518000Y544000D03*
D18*
X679000Y544000D01*
D17*
X679000Y544000D03*
X508000Y477635D03*
D18*
X502161Y477635D02*
X498270Y481526D01*
X498270Y521474D01*
D17*
X839000Y522730D03*
D18*
X508000Y477635D02*
X502161Y477635D01*
X498270Y521474D02*
X510256Y533460D01*
X828270Y533460D02*
X839000Y522730D01*
X564510Y533460D02*
X510256Y533460D01*
X564510Y533461D02*
X564602Y533459D01*
X564694Y533453D01*
X564785Y533444D01*
X564876Y533431D01*
X564966Y533414D01*
X565056Y533393D01*
X565144Y533369D01*
X565232Y533341D01*
X565318Y533309D01*
X565403Y533274D01*
X565486Y533235D01*
X565568Y533193D01*
X565648Y533148D01*
X565726Y533099D01*
X565802Y533047D01*
X565875Y532992D01*
X565947Y532934D01*
X566016Y532874D01*
X566082Y532810D01*
X566146Y532744D01*
X566206Y532675D01*
X566264Y532603D01*
X566319Y532530D01*
X566371Y532454D01*
X566420Y532376D01*
X566465Y532296D01*
X566507Y532214D01*
X566546Y532131D01*
X566581Y532046D01*
X566613Y531960D01*
X566641Y531872D01*
X566665Y531784D01*
X566686Y531694D01*
X566703Y531604D01*
X566716Y531513D01*
X566725Y531422D01*
X566731Y531330D01*
X566733Y531238D01*
X566733Y529835D01*
X566732Y529835D02*
X566734Y529743D01*
X566740Y529651D01*
X566749Y529560D01*
X566762Y529469D01*
X566779Y529379D01*
X566800Y529289D01*
X566824Y529201D01*
X566852Y529113D01*
X566884Y529027D01*
X566919Y528942D01*
X566958Y528859D01*
X567000Y528777D01*
X567045Y528697D01*
X567094Y528619D01*
X567146Y528543D01*
X567201Y528470D01*
X567259Y528398D01*
X567319Y528329D01*
X567383Y528263D01*
X567449Y528199D01*
X567518Y528139D01*
X567590Y528081D01*
X567663Y528026D01*
X567739Y527974D01*
X567817Y527925D01*
X567897Y527880D01*
X567979Y527838D01*
X568062Y527799D01*
X568147Y527764D01*
X568233Y527732D01*
X568321Y527704D01*
X568409Y527680D01*
X568499Y527659D01*
X568589Y527642D01*
X568680Y527629D01*
X568771Y527620D01*
X568863Y527614D01*
X568955Y527612D01*
X569274Y527612D01*
X569366Y527614D01*
X569458Y527620D01*
X569549Y527629D01*
X569640Y527642D01*
X569730Y527659D01*
X569820Y527680D01*
X569908Y527704D01*
X569996Y527732D01*
X570082Y527764D01*
X570167Y527799D01*
X570250Y527838D01*
X570332Y527880D01*
X570412Y527925D01*
X570490Y527974D01*
X570566Y528026D01*
X570639Y528081D01*
X570711Y528139D01*
X570780Y528199D01*
X570846Y528263D01*
X570910Y528329D01*
X570970Y528398D01*
X571028Y528470D01*
X571083Y528543D01*
X571135Y528619D01*
X571184Y528697D01*
X571229Y528777D01*
X571271Y528859D01*
X571310Y528942D01*
X571345Y529027D01*
X571377Y529113D01*
X571405Y529201D01*
X571429Y529289D01*
X571450Y529379D01*
X571467Y529469D01*
X571480Y529560D01*
X571489Y529651D01*
X571495Y529743D01*
X571497Y529835D01*
X571497Y531238D01*
X571496Y531238D02*
X571498Y531330D01*
X571504Y531422D01*
X571513Y531513D01*
X571526Y531604D01*
X571543Y531694D01*
X571564Y531784D01*
X571588Y531872D01*
X571616Y531960D01*
X571648Y532046D01*
X571683Y532131D01*
X571722Y532214D01*
X571764Y532296D01*
X571809Y532376D01*
X571858Y532454D01*
X571910Y532530D01*
X571965Y532603D01*
X572023Y532675D01*
X572083Y532744D01*
X572147Y532810D01*
X572213Y532874D01*
X572282Y532934D01*
X572354Y532992D01*
X572427Y533047D01*
X572503Y533099D01*
X572581Y533148D01*
X572661Y533193D01*
X572743Y533235D01*
X572826Y533274D01*
X572911Y533309D01*
X572997Y533341D01*
X573085Y533369D01*
X573173Y533393D01*
X573263Y533414D01*
X573353Y533431D01*
X573444Y533444D01*
X573535Y533453D01*
X573627Y533459D01*
X573719Y533461D01*
X573719Y533460D02*
X574038Y533460D01*
X574038Y533461D02*
X574130Y533459D01*
X574222Y533453D01*
X574313Y533444D01*
X574404Y533431D01*
X574494Y533414D01*
X574584Y533393D01*
X574672Y533369D01*
X574760Y533341D01*
X574846Y533309D01*
X574931Y533274D01*
X575014Y533235D01*
X575096Y533193D01*
X575176Y533148D01*
X575254Y533099D01*
X575330Y533047D01*
X575403Y532992D01*
X575475Y532934D01*
X575544Y532874D01*
X575610Y532810D01*
X575674Y532744D01*
X575734Y532675D01*
X575792Y532603D01*
X575847Y532530D01*
X575899Y532454D01*
X575948Y532376D01*
X575993Y532296D01*
X576035Y532214D01*
X576074Y532131D01*
X576109Y532046D01*
X576141Y531960D01*
X576169Y531872D01*
X576193Y531784D01*
X576214Y531694D01*
X576231Y531604D01*
X576244Y531513D01*
X576253Y531422D01*
X576259Y531330D01*
X576261Y531238D01*
X576261Y529835D01*
X576260Y529835D02*
X576262Y529743D01*
X576268Y529651D01*
X576277Y529560D01*
X576290Y529469D01*
X576307Y529379D01*
X576328Y529289D01*
X576352Y529201D01*
X576380Y529113D01*
X576412Y529027D01*
X576447Y528942D01*
X576486Y528859D01*
X576528Y528777D01*
X576573Y528697D01*
X576622Y528619D01*
X576674Y528543D01*
X576729Y528470D01*
X576787Y528398D01*
X576847Y528329D01*
X576911Y528263D01*
X576977Y528199D01*
X577046Y528139D01*
X577118Y528081D01*
X577191Y528026D01*
X577267Y527974D01*
X577345Y527925D01*
X577425Y527880D01*
X577507Y527838D01*
X577590Y527799D01*
X577675Y527764D01*
X577761Y527732D01*
X577849Y527704D01*
X577937Y527680D01*
X578027Y527659D01*
X578117Y527642D01*
X578208Y527629D01*
X578299Y527620D01*
X578391Y527614D01*
X578483Y527612D01*
X578802Y527612D01*
X578894Y527614D01*
X578986Y527620D01*
X579077Y527629D01*
X579168Y527642D01*
X579258Y527659D01*
X579348Y527680D01*
X579436Y527704D01*
X579524Y527732D01*
X579610Y527764D01*
X579695Y527799D01*
X579778Y527838D01*
X579860Y527880D01*
X579940Y527925D01*
X580018Y527974D01*
X580094Y528026D01*
X580167Y528081D01*
X580239Y528139D01*
X580308Y528199D01*
X580374Y528263D01*
X580438Y528329D01*
X580498Y528398D01*
X580556Y528470D01*
X580611Y528543D01*
X580663Y528619D01*
X580712Y528697D01*
X580757Y528777D01*
X580799Y528859D01*
X580838Y528942D01*
X580873Y529027D01*
X580905Y529113D01*
X580933Y529201D01*
X580957Y529289D01*
X580978Y529379D01*
X580995Y529469D01*
X581008Y529560D01*
X581017Y529651D01*
X581023Y529743D01*
X581025Y529835D01*
X581025Y531238D01*
X581024Y531238D02*
X581026Y531330D01*
X581032Y531422D01*
X581041Y531513D01*
X581054Y531604D01*
X581071Y531694D01*
X581092Y531784D01*
X581116Y531872D01*
X581144Y531960D01*
X581176Y532046D01*
X581211Y532131D01*
X581250Y532214D01*
X581292Y532296D01*
X581337Y532376D01*
X581386Y532454D01*
X581438Y532530D01*
X581493Y532603D01*
X581551Y532675D01*
X581611Y532744D01*
X581675Y532810D01*
X581741Y532874D01*
X581810Y532934D01*
X581882Y532992D01*
X581955Y533047D01*
X582031Y533099D01*
X582109Y533148D01*
X582189Y533193D01*
X582271Y533235D01*
X582354Y533274D01*
X582439Y533309D01*
X582525Y533341D01*
X582613Y533369D01*
X582701Y533393D01*
X582791Y533414D01*
X582881Y533431D01*
X582972Y533444D01*
X583063Y533453D01*
X583155Y533459D01*
X583247Y533461D01*
X583247Y533460D02*
X583566Y533460D01*
X583566Y533461D02*
X583658Y533459D01*
X583750Y533453D01*
X583841Y533444D01*
X583932Y533431D01*
X584022Y533414D01*
X584112Y533393D01*
X584200Y533369D01*
X584288Y533341D01*
X584374Y533309D01*
X584459Y533274D01*
X584542Y533235D01*
X584624Y533193D01*
X584704Y533148D01*
X584782Y533099D01*
X584858Y533047D01*
X584931Y532992D01*
X585003Y532934D01*
X585072Y532874D01*
X585138Y532810D01*
X585202Y532744D01*
X585262Y532675D01*
X585320Y532603D01*
X585375Y532530D01*
X585427Y532454D01*
X585476Y532376D01*
X585521Y532296D01*
X585563Y532214D01*
X585602Y532131D01*
X585637Y532046D01*
X585669Y531960D01*
X585697Y531872D01*
X585721Y531784D01*
X585742Y531694D01*
X585759Y531604D01*
X585772Y531513D01*
X585781Y531422D01*
X585787Y531330D01*
X585789Y531238D01*
X585789Y529835D01*
X585788Y529835D02*
X585790Y529743D01*
X585796Y529651D01*
X585805Y529560D01*
X585818Y529469D01*
X585835Y529379D01*
X585856Y529289D01*
X585880Y529201D01*
X585908Y529113D01*
X585940Y529027D01*
X585975Y528942D01*
X586014Y528859D01*
X586056Y528777D01*
X586101Y528697D01*
X586150Y528619D01*
X586202Y528543D01*
X586257Y528470D01*
X586315Y528398D01*
X586375Y528329D01*
X586439Y528263D01*
X586505Y528199D01*
X586574Y528139D01*
X586646Y528081D01*
X586719Y528026D01*
X586795Y527974D01*
X586873Y527925D01*
X586953Y527880D01*
X587035Y527838D01*
X587118Y527799D01*
X587203Y527764D01*
X587289Y527732D01*
X587377Y527704D01*
X587465Y527680D01*
X587555Y527659D01*
X587645Y527642D01*
X587736Y527629D01*
X587827Y527620D01*
X587919Y527614D01*
X588011Y527612D01*
X588330Y527612D01*
X588422Y527614D01*
X588514Y527620D01*
X588605Y527629D01*
X588696Y527642D01*
X588786Y527659D01*
X588876Y527680D01*
X588964Y527704D01*
X589052Y527732D01*
X589138Y527764D01*
X589223Y527799D01*
X589306Y527838D01*
X589388Y527880D01*
X589468Y527925D01*
X589546Y527974D01*
X589622Y528026D01*
X589695Y528081D01*
X589767Y528139D01*
X589836Y528199D01*
X589902Y528263D01*
X589966Y528329D01*
X590026Y528398D01*
X590084Y528470D01*
X590139Y528543D01*
X590191Y528619D01*
X590240Y528697D01*
X590285Y528777D01*
X590327Y528859D01*
X590366Y528942D01*
X590401Y529027D01*
X590433Y529113D01*
X590461Y529201D01*
X590485Y529289D01*
X590506Y529379D01*
X590523Y529469D01*
X590536Y529560D01*
X590545Y529651D01*
X590551Y529743D01*
X590553Y529835D01*
X590553Y531238D01*
X590552Y531238D02*
X590554Y531330D01*
X590560Y531422D01*
X590569Y531513D01*
X590582Y531604D01*
X590599Y531694D01*
X590620Y531784D01*
X590644Y531872D01*
X590672Y531960D01*
X590704Y532046D01*
X590739Y532131D01*
X590778Y532214D01*
X590820Y532296D01*
X590865Y532376D01*
X590914Y532454D01*
X590966Y532530D01*
X591021Y532603D01*
X591079Y532675D01*
X591139Y532744D01*
X591203Y532810D01*
X591269Y532874D01*
X591338Y532934D01*
X591410Y532992D01*
X591483Y533047D01*
X591559Y533099D01*
X591637Y533148D01*
X591717Y533193D01*
X591799Y533235D01*
X591882Y533274D01*
X591967Y533309D01*
X592053Y533341D01*
X592141Y533369D01*
X592229Y533393D01*
X592319Y533414D01*
X592409Y533431D01*
X592500Y533444D01*
X592591Y533453D01*
X592683Y533459D01*
X592775Y533461D01*
X592775Y533460D02*
X593094Y533460D01*
X593094Y533461D02*
X593186Y533459D01*
X593278Y533453D01*
X593369Y533444D01*
X593460Y533431D01*
X593550Y533414D01*
X593640Y533393D01*
X593728Y533369D01*
X593816Y533341D01*
X593902Y533309D01*
X593987Y533274D01*
X594070Y533235D01*
X594152Y533193D01*
X594232Y533148D01*
X594310Y533099D01*
X594386Y533047D01*
X594459Y532992D01*
X594531Y532934D01*
X594600Y532874D01*
X594666Y532810D01*
X594730Y532744D01*
X594790Y532675D01*
X594848Y532603D01*
X594903Y532530D01*
X594955Y532454D01*
X595004Y532376D01*
X595049Y532296D01*
X595091Y532214D01*
X595130Y532131D01*
X595165Y532046D01*
X595197Y531960D01*
X595225Y531872D01*
X595249Y531784D01*
X595270Y531694D01*
X595287Y531604D01*
X595300Y531513D01*
X595309Y531422D01*
X595315Y531330D01*
X595317Y531238D01*
X595317Y529835D01*
X595316Y529835D02*
X595318Y529743D01*
X595324Y529651D01*
X595333Y529560D01*
X595346Y529469D01*
X595363Y529379D01*
X595384Y529289D01*
X595408Y529201D01*
X595436Y529113D01*
X595468Y529027D01*
X595503Y528942D01*
X595542Y528859D01*
X595584Y528777D01*
X595629Y528697D01*
X595678Y528619D01*
X595730Y528543D01*
X595785Y528470D01*
X595843Y528398D01*
X595903Y528329D01*
X595967Y528263D01*
X596033Y528199D01*
X596102Y528139D01*
X596174Y528081D01*
X596247Y528026D01*
X596323Y527974D01*
X596401Y527925D01*
X596481Y527880D01*
X596563Y527838D01*
X596646Y527799D01*
X596731Y527764D01*
X596817Y527732D01*
X596905Y527704D01*
X596993Y527680D01*
X597083Y527659D01*
X597173Y527642D01*
X597264Y527629D01*
X597355Y527620D01*
X597447Y527614D01*
X597539Y527612D01*
X597858Y527612D01*
X597950Y527614D01*
X598042Y527620D01*
X598133Y527629D01*
X598224Y527642D01*
X598314Y527659D01*
X598404Y527680D01*
X598492Y527704D01*
X598580Y527732D01*
X598666Y527764D01*
X598751Y527799D01*
X598834Y527838D01*
X598916Y527880D01*
X598996Y527925D01*
X599074Y527974D01*
X599150Y528026D01*
X599223Y528081D01*
X599295Y528139D01*
X599364Y528199D01*
X599430Y528263D01*
X599494Y528329D01*
X599554Y528398D01*
X599612Y528470D01*
X599667Y528543D01*
X599719Y528619D01*
X599768Y528697D01*
X599813Y528777D01*
X599855Y528859D01*
X599894Y528942D01*
X599929Y529027D01*
X599961Y529113D01*
X599989Y529201D01*
X600013Y529289D01*
X600034Y529379D01*
X600051Y529469D01*
X600064Y529560D01*
X600073Y529651D01*
X600079Y529743D01*
X600081Y529835D01*
X600081Y531238D01*
X600080Y531238D02*
X600082Y531330D01*
X600088Y531422D01*
X600097Y531513D01*
X600110Y531604D01*
X600127Y531694D01*
X600148Y531784D01*
X600172Y531872D01*
X600200Y531960D01*
X600232Y532046D01*
X600267Y532131D01*
X600306Y532214D01*
X600348Y532296D01*
X600393Y532376D01*
X600442Y532454D01*
X600494Y532530D01*
X600549Y532603D01*
X600607Y532675D01*
X600667Y532744D01*
X600731Y532810D01*
X600797Y532874D01*
X600866Y532934D01*
X600938Y532992D01*
X601011Y533047D01*
X601087Y533099D01*
X601165Y533148D01*
X601245Y533193D01*
X601327Y533235D01*
X601410Y533274D01*
X601495Y533309D01*
X601581Y533341D01*
X601669Y533369D01*
X601757Y533393D01*
X601847Y533414D01*
X601937Y533431D01*
X602028Y533444D01*
X602119Y533453D01*
X602211Y533459D01*
X602303Y533461D01*
X602303Y533460D02*
X602622Y533460D01*
X602622Y533461D02*
X602714Y533459D01*
X602806Y533453D01*
X602897Y533444D01*
X602988Y533431D01*
X603078Y533414D01*
X603168Y533393D01*
X603256Y533369D01*
X603344Y533341D01*
X603430Y533309D01*
X603515Y533274D01*
X603598Y533235D01*
X603680Y533193D01*
X603760Y533148D01*
X603838Y533099D01*
X603914Y533047D01*
X603987Y532992D01*
X604059Y532934D01*
X604128Y532874D01*
X604194Y532810D01*
X604258Y532744D01*
X604318Y532675D01*
X604376Y532603D01*
X604431Y532530D01*
X604483Y532454D01*
X604532Y532376D01*
X604577Y532296D01*
X604619Y532214D01*
X604658Y532131D01*
X604693Y532046D01*
X604725Y531960D01*
X604753Y531872D01*
X604777Y531784D01*
X604798Y531694D01*
X604815Y531604D01*
X604828Y531513D01*
X604837Y531422D01*
X604843Y531330D01*
X604845Y531238D01*
X604845Y529835D01*
X604844Y529835D02*
X604846Y529743D01*
X604852Y529651D01*
X604861Y529560D01*
X604874Y529469D01*
X604891Y529379D01*
X604912Y529289D01*
X604936Y529201D01*
X604964Y529113D01*
X604996Y529027D01*
X605031Y528942D01*
X605070Y528859D01*
X605112Y528777D01*
X605157Y528697D01*
X605206Y528619D01*
X605258Y528543D01*
X605313Y528470D01*
X605371Y528398D01*
X605431Y528329D01*
X605495Y528263D01*
X605561Y528199D01*
X605630Y528139D01*
X605702Y528081D01*
X605775Y528026D01*
X605851Y527974D01*
X605929Y527925D01*
X606009Y527880D01*
X606091Y527838D01*
X606174Y527799D01*
X606259Y527764D01*
X606345Y527732D01*
X606433Y527704D01*
X606521Y527680D01*
X606611Y527659D01*
X606701Y527642D01*
X606792Y527629D01*
X606883Y527620D01*
X606975Y527614D01*
X607067Y527612D01*
X607386Y527612D01*
X607478Y527614D01*
X607570Y527620D01*
X607661Y527629D01*
X607752Y527642D01*
X607842Y527659D01*
X607932Y527680D01*
X608020Y527704D01*
X608108Y527732D01*
X608194Y527764D01*
X608279Y527799D01*
X608362Y527838D01*
X608444Y527880D01*
X608524Y527925D01*
X608602Y527974D01*
X608678Y528026D01*
X608751Y528081D01*
X608823Y528139D01*
X608892Y528199D01*
X608958Y528263D01*
X609022Y528329D01*
X609082Y528398D01*
X609140Y528470D01*
X609195Y528543D01*
X609247Y528619D01*
X609296Y528697D01*
X609341Y528777D01*
X609383Y528859D01*
X609422Y528942D01*
X609457Y529027D01*
X609489Y529113D01*
X609517Y529201D01*
X609541Y529289D01*
X609562Y529379D01*
X609579Y529469D01*
X609592Y529560D01*
X609601Y529651D01*
X609607Y529743D01*
X609609Y529835D01*
X609609Y531238D01*
X609608Y531238D02*
X609610Y531330D01*
X609616Y531422D01*
X609625Y531513D01*
X609638Y531604D01*
X609655Y531694D01*
X609676Y531784D01*
X609700Y531872D01*
X609728Y531960D01*
X609760Y532046D01*
X609795Y532131D01*
X609834Y532214D01*
X609876Y532296D01*
X609921Y532376D01*
X609970Y532454D01*
X610022Y532530D01*
X610077Y532603D01*
X610135Y532675D01*
X610195Y532744D01*
X610259Y532810D01*
X610325Y532874D01*
X610394Y532934D01*
X610466Y532992D01*
X610539Y533047D01*
X610615Y533099D01*
X610693Y533148D01*
X610773Y533193D01*
X610855Y533235D01*
X610938Y533274D01*
X611023Y533309D01*
X611109Y533341D01*
X611197Y533369D01*
X611285Y533393D01*
X611375Y533414D01*
X611465Y533431D01*
X611556Y533444D01*
X611647Y533453D01*
X611739Y533459D01*
X611831Y533461D01*
X611831Y533460D02*
X612151Y533460D01*
X612151Y533461D02*
X612243Y533459D01*
X612335Y533453D01*
X612426Y533444D01*
X612517Y533431D01*
X612607Y533414D01*
X612697Y533393D01*
X612785Y533369D01*
X612873Y533341D01*
X612959Y533309D01*
X613044Y533274D01*
X613127Y533235D01*
X613209Y533193D01*
X613289Y533148D01*
X613367Y533099D01*
X613443Y533047D01*
X613516Y532992D01*
X613588Y532934D01*
X613657Y532874D01*
X613723Y532810D01*
X613787Y532744D01*
X613847Y532675D01*
X613905Y532603D01*
X613960Y532530D01*
X614012Y532454D01*
X614061Y532376D01*
X614106Y532296D01*
X614148Y532214D01*
X614187Y532131D01*
X614222Y532046D01*
X614254Y531960D01*
X614282Y531872D01*
X614306Y531784D01*
X614327Y531694D01*
X614344Y531604D01*
X614357Y531513D01*
X614366Y531422D01*
X614372Y531330D01*
X614374Y531238D01*
X614373Y531238D02*
X614373Y529835D01*
X614375Y529743D01*
X614381Y529651D01*
X614390Y529560D01*
X614403Y529469D01*
X614420Y529379D01*
X614441Y529289D01*
X614465Y529201D01*
X614493Y529113D01*
X614525Y529027D01*
X614560Y528942D01*
X614599Y528859D01*
X614641Y528777D01*
X614686Y528697D01*
X614735Y528619D01*
X614787Y528543D01*
X614842Y528470D01*
X614900Y528398D01*
X614960Y528329D01*
X615024Y528263D01*
X615090Y528199D01*
X615159Y528139D01*
X615231Y528081D01*
X615304Y528026D01*
X615380Y527974D01*
X615458Y527925D01*
X615538Y527880D01*
X615620Y527838D01*
X615703Y527799D01*
X615788Y527764D01*
X615874Y527732D01*
X615962Y527704D01*
X616050Y527680D01*
X616140Y527659D01*
X616230Y527642D01*
X616321Y527629D01*
X616412Y527620D01*
X616504Y527614D01*
X616596Y527612D01*
X616915Y527612D01*
X617007Y527614D01*
X617099Y527620D01*
X617190Y527629D01*
X617281Y527642D01*
X617371Y527659D01*
X617461Y527680D01*
X617549Y527704D01*
X617637Y527732D01*
X617723Y527764D01*
X617808Y527799D01*
X617891Y527838D01*
X617973Y527880D01*
X618053Y527925D01*
X618131Y527974D01*
X618207Y528026D01*
X618280Y528081D01*
X618352Y528139D01*
X618421Y528199D01*
X618487Y528263D01*
X618551Y528329D01*
X618611Y528398D01*
X618669Y528470D01*
X618724Y528543D01*
X618776Y528619D01*
X618825Y528697D01*
X618870Y528777D01*
X618912Y528859D01*
X618951Y528942D01*
X618986Y529027D01*
X619018Y529113D01*
X619046Y529201D01*
X619070Y529289D01*
X619091Y529379D01*
X619108Y529469D01*
X619121Y529560D01*
X619130Y529651D01*
X619136Y529743D01*
X619138Y529835D01*
X619137Y529835D02*
X619137Y531238D01*
X619139Y531330D01*
X619145Y531422D01*
X619154Y531513D01*
X619167Y531604D01*
X619184Y531694D01*
X619205Y531784D01*
X619229Y531872D01*
X619257Y531960D01*
X619289Y532046D01*
X619324Y532131D01*
X619363Y532214D01*
X619405Y532296D01*
X619450Y532376D01*
X619499Y532454D01*
X619551Y532530D01*
X619606Y532603D01*
X619664Y532675D01*
X619724Y532744D01*
X619788Y532810D01*
X619854Y532874D01*
X619923Y532934D01*
X619995Y532992D01*
X620068Y533047D01*
X620144Y533099D01*
X620222Y533148D01*
X620302Y533193D01*
X620384Y533235D01*
X620467Y533274D01*
X620552Y533309D01*
X620638Y533341D01*
X620726Y533369D01*
X620814Y533393D01*
X620904Y533414D01*
X620994Y533431D01*
X621085Y533444D01*
X621176Y533453D01*
X621268Y533459D01*
X621360Y533461D01*
X621360Y533460D02*
X621679Y533460D01*
X621679Y533461D02*
X621771Y533459D01*
X621863Y533453D01*
X621954Y533444D01*
X622045Y533431D01*
X622135Y533414D01*
X622225Y533393D01*
X622313Y533369D01*
X622401Y533341D01*
X622487Y533309D01*
X622572Y533274D01*
X622655Y533235D01*
X622737Y533193D01*
X622817Y533148D01*
X622895Y533099D01*
X622971Y533047D01*
X623044Y532992D01*
X623116Y532934D01*
X623185Y532874D01*
X623251Y532810D01*
X623315Y532744D01*
X623375Y532675D01*
X623433Y532603D01*
X623488Y532530D01*
X623540Y532454D01*
X623589Y532376D01*
X623634Y532296D01*
X623676Y532214D01*
X623715Y532131D01*
X623750Y532046D01*
X623782Y531960D01*
X623810Y531872D01*
X623834Y531784D01*
X623855Y531694D01*
X623872Y531604D01*
X623885Y531513D01*
X623894Y531422D01*
X623900Y531330D01*
X623902Y531238D01*
X623901Y531238D02*
X623901Y529835D01*
X623903Y529743D01*
X623909Y529651D01*
X623918Y529560D01*
X623931Y529469D01*
X623948Y529379D01*
X623969Y529289D01*
X623993Y529201D01*
X624021Y529113D01*
X624053Y529027D01*
X624088Y528942D01*
X624127Y528859D01*
X624169Y528777D01*
X624214Y528697D01*
X624263Y528619D01*
X624315Y528543D01*
X624370Y528470D01*
X624428Y528398D01*
X624488Y528329D01*
X624552Y528263D01*
X624618Y528199D01*
X624687Y528139D01*
X624759Y528081D01*
X624832Y528026D01*
X624908Y527974D01*
X624986Y527925D01*
X625066Y527880D01*
X625148Y527838D01*
X625231Y527799D01*
X625316Y527764D01*
X625402Y527732D01*
X625490Y527704D01*
X625578Y527680D01*
X625668Y527659D01*
X625758Y527642D01*
X625849Y527629D01*
X625940Y527620D01*
X626032Y527614D01*
X626124Y527612D01*
X626443Y527612D01*
X626535Y527614D01*
X626627Y527620D01*
X626718Y527629D01*
X626809Y527642D01*
X626899Y527659D01*
X626989Y527680D01*
X627077Y527704D01*
X627165Y527732D01*
X627251Y527764D01*
X627336Y527799D01*
X627419Y527838D01*
X627501Y527880D01*
X627581Y527925D01*
X627659Y527974D01*
X627735Y528026D01*
X627808Y528081D01*
X627880Y528139D01*
X627949Y528199D01*
X628015Y528263D01*
X628079Y528329D01*
X628139Y528398D01*
X628197Y528470D01*
X628252Y528543D01*
X628304Y528619D01*
X628353Y528697D01*
X628398Y528777D01*
X628440Y528859D01*
X628479Y528942D01*
X628514Y529027D01*
X628546Y529113D01*
X628574Y529201D01*
X628598Y529289D01*
X628619Y529379D01*
X628636Y529469D01*
X628649Y529560D01*
X628658Y529651D01*
X628664Y529743D01*
X628666Y529835D01*
X628665Y529835D02*
X628665Y531238D01*
X628667Y531330D01*
X628673Y531422D01*
X628682Y531513D01*
X628695Y531604D01*
X628712Y531694D01*
X628733Y531784D01*
X628757Y531872D01*
X628785Y531960D01*
X628817Y532046D01*
X628852Y532131D01*
X628891Y532214D01*
X628933Y532296D01*
X628978Y532376D01*
X629027Y532454D01*
X629079Y532530D01*
X629134Y532603D01*
X629192Y532675D01*
X629252Y532744D01*
X629316Y532810D01*
X629382Y532874D01*
X629451Y532934D01*
X629523Y532992D01*
X629596Y533047D01*
X629672Y533099D01*
X629750Y533148D01*
X629830Y533193D01*
X629912Y533235D01*
X629995Y533274D01*
X630080Y533309D01*
X630166Y533341D01*
X630254Y533369D01*
X630342Y533393D01*
X630432Y533414D01*
X630522Y533431D01*
X630613Y533444D01*
X630704Y533453D01*
X630796Y533459D01*
X630888Y533461D01*
X630888Y533460D02*
X631207Y533460D01*
X631207Y533461D02*
X631299Y533459D01*
X631391Y533453D01*
X631482Y533444D01*
X631573Y533431D01*
X631663Y533414D01*
X631753Y533393D01*
X631841Y533369D01*
X631929Y533341D01*
X632015Y533309D01*
X632100Y533274D01*
X632183Y533235D01*
X632265Y533193D01*
X632345Y533148D01*
X632423Y533099D01*
X632499Y533047D01*
X632572Y532992D01*
X632644Y532934D01*
X632713Y532874D01*
X632779Y532810D01*
X632843Y532744D01*
X632903Y532675D01*
X632961Y532603D01*
X633016Y532530D01*
X633068Y532454D01*
X633117Y532376D01*
X633162Y532296D01*
X633204Y532214D01*
X633243Y532131D01*
X633278Y532046D01*
X633310Y531960D01*
X633338Y531872D01*
X633362Y531784D01*
X633383Y531694D01*
X633400Y531604D01*
X633413Y531513D01*
X633422Y531422D01*
X633428Y531330D01*
X633430Y531238D01*
X633429Y531238D02*
X633429Y529835D01*
X633431Y529743D01*
X633437Y529651D01*
X633446Y529560D01*
X633459Y529469D01*
X633476Y529379D01*
X633497Y529289D01*
X633521Y529201D01*
X633549Y529113D01*
X633581Y529027D01*
X633616Y528942D01*
X633655Y528859D01*
X633697Y528777D01*
X633742Y528697D01*
X633791Y528619D01*
X633843Y528543D01*
X633898Y528470D01*
X633956Y528398D01*
X634016Y528329D01*
X634080Y528263D01*
X634146Y528199D01*
X634215Y528139D01*
X634287Y528081D01*
X634360Y528026D01*
X634436Y527974D01*
X634514Y527925D01*
X634594Y527880D01*
X634676Y527838D01*
X634759Y527799D01*
X634844Y527764D01*
X634930Y527732D01*
X635018Y527704D01*
X635106Y527680D01*
X635196Y527659D01*
X635286Y527642D01*
X635377Y527629D01*
X635468Y527620D01*
X635560Y527614D01*
X635652Y527612D01*
X635971Y527612D01*
X636063Y527614D01*
X636155Y527620D01*
X636246Y527629D01*
X636337Y527642D01*
X636427Y527659D01*
X636517Y527680D01*
X636605Y527704D01*
X636693Y527732D01*
X636779Y527764D01*
X636864Y527799D01*
X636947Y527838D01*
X637029Y527880D01*
X637109Y527925D01*
X637187Y527974D01*
X637263Y528026D01*
X637336Y528081D01*
X637408Y528139D01*
X637477Y528199D01*
X637543Y528263D01*
X637607Y528329D01*
X637667Y528398D01*
X637725Y528470D01*
X637780Y528543D01*
X637832Y528619D01*
X637881Y528697D01*
X637926Y528777D01*
X637968Y528859D01*
X638007Y528942D01*
X638042Y529027D01*
X638074Y529113D01*
X638102Y529201D01*
X638126Y529289D01*
X638147Y529379D01*
X638164Y529469D01*
X638177Y529560D01*
X638186Y529651D01*
X638192Y529743D01*
X638194Y529835D01*
X638193Y529835D02*
X638193Y531238D01*
X638195Y531330D01*
X638201Y531422D01*
X638210Y531513D01*
X638223Y531604D01*
X638240Y531694D01*
X638261Y531784D01*
X638285Y531872D01*
X638313Y531960D01*
X638345Y532046D01*
X638380Y532131D01*
X638419Y532214D01*
X638461Y532296D01*
X638506Y532376D01*
X638555Y532454D01*
X638607Y532530D01*
X638662Y532603D01*
X638720Y532675D01*
X638780Y532744D01*
X638844Y532810D01*
X638910Y532874D01*
X638979Y532934D01*
X639051Y532992D01*
X639124Y533047D01*
X639200Y533099D01*
X639278Y533148D01*
X639358Y533193D01*
X639440Y533235D01*
X639523Y533274D01*
X639608Y533309D01*
X639694Y533341D01*
X639782Y533369D01*
X639870Y533393D01*
X639960Y533414D01*
X640050Y533431D01*
X640141Y533444D01*
X640232Y533453D01*
X640324Y533459D01*
X640416Y533461D01*
X640416Y533460D02*
X640735Y533460D01*
X640735Y533461D02*
X640827Y533459D01*
X640919Y533453D01*
X641010Y533444D01*
X641101Y533431D01*
X641191Y533414D01*
X641281Y533393D01*
X641369Y533369D01*
X641457Y533341D01*
X641543Y533309D01*
X641628Y533274D01*
X641711Y533235D01*
X641793Y533193D01*
X641873Y533148D01*
X641951Y533099D01*
X642027Y533047D01*
X642100Y532992D01*
X642172Y532934D01*
X642241Y532874D01*
X642307Y532810D01*
X642371Y532744D01*
X642431Y532675D01*
X642489Y532603D01*
X642544Y532530D01*
X642596Y532454D01*
X642645Y532376D01*
X642690Y532296D01*
X642732Y532214D01*
X642771Y532131D01*
X642806Y532046D01*
X642838Y531960D01*
X642866Y531872D01*
X642890Y531784D01*
X642911Y531694D01*
X642928Y531604D01*
X642941Y531513D01*
X642950Y531422D01*
X642956Y531330D01*
X642958Y531238D01*
X642957Y531238D02*
X642957Y529835D01*
X642959Y529743D01*
X642965Y529651D01*
X642974Y529560D01*
X642987Y529469D01*
X643004Y529379D01*
X643025Y529289D01*
X643049Y529201D01*
X643077Y529113D01*
X643109Y529027D01*
X643144Y528942D01*
X643183Y528859D01*
X643225Y528777D01*
X643270Y528697D01*
X643319Y528619D01*
X643371Y528543D01*
X643426Y528470D01*
X643484Y528398D01*
X643544Y528329D01*
X643608Y528263D01*
X643674Y528199D01*
X643743Y528139D01*
X643815Y528081D01*
X643888Y528026D01*
X643964Y527974D01*
X644042Y527925D01*
X644122Y527880D01*
X644204Y527838D01*
X644287Y527799D01*
X644372Y527764D01*
X644458Y527732D01*
X644546Y527704D01*
X644634Y527680D01*
X644724Y527659D01*
X644814Y527642D01*
X644905Y527629D01*
X644996Y527620D01*
X645088Y527614D01*
X645180Y527612D01*
X645499Y527612D01*
X645591Y527614D01*
X645683Y527620D01*
X645774Y527629D01*
X645865Y527642D01*
X645955Y527659D01*
X646045Y527680D01*
X646133Y527704D01*
X646221Y527732D01*
X646307Y527764D01*
X646392Y527799D01*
X646475Y527838D01*
X646557Y527880D01*
X646637Y527925D01*
X646715Y527974D01*
X646791Y528026D01*
X646864Y528081D01*
X646936Y528139D01*
X647005Y528199D01*
X647071Y528263D01*
X647135Y528329D01*
X647195Y528398D01*
X647253Y528470D01*
X647308Y528543D01*
X647360Y528619D01*
X647409Y528697D01*
X647454Y528777D01*
X647496Y528859D01*
X647535Y528942D01*
X647570Y529027D01*
X647602Y529113D01*
X647630Y529201D01*
X647654Y529289D01*
X647675Y529379D01*
X647692Y529469D01*
X647705Y529560D01*
X647714Y529651D01*
X647720Y529743D01*
X647722Y529835D01*
X647721Y529835D02*
X647721Y531238D01*
X647723Y531330D01*
X647729Y531422D01*
X647738Y531513D01*
X647751Y531604D01*
X647768Y531694D01*
X647789Y531784D01*
X647813Y531872D01*
X647841Y531960D01*
X647873Y532046D01*
X647908Y532131D01*
X647947Y532214D01*
X647989Y532296D01*
X648034Y532376D01*
X648083Y532454D01*
X648135Y532530D01*
X648190Y532603D01*
X648248Y532675D01*
X648308Y532744D01*
X648372Y532810D01*
X648438Y532874D01*
X648507Y532934D01*
X648579Y532992D01*
X648652Y533047D01*
X648728Y533099D01*
X648806Y533148D01*
X648886Y533193D01*
X648968Y533235D01*
X649051Y533274D01*
X649136Y533309D01*
X649222Y533341D01*
X649310Y533369D01*
X649398Y533393D01*
X649488Y533414D01*
X649578Y533431D01*
X649669Y533444D01*
X649760Y533453D01*
X649852Y533459D01*
X649944Y533461D01*
X649944Y533460D02*
X650263Y533460D01*
X650263Y533461D02*
X650355Y533459D01*
X650447Y533453D01*
X650538Y533444D01*
X650629Y533431D01*
X650719Y533414D01*
X650809Y533393D01*
X650897Y533369D01*
X650985Y533341D01*
X651071Y533309D01*
X651156Y533274D01*
X651239Y533235D01*
X651321Y533193D01*
X651401Y533148D01*
X651479Y533099D01*
X651555Y533047D01*
X651628Y532992D01*
X651700Y532934D01*
X651769Y532874D01*
X651835Y532810D01*
X651899Y532744D01*
X651959Y532675D01*
X652017Y532603D01*
X652072Y532530D01*
X652124Y532454D01*
X652173Y532376D01*
X652218Y532296D01*
X652260Y532214D01*
X652299Y532131D01*
X652334Y532046D01*
X652366Y531960D01*
X652394Y531872D01*
X652418Y531784D01*
X652439Y531694D01*
X652456Y531604D01*
X652469Y531513D01*
X652478Y531422D01*
X652484Y531330D01*
X652486Y531238D01*
X652485Y531238D02*
X652485Y529835D01*
X652487Y529743D01*
X652493Y529651D01*
X652502Y529560D01*
X652515Y529469D01*
X652532Y529379D01*
X652553Y529289D01*
X652577Y529201D01*
X652605Y529113D01*
X652637Y529027D01*
X652672Y528942D01*
X652711Y528859D01*
X652753Y528777D01*
X652798Y528697D01*
X652847Y528619D01*
X652899Y528543D01*
X652954Y528470D01*
X653012Y528398D01*
X653072Y528329D01*
X653136Y528263D01*
X653202Y528199D01*
X653271Y528139D01*
X653343Y528081D01*
X653416Y528026D01*
X653492Y527974D01*
X653570Y527925D01*
X653650Y527880D01*
X653732Y527838D01*
X653815Y527799D01*
X653900Y527764D01*
X653986Y527732D01*
X654074Y527704D01*
X654162Y527680D01*
X654252Y527659D01*
X654342Y527642D01*
X654433Y527629D01*
X654524Y527620D01*
X654616Y527614D01*
X654708Y527612D01*
X655027Y527612D01*
X655119Y527614D01*
X655211Y527620D01*
X655302Y527629D01*
X655393Y527642D01*
X655483Y527659D01*
X655573Y527680D01*
X655661Y527704D01*
X655749Y527732D01*
X655835Y527764D01*
X655920Y527799D01*
X656003Y527838D01*
X656085Y527880D01*
X656165Y527925D01*
X656243Y527974D01*
X656319Y528026D01*
X656392Y528081D01*
X656464Y528139D01*
X656533Y528199D01*
X656599Y528263D01*
X656663Y528329D01*
X656723Y528398D01*
X656781Y528470D01*
X656836Y528543D01*
X656888Y528619D01*
X656937Y528697D01*
X656982Y528777D01*
X657024Y528859D01*
X657063Y528942D01*
X657098Y529027D01*
X657130Y529113D01*
X657158Y529201D01*
X657182Y529289D01*
X657203Y529379D01*
X657220Y529469D01*
X657233Y529560D01*
X657242Y529651D01*
X657248Y529743D01*
X657250Y529835D01*
X657249Y529835D02*
X657249Y531238D01*
X657251Y531330D01*
X657257Y531422D01*
X657266Y531513D01*
X657279Y531604D01*
X657296Y531694D01*
X657317Y531784D01*
X657341Y531872D01*
X657369Y531960D01*
X657401Y532046D01*
X657436Y532131D01*
X657475Y532214D01*
X657517Y532296D01*
X657562Y532376D01*
X657611Y532454D01*
X657663Y532530D01*
X657718Y532603D01*
X657776Y532675D01*
X657836Y532744D01*
X657900Y532810D01*
X657966Y532874D01*
X658035Y532934D01*
X658107Y532992D01*
X658180Y533047D01*
X658256Y533099D01*
X658334Y533148D01*
X658414Y533193D01*
X658496Y533235D01*
X658579Y533274D01*
X658664Y533309D01*
X658750Y533341D01*
X658838Y533369D01*
X658926Y533393D01*
X659016Y533414D01*
X659106Y533431D01*
X659197Y533444D01*
X659288Y533453D01*
X659380Y533459D01*
X659472Y533461D01*
X659472Y533460D02*
X659791Y533460D01*
X659791Y533461D02*
X659883Y533459D01*
X659975Y533453D01*
X660066Y533444D01*
X660157Y533431D01*
X660247Y533414D01*
X660337Y533393D01*
X660425Y533369D01*
X660513Y533341D01*
X660599Y533309D01*
X660684Y533274D01*
X660767Y533235D01*
X660849Y533193D01*
X660929Y533148D01*
X661007Y533099D01*
X661083Y533047D01*
X661156Y532992D01*
X661228Y532934D01*
X661297Y532874D01*
X661363Y532810D01*
X661427Y532744D01*
X661487Y532675D01*
X661545Y532603D01*
X661600Y532530D01*
X661652Y532454D01*
X661701Y532376D01*
X661746Y532296D01*
X661788Y532214D01*
X661827Y532131D01*
X661862Y532046D01*
X661894Y531960D01*
X661922Y531872D01*
X661946Y531784D01*
X661967Y531694D01*
X661984Y531604D01*
X661997Y531513D01*
X662006Y531422D01*
X662012Y531330D01*
X662014Y531238D01*
X662013Y531238D02*
X662013Y529835D01*
X662015Y529743D01*
X662021Y529651D01*
X662030Y529560D01*
X662043Y529469D01*
X662060Y529379D01*
X662081Y529289D01*
X662105Y529201D01*
X662133Y529113D01*
X662165Y529027D01*
X662200Y528942D01*
X662239Y528859D01*
X662281Y528777D01*
X662326Y528697D01*
X662375Y528619D01*
X662427Y528543D01*
X662482Y528470D01*
X662540Y528398D01*
X662600Y528329D01*
X662664Y528263D01*
X662730Y528199D01*
X662799Y528139D01*
X662871Y528081D01*
X662944Y528026D01*
X663020Y527974D01*
X663098Y527925D01*
X663178Y527880D01*
X663260Y527838D01*
X663343Y527799D01*
X663428Y527764D01*
X663514Y527732D01*
X663602Y527704D01*
X663690Y527680D01*
X663780Y527659D01*
X663870Y527642D01*
X663961Y527629D01*
X664052Y527620D01*
X664144Y527614D01*
X664236Y527612D01*
X664555Y527612D01*
X664647Y527614D01*
X664739Y527620D01*
X664830Y527629D01*
X664921Y527642D01*
X665011Y527659D01*
X665101Y527680D01*
X665189Y527704D01*
X665277Y527732D01*
X665363Y527764D01*
X665448Y527799D01*
X665531Y527838D01*
X665613Y527880D01*
X665693Y527925D01*
X665771Y527974D01*
X665847Y528026D01*
X665920Y528081D01*
X665992Y528139D01*
X666061Y528199D01*
X666127Y528263D01*
X666191Y528329D01*
X666251Y528398D01*
X666309Y528470D01*
X666364Y528543D01*
X666416Y528619D01*
X666465Y528697D01*
X666510Y528777D01*
X666552Y528859D01*
X666591Y528942D01*
X666626Y529027D01*
X666658Y529113D01*
X666686Y529201D01*
X666710Y529289D01*
X666731Y529379D01*
X666748Y529469D01*
X666761Y529560D01*
X666770Y529651D01*
X666776Y529743D01*
X666778Y529835D01*
X666778Y531238D01*
X666777Y531238D02*
X666779Y531330D01*
X666785Y531422D01*
X666794Y531513D01*
X666807Y531604D01*
X666824Y531694D01*
X666845Y531784D01*
X666869Y531872D01*
X666897Y531960D01*
X666929Y532046D01*
X666964Y532131D01*
X667003Y532214D01*
X667045Y532296D01*
X667090Y532376D01*
X667139Y532454D01*
X667191Y532530D01*
X667246Y532603D01*
X667304Y532675D01*
X667364Y532744D01*
X667428Y532810D01*
X667494Y532874D01*
X667563Y532934D01*
X667635Y532992D01*
X667708Y533047D01*
X667784Y533099D01*
X667862Y533148D01*
X667942Y533193D01*
X668024Y533235D01*
X668107Y533274D01*
X668192Y533309D01*
X668278Y533341D01*
X668366Y533369D01*
X668454Y533393D01*
X668544Y533414D01*
X668634Y533431D01*
X668725Y533444D01*
X668816Y533453D01*
X668908Y533459D01*
X669000Y533461D01*
X669000Y533460D02*
X828270Y533460D01*
D17*
X827859Y509859D03*
X519468Y509532D03*
D18*
X519468Y515876D01*
X524052Y520460D01*
X817259Y520460D02*
X827859Y509859D01*
X573287Y520460D02*
X524052Y520460D01*
X573287Y520461D02*
X573379Y520459D01*
X573471Y520453D01*
X573562Y520444D01*
X573653Y520431D01*
X573743Y520414D01*
X573833Y520393D01*
X573921Y520369D01*
X574009Y520341D01*
X574095Y520309D01*
X574180Y520274D01*
X574263Y520235D01*
X574345Y520193D01*
X574425Y520148D01*
X574503Y520099D01*
X574579Y520047D01*
X574652Y519992D01*
X574724Y519934D01*
X574793Y519874D01*
X574859Y519810D01*
X574923Y519744D01*
X574983Y519675D01*
X575041Y519603D01*
X575096Y519530D01*
X575148Y519454D01*
X575197Y519376D01*
X575242Y519296D01*
X575284Y519214D01*
X575323Y519131D01*
X575358Y519046D01*
X575390Y518960D01*
X575418Y518872D01*
X575442Y518784D01*
X575463Y518694D01*
X575480Y518604D01*
X575493Y518513D01*
X575502Y518422D01*
X575508Y518330D01*
X575510Y518238D01*
X575510Y518181D01*
X575509Y518181D02*
X575511Y518089D01*
X575517Y517997D01*
X575526Y517906D01*
X575539Y517815D01*
X575556Y517725D01*
X575577Y517635D01*
X575601Y517547D01*
X575629Y517459D01*
X575661Y517373D01*
X575696Y517288D01*
X575735Y517205D01*
X575777Y517123D01*
X575822Y517043D01*
X575871Y516965D01*
X575923Y516889D01*
X575978Y516816D01*
X576036Y516744D01*
X576096Y516675D01*
X576160Y516609D01*
X576226Y516545D01*
X576295Y516485D01*
X576367Y516427D01*
X576440Y516372D01*
X576516Y516320D01*
X576594Y516271D01*
X576674Y516226D01*
X576756Y516184D01*
X576839Y516145D01*
X576924Y516110D01*
X577010Y516078D01*
X577098Y516050D01*
X577186Y516026D01*
X577276Y516005D01*
X577366Y515988D01*
X577457Y515975D01*
X577548Y515966D01*
X577640Y515960D01*
X577732Y515958D01*
X577732Y515959D02*
X578154Y515959D01*
X578154Y515958D02*
X578246Y515960D01*
X578338Y515966D01*
X578429Y515975D01*
X578520Y515988D01*
X578610Y516005D01*
X578700Y516026D01*
X578788Y516050D01*
X578876Y516078D01*
X578962Y516110D01*
X579047Y516145D01*
X579130Y516184D01*
X579212Y516226D01*
X579292Y516271D01*
X579370Y516320D01*
X579446Y516372D01*
X579519Y516427D01*
X579591Y516485D01*
X579660Y516545D01*
X579726Y516609D01*
X579790Y516675D01*
X579850Y516744D01*
X579908Y516816D01*
X579963Y516889D01*
X580015Y516965D01*
X580064Y517043D01*
X580109Y517123D01*
X580151Y517205D01*
X580190Y517288D01*
X580225Y517373D01*
X580257Y517459D01*
X580285Y517547D01*
X580309Y517635D01*
X580330Y517725D01*
X580347Y517815D01*
X580360Y517906D01*
X580369Y517997D01*
X580375Y518089D01*
X580377Y518181D01*
X580376Y518181D02*
X580376Y518238D01*
X580378Y518330D01*
X580384Y518422D01*
X580393Y518513D01*
X580406Y518604D01*
X580423Y518694D01*
X580444Y518784D01*
X580468Y518872D01*
X580496Y518960D01*
X580528Y519046D01*
X580563Y519131D01*
X580602Y519214D01*
X580644Y519296D01*
X580689Y519376D01*
X580738Y519454D01*
X580790Y519530D01*
X580845Y519603D01*
X580903Y519675D01*
X580963Y519744D01*
X581027Y519810D01*
X581093Y519874D01*
X581162Y519934D01*
X581234Y519992D01*
X581307Y520047D01*
X581383Y520099D01*
X581461Y520148D01*
X581541Y520193D01*
X581623Y520235D01*
X581706Y520274D01*
X581791Y520309D01*
X581877Y520341D01*
X581965Y520369D01*
X582053Y520393D01*
X582143Y520414D01*
X582233Y520431D01*
X582324Y520444D01*
X582415Y520453D01*
X582507Y520459D01*
X582599Y520461D01*
X582599Y520460D02*
X583021Y520460D01*
X583021Y520461D02*
X583113Y520459D01*
X583205Y520453D01*
X583296Y520444D01*
X583387Y520431D01*
X583477Y520414D01*
X583567Y520393D01*
X583655Y520369D01*
X583743Y520341D01*
X583829Y520309D01*
X583914Y520274D01*
X583997Y520235D01*
X584079Y520193D01*
X584159Y520148D01*
X584237Y520099D01*
X584313Y520047D01*
X584386Y519992D01*
X584458Y519934D01*
X584527Y519874D01*
X584593Y519810D01*
X584657Y519744D01*
X584717Y519675D01*
X584775Y519603D01*
X584830Y519530D01*
X584882Y519454D01*
X584931Y519376D01*
X584976Y519296D01*
X585018Y519214D01*
X585057Y519131D01*
X585092Y519046D01*
X585124Y518960D01*
X585152Y518872D01*
X585176Y518784D01*
X585197Y518694D01*
X585214Y518604D01*
X585227Y518513D01*
X585236Y518422D01*
X585242Y518330D01*
X585244Y518238D01*
X585243Y518238D02*
X585243Y518181D01*
X585245Y518089D01*
X585251Y517997D01*
X585260Y517906D01*
X585273Y517815D01*
X585290Y517725D01*
X585311Y517635D01*
X585335Y517547D01*
X585363Y517459D01*
X585395Y517373D01*
X585430Y517288D01*
X585469Y517205D01*
X585511Y517123D01*
X585556Y517043D01*
X585605Y516965D01*
X585657Y516889D01*
X585712Y516816D01*
X585770Y516744D01*
X585830Y516675D01*
X585894Y516609D01*
X585960Y516545D01*
X586029Y516485D01*
X586101Y516427D01*
X586174Y516372D01*
X586250Y516320D01*
X586328Y516271D01*
X586408Y516226D01*
X586490Y516184D01*
X586573Y516145D01*
X586658Y516110D01*
X586744Y516078D01*
X586832Y516050D01*
X586920Y516026D01*
X587010Y516005D01*
X587100Y515988D01*
X587191Y515975D01*
X587282Y515966D01*
X587374Y515960D01*
X587466Y515958D01*
X587466Y515959D02*
X587887Y515959D01*
X587887Y515958D02*
X587979Y515960D01*
X588071Y515966D01*
X588162Y515975D01*
X588253Y515988D01*
X588343Y516005D01*
X588433Y516026D01*
X588521Y516050D01*
X588609Y516078D01*
X588695Y516110D01*
X588780Y516145D01*
X588863Y516184D01*
X588945Y516226D01*
X589025Y516271D01*
X589103Y516320D01*
X589179Y516372D01*
X589252Y516427D01*
X589324Y516485D01*
X589393Y516545D01*
X589459Y516609D01*
X589523Y516675D01*
X589583Y516744D01*
X589641Y516816D01*
X589696Y516889D01*
X589748Y516965D01*
X589797Y517043D01*
X589842Y517123D01*
X589884Y517205D01*
X589923Y517288D01*
X589958Y517373D01*
X589990Y517459D01*
X590018Y517547D01*
X590042Y517635D01*
X590063Y517725D01*
X590080Y517815D01*
X590093Y517906D01*
X590102Y517997D01*
X590108Y518089D01*
X590110Y518181D01*
X590110Y518238D01*
X590109Y518238D02*
X590111Y518330D01*
X590117Y518422D01*
X590126Y518513D01*
X590139Y518604D01*
X590156Y518694D01*
X590177Y518784D01*
X590201Y518872D01*
X590229Y518960D01*
X590261Y519046D01*
X590296Y519131D01*
X590335Y519214D01*
X590377Y519296D01*
X590422Y519376D01*
X590471Y519454D01*
X590523Y519530D01*
X590578Y519603D01*
X590636Y519675D01*
X590696Y519744D01*
X590760Y519810D01*
X590826Y519874D01*
X590895Y519934D01*
X590967Y519992D01*
X591040Y520047D01*
X591116Y520099D01*
X591194Y520148D01*
X591274Y520193D01*
X591356Y520235D01*
X591439Y520274D01*
X591524Y520309D01*
X591610Y520341D01*
X591698Y520369D01*
X591786Y520393D01*
X591876Y520414D01*
X591966Y520431D01*
X592057Y520444D01*
X592148Y520453D01*
X592240Y520459D01*
X592332Y520461D01*
X592332Y520460D02*
X592754Y520460D01*
X592754Y520461D02*
X592846Y520459D01*
X592938Y520453D01*
X593029Y520444D01*
X593120Y520431D01*
X593210Y520414D01*
X593300Y520393D01*
X593388Y520369D01*
X593476Y520341D01*
X593562Y520309D01*
X593647Y520274D01*
X593730Y520235D01*
X593812Y520193D01*
X593892Y520148D01*
X593970Y520099D01*
X594046Y520047D01*
X594119Y519992D01*
X594191Y519934D01*
X594260Y519874D01*
X594326Y519810D01*
X594390Y519744D01*
X594450Y519675D01*
X594508Y519603D01*
X594563Y519530D01*
X594615Y519454D01*
X594664Y519376D01*
X594709Y519296D01*
X594751Y519214D01*
X594790Y519131D01*
X594825Y519046D01*
X594857Y518960D01*
X594885Y518872D01*
X594909Y518784D01*
X594930Y518694D01*
X594947Y518604D01*
X594960Y518513D01*
X594969Y518422D01*
X594975Y518330D01*
X594977Y518238D01*
X594977Y518181D01*
X594976Y518181D02*
X594978Y518089D01*
X594984Y517997D01*
X594993Y517906D01*
X595006Y517815D01*
X595023Y517725D01*
X595044Y517635D01*
X595068Y517547D01*
X595096Y517459D01*
X595128Y517373D01*
X595163Y517288D01*
X595202Y517205D01*
X595244Y517123D01*
X595289Y517043D01*
X595338Y516965D01*
X595390Y516889D01*
X595445Y516816D01*
X595503Y516744D01*
X595563Y516675D01*
X595627Y516609D01*
X595693Y516545D01*
X595762Y516485D01*
X595834Y516427D01*
X595907Y516372D01*
X595983Y516320D01*
X596061Y516271D01*
X596141Y516226D01*
X596223Y516184D01*
X596306Y516145D01*
X596391Y516110D01*
X596477Y516078D01*
X596565Y516050D01*
X596653Y516026D01*
X596743Y516005D01*
X596833Y515988D01*
X596924Y515975D01*
X597015Y515966D01*
X597107Y515960D01*
X597199Y515958D01*
X597199Y515959D02*
X597621Y515959D01*
X597621Y515958D02*
X597713Y515960D01*
X597805Y515966D01*
X597896Y515975D01*
X597987Y515988D01*
X598077Y516005D01*
X598167Y516026D01*
X598255Y516050D01*
X598343Y516078D01*
X598429Y516110D01*
X598514Y516145D01*
X598597Y516184D01*
X598679Y516226D01*
X598759Y516271D01*
X598837Y516320D01*
X598913Y516372D01*
X598986Y516427D01*
X599058Y516485D01*
X599127Y516545D01*
X599193Y516609D01*
X599257Y516675D01*
X599317Y516744D01*
X599375Y516816D01*
X599430Y516889D01*
X599482Y516965D01*
X599531Y517043D01*
X599576Y517123D01*
X599618Y517205D01*
X599657Y517288D01*
X599692Y517373D01*
X599724Y517459D01*
X599752Y517547D01*
X599776Y517635D01*
X599797Y517725D01*
X599814Y517815D01*
X599827Y517906D01*
X599836Y517997D01*
X599842Y518089D01*
X599844Y518181D01*
X599843Y518181D02*
X599843Y518238D01*
X599845Y518330D01*
X599851Y518422D01*
X599860Y518513D01*
X599873Y518604D01*
X599890Y518694D01*
X599911Y518784D01*
X599935Y518872D01*
X599963Y518960D01*
X599995Y519046D01*
X600030Y519131D01*
X600069Y519214D01*
X600111Y519296D01*
X600156Y519376D01*
X600205Y519454D01*
X600257Y519530D01*
X600312Y519603D01*
X600370Y519675D01*
X600430Y519744D01*
X600494Y519810D01*
X600560Y519874D01*
X600629Y519934D01*
X600701Y519992D01*
X600774Y520047D01*
X600850Y520099D01*
X600928Y520148D01*
X601008Y520193D01*
X601090Y520235D01*
X601173Y520274D01*
X601258Y520309D01*
X601344Y520341D01*
X601432Y520369D01*
X601520Y520393D01*
X601610Y520414D01*
X601700Y520431D01*
X601791Y520444D01*
X601882Y520453D01*
X601974Y520459D01*
X602066Y520461D01*
X602066Y520460D02*
X602488Y520460D01*
X602488Y520461D02*
X602580Y520459D01*
X602672Y520453D01*
X602763Y520444D01*
X602854Y520431D01*
X602944Y520414D01*
X603034Y520393D01*
X603122Y520369D01*
X603210Y520341D01*
X603296Y520309D01*
X603381Y520274D01*
X603464Y520235D01*
X603546Y520193D01*
X603626Y520148D01*
X603704Y520099D01*
X603780Y520047D01*
X603853Y519992D01*
X603925Y519934D01*
X603994Y519874D01*
X604060Y519810D01*
X604124Y519744D01*
X604184Y519675D01*
X604242Y519603D01*
X604297Y519530D01*
X604349Y519454D01*
X604398Y519376D01*
X604443Y519296D01*
X604485Y519214D01*
X604524Y519131D01*
X604559Y519046D01*
X604591Y518960D01*
X604619Y518872D01*
X604643Y518784D01*
X604664Y518694D01*
X604681Y518604D01*
X604694Y518513D01*
X604703Y518422D01*
X604709Y518330D01*
X604711Y518238D01*
X604710Y518238D02*
X604710Y518181D01*
X604712Y518089D01*
X604718Y517997D01*
X604727Y517906D01*
X604740Y517815D01*
X604757Y517725D01*
X604778Y517635D01*
X604802Y517547D01*
X604830Y517459D01*
X604862Y517373D01*
X604897Y517288D01*
X604936Y517205D01*
X604978Y517123D01*
X605023Y517043D01*
X605072Y516965D01*
X605124Y516889D01*
X605179Y516816D01*
X605237Y516744D01*
X605297Y516675D01*
X605361Y516609D01*
X605427Y516545D01*
X605496Y516485D01*
X605568Y516427D01*
X605641Y516372D01*
X605717Y516320D01*
X605795Y516271D01*
X605875Y516226D01*
X605957Y516184D01*
X606040Y516145D01*
X606125Y516110D01*
X606211Y516078D01*
X606299Y516050D01*
X606387Y516026D01*
X606477Y516005D01*
X606567Y515988D01*
X606658Y515975D01*
X606749Y515966D01*
X606841Y515960D01*
X606933Y515958D01*
X606933Y515959D02*
X607354Y515959D01*
X607354Y515958D02*
X607446Y515960D01*
X607538Y515966D01*
X607629Y515975D01*
X607720Y515988D01*
X607810Y516005D01*
X607900Y516026D01*
X607988Y516050D01*
X608076Y516078D01*
X608162Y516110D01*
X608247Y516145D01*
X608330Y516184D01*
X608412Y516226D01*
X608492Y516271D01*
X608570Y516320D01*
X608646Y516372D01*
X608719Y516427D01*
X608791Y516485D01*
X608860Y516545D01*
X608926Y516609D01*
X608990Y516675D01*
X609050Y516744D01*
X609108Y516816D01*
X609163Y516889D01*
X609215Y516965D01*
X609264Y517043D01*
X609309Y517123D01*
X609351Y517205D01*
X609390Y517288D01*
X609425Y517373D01*
X609457Y517459D01*
X609485Y517547D01*
X609509Y517635D01*
X609530Y517725D01*
X609547Y517815D01*
X609560Y517906D01*
X609569Y517997D01*
X609575Y518089D01*
X609577Y518181D01*
X609577Y518238D01*
X609576Y518238D02*
X609578Y518330D01*
X609584Y518422D01*
X609593Y518513D01*
X609606Y518604D01*
X609623Y518694D01*
X609644Y518784D01*
X609668Y518872D01*
X609696Y518960D01*
X609728Y519046D01*
X609763Y519131D01*
X609802Y519214D01*
X609844Y519296D01*
X609889Y519376D01*
X609938Y519454D01*
X609990Y519530D01*
X610045Y519603D01*
X610103Y519675D01*
X610163Y519744D01*
X610227Y519810D01*
X610293Y519874D01*
X610362Y519934D01*
X610434Y519992D01*
X610507Y520047D01*
X610583Y520099D01*
X610661Y520148D01*
X610741Y520193D01*
X610823Y520235D01*
X610906Y520274D01*
X610991Y520309D01*
X611077Y520341D01*
X611165Y520369D01*
X611253Y520393D01*
X611343Y520414D01*
X611433Y520431D01*
X611524Y520444D01*
X611615Y520453D01*
X611707Y520459D01*
X611799Y520461D01*
X611799Y520460D02*
X612221Y520460D01*
X612221Y520461D02*
X612313Y520459D01*
X612405Y520453D01*
X612496Y520444D01*
X612587Y520431D01*
X612677Y520414D01*
X612767Y520393D01*
X612855Y520369D01*
X612943Y520341D01*
X613029Y520309D01*
X613114Y520274D01*
X613197Y520235D01*
X613279Y520193D01*
X613359Y520148D01*
X613437Y520099D01*
X613513Y520047D01*
X613586Y519992D01*
X613658Y519934D01*
X613727Y519874D01*
X613793Y519810D01*
X613857Y519744D01*
X613917Y519675D01*
X613975Y519603D01*
X614030Y519530D01*
X614082Y519454D01*
X614131Y519376D01*
X614176Y519296D01*
X614218Y519214D01*
X614257Y519131D01*
X614292Y519046D01*
X614324Y518960D01*
X614352Y518872D01*
X614376Y518784D01*
X614397Y518694D01*
X614414Y518604D01*
X614427Y518513D01*
X614436Y518422D01*
X614442Y518330D01*
X614444Y518238D01*
X614444Y518181D01*
X614443Y518181D02*
X614445Y518089D01*
X614451Y517997D01*
X614460Y517906D01*
X614473Y517815D01*
X614490Y517725D01*
X614511Y517635D01*
X614535Y517547D01*
X614563Y517459D01*
X614595Y517373D01*
X614630Y517288D01*
X614669Y517205D01*
X614711Y517123D01*
X614756Y517043D01*
X614805Y516965D01*
X614857Y516889D01*
X614912Y516816D01*
X614970Y516744D01*
X615030Y516675D01*
X615094Y516609D01*
X615160Y516545D01*
X615229Y516485D01*
X615301Y516427D01*
X615374Y516372D01*
X615450Y516320D01*
X615528Y516271D01*
X615608Y516226D01*
X615690Y516184D01*
X615773Y516145D01*
X615858Y516110D01*
X615944Y516078D01*
X616032Y516050D01*
X616120Y516026D01*
X616210Y516005D01*
X616300Y515988D01*
X616391Y515975D01*
X616482Y515966D01*
X616574Y515960D01*
X616666Y515958D01*
X616666Y515959D02*
X617088Y515959D01*
X617088Y515958D02*
X617180Y515960D01*
X617272Y515966D01*
X617363Y515975D01*
X617454Y515988D01*
X617544Y516005D01*
X617634Y516026D01*
X617722Y516050D01*
X617810Y516078D01*
X617896Y516110D01*
X617981Y516145D01*
X618064Y516184D01*
X618146Y516226D01*
X618226Y516271D01*
X618304Y516320D01*
X618380Y516372D01*
X618453Y516427D01*
X618525Y516485D01*
X618594Y516545D01*
X618660Y516609D01*
X618724Y516675D01*
X618784Y516744D01*
X618842Y516816D01*
X618897Y516889D01*
X618949Y516965D01*
X618998Y517043D01*
X619043Y517123D01*
X619085Y517205D01*
X619124Y517288D01*
X619159Y517373D01*
X619191Y517459D01*
X619219Y517547D01*
X619243Y517635D01*
X619264Y517725D01*
X619281Y517815D01*
X619294Y517906D01*
X619303Y517997D01*
X619309Y518089D01*
X619311Y518181D01*
X619310Y518181D02*
X619310Y518238D01*
X619312Y518330D01*
X619318Y518422D01*
X619327Y518513D01*
X619340Y518604D01*
X619357Y518694D01*
X619378Y518784D01*
X619402Y518872D01*
X619430Y518960D01*
X619462Y519046D01*
X619497Y519131D01*
X619536Y519214D01*
X619578Y519296D01*
X619623Y519376D01*
X619672Y519454D01*
X619724Y519530D01*
X619779Y519603D01*
X619837Y519675D01*
X619897Y519744D01*
X619961Y519810D01*
X620027Y519874D01*
X620096Y519934D01*
X620168Y519992D01*
X620241Y520047D01*
X620317Y520099D01*
X620395Y520148D01*
X620475Y520193D01*
X620557Y520235D01*
X620640Y520274D01*
X620725Y520309D01*
X620811Y520341D01*
X620899Y520369D01*
X620987Y520393D01*
X621077Y520414D01*
X621167Y520431D01*
X621258Y520444D01*
X621349Y520453D01*
X621441Y520459D01*
X621533Y520461D01*
X621533Y520460D02*
X621955Y520460D01*
X621955Y520461D02*
X622047Y520459D01*
X622139Y520453D01*
X622230Y520444D01*
X622321Y520431D01*
X622411Y520414D01*
X622501Y520393D01*
X622589Y520369D01*
X622677Y520341D01*
X622763Y520309D01*
X622848Y520274D01*
X622931Y520235D01*
X623013Y520193D01*
X623093Y520148D01*
X623171Y520099D01*
X623247Y520047D01*
X623320Y519992D01*
X623392Y519934D01*
X623461Y519874D01*
X623527Y519810D01*
X623591Y519744D01*
X623651Y519675D01*
X623709Y519603D01*
X623764Y519530D01*
X623816Y519454D01*
X623865Y519376D01*
X623910Y519296D01*
X623952Y519214D01*
X623991Y519131D01*
X624026Y519046D01*
X624058Y518960D01*
X624086Y518872D01*
X624110Y518784D01*
X624131Y518694D01*
X624148Y518604D01*
X624161Y518513D01*
X624170Y518422D01*
X624176Y518330D01*
X624178Y518238D01*
X624177Y518238D02*
X624177Y518181D01*
X624179Y518089D01*
X624185Y517997D01*
X624194Y517906D01*
X624207Y517815D01*
X624224Y517725D01*
X624245Y517635D01*
X624269Y517547D01*
X624297Y517459D01*
X624329Y517373D01*
X624364Y517288D01*
X624403Y517205D01*
X624445Y517123D01*
X624490Y517043D01*
X624539Y516965D01*
X624591Y516889D01*
X624646Y516816D01*
X624704Y516744D01*
X624764Y516675D01*
X624828Y516609D01*
X624894Y516545D01*
X624963Y516485D01*
X625035Y516427D01*
X625108Y516372D01*
X625184Y516320D01*
X625262Y516271D01*
X625342Y516226D01*
X625424Y516184D01*
X625507Y516145D01*
X625592Y516110D01*
X625678Y516078D01*
X625766Y516050D01*
X625854Y516026D01*
X625944Y516005D01*
X626034Y515988D01*
X626125Y515975D01*
X626216Y515966D01*
X626308Y515960D01*
X626400Y515958D01*
X626400Y515959D02*
X626822Y515959D01*
X626822Y515958D02*
X626914Y515960D01*
X627006Y515966D01*
X627097Y515975D01*
X627188Y515988D01*
X627278Y516005D01*
X627368Y516026D01*
X627456Y516050D01*
X627544Y516078D01*
X627630Y516110D01*
X627715Y516145D01*
X627798Y516184D01*
X627880Y516226D01*
X627960Y516271D01*
X628038Y516320D01*
X628114Y516372D01*
X628187Y516427D01*
X628259Y516485D01*
X628328Y516545D01*
X628394Y516609D01*
X628458Y516675D01*
X628518Y516744D01*
X628576Y516816D01*
X628631Y516889D01*
X628683Y516965D01*
X628732Y517043D01*
X628777Y517123D01*
X628819Y517205D01*
X628858Y517288D01*
X628893Y517373D01*
X628925Y517459D01*
X628953Y517547D01*
X628977Y517635D01*
X628998Y517725D01*
X629015Y517815D01*
X629028Y517906D01*
X629037Y517997D01*
X629043Y518089D01*
X629045Y518181D01*
X629044Y518181D02*
X629044Y518238D01*
X629046Y518330D01*
X629052Y518422D01*
X629061Y518513D01*
X629074Y518604D01*
X629091Y518694D01*
X629112Y518784D01*
X629136Y518872D01*
X629164Y518960D01*
X629196Y519046D01*
X629231Y519131D01*
X629270Y519214D01*
X629312Y519296D01*
X629357Y519376D01*
X629406Y519454D01*
X629458Y519530D01*
X629513Y519603D01*
X629571Y519675D01*
X629631Y519744D01*
X629695Y519810D01*
X629761Y519874D01*
X629830Y519934D01*
X629902Y519992D01*
X629975Y520047D01*
X630051Y520099D01*
X630129Y520148D01*
X630209Y520193D01*
X630291Y520235D01*
X630374Y520274D01*
X630459Y520309D01*
X630545Y520341D01*
X630633Y520369D01*
X630721Y520393D01*
X630811Y520414D01*
X630901Y520431D01*
X630992Y520444D01*
X631083Y520453D01*
X631175Y520459D01*
X631267Y520461D01*
X631267Y520460D02*
X631688Y520460D01*
X631688Y520461D02*
X631780Y520459D01*
X631872Y520453D01*
X631963Y520444D01*
X632054Y520431D01*
X632144Y520414D01*
X632234Y520393D01*
X632322Y520369D01*
X632410Y520341D01*
X632496Y520309D01*
X632581Y520274D01*
X632664Y520235D01*
X632746Y520193D01*
X632826Y520148D01*
X632904Y520099D01*
X632980Y520047D01*
X633053Y519992D01*
X633125Y519934D01*
X633194Y519874D01*
X633260Y519810D01*
X633324Y519744D01*
X633384Y519675D01*
X633442Y519603D01*
X633497Y519530D01*
X633549Y519454D01*
X633598Y519376D01*
X633643Y519296D01*
X633685Y519214D01*
X633724Y519131D01*
X633759Y519046D01*
X633791Y518960D01*
X633819Y518872D01*
X633843Y518784D01*
X633864Y518694D01*
X633881Y518604D01*
X633894Y518513D01*
X633903Y518422D01*
X633909Y518330D01*
X633911Y518238D01*
X633911Y518181D01*
X633910Y518181D02*
X633912Y518089D01*
X633918Y517997D01*
X633927Y517906D01*
X633940Y517815D01*
X633957Y517725D01*
X633978Y517635D01*
X634002Y517547D01*
X634030Y517459D01*
X634062Y517373D01*
X634097Y517288D01*
X634136Y517205D01*
X634178Y517123D01*
X634223Y517043D01*
X634272Y516965D01*
X634324Y516889D01*
X634379Y516816D01*
X634437Y516744D01*
X634497Y516675D01*
X634561Y516609D01*
X634627Y516545D01*
X634696Y516485D01*
X634768Y516427D01*
X634841Y516372D01*
X634917Y516320D01*
X634995Y516271D01*
X635075Y516226D01*
X635157Y516184D01*
X635240Y516145D01*
X635325Y516110D01*
X635411Y516078D01*
X635499Y516050D01*
X635587Y516026D01*
X635677Y516005D01*
X635767Y515988D01*
X635858Y515975D01*
X635949Y515966D01*
X636041Y515960D01*
X636133Y515958D01*
X636133Y515959D02*
X636555Y515959D01*
X636555Y515958D02*
X636647Y515960D01*
X636739Y515966D01*
X636830Y515975D01*
X636921Y515988D01*
X637011Y516005D01*
X637101Y516026D01*
X637189Y516050D01*
X637277Y516078D01*
X637363Y516110D01*
X637448Y516145D01*
X637531Y516184D01*
X637613Y516226D01*
X637693Y516271D01*
X637771Y516320D01*
X637847Y516372D01*
X637920Y516427D01*
X637992Y516485D01*
X638061Y516545D01*
X638127Y516609D01*
X638191Y516675D01*
X638251Y516744D01*
X638309Y516816D01*
X638364Y516889D01*
X638416Y516965D01*
X638465Y517043D01*
X638510Y517123D01*
X638552Y517205D01*
X638591Y517288D01*
X638626Y517373D01*
X638658Y517459D01*
X638686Y517547D01*
X638710Y517635D01*
X638731Y517725D01*
X638748Y517815D01*
X638761Y517906D01*
X638770Y517997D01*
X638776Y518089D01*
X638778Y518181D01*
X638778Y518238D01*
X638777Y518238D02*
X638779Y518330D01*
X638785Y518422D01*
X638794Y518513D01*
X638807Y518604D01*
X638824Y518694D01*
X638845Y518784D01*
X638869Y518872D01*
X638897Y518960D01*
X638929Y519046D01*
X638964Y519131D01*
X639003Y519214D01*
X639045Y519296D01*
X639090Y519376D01*
X639139Y519454D01*
X639191Y519530D01*
X639246Y519603D01*
X639304Y519675D01*
X639364Y519744D01*
X639428Y519810D01*
X639494Y519874D01*
X639563Y519934D01*
X639635Y519992D01*
X639708Y520047D01*
X639784Y520099D01*
X639862Y520148D01*
X639942Y520193D01*
X640024Y520235D01*
X640107Y520274D01*
X640192Y520309D01*
X640278Y520341D01*
X640366Y520369D01*
X640454Y520393D01*
X640544Y520414D01*
X640634Y520431D01*
X640725Y520444D01*
X640816Y520453D01*
X640908Y520459D01*
X641000Y520461D01*
X641000Y520460D02*
X817259Y520460D01*
D17*
X531032Y504095D03*
X824032Y495032D03*
D18*
X823000Y496063D01*
X823000Y499408D01*
X811948Y510460D01*
X537397Y510460D02*
X531032Y504095D01*
X537397Y510460D02*
X659218Y510460D01*
X659218Y510461D02*
X659310Y510459D01*
X659402Y510453D01*
X659493Y510444D01*
X659584Y510431D01*
X659674Y510414D01*
X659764Y510393D01*
X659852Y510369D01*
X659940Y510341D01*
X660026Y510309D01*
X660111Y510274D01*
X660194Y510235D01*
X660276Y510193D01*
X660356Y510148D01*
X660434Y510099D01*
X660510Y510047D01*
X660583Y509992D01*
X660655Y509934D01*
X660724Y509874D01*
X660790Y509810D01*
X660854Y509744D01*
X660914Y509675D01*
X660972Y509603D01*
X661027Y509530D01*
X661079Y509454D01*
X661128Y509376D01*
X661173Y509296D01*
X661215Y509214D01*
X661254Y509131D01*
X661289Y509046D01*
X661321Y508960D01*
X661349Y508872D01*
X661373Y508784D01*
X661394Y508694D01*
X661411Y508604D01*
X661424Y508513D01*
X661433Y508422D01*
X661439Y508330D01*
X661441Y508238D01*
X661441Y508164D01*
X661440Y508164D02*
X661442Y508072D01*
X661448Y507980D01*
X661457Y507889D01*
X661470Y507798D01*
X661487Y507708D01*
X661508Y507618D01*
X661532Y507530D01*
X661560Y507442D01*
X661592Y507356D01*
X661627Y507271D01*
X661666Y507188D01*
X661708Y507106D01*
X661753Y507026D01*
X661802Y506948D01*
X661854Y506872D01*
X661909Y506799D01*
X661967Y506727D01*
X662027Y506658D01*
X662091Y506592D01*
X662157Y506528D01*
X662226Y506468D01*
X662298Y506410D01*
X662371Y506355D01*
X662447Y506303D01*
X662525Y506254D01*
X662605Y506209D01*
X662687Y506167D01*
X662770Y506128D01*
X662855Y506093D01*
X662941Y506061D01*
X663029Y506033D01*
X663117Y506009D01*
X663207Y505988D01*
X663297Y505971D01*
X663388Y505958D01*
X663479Y505949D01*
X663571Y505943D01*
X663663Y505941D01*
X663663Y505942D02*
X663794Y505942D01*
X663794Y505941D02*
X663886Y505943D01*
X663978Y505949D01*
X664069Y505958D01*
X664160Y505971D01*
X664250Y505988D01*
X664340Y506009D01*
X664428Y506033D01*
X664516Y506061D01*
X664602Y506093D01*
X664687Y506128D01*
X664770Y506167D01*
X664852Y506209D01*
X664932Y506254D01*
X665010Y506303D01*
X665086Y506355D01*
X665159Y506410D01*
X665231Y506468D01*
X665300Y506528D01*
X665366Y506592D01*
X665430Y506658D01*
X665490Y506727D01*
X665548Y506799D01*
X665603Y506872D01*
X665655Y506948D01*
X665704Y507026D01*
X665749Y507106D01*
X665791Y507188D01*
X665830Y507271D01*
X665865Y507356D01*
X665897Y507442D01*
X665925Y507530D01*
X665949Y507618D01*
X665970Y507708D01*
X665987Y507798D01*
X666000Y507889D01*
X666009Y507980D01*
X666015Y508072D01*
X666017Y508164D01*
X666017Y508238D01*
X666016Y508238D02*
X666018Y508330D01*
X666024Y508422D01*
X666033Y508513D01*
X666046Y508604D01*
X666063Y508694D01*
X666084Y508784D01*
X666108Y508872D01*
X666136Y508960D01*
X666168Y509046D01*
X666203Y509131D01*
X666242Y509214D01*
X666284Y509296D01*
X666329Y509376D01*
X666378Y509454D01*
X666430Y509530D01*
X666485Y509603D01*
X666543Y509675D01*
X666603Y509744D01*
X666667Y509810D01*
X666733Y509874D01*
X666802Y509934D01*
X666874Y509992D01*
X666947Y510047D01*
X667023Y510099D01*
X667101Y510148D01*
X667181Y510193D01*
X667263Y510235D01*
X667346Y510274D01*
X667431Y510309D01*
X667517Y510341D01*
X667605Y510369D01*
X667693Y510393D01*
X667783Y510414D01*
X667873Y510431D01*
X667964Y510444D01*
X668055Y510453D01*
X668147Y510459D01*
X668239Y510461D01*
X668239Y510460D02*
X668370Y510460D01*
X668370Y510461D02*
X668462Y510459D01*
X668554Y510453D01*
X668645Y510444D01*
X668736Y510431D01*
X668826Y510414D01*
X668916Y510393D01*
X669004Y510369D01*
X669092Y510341D01*
X669178Y510309D01*
X669263Y510274D01*
X669346Y510235D01*
X669428Y510193D01*
X669508Y510148D01*
X669586Y510099D01*
X669662Y510047D01*
X669735Y509992D01*
X669807Y509934D01*
X669876Y509874D01*
X669942Y509810D01*
X670006Y509744D01*
X670066Y509675D01*
X670124Y509603D01*
X670179Y509530D01*
X670231Y509454D01*
X670280Y509376D01*
X670325Y509296D01*
X670367Y509214D01*
X670406Y509131D01*
X670441Y509046D01*
X670473Y508960D01*
X670501Y508872D01*
X670525Y508784D01*
X670546Y508694D01*
X670563Y508604D01*
X670576Y508513D01*
X670585Y508422D01*
X670591Y508330D01*
X670593Y508238D01*
X670593Y508164D01*
X670592Y508164D02*
X670594Y508072D01*
X670600Y507980D01*
X670609Y507889D01*
X670622Y507798D01*
X670639Y507708D01*
X670660Y507618D01*
X670684Y507530D01*
X670712Y507442D01*
X670744Y507356D01*
X670779Y507271D01*
X670818Y507188D01*
X670860Y507106D01*
X670905Y507026D01*
X670954Y506948D01*
X671006Y506872D01*
X671061Y506799D01*
X671119Y506727D01*
X671179Y506658D01*
X671243Y506592D01*
X671309Y506528D01*
X671378Y506468D01*
X671450Y506410D01*
X671523Y506355D01*
X671599Y506303D01*
X671677Y506254D01*
X671757Y506209D01*
X671839Y506167D01*
X671922Y506128D01*
X672007Y506093D01*
X672093Y506061D01*
X672181Y506033D01*
X672269Y506009D01*
X672359Y505988D01*
X672449Y505971D01*
X672540Y505958D01*
X672631Y505949D01*
X672723Y505943D01*
X672815Y505941D01*
X672815Y505942D02*
X672946Y505942D01*
X672946Y505941D02*
X673038Y505943D01*
X673130Y505949D01*
X673221Y505958D01*
X673312Y505971D01*
X673402Y505988D01*
X673492Y506009D01*
X673580Y506033D01*
X673668Y506061D01*
X673754Y506093D01*
X673839Y506128D01*
X673922Y506167D01*
X674004Y506209D01*
X674084Y506254D01*
X674162Y506303D01*
X674238Y506355D01*
X674311Y506410D01*
X674383Y506468D01*
X674452Y506528D01*
X674518Y506592D01*
X674582Y506658D01*
X674642Y506727D01*
X674700Y506799D01*
X674755Y506872D01*
X674807Y506948D01*
X674856Y507026D01*
X674901Y507106D01*
X674943Y507188D01*
X674982Y507271D01*
X675017Y507356D01*
X675049Y507442D01*
X675077Y507530D01*
X675101Y507618D01*
X675122Y507708D01*
X675139Y507798D01*
X675152Y507889D01*
X675161Y507980D01*
X675167Y508072D01*
X675169Y508164D01*
X675169Y508238D01*
X675168Y508238D02*
X675170Y508330D01*
X675176Y508422D01*
X675185Y508513D01*
X675198Y508604D01*
X675215Y508694D01*
X675236Y508784D01*
X675260Y508872D01*
X675288Y508960D01*
X675320Y509046D01*
X675355Y509131D01*
X675394Y509214D01*
X675436Y509296D01*
X675481Y509376D01*
X675530Y509454D01*
X675582Y509530D01*
X675637Y509603D01*
X675695Y509675D01*
X675755Y509744D01*
X675819Y509810D01*
X675885Y509874D01*
X675954Y509934D01*
X676026Y509992D01*
X676099Y510047D01*
X676175Y510099D01*
X676253Y510148D01*
X676333Y510193D01*
X676415Y510235D01*
X676498Y510274D01*
X676583Y510309D01*
X676669Y510341D01*
X676757Y510369D01*
X676845Y510393D01*
X676935Y510414D01*
X677025Y510431D01*
X677116Y510444D01*
X677207Y510453D01*
X677299Y510459D01*
X677391Y510461D01*
X677391Y510460D02*
X677522Y510460D01*
X677522Y510461D02*
X677614Y510459D01*
X677706Y510453D01*
X677797Y510444D01*
X677888Y510431D01*
X677978Y510414D01*
X678068Y510393D01*
X678156Y510369D01*
X678244Y510341D01*
X678330Y510309D01*
X678415Y510274D01*
X678498Y510235D01*
X678580Y510193D01*
X678660Y510148D01*
X678738Y510099D01*
X678814Y510047D01*
X678887Y509992D01*
X678959Y509934D01*
X679028Y509874D01*
X679094Y509810D01*
X679158Y509744D01*
X679218Y509675D01*
X679276Y509603D01*
X679331Y509530D01*
X679383Y509454D01*
X679432Y509376D01*
X679477Y509296D01*
X679519Y509214D01*
X679558Y509131D01*
X679593Y509046D01*
X679625Y508960D01*
X679653Y508872D01*
X679677Y508784D01*
X679698Y508694D01*
X679715Y508604D01*
X679728Y508513D01*
X679737Y508422D01*
X679743Y508330D01*
X679745Y508238D01*
X679745Y508164D01*
X679744Y508164D02*
X679746Y508072D01*
X679752Y507980D01*
X679761Y507889D01*
X679774Y507798D01*
X679791Y507708D01*
X679812Y507618D01*
X679836Y507530D01*
X679864Y507442D01*
X679896Y507356D01*
X679931Y507271D01*
X679970Y507188D01*
X680012Y507106D01*
X680057Y507026D01*
X680106Y506948D01*
X680158Y506872D01*
X680213Y506799D01*
X680271Y506727D01*
X680331Y506658D01*
X680395Y506592D01*
X680461Y506528D01*
X680530Y506468D01*
X680602Y506410D01*
X680675Y506355D01*
X680751Y506303D01*
X680829Y506254D01*
X680909Y506209D01*
X680991Y506167D01*
X681074Y506128D01*
X681159Y506093D01*
X681245Y506061D01*
X681333Y506033D01*
X681421Y506009D01*
X681511Y505988D01*
X681601Y505971D01*
X681692Y505958D01*
X681783Y505949D01*
X681875Y505943D01*
X681967Y505941D01*
X681967Y505942D02*
X682099Y505942D01*
X682099Y505941D02*
X682191Y505943D01*
X682283Y505949D01*
X682374Y505958D01*
X682465Y505971D01*
X682555Y505988D01*
X682645Y506009D01*
X682733Y506033D01*
X682821Y506061D01*
X682907Y506093D01*
X682992Y506128D01*
X683075Y506167D01*
X683157Y506209D01*
X683237Y506254D01*
X683315Y506303D01*
X683391Y506355D01*
X683464Y506410D01*
X683536Y506468D01*
X683605Y506528D01*
X683671Y506592D01*
X683735Y506658D01*
X683795Y506727D01*
X683853Y506799D01*
X683908Y506872D01*
X683960Y506948D01*
X684009Y507026D01*
X684054Y507106D01*
X684096Y507188D01*
X684135Y507271D01*
X684170Y507356D01*
X684202Y507442D01*
X684230Y507530D01*
X684254Y507618D01*
X684275Y507708D01*
X684292Y507798D01*
X684305Y507889D01*
X684314Y507980D01*
X684320Y508072D01*
X684322Y508164D01*
X684321Y508164D02*
X684321Y508238D01*
X684323Y508330D01*
X684329Y508422D01*
X684338Y508513D01*
X684351Y508604D01*
X684368Y508694D01*
X684389Y508784D01*
X684413Y508872D01*
X684441Y508960D01*
X684473Y509046D01*
X684508Y509131D01*
X684547Y509214D01*
X684589Y509296D01*
X684634Y509376D01*
X684683Y509454D01*
X684735Y509530D01*
X684790Y509603D01*
X684848Y509675D01*
X684908Y509744D01*
X684972Y509810D01*
X685038Y509874D01*
X685107Y509934D01*
X685179Y509992D01*
X685252Y510047D01*
X685328Y510099D01*
X685406Y510148D01*
X685486Y510193D01*
X685568Y510235D01*
X685651Y510274D01*
X685736Y510309D01*
X685822Y510341D01*
X685910Y510369D01*
X685998Y510393D01*
X686088Y510414D01*
X686178Y510431D01*
X686269Y510444D01*
X686360Y510453D01*
X686452Y510459D01*
X686544Y510461D01*
X686544Y510460D02*
X686675Y510460D01*
X686675Y510461D02*
X686767Y510459D01*
X686859Y510453D01*
X686950Y510444D01*
X687041Y510431D01*
X687131Y510414D01*
X687221Y510393D01*
X687309Y510369D01*
X687397Y510341D01*
X687483Y510309D01*
X687568Y510274D01*
X687651Y510235D01*
X687733Y510193D01*
X687813Y510148D01*
X687891Y510099D01*
X687967Y510047D01*
X688040Y509992D01*
X688112Y509934D01*
X688181Y509874D01*
X688247Y509810D01*
X688311Y509744D01*
X688371Y509675D01*
X688429Y509603D01*
X688484Y509530D01*
X688536Y509454D01*
X688585Y509376D01*
X688630Y509296D01*
X688672Y509214D01*
X688711Y509131D01*
X688746Y509046D01*
X688778Y508960D01*
X688806Y508872D01*
X688830Y508784D01*
X688851Y508694D01*
X688868Y508604D01*
X688881Y508513D01*
X688890Y508422D01*
X688896Y508330D01*
X688898Y508238D01*
X688897Y508238D02*
X688897Y508164D01*
X688899Y508072D01*
X688905Y507980D01*
X688914Y507889D01*
X688927Y507798D01*
X688944Y507708D01*
X688965Y507618D01*
X688989Y507530D01*
X689017Y507442D01*
X689049Y507356D01*
X689084Y507271D01*
X689123Y507188D01*
X689165Y507106D01*
X689210Y507026D01*
X689259Y506948D01*
X689311Y506872D01*
X689366Y506799D01*
X689424Y506727D01*
X689484Y506658D01*
X689548Y506592D01*
X689614Y506528D01*
X689683Y506468D01*
X689755Y506410D01*
X689828Y506355D01*
X689904Y506303D01*
X689982Y506254D01*
X690062Y506209D01*
X690144Y506167D01*
X690227Y506128D01*
X690312Y506093D01*
X690398Y506061D01*
X690486Y506033D01*
X690574Y506009D01*
X690664Y505988D01*
X690754Y505971D01*
X690845Y505958D01*
X690936Y505949D01*
X691028Y505943D01*
X691120Y505941D01*
X691120Y505942D02*
X691251Y505942D01*
X691251Y505941D02*
X691343Y505943D01*
X691435Y505949D01*
X691526Y505958D01*
X691617Y505971D01*
X691707Y505988D01*
X691797Y506009D01*
X691885Y506033D01*
X691973Y506061D01*
X692059Y506093D01*
X692144Y506128D01*
X692227Y506167D01*
X692309Y506209D01*
X692389Y506254D01*
X692467Y506303D01*
X692543Y506355D01*
X692616Y506410D01*
X692688Y506468D01*
X692757Y506528D01*
X692823Y506592D01*
X692887Y506658D01*
X692947Y506727D01*
X693005Y506799D01*
X693060Y506872D01*
X693112Y506948D01*
X693161Y507026D01*
X693206Y507106D01*
X693248Y507188D01*
X693287Y507271D01*
X693322Y507356D01*
X693354Y507442D01*
X693382Y507530D01*
X693406Y507618D01*
X693427Y507708D01*
X693444Y507798D01*
X693457Y507889D01*
X693466Y507980D01*
X693472Y508072D01*
X693474Y508164D01*
X693473Y508164D02*
X693473Y508238D01*
X693475Y508330D01*
X693481Y508422D01*
X693490Y508513D01*
X693503Y508604D01*
X693520Y508694D01*
X693541Y508784D01*
X693565Y508872D01*
X693593Y508960D01*
X693625Y509046D01*
X693660Y509131D01*
X693699Y509214D01*
X693741Y509296D01*
X693786Y509376D01*
X693835Y509454D01*
X693887Y509530D01*
X693942Y509603D01*
X694000Y509675D01*
X694060Y509744D01*
X694124Y509810D01*
X694190Y509874D01*
X694259Y509934D01*
X694331Y509992D01*
X694404Y510047D01*
X694480Y510099D01*
X694558Y510148D01*
X694638Y510193D01*
X694720Y510235D01*
X694803Y510274D01*
X694888Y510309D01*
X694974Y510341D01*
X695062Y510369D01*
X695150Y510393D01*
X695240Y510414D01*
X695330Y510431D01*
X695421Y510444D01*
X695512Y510453D01*
X695604Y510459D01*
X695696Y510461D01*
X695696Y510460D02*
X695827Y510460D01*
X695827Y510461D02*
X695919Y510459D01*
X696011Y510453D01*
X696102Y510444D01*
X696193Y510431D01*
X696283Y510414D01*
X696373Y510393D01*
X696461Y510369D01*
X696549Y510341D01*
X696635Y510309D01*
X696720Y510274D01*
X696803Y510235D01*
X696885Y510193D01*
X696965Y510148D01*
X697043Y510099D01*
X697119Y510047D01*
X697192Y509992D01*
X697264Y509934D01*
X697333Y509874D01*
X697399Y509810D01*
X697463Y509744D01*
X697523Y509675D01*
X697581Y509603D01*
X697636Y509530D01*
X697688Y509454D01*
X697737Y509376D01*
X697782Y509296D01*
X697824Y509214D01*
X697863Y509131D01*
X697898Y509046D01*
X697930Y508960D01*
X697958Y508872D01*
X697982Y508784D01*
X698003Y508694D01*
X698020Y508604D01*
X698033Y508513D01*
X698042Y508422D01*
X698048Y508330D01*
X698050Y508238D01*
X698049Y508238D02*
X698049Y508164D01*
X698051Y508072D01*
X698057Y507980D01*
X698066Y507889D01*
X698079Y507798D01*
X698096Y507708D01*
X698117Y507618D01*
X698141Y507530D01*
X698169Y507442D01*
X698201Y507356D01*
X698236Y507271D01*
X698275Y507188D01*
X698317Y507106D01*
X698362Y507026D01*
X698411Y506948D01*
X698463Y506872D01*
X698518Y506799D01*
X698576Y506727D01*
X698636Y506658D01*
X698700Y506592D01*
X698766Y506528D01*
X698835Y506468D01*
X698907Y506410D01*
X698980Y506355D01*
X699056Y506303D01*
X699134Y506254D01*
X699214Y506209D01*
X699296Y506167D01*
X699379Y506128D01*
X699464Y506093D01*
X699550Y506061D01*
X699638Y506033D01*
X699726Y506009D01*
X699816Y505988D01*
X699906Y505971D01*
X699997Y505958D01*
X700088Y505949D01*
X700180Y505943D01*
X700272Y505941D01*
X700272Y505942D02*
X700403Y505942D01*
X700403Y505941D02*
X700495Y505943D01*
X700587Y505949D01*
X700678Y505958D01*
X700769Y505971D01*
X700859Y505988D01*
X700949Y506009D01*
X701037Y506033D01*
X701125Y506061D01*
X701211Y506093D01*
X701296Y506128D01*
X701379Y506167D01*
X701461Y506209D01*
X701541Y506254D01*
X701619Y506303D01*
X701695Y506355D01*
X701768Y506410D01*
X701840Y506468D01*
X701909Y506528D01*
X701975Y506592D01*
X702039Y506658D01*
X702099Y506727D01*
X702157Y506799D01*
X702212Y506872D01*
X702264Y506948D01*
X702313Y507026D01*
X702358Y507106D01*
X702400Y507188D01*
X702439Y507271D01*
X702474Y507356D01*
X702506Y507442D01*
X702534Y507530D01*
X702558Y507618D01*
X702579Y507708D01*
X702596Y507798D01*
X702609Y507889D01*
X702618Y507980D01*
X702624Y508072D01*
X702626Y508164D01*
X702625Y508164D02*
X702625Y508238D01*
X702627Y508330D01*
X702633Y508422D01*
X702642Y508513D01*
X702655Y508604D01*
X702672Y508694D01*
X702693Y508784D01*
X702717Y508872D01*
X702745Y508960D01*
X702777Y509046D01*
X702812Y509131D01*
X702851Y509214D01*
X702893Y509296D01*
X702938Y509376D01*
X702987Y509454D01*
X703039Y509530D01*
X703094Y509603D01*
X703152Y509675D01*
X703212Y509744D01*
X703276Y509810D01*
X703342Y509874D01*
X703411Y509934D01*
X703483Y509992D01*
X703556Y510047D01*
X703632Y510099D01*
X703710Y510148D01*
X703790Y510193D01*
X703872Y510235D01*
X703955Y510274D01*
X704040Y510309D01*
X704126Y510341D01*
X704214Y510369D01*
X704302Y510393D01*
X704392Y510414D01*
X704482Y510431D01*
X704573Y510444D01*
X704664Y510453D01*
X704756Y510459D01*
X704848Y510461D01*
X704848Y510460D02*
X704979Y510460D01*
X704979Y510461D02*
X705071Y510459D01*
X705163Y510453D01*
X705254Y510444D01*
X705345Y510431D01*
X705435Y510414D01*
X705525Y510393D01*
X705613Y510369D01*
X705701Y510341D01*
X705787Y510309D01*
X705872Y510274D01*
X705955Y510235D01*
X706037Y510193D01*
X706117Y510148D01*
X706195Y510099D01*
X706271Y510047D01*
X706344Y509992D01*
X706416Y509934D01*
X706485Y509874D01*
X706551Y509810D01*
X706615Y509744D01*
X706675Y509675D01*
X706733Y509603D01*
X706788Y509530D01*
X706840Y509454D01*
X706889Y509376D01*
X706934Y509296D01*
X706976Y509214D01*
X707015Y509131D01*
X707050Y509046D01*
X707082Y508960D01*
X707110Y508872D01*
X707134Y508784D01*
X707155Y508694D01*
X707172Y508604D01*
X707185Y508513D01*
X707194Y508422D01*
X707200Y508330D01*
X707202Y508238D01*
X707201Y508238D02*
X707201Y508164D01*
X707203Y508072D01*
X707209Y507980D01*
X707218Y507889D01*
X707231Y507798D01*
X707248Y507708D01*
X707269Y507618D01*
X707293Y507530D01*
X707321Y507442D01*
X707353Y507356D01*
X707388Y507271D01*
X707427Y507188D01*
X707469Y507106D01*
X707514Y507026D01*
X707563Y506948D01*
X707615Y506872D01*
X707670Y506799D01*
X707728Y506727D01*
X707788Y506658D01*
X707852Y506592D01*
X707918Y506528D01*
X707987Y506468D01*
X708059Y506410D01*
X708132Y506355D01*
X708208Y506303D01*
X708286Y506254D01*
X708366Y506209D01*
X708448Y506167D01*
X708531Y506128D01*
X708616Y506093D01*
X708702Y506061D01*
X708790Y506033D01*
X708878Y506009D01*
X708968Y505988D01*
X709058Y505971D01*
X709149Y505958D01*
X709240Y505949D01*
X709332Y505943D01*
X709424Y505941D01*
X709424Y505942D02*
X709555Y505942D01*
X709555Y505941D02*
X709647Y505943D01*
X709739Y505949D01*
X709830Y505958D01*
X709921Y505971D01*
X710011Y505988D01*
X710101Y506009D01*
X710189Y506033D01*
X710277Y506061D01*
X710363Y506093D01*
X710448Y506128D01*
X710531Y506167D01*
X710613Y506209D01*
X710693Y506254D01*
X710771Y506303D01*
X710847Y506355D01*
X710920Y506410D01*
X710992Y506468D01*
X711061Y506528D01*
X711127Y506592D01*
X711191Y506658D01*
X711251Y506727D01*
X711309Y506799D01*
X711364Y506872D01*
X711416Y506948D01*
X711465Y507026D01*
X711510Y507106D01*
X711552Y507188D01*
X711591Y507271D01*
X711626Y507356D01*
X711658Y507442D01*
X711686Y507530D01*
X711710Y507618D01*
X711731Y507708D01*
X711748Y507798D01*
X711761Y507889D01*
X711770Y507980D01*
X711776Y508072D01*
X711778Y508164D01*
X711778Y508238D01*
X711777Y508238D02*
X711779Y508330D01*
X711785Y508422D01*
X711794Y508513D01*
X711807Y508604D01*
X711824Y508694D01*
X711845Y508784D01*
X711869Y508872D01*
X711897Y508960D01*
X711929Y509046D01*
X711964Y509131D01*
X712003Y509214D01*
X712045Y509296D01*
X712090Y509376D01*
X712139Y509454D01*
X712191Y509530D01*
X712246Y509603D01*
X712304Y509675D01*
X712364Y509744D01*
X712428Y509810D01*
X712494Y509874D01*
X712563Y509934D01*
X712635Y509992D01*
X712708Y510047D01*
X712784Y510099D01*
X712862Y510148D01*
X712942Y510193D01*
X713024Y510235D01*
X713107Y510274D01*
X713192Y510309D01*
X713278Y510341D01*
X713366Y510369D01*
X713454Y510393D01*
X713544Y510414D01*
X713634Y510431D01*
X713725Y510444D01*
X713816Y510453D01*
X713908Y510459D01*
X714000Y510461D01*
X714000Y510460D02*
X811948Y510460D01*
D17*
X541000Y498000D03*
D18*
X547000Y498000D01*
X549460Y500460D01*
X806948Y500460D02*
X827948Y479460D01*
X831540Y479460D01*
X646583Y500460D02*
X549460Y500460D01*
X646583Y500461D02*
X646675Y500459D01*
X646767Y500453D01*
X646858Y500444D01*
X646949Y500431D01*
X647039Y500414D01*
X647129Y500393D01*
X647217Y500369D01*
X647305Y500341D01*
X647391Y500309D01*
X647476Y500274D01*
X647559Y500235D01*
X647641Y500193D01*
X647721Y500148D01*
X647799Y500099D01*
X647875Y500047D01*
X647948Y499992D01*
X648020Y499934D01*
X648089Y499874D01*
X648155Y499810D01*
X648219Y499744D01*
X648279Y499675D01*
X648337Y499603D01*
X648392Y499530D01*
X648444Y499454D01*
X648493Y499376D01*
X648538Y499296D01*
X648580Y499214D01*
X648619Y499131D01*
X648654Y499046D01*
X648686Y498960D01*
X648714Y498872D01*
X648738Y498784D01*
X648759Y498694D01*
X648776Y498604D01*
X648789Y498513D01*
X648798Y498422D01*
X648804Y498330D01*
X648806Y498238D01*
X648806Y497855D01*
X648805Y497855D02*
X648807Y497763D01*
X648813Y497671D01*
X648822Y497580D01*
X648835Y497489D01*
X648852Y497399D01*
X648873Y497309D01*
X648897Y497221D01*
X648925Y497133D01*
X648957Y497047D01*
X648992Y496962D01*
X649031Y496879D01*
X649073Y496797D01*
X649118Y496717D01*
X649167Y496639D01*
X649219Y496563D01*
X649274Y496490D01*
X649332Y496418D01*
X649392Y496349D01*
X649456Y496283D01*
X649522Y496219D01*
X649591Y496159D01*
X649663Y496101D01*
X649736Y496046D01*
X649812Y495994D01*
X649890Y495945D01*
X649970Y495900D01*
X650052Y495858D01*
X650135Y495819D01*
X650220Y495784D01*
X650306Y495752D01*
X650394Y495724D01*
X650482Y495700D01*
X650572Y495679D01*
X650662Y495662D01*
X650753Y495649D01*
X650844Y495640D01*
X650936Y495634D01*
X651028Y495632D01*
X651136Y495632D01*
X651228Y495634D01*
X651320Y495640D01*
X651411Y495649D01*
X651502Y495662D01*
X651592Y495679D01*
X651682Y495700D01*
X651770Y495724D01*
X651858Y495752D01*
X651944Y495784D01*
X652029Y495819D01*
X652112Y495858D01*
X652194Y495900D01*
X652274Y495945D01*
X652352Y495994D01*
X652428Y496046D01*
X652501Y496101D01*
X652573Y496159D01*
X652642Y496219D01*
X652708Y496283D01*
X652772Y496349D01*
X652832Y496418D01*
X652890Y496490D01*
X652945Y496563D01*
X652997Y496639D01*
X653046Y496717D01*
X653091Y496797D01*
X653133Y496879D01*
X653172Y496962D01*
X653207Y497047D01*
X653239Y497133D01*
X653267Y497221D01*
X653291Y497309D01*
X653312Y497399D01*
X653329Y497489D01*
X653342Y497580D01*
X653351Y497671D01*
X653357Y497763D01*
X653359Y497855D01*
X653358Y497855D02*
X653358Y498238D01*
X653360Y498330D01*
X653366Y498422D01*
X653375Y498513D01*
X653388Y498604D01*
X653405Y498694D01*
X653426Y498784D01*
X653450Y498872D01*
X653478Y498960D01*
X653510Y499046D01*
X653545Y499131D01*
X653584Y499214D01*
X653626Y499296D01*
X653671Y499376D01*
X653720Y499454D01*
X653772Y499530D01*
X653827Y499603D01*
X653885Y499675D01*
X653945Y499744D01*
X654009Y499810D01*
X654075Y499874D01*
X654144Y499934D01*
X654216Y499992D01*
X654289Y500047D01*
X654365Y500099D01*
X654443Y500148D01*
X654523Y500193D01*
X654605Y500235D01*
X654688Y500274D01*
X654773Y500309D01*
X654859Y500341D01*
X654947Y500369D01*
X655035Y500393D01*
X655125Y500414D01*
X655215Y500431D01*
X655306Y500444D01*
X655397Y500453D01*
X655489Y500459D01*
X655581Y500461D01*
X655581Y500460D02*
X655688Y500460D01*
X655688Y500461D02*
X655780Y500459D01*
X655872Y500453D01*
X655963Y500444D01*
X656054Y500431D01*
X656144Y500414D01*
X656234Y500393D01*
X656322Y500369D01*
X656410Y500341D01*
X656496Y500309D01*
X656581Y500274D01*
X656664Y500235D01*
X656746Y500193D01*
X656826Y500148D01*
X656904Y500099D01*
X656980Y500047D01*
X657053Y499992D01*
X657125Y499934D01*
X657194Y499874D01*
X657260Y499810D01*
X657324Y499744D01*
X657384Y499675D01*
X657442Y499603D01*
X657497Y499530D01*
X657549Y499454D01*
X657598Y499376D01*
X657643Y499296D01*
X657685Y499214D01*
X657724Y499131D01*
X657759Y499046D01*
X657791Y498960D01*
X657819Y498872D01*
X657843Y498784D01*
X657864Y498694D01*
X657881Y498604D01*
X657894Y498513D01*
X657903Y498422D01*
X657909Y498330D01*
X657911Y498238D01*
X657910Y498238D02*
X657910Y497855D01*
X657912Y497763D01*
X657918Y497671D01*
X657927Y497580D01*
X657940Y497489D01*
X657957Y497399D01*
X657978Y497309D01*
X658002Y497221D01*
X658030Y497133D01*
X658062Y497047D01*
X658097Y496962D01*
X658136Y496879D01*
X658178Y496797D01*
X658223Y496717D01*
X658272Y496639D01*
X658324Y496563D01*
X658379Y496490D01*
X658437Y496418D01*
X658497Y496349D01*
X658561Y496283D01*
X658627Y496219D01*
X658696Y496159D01*
X658768Y496101D01*
X658841Y496046D01*
X658917Y495994D01*
X658995Y495945D01*
X659075Y495900D01*
X659157Y495858D01*
X659240Y495819D01*
X659325Y495784D01*
X659411Y495752D01*
X659499Y495724D01*
X659587Y495700D01*
X659677Y495679D01*
X659767Y495662D01*
X659858Y495649D01*
X659949Y495640D01*
X660041Y495634D01*
X660133Y495632D01*
X660240Y495632D01*
X660332Y495634D01*
X660424Y495640D01*
X660515Y495649D01*
X660606Y495662D01*
X660696Y495679D01*
X660786Y495700D01*
X660874Y495724D01*
X660962Y495752D01*
X661048Y495784D01*
X661133Y495819D01*
X661216Y495858D01*
X661298Y495900D01*
X661378Y495945D01*
X661456Y495994D01*
X661532Y496046D01*
X661605Y496101D01*
X661677Y496159D01*
X661746Y496219D01*
X661812Y496283D01*
X661876Y496349D01*
X661936Y496418D01*
X661994Y496490D01*
X662049Y496563D01*
X662101Y496639D01*
X662150Y496717D01*
X662195Y496797D01*
X662237Y496879D01*
X662276Y496962D01*
X662311Y497047D01*
X662343Y497133D01*
X662371Y497221D01*
X662395Y497309D01*
X662416Y497399D01*
X662433Y497489D01*
X662446Y497580D01*
X662455Y497671D01*
X662461Y497763D01*
X662463Y497855D01*
X662463Y498238D01*
X662462Y498238D02*
X662464Y498330D01*
X662470Y498422D01*
X662479Y498513D01*
X662492Y498604D01*
X662509Y498694D01*
X662530Y498784D01*
X662554Y498872D01*
X662582Y498960D01*
X662614Y499046D01*
X662649Y499131D01*
X662688Y499214D01*
X662730Y499296D01*
X662775Y499376D01*
X662824Y499454D01*
X662876Y499530D01*
X662931Y499603D01*
X662989Y499675D01*
X663049Y499744D01*
X663113Y499810D01*
X663179Y499874D01*
X663248Y499934D01*
X663320Y499992D01*
X663393Y500047D01*
X663469Y500099D01*
X663547Y500148D01*
X663627Y500193D01*
X663709Y500235D01*
X663792Y500274D01*
X663877Y500309D01*
X663963Y500341D01*
X664051Y500369D01*
X664139Y500393D01*
X664229Y500414D01*
X664319Y500431D01*
X664410Y500444D01*
X664501Y500453D01*
X664593Y500459D01*
X664685Y500461D01*
X664685Y500460D02*
X664793Y500460D01*
X664793Y500461D02*
X664885Y500459D01*
X664977Y500453D01*
X665068Y500444D01*
X665159Y500431D01*
X665249Y500414D01*
X665339Y500393D01*
X665427Y500369D01*
X665515Y500341D01*
X665601Y500309D01*
X665686Y500274D01*
X665769Y500235D01*
X665851Y500193D01*
X665931Y500148D01*
X666009Y500099D01*
X666085Y500047D01*
X666158Y499992D01*
X666230Y499934D01*
X666299Y499874D01*
X666365Y499810D01*
X666429Y499744D01*
X666489Y499675D01*
X666547Y499603D01*
X666602Y499530D01*
X666654Y499454D01*
X666703Y499376D01*
X666748Y499296D01*
X666790Y499214D01*
X666829Y499131D01*
X666864Y499046D01*
X666896Y498960D01*
X666924Y498872D01*
X666948Y498784D01*
X666969Y498694D01*
X666986Y498604D01*
X666999Y498513D01*
X667008Y498422D01*
X667014Y498330D01*
X667016Y498238D01*
X667015Y498238D02*
X667015Y497855D01*
X667017Y497763D01*
X667023Y497671D01*
X667032Y497580D01*
X667045Y497489D01*
X667062Y497399D01*
X667083Y497309D01*
X667107Y497221D01*
X667135Y497133D01*
X667167Y497047D01*
X667202Y496962D01*
X667241Y496879D01*
X667283Y496797D01*
X667328Y496717D01*
X667377Y496639D01*
X667429Y496563D01*
X667484Y496490D01*
X667542Y496418D01*
X667602Y496349D01*
X667666Y496283D01*
X667732Y496219D01*
X667801Y496159D01*
X667873Y496101D01*
X667946Y496046D01*
X668022Y495994D01*
X668100Y495945D01*
X668180Y495900D01*
X668262Y495858D01*
X668345Y495819D01*
X668430Y495784D01*
X668516Y495752D01*
X668604Y495724D01*
X668692Y495700D01*
X668782Y495679D01*
X668872Y495662D01*
X668963Y495649D01*
X669054Y495640D01*
X669146Y495634D01*
X669238Y495632D01*
X669345Y495632D01*
X669437Y495634D01*
X669529Y495640D01*
X669620Y495649D01*
X669711Y495662D01*
X669801Y495679D01*
X669891Y495700D01*
X669979Y495724D01*
X670067Y495752D01*
X670153Y495784D01*
X670238Y495819D01*
X670321Y495858D01*
X670403Y495900D01*
X670483Y495945D01*
X670561Y495994D01*
X670637Y496046D01*
X670710Y496101D01*
X670782Y496159D01*
X670851Y496219D01*
X670917Y496283D01*
X670981Y496349D01*
X671041Y496418D01*
X671099Y496490D01*
X671154Y496563D01*
X671206Y496639D01*
X671255Y496717D01*
X671300Y496797D01*
X671342Y496879D01*
X671381Y496962D01*
X671416Y497047D01*
X671448Y497133D01*
X671476Y497221D01*
X671500Y497309D01*
X671521Y497399D01*
X671538Y497489D01*
X671551Y497580D01*
X671560Y497671D01*
X671566Y497763D01*
X671568Y497855D01*
X671568Y498238D01*
X671567Y498238D02*
X671569Y498330D01*
X671575Y498422D01*
X671584Y498513D01*
X671597Y498604D01*
X671614Y498694D01*
X671635Y498784D01*
X671659Y498872D01*
X671687Y498960D01*
X671719Y499046D01*
X671754Y499131D01*
X671793Y499214D01*
X671835Y499296D01*
X671880Y499376D01*
X671929Y499454D01*
X671981Y499530D01*
X672036Y499603D01*
X672094Y499675D01*
X672154Y499744D01*
X672218Y499810D01*
X672284Y499874D01*
X672353Y499934D01*
X672425Y499992D01*
X672498Y500047D01*
X672574Y500099D01*
X672652Y500148D01*
X672732Y500193D01*
X672814Y500235D01*
X672897Y500274D01*
X672982Y500309D01*
X673068Y500341D01*
X673156Y500369D01*
X673244Y500393D01*
X673334Y500414D01*
X673424Y500431D01*
X673515Y500444D01*
X673606Y500453D01*
X673698Y500459D01*
X673790Y500461D01*
X673790Y500460D02*
X673898Y500460D01*
X673898Y500461D02*
X673990Y500459D01*
X674082Y500453D01*
X674173Y500444D01*
X674264Y500431D01*
X674354Y500414D01*
X674444Y500393D01*
X674532Y500369D01*
X674620Y500341D01*
X674706Y500309D01*
X674791Y500274D01*
X674874Y500235D01*
X674956Y500193D01*
X675036Y500148D01*
X675114Y500099D01*
X675190Y500047D01*
X675263Y499992D01*
X675335Y499934D01*
X675404Y499874D01*
X675470Y499810D01*
X675534Y499744D01*
X675594Y499675D01*
X675652Y499603D01*
X675707Y499530D01*
X675759Y499454D01*
X675808Y499376D01*
X675853Y499296D01*
X675895Y499214D01*
X675934Y499131D01*
X675969Y499046D01*
X676001Y498960D01*
X676029Y498872D01*
X676053Y498784D01*
X676074Y498694D01*
X676091Y498604D01*
X676104Y498513D01*
X676113Y498422D01*
X676119Y498330D01*
X676121Y498238D01*
X676120Y498238D02*
X676120Y497855D01*
X676122Y497763D01*
X676128Y497671D01*
X676137Y497580D01*
X676150Y497489D01*
X676167Y497399D01*
X676188Y497309D01*
X676212Y497221D01*
X676240Y497133D01*
X676272Y497047D01*
X676307Y496962D01*
X676346Y496879D01*
X676388Y496797D01*
X676433Y496717D01*
X676482Y496639D01*
X676534Y496563D01*
X676589Y496490D01*
X676647Y496418D01*
X676707Y496349D01*
X676771Y496283D01*
X676837Y496219D01*
X676906Y496159D01*
X676978Y496101D01*
X677051Y496046D01*
X677127Y495994D01*
X677205Y495945D01*
X677285Y495900D01*
X677367Y495858D01*
X677450Y495819D01*
X677535Y495784D01*
X677621Y495752D01*
X677709Y495724D01*
X677797Y495700D01*
X677887Y495679D01*
X677977Y495662D01*
X678068Y495649D01*
X678159Y495640D01*
X678251Y495634D01*
X678343Y495632D01*
X678450Y495632D01*
X678542Y495634D01*
X678634Y495640D01*
X678725Y495649D01*
X678816Y495662D01*
X678906Y495679D01*
X678996Y495700D01*
X679084Y495724D01*
X679172Y495752D01*
X679258Y495784D01*
X679343Y495819D01*
X679426Y495858D01*
X679508Y495900D01*
X679588Y495945D01*
X679666Y495994D01*
X679742Y496046D01*
X679815Y496101D01*
X679887Y496159D01*
X679956Y496219D01*
X680022Y496283D01*
X680086Y496349D01*
X680146Y496418D01*
X680204Y496490D01*
X680259Y496563D01*
X680311Y496639D01*
X680360Y496717D01*
X680405Y496797D01*
X680447Y496879D01*
X680486Y496962D01*
X680521Y497047D01*
X680553Y497133D01*
X680581Y497221D01*
X680605Y497309D01*
X680626Y497399D01*
X680643Y497489D01*
X680656Y497580D01*
X680665Y497671D01*
X680671Y497763D01*
X680673Y497855D01*
X680673Y498238D01*
X680672Y498238D02*
X680674Y498330D01*
X680680Y498422D01*
X680689Y498513D01*
X680702Y498604D01*
X680719Y498694D01*
X680740Y498784D01*
X680764Y498872D01*
X680792Y498960D01*
X680824Y499046D01*
X680859Y499131D01*
X680898Y499214D01*
X680940Y499296D01*
X680985Y499376D01*
X681034Y499454D01*
X681086Y499530D01*
X681141Y499603D01*
X681199Y499675D01*
X681259Y499744D01*
X681323Y499810D01*
X681389Y499874D01*
X681458Y499934D01*
X681530Y499992D01*
X681603Y500047D01*
X681679Y500099D01*
X681757Y500148D01*
X681837Y500193D01*
X681919Y500235D01*
X682002Y500274D01*
X682087Y500309D01*
X682173Y500341D01*
X682261Y500369D01*
X682349Y500393D01*
X682439Y500414D01*
X682529Y500431D01*
X682620Y500444D01*
X682711Y500453D01*
X682803Y500459D01*
X682895Y500461D01*
X682895Y500460D02*
X683003Y500460D01*
X683003Y500461D02*
X683095Y500459D01*
X683187Y500453D01*
X683278Y500444D01*
X683369Y500431D01*
X683459Y500414D01*
X683549Y500393D01*
X683637Y500369D01*
X683725Y500341D01*
X683811Y500309D01*
X683896Y500274D01*
X683979Y500235D01*
X684061Y500193D01*
X684141Y500148D01*
X684219Y500099D01*
X684295Y500047D01*
X684368Y499992D01*
X684440Y499934D01*
X684509Y499874D01*
X684575Y499810D01*
X684639Y499744D01*
X684699Y499675D01*
X684757Y499603D01*
X684812Y499530D01*
X684864Y499454D01*
X684913Y499376D01*
X684958Y499296D01*
X685000Y499214D01*
X685039Y499131D01*
X685074Y499046D01*
X685106Y498960D01*
X685134Y498872D01*
X685158Y498784D01*
X685179Y498694D01*
X685196Y498604D01*
X685209Y498513D01*
X685218Y498422D01*
X685224Y498330D01*
X685226Y498238D01*
X685225Y498238D02*
X685225Y497855D01*
X685227Y497763D01*
X685233Y497671D01*
X685242Y497580D01*
X685255Y497489D01*
X685272Y497399D01*
X685293Y497309D01*
X685317Y497221D01*
X685345Y497133D01*
X685377Y497047D01*
X685412Y496962D01*
X685451Y496879D01*
X685493Y496797D01*
X685538Y496717D01*
X685587Y496639D01*
X685639Y496563D01*
X685694Y496490D01*
X685752Y496418D01*
X685812Y496349D01*
X685876Y496283D01*
X685942Y496219D01*
X686011Y496159D01*
X686083Y496101D01*
X686156Y496046D01*
X686232Y495994D01*
X686310Y495945D01*
X686390Y495900D01*
X686472Y495858D01*
X686555Y495819D01*
X686640Y495784D01*
X686726Y495752D01*
X686814Y495724D01*
X686902Y495700D01*
X686992Y495679D01*
X687082Y495662D01*
X687173Y495649D01*
X687264Y495640D01*
X687356Y495634D01*
X687448Y495632D01*
X687555Y495632D01*
X687647Y495634D01*
X687739Y495640D01*
X687830Y495649D01*
X687921Y495662D01*
X688011Y495679D01*
X688101Y495700D01*
X688189Y495724D01*
X688277Y495752D01*
X688363Y495784D01*
X688448Y495819D01*
X688531Y495858D01*
X688613Y495900D01*
X688693Y495945D01*
X688771Y495994D01*
X688847Y496046D01*
X688920Y496101D01*
X688992Y496159D01*
X689061Y496219D01*
X689127Y496283D01*
X689191Y496349D01*
X689251Y496418D01*
X689309Y496490D01*
X689364Y496563D01*
X689416Y496639D01*
X689465Y496717D01*
X689510Y496797D01*
X689552Y496879D01*
X689591Y496962D01*
X689626Y497047D01*
X689658Y497133D01*
X689686Y497221D01*
X689710Y497309D01*
X689731Y497399D01*
X689748Y497489D01*
X689761Y497580D01*
X689770Y497671D01*
X689776Y497763D01*
X689778Y497855D01*
X689778Y498238D01*
X689777Y498238D02*
X689779Y498330D01*
X689785Y498422D01*
X689794Y498513D01*
X689807Y498604D01*
X689824Y498694D01*
X689845Y498784D01*
X689869Y498872D01*
X689897Y498960D01*
X689929Y499046D01*
X689964Y499131D01*
X690003Y499214D01*
X690045Y499296D01*
X690090Y499376D01*
X690139Y499454D01*
X690191Y499530D01*
X690246Y499603D01*
X690304Y499675D01*
X690364Y499744D01*
X690428Y499810D01*
X690494Y499874D01*
X690563Y499934D01*
X690635Y499992D01*
X690708Y500047D01*
X690784Y500099D01*
X690862Y500148D01*
X690942Y500193D01*
X691024Y500235D01*
X691107Y500274D01*
X691192Y500309D01*
X691278Y500341D01*
X691366Y500369D01*
X691454Y500393D01*
X691544Y500414D01*
X691634Y500431D01*
X691725Y500444D01*
X691816Y500453D01*
X691908Y500459D01*
X692000Y500461D01*
X692000Y500460D02*
X806948Y500460D01*
X836270Y474730D02*
X837000Y474730D01*
D17*
X837000Y474730D03*
D18*
X836270Y474730D02*
X831540Y479460D01*
D17*
X535000Y476000D03*
D18*
X535000Y441000D01*
X539532Y436468D02*
X539532Y435532D01*
D17*
X539532Y435532D03*
D18*
X539532Y436468D02*
X535000Y441000D01*
D17*
X553000Y414000D03*
D18*
X553000Y473000D01*
D17*
X553000Y473000D03*
X885000Y340000D03*
D19*
X889000Y336000D01*
X889000Y320000D01*
D17*
X889000Y320000D03*
X634000Y396000D03*
D18*
X653000Y396000D01*
X744000Y487000D01*
D17*
X744000Y487000D03*
X508000Y470365D03*
D18*
X504839Y471365D02*
X495730Y480474D01*
X495730Y522526D01*
X504839Y471365D02*
X508000Y470365D01*
D17*
X839000Y530000D03*
D18*
X509204Y536000D02*
X495730Y522526D01*
X833000Y536000D02*
X839000Y530000D01*
X833000Y536000D02*
X509204Y536000D01*
D17*
X516000Y471000D03*
X833000Y515000D03*
D18*
X516000Y471000D02*
X514000Y474000D01*
X514000Y514000D02*
X523000Y523000D01*
X825000Y523000D01*
X833000Y515000D01*
X514000Y514000D02*
X514000Y474000D01*
D17*
X521000Y478000D03*
D18*
X521000Y501000D01*
D17*
X832000Y494000D03*
D18*
X533000Y513000D02*
X521000Y501000D01*
X813000Y513000D02*
X832000Y494000D01*
X813000Y513000D02*
X533000Y513000D01*
D17*
X527000Y470000D03*
D18*
X538000Y503000D02*
X808000Y503000D01*
X829000Y482000D01*
X837000Y482000D01*
D17*
X837000Y482000D03*
D18*
X538000Y503000D02*
X527000Y492000D01*
X527000Y470000D01*
D17*
X440000Y348000D03*
D18*
X315000Y223000D01*
X315000Y181000D01*
X326200Y169800D01*
X327300Y169800D01*
D17*
X449000Y348000D03*
D18*
X341000Y236000D01*
X341000Y181000D01*
X352200Y169800D01*
X352700Y169800D01*
D17*
X457000Y348000D03*
D18*
X457000Y303000D01*
X366000Y212000D01*
X366000Y181900D01*
X378100Y169800D01*
D17*
X466000Y348000D03*
D18*
X459540Y341540D01*
X459540Y301948D01*
X390000Y232408D01*
X390000Y183300D02*
X403500Y169800D01*
X390000Y183300D02*
X390000Y232408D01*
D17*
X475000Y348000D03*
D18*
X475000Y209000D02*
X468000Y202000D01*
X468000Y181500D01*
X479700Y169800D01*
X475000Y209000D02*
X475000Y348000D01*
D17*
X483000Y348000D03*
D18*
X483000Y211000D02*
X493000Y201000D01*
X493000Y181900D01*
X505100Y169800D01*
X483000Y211000D02*
X483000Y348000D01*
D17*
X490270Y348000D03*
D18*
X490270Y271000D01*
X490270Y260270D01*
X490270Y228730D01*
X518000Y201000D01*
X518000Y182300D01*
X530500Y169800D01*
D17*
X498000Y348000D03*
D18*
X543000Y182700D02*
X555900Y169800D01*
X498000Y247000D02*
X498000Y348000D01*
X543000Y202000D02*
X543000Y182700D01*
X543000Y202000D02*
X498000Y247000D01*
D17*
X506000Y348000D03*
D18*
X568000Y183100D02*
X581300Y169800D01*
X568000Y183100D02*
X568000Y202000D01*
X506000Y264000D01*
X506000Y348000D01*
D17*
X504000Y368000D03*
D18*
X504000Y356937D01*
X594000Y182500D02*
X606700Y169800D01*
X594000Y182500D02*
X594000Y208000D01*
X510905Y344095D02*
X510905Y350032D01*
X504000Y356937D01*
X508540Y293460D02*
X594000Y208000D01*
X508540Y341730D02*
X510905Y344095D01*
X508540Y341730D02*
X508540Y293460D01*
D17*
X512000Y388000D03*
D18*
X527000Y403000D01*
X563000Y403000D02*
X644000Y484000D01*
D17*
X644000Y484000D03*
D18*
X563000Y403000D02*
X527000Y403000D01*
D17*
X401000Y333000D03*
D20*
X448460Y374460D01*
D17*
X515000Y368000D03*
D20*
X508540Y374460D01*
X448460Y374460D01*
D17*
X516000Y316000D03*
D18*
X516000Y367000D02*
X515000Y368000D01*
X516000Y344063D02*
X516000Y316000D01*
X516000Y344063D02*
X514095Y345968D01*
X514095Y350032D01*
X516000Y351937D01*
X516000Y367000D01*
D17*
X519000Y348000D03*
D18*
X619000Y182900D02*
X632100Y169800D01*
X521460Y345540D02*
X519000Y348000D01*
X569905Y297095D02*
X619000Y248000D01*
X569905Y297095D02*
X529968Y297095D01*
X521460Y305603D02*
X521460Y345540D01*
X521460Y305603D02*
X529968Y297095D01*
X619000Y248000D02*
X619000Y182900D01*
D17*
X534000Y348000D03*
D18*
X539861Y342139D01*
X539861Y335436D01*
X645000Y230297D01*
X645000Y182300D01*
X657500Y169800D01*
D17*
X519000Y382000D03*
D20*
X436000Y382000D01*
X390000Y336000D01*
X390000Y316000D01*
D18*
X390000Y315000D01*
D17*
X390000Y316000D03*
X542000Y348000D03*
D18*
X543000Y336000D01*
X670000Y209000D01*
X670000Y181000D01*
X681200Y169800D01*
X682900Y169800D01*
X696000Y182100D02*
X708300Y169800D01*
X696000Y182100D02*
X696000Y202000D01*
X550000Y348000D01*
D17*
X539000Y368000D03*
D18*
X550000Y357000D01*
X550000Y348000D01*
D17*
X459000Y403000D03*
D20*
X415000Y403000D01*
X410000Y398000D01*
D17*
X410000Y398000D03*
X670000Y396000D03*
D18*
X736000Y462000D01*
D17*
X749000Y462000D03*
D18*
X736000Y462000D01*
X749000Y462000D02*
X782000Y462000D01*
D17*
X782000Y462000D03*
X652000Y477000D03*
D18*
X552000Y375000D01*
X538000Y375000D01*
D17*
X532000Y302000D03*
D18*
X532000Y342063D02*
X526540Y347523D01*
X532000Y342063D02*
X532000Y302000D01*
X526540Y347523D02*
X526540Y363540D01*
X538000Y375000D01*
D21*
X169000Y499000D02*
X169000Y524282D01*
X169000Y499000D02*
X122000Y452000D01*
X137700Y170700D02*
X156700Y170700D01*
X170000Y184000D01*
X170000Y294000D01*
X122000Y342000D01*
X122000Y452000D01*
X428900Y169800D02*
X428900Y162900D01*
X420000Y154000D01*
X200000Y154000D01*
X170000Y184000D01*
X438500Y154000D02*
X454300Y169800D01*
X438500Y154000D02*
X420000Y154000D01*
X428900Y169800D02*
X454300Y169800D01*
D22*
X331000Y475000D03*
D21*
X370000Y514000D01*
X444000Y514000D02*
X448000Y510000D01*
D22*
X448000Y510000D03*
D21*
X375000Y514000D02*
X370000Y514000D01*
X375000Y514000D02*
X444000Y514000D01*
D17*
X508000Y435000D03*
D18*
X519000Y435000D01*
X526000Y442000D01*
D17*
X526000Y442000D03*
D21*
X326600Y640500D02*
X323000Y640500D01*
X326600Y640500D02*
X475500Y640500D01*
X517500Y682500D01*
X528000Y693000D01*
X529000Y693000D01*
D22*
X529000Y693000D03*
X529000Y703000D03*
D21*
X529000Y682000D01*
D22*
X529000Y682000D03*
D21*
X528500Y682500D01*
X517500Y682500D01*
X529000Y682000D02*
X586000Y625000D01*
X731000Y625000D01*
D22*
X731000Y625000D03*
X457000Y510000D03*
D21*
X448000Y510000D01*
X375000Y514000D02*
X323000Y566000D01*
X323000Y640500D01*
X219200Y574482D02*
X169000Y524282D01*
D22*
X868000Y217000D03*
X913000Y217000D03*
X913000Y202000D03*
X913000Y156000D03*
X899000Y156000D03*
X899000Y202000D03*
X899000Y217000D03*
X883000Y217000D03*
X883000Y202000D03*
X868000Y202000D03*
X884000Y156000D03*
X868000Y156000D03*
D21*
X219200Y574482D02*
X219200Y625300D01*
X218200Y626300D01*
X279400Y626300D01*
X293800Y640700D01*
X326400Y640700D01*
X326600Y640500D01*
D22*
X794000Y373000D03*
D21*
X794000Y302000D01*
D22*
X794000Y302000D03*
D21*
X482100Y567100D02*
X482100Y608500D01*
D22*
X474000Y559000D03*
X390000Y475000D03*
D21*
X390000Y359000D01*
X276500Y245500D02*
X276500Y195200D01*
X474000Y559000D02*
X482100Y567100D01*
X390000Y359000D02*
X334000Y303000D01*
X276500Y245500D01*
X276500Y195200D02*
X301900Y195200D01*
D22*
X334000Y303000D03*
D21*
X509000Y583600D02*
X482100Y608500D01*
X509000Y583600D02*
X509000Y559000D01*
D22*
X509000Y559000D03*
D21*
X532600Y560000D02*
X509000Y583600D01*
X532600Y560000D02*
X533000Y560000D01*
X533000Y559000D01*
D22*
X533000Y559000D03*
X291000Y516000D03*
D21*
X291000Y581000D01*
X290000Y581000D01*
D22*
X290000Y581000D03*
X139000Y410000D03*
D21*
X291000Y451000D02*
X291000Y516000D01*
X301900Y169800D02*
X276500Y169800D01*
X266200Y169800D01*
X283000Y443000D02*
X291000Y451000D01*
X198000Y410000D02*
X139000Y410000D01*
X231000Y443000D02*
X283000Y443000D01*
X231000Y443000D02*
X198000Y410000D01*
X198000Y238000D01*
X266200Y169800D01*
D22*
X877000Y533000D03*
D19*
X891000Y533000D01*
X901000Y543000D01*
X935000Y543000D01*
X946000Y532000D01*
X946000Y372000D01*
X937000Y363000D01*
X937000Y364000D01*
D22*
X937000Y364000D03*
X875000Y460000D03*
D19*
X875000Y419000D01*
D22*
X875000Y419000D03*
M02*
