G04 EAGLE Gerber X2 export*
%TF.Part,Single*%
%TF.FileFunction,Other,Solder stop mask TOP*%
%TF.FilePolarity,Positive*%
%TF.GenerationSoftware,Autodesk,EAGLE,9.0.0*%
%TF.CreationDate,2018-08-23T05:20:42Z*%
G75*
%MOMM*%
%FSLAX34Y34*%
%LPD*%
%AMOC8*
5,1,8,0,0,1.08239X$1,22.5*%
G01*
%ADD10C,0.000000*%
%ADD11C,0.076200*%
%ADD12R,0.101600X0.025400*%
%ADD13R,0.152400X0.025400*%
%ADD14R,0.228600X0.025400*%
%ADD15R,0.304800X0.025400*%
%ADD16R,0.406400X0.025400*%
%ADD17R,0.482600X0.025400*%
%ADD18R,0.177800X0.025400*%
%ADD19R,0.203200X0.025400*%
%ADD20R,0.127000X0.025400*%
%ADD21R,0.279400X0.025400*%
%ADD22R,0.381000X0.025400*%
%ADD23R,0.457200X0.025400*%
%ADD24R,0.558800X0.025400*%
%ADD25R,0.635000X0.025400*%
%ADD26R,0.685800X0.025400*%
%ADD27R,0.812800X0.025400*%
%ADD28R,0.889000X0.025400*%
%ADD29R,0.965200X0.025400*%
%ADD30R,1.092200X0.025400*%
%ADD31R,1.193800X0.025400*%
%ADD32R,1.270000X0.025400*%
%ADD33R,1.346200X0.025400*%
%ADD34R,1.422400X0.025400*%
%ADD35R,1.473200X0.025400*%
%ADD36R,1.600200X0.025400*%
%ADD37R,1.651000X0.025400*%
%ADD38R,1.778000X0.025400*%
%ADD39R,1.854200X0.025400*%
%ADD40R,1.930400X0.025400*%
%ADD41R,0.254000X0.025400*%
%ADD42R,2.032000X0.025400*%
%ADD43R,2.108200X0.025400*%
%ADD44R,2.209800X0.025400*%
%ADD45R,0.076200X0.025400*%
%ADD46R,2.286000X0.025400*%
%ADD47R,2.387600X0.025400*%
%ADD48R,2.463800X0.025400*%
%ADD49R,2.540000X0.025400*%
%ADD50R,2.667000X0.025400*%
%ADD51R,2.743200X0.025400*%
%ADD52R,2.844800X0.025400*%
%ADD53R,2.895600X0.025400*%
%ADD54R,2.997200X0.025400*%
%ADD55R,3.124200X0.025400*%
%ADD56R,3.175000X0.025400*%
%ADD57R,3.403600X0.025400*%
%ADD58R,3.225800X0.025400*%
%ADD59R,0.025400X0.025400*%
%ADD60R,3.098800X0.025400*%
%ADD61R,0.050800X0.025400*%
%ADD62R,2.819400X0.025400*%
%ADD63R,2.641600X0.025400*%
%ADD64R,2.565400X0.025400*%
%ADD65R,2.489200X0.025400*%
%ADD66R,0.330200X0.025400*%
%ADD67R,2.336800X0.025400*%
%ADD68R,0.355600X0.025400*%
%ADD69R,2.184400X0.025400*%
%ADD70R,0.508000X0.025400*%
%ADD71R,2.057400X0.025400*%
%ADD72R,0.533400X0.025400*%
%ADD73R,1.955800X0.025400*%
%ADD74R,0.584200X0.025400*%
%ADD75R,1.879600X0.025400*%
%ADD76R,0.609600X0.025400*%
%ADD77R,0.660400X0.025400*%
%ADD78R,1.676400X0.025400*%
%ADD79R,0.711200X0.025400*%
%ADD80R,0.762000X0.025400*%
%ADD81R,1.524000X0.025400*%
%ADD82R,0.736600X0.025400*%
%ADD83R,0.787400X0.025400*%
%ADD84R,0.838200X0.025400*%
%ADD85R,0.939800X0.025400*%
%ADD86R,1.168400X0.025400*%
%ADD87R,1.041400X0.025400*%
%ADD88R,1.016000X0.025400*%
%ADD89R,1.066800X0.025400*%
%ADD90R,1.117600X0.025400*%
%ADD91R,1.143000X0.025400*%
%ADD92R,1.244600X0.025400*%
%ADD93R,1.295400X0.025400*%
%ADD94R,1.320800X0.025400*%
%ADD95R,1.397000X0.025400*%
%ADD96R,1.371600X0.025400*%
%ADD97R,1.498600X0.025400*%
%ADD98R,1.549400X0.025400*%
%ADD99R,1.625600X0.025400*%
%ADD100R,1.727200X0.025400*%
%ADD101R,1.701800X0.025400*%
%ADD102R,1.752600X0.025400*%
%ADD103R,1.447800X0.025400*%
%ADD104R,1.219200X0.025400*%
%ADD105R,0.990600X0.025400*%
%ADD106R,0.914400X0.025400*%
%ADD107R,0.863600X0.025400*%
%ADD108R,0.431800X0.025400*%
%ADD109R,0.327000X0.827000*%
%ADD110C,2.127000*%
%ADD111R,3.937000X4.367000*%
%ADD112C,2.527000*%
%ADD113C,2.377000*%
%ADD114R,2.827000X2.677000*%
%ADD115R,1.127000X1.227000*%
%ADD116C,0.338100*%
%ADD117R,1.227000X1.127000*%
%ADD118R,1.277000X0.727000*%
%ADD119R,1.427000X1.427000*%
%ADD120R,1.027000X0.927000*%
%ADD121R,1.527000X1.727000*%
%ADD122R,1.477000X0.527000*%
%ADD123R,2.027000X2.027000*%
%ADD124R,1.377000X0.347000*%
%ADD125R,2.427000X2.227000*%
%ADD126C,2.248000*%
%ADD127R,1.327000X0.727000*%
%ADD128R,1.397000X1.597000*%
%ADD129C,2.006600*%
%ADD130R,1.602000X0.577000*%
%ADD131P,1.787026X8X22.500000*%
%ADD132R,1.577000X0.877000*%
%ADD133R,1.677000X1.427000*%
%ADD134R,1.143000X2.667000*%
%ADD135R,2.327000X1.177000*%
%ADD136R,1.177000X1.127000*%

G36*
X987665Y335024D02*
X987665Y335024D01*
X987751Y335033D01*
X988517Y335232D01*
X988640Y335283D01*
X988726Y335312D01*
X989429Y335677D01*
X989537Y335754D01*
X989615Y335801D01*
X990219Y336313D01*
X990307Y336412D01*
X990373Y336476D01*
X990848Y337109D01*
X990911Y337225D01*
X990961Y337302D01*
X991283Y338025D01*
X991319Y338153D01*
X991351Y338239D01*
X991504Y339015D01*
X991511Y339148D01*
X991522Y339238D01*
X991499Y340030D01*
X991497Y340038D01*
X991498Y340046D01*
X991460Y340886D01*
X991435Y341017D01*
X991425Y341107D01*
X991200Y341918D01*
X991147Y342040D01*
X991117Y342126D01*
X990717Y342867D01*
X990639Y342973D01*
X990590Y343051D01*
X990036Y343684D01*
X989935Y343770D01*
X989870Y343835D01*
X989189Y344329D01*
X989072Y344391D01*
X988994Y344439D01*
X988220Y344769D01*
X988092Y344804D01*
X988006Y344834D01*
X987178Y344983D01*
X987078Y344987D01*
X987000Y344999D01*
X978500Y344999D01*
X978335Y344976D01*
X978249Y344967D01*
X977483Y344768D01*
X977360Y344717D01*
X977274Y344688D01*
X976571Y344323D01*
X976463Y344246D01*
X976385Y344199D01*
X975781Y343687D01*
X975693Y343588D01*
X975628Y343524D01*
X975152Y342891D01*
X975089Y342775D01*
X975039Y342698D01*
X974717Y341975D01*
X974681Y341847D01*
X974649Y341761D01*
X974496Y340985D01*
X974489Y340852D01*
X974478Y340762D01*
X974501Y339970D01*
X974503Y339962D01*
X974502Y339954D01*
X974540Y339114D01*
X974565Y338983D01*
X974575Y338893D01*
X974800Y338082D01*
X974853Y337960D01*
X974883Y337874D01*
X975283Y337133D01*
X975361Y337027D01*
X975410Y336949D01*
X975964Y336316D01*
X976065Y336230D01*
X976130Y336165D01*
X976811Y335671D01*
X976928Y335609D01*
X977006Y335561D01*
X977780Y335231D01*
X977908Y335196D01*
X977994Y335166D01*
X978822Y335017D01*
X978922Y335013D01*
X979000Y335001D01*
X987500Y335001D01*
X987665Y335024D01*
G37*
G36*
X987098Y269015D02*
X987098Y269015D01*
X987178Y269017D01*
X988006Y269166D01*
X988132Y269208D01*
X988220Y269231D01*
X988994Y269561D01*
X989108Y269629D01*
X989189Y269671D01*
X989870Y270165D01*
X989965Y270257D01*
X990036Y270316D01*
X990590Y270949D01*
X990662Y271060D01*
X990717Y271133D01*
X991117Y271874D01*
X991162Y271998D01*
X991200Y272082D01*
X991425Y272893D01*
X991442Y273024D01*
X991460Y273114D01*
X991498Y273954D01*
X991497Y273963D01*
X991499Y273970D01*
X991522Y274762D01*
X991508Y274893D01*
X991504Y274985D01*
X991351Y275761D01*
X991307Y275886D01*
X991283Y275975D01*
X990961Y276698D01*
X990890Y276810D01*
X990848Y276891D01*
X990373Y277524D01*
X990279Y277618D01*
X990219Y277687D01*
X989615Y278199D01*
X989503Y278270D01*
X989429Y278323D01*
X988726Y278688D01*
X988601Y278732D01*
X988517Y278768D01*
X987751Y278967D01*
X987586Y278986D01*
X987500Y278999D01*
X979000Y278999D01*
X978902Y278985D01*
X978822Y278983D01*
X977994Y278834D01*
X977868Y278792D01*
X977780Y278769D01*
X977006Y278439D01*
X976892Y278371D01*
X976811Y278329D01*
X976130Y277835D01*
X976035Y277743D01*
X975964Y277684D01*
X975410Y277051D01*
X975338Y276940D01*
X975283Y276867D01*
X974883Y276126D01*
X974838Y276002D01*
X974800Y275918D01*
X974575Y275107D01*
X974558Y274976D01*
X974540Y274886D01*
X974502Y274046D01*
X974503Y274037D01*
X974501Y274030D01*
X974478Y273238D01*
X974492Y273107D01*
X974496Y273015D01*
X974649Y272239D01*
X974693Y272114D01*
X974717Y272025D01*
X975039Y271302D01*
X975110Y271190D01*
X975152Y271109D01*
X975628Y270476D01*
X975721Y270382D01*
X975781Y270313D01*
X976385Y269801D01*
X976497Y269731D01*
X976571Y269677D01*
X977274Y269312D01*
X977399Y269268D01*
X977483Y269232D01*
X978249Y269033D01*
X978414Y269014D01*
X978500Y269001D01*
X987000Y269001D01*
X987098Y269015D01*
G37*
D10*
X110000Y140000D02*
X1000000Y140000D01*
X1000000Y720000D01*
X110000Y720000D01*
X110000Y140000D01*
D11*
X915998Y619456D02*
X915998Y625185D01*
X915998Y619456D02*
X915996Y619378D01*
X915991Y619300D01*
X915981Y619223D01*
X915968Y619146D01*
X915952Y619070D01*
X915932Y618995D01*
X915908Y618921D01*
X915881Y618848D01*
X915850Y618776D01*
X915816Y618706D01*
X915779Y618638D01*
X915738Y618571D01*
X915694Y618506D01*
X915648Y618444D01*
X915598Y618384D01*
X915546Y618326D01*
X915491Y618271D01*
X915433Y618219D01*
X915373Y618169D01*
X915311Y618123D01*
X915246Y618079D01*
X915180Y618038D01*
X915111Y618001D01*
X915041Y617967D01*
X914969Y617936D01*
X914896Y617909D01*
X914822Y617885D01*
X914747Y617865D01*
X914671Y617849D01*
X914594Y617836D01*
X914517Y617826D01*
X914439Y617821D01*
X914361Y617819D01*
X913543Y617819D01*
X919433Y619865D02*
X919433Y623139D01*
X919435Y623228D01*
X919441Y623317D01*
X919451Y623406D01*
X919464Y623494D01*
X919481Y623582D01*
X919503Y623669D01*
X919528Y623754D01*
X919556Y623839D01*
X919589Y623922D01*
X919625Y624004D01*
X919664Y624084D01*
X919707Y624162D01*
X919753Y624238D01*
X919803Y624313D01*
X919856Y624385D01*
X919912Y624454D01*
X919971Y624521D01*
X920032Y624586D01*
X920097Y624647D01*
X920164Y624706D01*
X920233Y624762D01*
X920305Y624815D01*
X920380Y624865D01*
X920456Y624911D01*
X920534Y624954D01*
X920614Y624993D01*
X920696Y625029D01*
X920779Y625062D01*
X920864Y625090D01*
X920949Y625115D01*
X921036Y625137D01*
X921124Y625154D01*
X921212Y625167D01*
X921301Y625177D01*
X921390Y625183D01*
X921479Y625185D01*
X921568Y625183D01*
X921657Y625177D01*
X921746Y625167D01*
X921834Y625154D01*
X921922Y625137D01*
X922009Y625115D01*
X922094Y625090D01*
X922179Y625062D01*
X922262Y625029D01*
X922344Y624993D01*
X922424Y624954D01*
X922502Y624911D01*
X922578Y624865D01*
X922653Y624815D01*
X922725Y624762D01*
X922794Y624706D01*
X922861Y624647D01*
X922926Y624586D01*
X922987Y624521D01*
X923046Y624454D01*
X923102Y624385D01*
X923155Y624313D01*
X923205Y624238D01*
X923251Y624162D01*
X923294Y624084D01*
X923333Y624004D01*
X923369Y623922D01*
X923402Y623839D01*
X923430Y623754D01*
X923455Y623669D01*
X923477Y623582D01*
X923494Y623494D01*
X923507Y623406D01*
X923517Y623317D01*
X923523Y623228D01*
X923525Y623139D01*
X923525Y619865D01*
X923523Y619776D01*
X923517Y619687D01*
X923507Y619598D01*
X923494Y619510D01*
X923477Y619422D01*
X923455Y619335D01*
X923430Y619250D01*
X923402Y619165D01*
X923369Y619082D01*
X923333Y619000D01*
X923294Y618920D01*
X923251Y618842D01*
X923205Y618766D01*
X923155Y618691D01*
X923102Y618619D01*
X923046Y618550D01*
X922987Y618483D01*
X922926Y618418D01*
X922861Y618357D01*
X922794Y618298D01*
X922725Y618242D01*
X922653Y618189D01*
X922578Y618139D01*
X922502Y618093D01*
X922424Y618050D01*
X922344Y618011D01*
X922262Y617975D01*
X922179Y617942D01*
X922094Y617914D01*
X922009Y617889D01*
X921922Y617867D01*
X921834Y617850D01*
X921746Y617837D01*
X921657Y617827D01*
X921568Y617821D01*
X921479Y617819D01*
X921390Y617821D01*
X921301Y617827D01*
X921212Y617837D01*
X921124Y617850D01*
X921036Y617867D01*
X920949Y617889D01*
X920864Y617914D01*
X920779Y617942D01*
X920696Y617975D01*
X920614Y618011D01*
X920534Y618050D01*
X920456Y618093D01*
X920380Y618139D01*
X920305Y618189D01*
X920233Y618242D01*
X920164Y618298D01*
X920097Y618357D01*
X920032Y618418D01*
X919971Y618483D01*
X919912Y618550D01*
X919856Y618619D01*
X919803Y618691D01*
X919753Y618766D01*
X919707Y618842D01*
X919664Y618920D01*
X919625Y619000D01*
X919589Y619082D01*
X919556Y619165D01*
X919528Y619250D01*
X919503Y619335D01*
X919481Y619422D01*
X919464Y619510D01*
X919451Y619598D01*
X919441Y619687D01*
X919435Y619776D01*
X919433Y619865D01*
X927043Y617819D02*
X927043Y625185D01*
X929089Y625185D01*
X929178Y625183D01*
X929267Y625177D01*
X929356Y625167D01*
X929444Y625154D01*
X929532Y625137D01*
X929619Y625115D01*
X929704Y625090D01*
X929789Y625062D01*
X929872Y625029D01*
X929954Y624993D01*
X930034Y624954D01*
X930112Y624911D01*
X930188Y624865D01*
X930263Y624815D01*
X930335Y624762D01*
X930404Y624706D01*
X930471Y624647D01*
X930536Y624586D01*
X930597Y624521D01*
X930656Y624454D01*
X930712Y624385D01*
X930765Y624313D01*
X930815Y624238D01*
X930861Y624162D01*
X930904Y624084D01*
X930943Y624004D01*
X930979Y623922D01*
X931012Y623839D01*
X931040Y623754D01*
X931065Y623669D01*
X931087Y623582D01*
X931104Y623494D01*
X931117Y623406D01*
X931127Y623317D01*
X931133Y623228D01*
X931135Y623139D01*
X931133Y623050D01*
X931127Y622961D01*
X931117Y622872D01*
X931104Y622784D01*
X931087Y622696D01*
X931065Y622609D01*
X931040Y622524D01*
X931012Y622439D01*
X930979Y622356D01*
X930943Y622274D01*
X930904Y622194D01*
X930861Y622116D01*
X930815Y622040D01*
X930765Y621965D01*
X930712Y621893D01*
X930656Y621824D01*
X930597Y621757D01*
X930536Y621692D01*
X930471Y621631D01*
X930404Y621572D01*
X930335Y621516D01*
X930263Y621463D01*
X930188Y621413D01*
X930112Y621367D01*
X930034Y621324D01*
X929954Y621285D01*
X929872Y621249D01*
X929789Y621216D01*
X929704Y621188D01*
X929619Y621163D01*
X929532Y621141D01*
X929444Y621124D01*
X929356Y621111D01*
X929267Y621101D01*
X929178Y621095D01*
X929089Y621093D01*
X927043Y621093D01*
X929498Y621093D02*
X931135Y617819D01*
X937415Y621911D02*
X938643Y621911D01*
X938643Y617819D01*
X936188Y617819D01*
X936110Y617821D01*
X936032Y617826D01*
X935955Y617836D01*
X935878Y617849D01*
X935802Y617865D01*
X935727Y617885D01*
X935653Y617909D01*
X935580Y617936D01*
X935508Y617967D01*
X935438Y618001D01*
X935370Y618038D01*
X935303Y618079D01*
X935238Y618123D01*
X935176Y618169D01*
X935116Y618219D01*
X935058Y618271D01*
X935003Y618326D01*
X934951Y618384D01*
X934901Y618444D01*
X934855Y618506D01*
X934811Y618571D01*
X934770Y618638D01*
X934733Y618706D01*
X934699Y618776D01*
X934668Y618848D01*
X934641Y618921D01*
X934617Y618995D01*
X934597Y619070D01*
X934581Y619146D01*
X934568Y619223D01*
X934558Y619300D01*
X934553Y619378D01*
X934551Y619456D01*
X934551Y623548D01*
X934553Y623628D01*
X934559Y623708D01*
X934569Y623788D01*
X934582Y623867D01*
X934600Y623946D01*
X934621Y624023D01*
X934647Y624099D01*
X934676Y624174D01*
X934708Y624248D01*
X934744Y624320D01*
X934784Y624390D01*
X934827Y624457D01*
X934873Y624523D01*
X934923Y624586D01*
X934975Y624647D01*
X935030Y624706D01*
X935089Y624761D01*
X935149Y624813D01*
X935213Y624863D01*
X935279Y624909D01*
X935346Y624952D01*
X935416Y624992D01*
X935488Y625028D01*
X935562Y625060D01*
X935636Y625089D01*
X935713Y625115D01*
X935790Y625136D01*
X935869Y625154D01*
X935948Y625167D01*
X936028Y625177D01*
X936108Y625183D01*
X936188Y625185D01*
X938643Y625185D01*
X942369Y617819D02*
X945643Y617819D01*
X942369Y617819D02*
X942369Y625185D01*
X945643Y625185D01*
X944825Y621911D02*
X942369Y621911D01*
X955460Y621911D02*
X956687Y621911D01*
X956687Y617819D01*
X954232Y617819D01*
X954154Y617821D01*
X954076Y617826D01*
X953999Y617836D01*
X953922Y617849D01*
X953846Y617865D01*
X953771Y617885D01*
X953697Y617909D01*
X953624Y617936D01*
X953552Y617967D01*
X953482Y618001D01*
X953414Y618038D01*
X953347Y618079D01*
X953282Y618123D01*
X953220Y618169D01*
X953160Y618219D01*
X953102Y618271D01*
X953047Y618326D01*
X952995Y618384D01*
X952945Y618444D01*
X952899Y618506D01*
X952855Y618571D01*
X952814Y618638D01*
X952777Y618706D01*
X952743Y618776D01*
X952712Y618848D01*
X952685Y618921D01*
X952661Y618995D01*
X952641Y619070D01*
X952625Y619146D01*
X952612Y619223D01*
X952602Y619300D01*
X952597Y619378D01*
X952595Y619456D01*
X952595Y623548D01*
X952597Y623628D01*
X952603Y623708D01*
X952613Y623788D01*
X952626Y623867D01*
X952644Y623946D01*
X952665Y624023D01*
X952691Y624099D01*
X952720Y624174D01*
X952752Y624248D01*
X952788Y624320D01*
X952828Y624390D01*
X952871Y624457D01*
X952917Y624523D01*
X952967Y624586D01*
X953019Y624647D01*
X953074Y624706D01*
X953133Y624761D01*
X953193Y624813D01*
X953257Y624863D01*
X953323Y624909D01*
X953390Y624952D01*
X953460Y624992D01*
X953532Y625028D01*
X953606Y625060D01*
X953680Y625089D01*
X953757Y625115D01*
X953834Y625136D01*
X953913Y625154D01*
X953992Y625167D01*
X954072Y625177D01*
X954152Y625183D01*
X954232Y625185D01*
X956687Y625185D01*
X962200Y625185D02*
X959745Y617819D01*
X964655Y617819D02*
X962200Y625185D01*
X960359Y619661D02*
X964042Y619661D01*
X967764Y617819D02*
X967764Y625185D01*
X969810Y625185D01*
X969899Y625183D01*
X969988Y625177D01*
X970077Y625167D01*
X970165Y625154D01*
X970253Y625137D01*
X970340Y625115D01*
X970425Y625090D01*
X970510Y625062D01*
X970593Y625029D01*
X970675Y624993D01*
X970755Y624954D01*
X970833Y624911D01*
X970909Y624865D01*
X970984Y624815D01*
X971056Y624762D01*
X971125Y624706D01*
X971192Y624647D01*
X971257Y624586D01*
X971318Y624521D01*
X971377Y624454D01*
X971433Y624385D01*
X971486Y624313D01*
X971536Y624238D01*
X971582Y624162D01*
X971625Y624084D01*
X971664Y624004D01*
X971700Y623922D01*
X971733Y623839D01*
X971761Y623754D01*
X971786Y623669D01*
X971808Y623582D01*
X971825Y623494D01*
X971838Y623406D01*
X971848Y623317D01*
X971854Y623228D01*
X971856Y623139D01*
X971854Y623050D01*
X971848Y622961D01*
X971838Y622872D01*
X971825Y622784D01*
X971808Y622696D01*
X971786Y622609D01*
X971761Y622524D01*
X971733Y622439D01*
X971700Y622356D01*
X971664Y622274D01*
X971625Y622194D01*
X971582Y622116D01*
X971536Y622040D01*
X971486Y621965D01*
X971433Y621893D01*
X971377Y621824D01*
X971318Y621757D01*
X971257Y621692D01*
X971192Y621631D01*
X971125Y621572D01*
X971056Y621516D01*
X970984Y621463D01*
X970909Y621413D01*
X970833Y621367D01*
X970755Y621324D01*
X970675Y621285D01*
X970593Y621249D01*
X970510Y621216D01*
X970425Y621188D01*
X970340Y621163D01*
X970253Y621141D01*
X970165Y621124D01*
X970077Y621111D01*
X969988Y621101D01*
X969899Y621095D01*
X969810Y621093D01*
X967764Y621093D01*
X970219Y621093D02*
X971856Y617819D01*
X974784Y625185D02*
X978877Y625185D01*
X974784Y617819D01*
X978877Y617819D01*
X981446Y617819D02*
X983902Y625185D01*
X986357Y617819D01*
X985743Y619661D02*
X982060Y619661D01*
X915998Y612993D02*
X913543Y605627D01*
X918454Y605627D02*
X915998Y612993D01*
X914157Y607469D02*
X917840Y607469D01*
X921562Y605627D02*
X921562Y612993D01*
X923609Y612993D01*
X923698Y612991D01*
X923787Y612985D01*
X923876Y612975D01*
X923964Y612962D01*
X924052Y612945D01*
X924139Y612923D01*
X924224Y612898D01*
X924309Y612870D01*
X924392Y612837D01*
X924474Y612801D01*
X924554Y612762D01*
X924632Y612719D01*
X924708Y612673D01*
X924783Y612623D01*
X924855Y612570D01*
X924924Y612514D01*
X924991Y612455D01*
X925056Y612394D01*
X925117Y612329D01*
X925176Y612262D01*
X925232Y612193D01*
X925285Y612121D01*
X925335Y612046D01*
X925381Y611970D01*
X925424Y611892D01*
X925463Y611812D01*
X925499Y611730D01*
X925532Y611647D01*
X925560Y611562D01*
X925585Y611477D01*
X925607Y611390D01*
X925624Y611302D01*
X925637Y611214D01*
X925647Y611125D01*
X925653Y611036D01*
X925655Y610947D01*
X925653Y610858D01*
X925647Y610769D01*
X925637Y610680D01*
X925624Y610592D01*
X925607Y610504D01*
X925585Y610417D01*
X925560Y610332D01*
X925532Y610247D01*
X925499Y610164D01*
X925463Y610082D01*
X925424Y610002D01*
X925381Y609924D01*
X925335Y609848D01*
X925285Y609773D01*
X925232Y609701D01*
X925176Y609632D01*
X925117Y609565D01*
X925056Y609500D01*
X924991Y609439D01*
X924924Y609380D01*
X924855Y609324D01*
X924783Y609271D01*
X924708Y609221D01*
X924632Y609175D01*
X924554Y609132D01*
X924474Y609093D01*
X924392Y609057D01*
X924309Y609024D01*
X924224Y608996D01*
X924139Y608971D01*
X924052Y608949D01*
X923964Y608932D01*
X923876Y608919D01*
X923787Y608909D01*
X923698Y608903D01*
X923609Y608901D01*
X921562Y608901D01*
X924018Y608901D02*
X925655Y605627D01*
X930385Y605627D02*
X930385Y612993D01*
X928339Y612993D02*
X932431Y612993D01*
X935749Y612993D02*
X935749Y605627D01*
X934931Y605627D02*
X936568Y605627D01*
X936568Y612993D02*
X934931Y612993D01*
X939917Y612993D02*
X939917Y605627D01*
X939917Y608492D02*
X944009Y612993D01*
X941554Y610128D02*
X944009Y605627D01*
X946871Y605627D02*
X949326Y605627D01*
X949404Y605629D01*
X949482Y605634D01*
X949559Y605644D01*
X949636Y605657D01*
X949712Y605673D01*
X949787Y605693D01*
X949861Y605717D01*
X949934Y605744D01*
X950006Y605775D01*
X950076Y605809D01*
X950145Y605846D01*
X950211Y605887D01*
X950276Y605931D01*
X950338Y605977D01*
X950398Y606027D01*
X950456Y606079D01*
X950511Y606134D01*
X950563Y606192D01*
X950613Y606252D01*
X950659Y606314D01*
X950703Y606379D01*
X950744Y606446D01*
X950781Y606514D01*
X950815Y606584D01*
X950846Y606656D01*
X950873Y606729D01*
X950897Y606803D01*
X950917Y606878D01*
X950933Y606954D01*
X950946Y607031D01*
X950956Y607108D01*
X950961Y607186D01*
X950963Y607264D01*
X950963Y608082D01*
X950961Y608160D01*
X950956Y608238D01*
X950946Y608315D01*
X950933Y608392D01*
X950917Y608468D01*
X950897Y608543D01*
X950873Y608617D01*
X950846Y608690D01*
X950815Y608762D01*
X950781Y608832D01*
X950744Y608901D01*
X950703Y608967D01*
X950659Y609032D01*
X950613Y609094D01*
X950563Y609154D01*
X950511Y609212D01*
X950456Y609267D01*
X950398Y609319D01*
X950338Y609369D01*
X950276Y609415D01*
X950211Y609459D01*
X950145Y609500D01*
X950076Y609537D01*
X950006Y609571D01*
X949934Y609602D01*
X949861Y609629D01*
X949787Y609653D01*
X949712Y609673D01*
X949636Y609689D01*
X949559Y609702D01*
X949482Y609712D01*
X949404Y609717D01*
X949326Y609719D01*
X946871Y609719D01*
X946871Y612993D01*
X950963Y612993D01*
X954186Y605627D02*
X956232Y605627D01*
X956321Y605629D01*
X956410Y605635D01*
X956499Y605645D01*
X956587Y605658D01*
X956675Y605675D01*
X956762Y605697D01*
X956847Y605722D01*
X956932Y605750D01*
X957015Y605783D01*
X957097Y605819D01*
X957177Y605858D01*
X957255Y605901D01*
X957331Y605947D01*
X957406Y605997D01*
X957478Y606050D01*
X957547Y606106D01*
X957614Y606165D01*
X957679Y606226D01*
X957740Y606291D01*
X957799Y606358D01*
X957855Y606427D01*
X957908Y606499D01*
X957958Y606574D01*
X958004Y606650D01*
X958047Y606728D01*
X958086Y606808D01*
X958122Y606890D01*
X958155Y606973D01*
X958183Y607058D01*
X958208Y607143D01*
X958230Y607230D01*
X958247Y607318D01*
X958260Y607406D01*
X958270Y607495D01*
X958276Y607584D01*
X958278Y607673D01*
X958276Y607762D01*
X958270Y607851D01*
X958260Y607940D01*
X958247Y608028D01*
X958230Y608116D01*
X958208Y608203D01*
X958183Y608288D01*
X958155Y608373D01*
X958122Y608456D01*
X958086Y608538D01*
X958047Y608618D01*
X958004Y608696D01*
X957958Y608772D01*
X957908Y608847D01*
X957855Y608919D01*
X957799Y608988D01*
X957740Y609055D01*
X957679Y609120D01*
X957614Y609181D01*
X957547Y609240D01*
X957478Y609296D01*
X957406Y609349D01*
X957331Y609399D01*
X957255Y609445D01*
X957177Y609488D01*
X957097Y609527D01*
X957015Y609563D01*
X956932Y609596D01*
X956847Y609624D01*
X956762Y609649D01*
X956675Y609671D01*
X956587Y609688D01*
X956499Y609701D01*
X956410Y609711D01*
X956321Y609717D01*
X956232Y609719D01*
X956641Y612993D02*
X954186Y612993D01*
X956641Y612993D02*
X956720Y612991D01*
X956799Y612985D01*
X956878Y612976D01*
X956956Y612963D01*
X957033Y612945D01*
X957109Y612925D01*
X957184Y612900D01*
X957258Y612872D01*
X957331Y612841D01*
X957402Y612805D01*
X957471Y612767D01*
X957538Y612725D01*
X957603Y612680D01*
X957666Y612632D01*
X957727Y612581D01*
X957784Y612527D01*
X957840Y612471D01*
X957892Y612412D01*
X957942Y612350D01*
X957988Y612286D01*
X958032Y612220D01*
X958072Y612152D01*
X958108Y612082D01*
X958142Y612010D01*
X958172Y611936D01*
X958198Y611862D01*
X958221Y611786D01*
X958239Y611709D01*
X958255Y611632D01*
X958266Y611553D01*
X958274Y611475D01*
X958278Y611396D01*
X958278Y611316D01*
X958274Y611237D01*
X958266Y611159D01*
X958255Y611080D01*
X958239Y611003D01*
X958221Y610926D01*
X958198Y610850D01*
X958172Y610776D01*
X958142Y610702D01*
X958108Y610630D01*
X958072Y610560D01*
X958032Y610492D01*
X957988Y610426D01*
X957942Y610362D01*
X957892Y610300D01*
X957840Y610241D01*
X957784Y610185D01*
X957727Y610131D01*
X957666Y610080D01*
X957603Y610032D01*
X957538Y609987D01*
X957471Y609945D01*
X957402Y609907D01*
X957331Y609871D01*
X957258Y609840D01*
X957184Y609812D01*
X957109Y609787D01*
X957033Y609767D01*
X956956Y609749D01*
X956878Y609736D01*
X956799Y609727D01*
X956720Y609721D01*
X956641Y609719D01*
X955004Y609719D01*
X961501Y609310D02*
X961503Y609463D01*
X961509Y609616D01*
X961518Y609768D01*
X961532Y609921D01*
X961549Y610073D01*
X961570Y610224D01*
X961595Y610375D01*
X961624Y610525D01*
X961656Y610675D01*
X961693Y610823D01*
X961733Y610971D01*
X961776Y611118D01*
X961824Y611263D01*
X961875Y611407D01*
X961929Y611550D01*
X961988Y611692D01*
X962049Y611831D01*
X962115Y611970D01*
X962141Y612040D01*
X962171Y612110D01*
X962204Y612177D01*
X962240Y612243D01*
X962279Y612307D01*
X962322Y612369D01*
X962368Y612428D01*
X962416Y612486D01*
X962467Y612540D01*
X962521Y612593D01*
X962578Y612642D01*
X962637Y612689D01*
X962698Y612732D01*
X962761Y612773D01*
X962826Y612810D01*
X962893Y612845D01*
X962962Y612875D01*
X963032Y612903D01*
X963103Y612926D01*
X963175Y612947D01*
X963248Y612963D01*
X963322Y612976D01*
X963397Y612986D01*
X963472Y612991D01*
X963547Y612993D01*
X963622Y612991D01*
X963697Y612986D01*
X963772Y612976D01*
X963846Y612963D01*
X963919Y612947D01*
X963991Y612926D01*
X964062Y612903D01*
X964132Y612875D01*
X964201Y612845D01*
X964268Y612810D01*
X964333Y612773D01*
X964396Y612732D01*
X964457Y612689D01*
X964516Y612642D01*
X964573Y612593D01*
X964627Y612540D01*
X964678Y612486D01*
X964727Y612428D01*
X964772Y612369D01*
X964815Y612307D01*
X964854Y612243D01*
X964891Y612177D01*
X964923Y612109D01*
X964953Y612040D01*
X964979Y611970D01*
X965044Y611832D01*
X965106Y611692D01*
X965164Y611550D01*
X965219Y611407D01*
X965270Y611263D01*
X965318Y611118D01*
X965361Y610971D01*
X965401Y610824D01*
X965438Y610675D01*
X965470Y610525D01*
X965499Y610375D01*
X965524Y610224D01*
X965545Y610073D01*
X965562Y609921D01*
X965576Y609768D01*
X965585Y609616D01*
X965591Y609463D01*
X965593Y609310D01*
X961501Y609310D02*
X961503Y609157D01*
X961509Y609004D01*
X961518Y608851D01*
X961532Y608699D01*
X961549Y608547D01*
X961570Y608396D01*
X961595Y608245D01*
X961624Y608094D01*
X961656Y607945D01*
X961693Y607796D01*
X961733Y607649D01*
X961776Y607502D01*
X961824Y607357D01*
X961875Y607212D01*
X961930Y607070D01*
X961988Y606928D01*
X962050Y606788D01*
X962115Y606650D01*
X962141Y606579D01*
X962171Y606510D01*
X962204Y606443D01*
X962240Y606377D01*
X962279Y606313D01*
X962322Y606251D01*
X962368Y606192D01*
X962416Y606134D01*
X962467Y606080D01*
X962521Y606027D01*
X962578Y605978D01*
X962637Y605931D01*
X962698Y605888D01*
X962761Y605847D01*
X962826Y605810D01*
X962893Y605775D01*
X962962Y605745D01*
X963032Y605717D01*
X963103Y605694D01*
X963175Y605673D01*
X963248Y605657D01*
X963322Y605644D01*
X963397Y605634D01*
X963472Y605629D01*
X963547Y605627D01*
X964979Y606650D02*
X965044Y606788D01*
X965106Y606928D01*
X965164Y607070D01*
X965219Y607213D01*
X965270Y607357D01*
X965318Y607502D01*
X965361Y607649D01*
X965401Y607797D01*
X965438Y607945D01*
X965470Y608095D01*
X965499Y608245D01*
X965524Y608396D01*
X965545Y608547D01*
X965562Y608699D01*
X965576Y608852D01*
X965585Y609004D01*
X965591Y609157D01*
X965593Y609310D01*
X964979Y606650D02*
X964953Y606580D01*
X964923Y606510D01*
X964891Y606443D01*
X964854Y606377D01*
X964815Y606313D01*
X964772Y606251D01*
X964726Y606192D01*
X964678Y606134D01*
X964627Y606080D01*
X964573Y606027D01*
X964516Y605978D01*
X964457Y605931D01*
X964396Y605888D01*
X964333Y605847D01*
X964268Y605810D01*
X964201Y605775D01*
X964132Y605745D01*
X964062Y605717D01*
X963991Y605694D01*
X963919Y605673D01*
X963846Y605657D01*
X963772Y605644D01*
X963697Y605634D01*
X963622Y605629D01*
X963547Y605627D01*
X961910Y607264D02*
X965184Y611356D01*
X916817Y593435D02*
X915180Y593435D01*
X915102Y593437D01*
X915024Y593442D01*
X914947Y593452D01*
X914870Y593465D01*
X914794Y593481D01*
X914719Y593501D01*
X914645Y593525D01*
X914572Y593552D01*
X914500Y593583D01*
X914430Y593617D01*
X914362Y593654D01*
X914295Y593695D01*
X914230Y593739D01*
X914168Y593785D01*
X914108Y593835D01*
X914050Y593887D01*
X913995Y593942D01*
X913943Y594000D01*
X913893Y594060D01*
X913847Y594122D01*
X913803Y594187D01*
X913762Y594254D01*
X913725Y594322D01*
X913691Y594392D01*
X913660Y594464D01*
X913633Y594537D01*
X913609Y594611D01*
X913589Y594686D01*
X913573Y594762D01*
X913560Y594839D01*
X913550Y594916D01*
X913545Y594994D01*
X913543Y595072D01*
X913543Y599164D01*
X913545Y599244D01*
X913551Y599324D01*
X913561Y599404D01*
X913574Y599483D01*
X913592Y599562D01*
X913613Y599639D01*
X913639Y599715D01*
X913668Y599790D01*
X913700Y599864D01*
X913736Y599936D01*
X913776Y600006D01*
X913819Y600073D01*
X913865Y600139D01*
X913915Y600202D01*
X913967Y600263D01*
X914022Y600322D01*
X914081Y600377D01*
X914141Y600429D01*
X914205Y600479D01*
X914271Y600525D01*
X914338Y600568D01*
X914408Y600608D01*
X914480Y600644D01*
X914554Y600676D01*
X914628Y600705D01*
X914705Y600731D01*
X914782Y600752D01*
X914861Y600770D01*
X914940Y600783D01*
X915020Y600793D01*
X915100Y600799D01*
X915180Y600801D01*
X916817Y600801D01*
X921708Y600801D02*
X919253Y593435D01*
X924163Y593435D02*
X921708Y600801D01*
X919867Y595277D02*
X923550Y595277D01*
X927272Y593435D02*
X927272Y600801D01*
X929318Y600801D01*
X929407Y600799D01*
X929496Y600793D01*
X929585Y600783D01*
X929673Y600770D01*
X929761Y600753D01*
X929848Y600731D01*
X929933Y600706D01*
X930018Y600678D01*
X930101Y600645D01*
X930183Y600609D01*
X930263Y600570D01*
X930341Y600527D01*
X930417Y600481D01*
X930492Y600431D01*
X930564Y600378D01*
X930633Y600322D01*
X930700Y600263D01*
X930765Y600202D01*
X930826Y600137D01*
X930885Y600070D01*
X930941Y600001D01*
X930994Y599929D01*
X931044Y599854D01*
X931090Y599778D01*
X931133Y599700D01*
X931172Y599620D01*
X931208Y599538D01*
X931241Y599455D01*
X931269Y599370D01*
X931294Y599285D01*
X931316Y599198D01*
X931333Y599110D01*
X931346Y599022D01*
X931356Y598933D01*
X931362Y598844D01*
X931364Y598755D01*
X931362Y598666D01*
X931356Y598577D01*
X931346Y598488D01*
X931333Y598400D01*
X931316Y598312D01*
X931294Y598225D01*
X931269Y598140D01*
X931241Y598055D01*
X931208Y597972D01*
X931172Y597890D01*
X931133Y597810D01*
X931090Y597732D01*
X931044Y597656D01*
X930994Y597581D01*
X930941Y597509D01*
X930885Y597440D01*
X930826Y597373D01*
X930765Y597308D01*
X930700Y597247D01*
X930633Y597188D01*
X930564Y597132D01*
X930492Y597079D01*
X930417Y597029D01*
X930341Y596983D01*
X930263Y596940D01*
X930183Y596901D01*
X930101Y596865D01*
X930018Y596832D01*
X929933Y596804D01*
X929848Y596779D01*
X929761Y596757D01*
X929673Y596740D01*
X929585Y596727D01*
X929496Y596717D01*
X929407Y596711D01*
X929318Y596709D01*
X927272Y596709D01*
X929728Y596709D02*
X931364Y593435D01*
X934831Y593435D02*
X934831Y600801D01*
X936877Y600801D01*
X936966Y600799D01*
X937055Y600793D01*
X937144Y600783D01*
X937232Y600770D01*
X937320Y600753D01*
X937407Y600731D01*
X937492Y600706D01*
X937577Y600678D01*
X937660Y600645D01*
X937742Y600609D01*
X937822Y600570D01*
X937900Y600527D01*
X937976Y600481D01*
X938051Y600431D01*
X938123Y600378D01*
X938192Y600322D01*
X938259Y600263D01*
X938324Y600202D01*
X938385Y600137D01*
X938444Y600070D01*
X938500Y600001D01*
X938553Y599929D01*
X938603Y599854D01*
X938649Y599778D01*
X938692Y599700D01*
X938731Y599620D01*
X938767Y599538D01*
X938800Y599455D01*
X938828Y599370D01*
X938853Y599285D01*
X938875Y599198D01*
X938892Y599110D01*
X938905Y599022D01*
X938915Y598933D01*
X938921Y598844D01*
X938923Y598755D01*
X938921Y598666D01*
X938915Y598577D01*
X938905Y598488D01*
X938892Y598400D01*
X938875Y598312D01*
X938853Y598225D01*
X938828Y598140D01*
X938800Y598055D01*
X938767Y597972D01*
X938731Y597890D01*
X938692Y597810D01*
X938649Y597732D01*
X938603Y597656D01*
X938553Y597581D01*
X938500Y597509D01*
X938444Y597440D01*
X938385Y597373D01*
X938324Y597308D01*
X938259Y597247D01*
X938192Y597188D01*
X938123Y597132D01*
X938051Y597079D01*
X937976Y597029D01*
X937900Y596983D01*
X937822Y596940D01*
X937742Y596901D01*
X937660Y596865D01*
X937577Y596832D01*
X937492Y596804D01*
X937407Y596779D01*
X937320Y596757D01*
X937232Y596740D01*
X937144Y596727D01*
X937055Y596717D01*
X936966Y596711D01*
X936877Y596709D01*
X934831Y596709D01*
X937287Y596709D02*
X938923Y593435D01*
X942678Y593435D02*
X942678Y600801D01*
X941860Y593435D02*
X943497Y593435D01*
X943497Y600801D02*
X941860Y600801D01*
X946744Y593435D02*
X950018Y593435D01*
X946744Y593435D02*
X946744Y600801D01*
X950018Y600801D01*
X949199Y597527D02*
X946744Y597527D01*
X953119Y600801D02*
X953119Y593435D01*
X953119Y600801D02*
X955165Y600801D01*
X955254Y600799D01*
X955343Y600793D01*
X955432Y600783D01*
X955520Y600770D01*
X955608Y600753D01*
X955695Y600731D01*
X955780Y600706D01*
X955865Y600678D01*
X955948Y600645D01*
X956030Y600609D01*
X956110Y600570D01*
X956188Y600527D01*
X956264Y600481D01*
X956339Y600431D01*
X956411Y600378D01*
X956480Y600322D01*
X956547Y600263D01*
X956612Y600202D01*
X956673Y600137D01*
X956732Y600070D01*
X956788Y600001D01*
X956841Y599929D01*
X956891Y599854D01*
X956937Y599778D01*
X956980Y599700D01*
X957019Y599620D01*
X957055Y599538D01*
X957088Y599455D01*
X957116Y599370D01*
X957141Y599285D01*
X957163Y599198D01*
X957180Y599110D01*
X957193Y599022D01*
X957203Y598933D01*
X957209Y598844D01*
X957211Y598755D01*
X957209Y598666D01*
X957203Y598577D01*
X957193Y598488D01*
X957180Y598400D01*
X957163Y598312D01*
X957141Y598225D01*
X957116Y598140D01*
X957088Y598055D01*
X957055Y597972D01*
X957019Y597890D01*
X956980Y597810D01*
X956937Y597732D01*
X956891Y597656D01*
X956841Y597581D01*
X956788Y597509D01*
X956732Y597440D01*
X956673Y597373D01*
X956612Y597308D01*
X956547Y597247D01*
X956480Y597188D01*
X956411Y597132D01*
X956339Y597079D01*
X956264Y597029D01*
X956188Y596983D01*
X956110Y596940D01*
X956030Y596901D01*
X955948Y596865D01*
X955865Y596832D01*
X955780Y596804D01*
X955695Y596779D01*
X955608Y596757D01*
X955520Y596740D01*
X955432Y596727D01*
X955343Y596717D01*
X955254Y596711D01*
X955165Y596709D01*
X953119Y596709D01*
X955575Y596709D02*
X957211Y593435D01*
X960745Y597527D02*
X962791Y597527D01*
X962880Y597525D01*
X962969Y597519D01*
X963058Y597509D01*
X963146Y597496D01*
X963234Y597479D01*
X963321Y597457D01*
X963406Y597432D01*
X963491Y597404D01*
X963574Y597371D01*
X963656Y597335D01*
X963736Y597296D01*
X963814Y597253D01*
X963890Y597207D01*
X963965Y597157D01*
X964037Y597104D01*
X964106Y597048D01*
X964173Y596989D01*
X964238Y596928D01*
X964299Y596863D01*
X964358Y596796D01*
X964414Y596727D01*
X964467Y596655D01*
X964517Y596580D01*
X964563Y596504D01*
X964606Y596426D01*
X964645Y596346D01*
X964681Y596264D01*
X964714Y596181D01*
X964742Y596096D01*
X964767Y596011D01*
X964789Y595924D01*
X964806Y595836D01*
X964819Y595748D01*
X964829Y595659D01*
X964835Y595570D01*
X964837Y595481D01*
X964835Y595392D01*
X964829Y595303D01*
X964819Y595214D01*
X964806Y595126D01*
X964789Y595038D01*
X964767Y594951D01*
X964742Y594866D01*
X964714Y594781D01*
X964681Y594698D01*
X964645Y594616D01*
X964606Y594536D01*
X964563Y594458D01*
X964517Y594382D01*
X964467Y594307D01*
X964414Y594235D01*
X964358Y594166D01*
X964299Y594099D01*
X964238Y594034D01*
X964173Y593973D01*
X964106Y593914D01*
X964037Y593858D01*
X963965Y593805D01*
X963890Y593755D01*
X963814Y593709D01*
X963736Y593666D01*
X963656Y593627D01*
X963574Y593591D01*
X963491Y593558D01*
X963406Y593530D01*
X963321Y593505D01*
X963234Y593483D01*
X963146Y593466D01*
X963058Y593453D01*
X962969Y593443D01*
X962880Y593437D01*
X962791Y593435D01*
X960745Y593435D01*
X960745Y600801D01*
X962791Y600801D01*
X962870Y600799D01*
X962949Y600793D01*
X963028Y600784D01*
X963106Y600771D01*
X963183Y600753D01*
X963259Y600733D01*
X963334Y600708D01*
X963408Y600680D01*
X963481Y600649D01*
X963552Y600613D01*
X963621Y600575D01*
X963688Y600533D01*
X963753Y600488D01*
X963816Y600440D01*
X963877Y600389D01*
X963934Y600335D01*
X963990Y600279D01*
X964042Y600220D01*
X964092Y600158D01*
X964138Y600094D01*
X964182Y600028D01*
X964222Y599960D01*
X964258Y599890D01*
X964292Y599818D01*
X964322Y599744D01*
X964348Y599670D01*
X964371Y599594D01*
X964389Y599517D01*
X964405Y599440D01*
X964416Y599361D01*
X964424Y599283D01*
X964428Y599204D01*
X964428Y599124D01*
X964424Y599045D01*
X964416Y598967D01*
X964405Y598888D01*
X964389Y598811D01*
X964371Y598734D01*
X964348Y598658D01*
X964322Y598584D01*
X964292Y598510D01*
X964258Y598438D01*
X964222Y598368D01*
X964182Y598300D01*
X964138Y598234D01*
X964092Y598170D01*
X964042Y598108D01*
X963990Y598049D01*
X963934Y597993D01*
X963877Y597939D01*
X963816Y597888D01*
X963753Y597840D01*
X963688Y597795D01*
X963621Y597753D01*
X963552Y597715D01*
X963481Y597679D01*
X963408Y597648D01*
X963334Y597620D01*
X963259Y597595D01*
X963183Y597575D01*
X963106Y597557D01*
X963028Y597544D01*
X962949Y597535D01*
X962870Y597529D01*
X962791Y597527D01*
X967698Y598755D02*
X967698Y595481D01*
X967699Y598755D02*
X967701Y598844D01*
X967707Y598933D01*
X967717Y599022D01*
X967730Y599110D01*
X967747Y599198D01*
X967769Y599285D01*
X967794Y599370D01*
X967822Y599455D01*
X967855Y599538D01*
X967891Y599620D01*
X967930Y599700D01*
X967973Y599778D01*
X968019Y599854D01*
X968069Y599929D01*
X968122Y600001D01*
X968178Y600070D01*
X968237Y600137D01*
X968298Y600202D01*
X968363Y600263D01*
X968430Y600322D01*
X968499Y600378D01*
X968571Y600431D01*
X968646Y600481D01*
X968722Y600527D01*
X968800Y600570D01*
X968880Y600609D01*
X968962Y600645D01*
X969045Y600678D01*
X969130Y600706D01*
X969215Y600731D01*
X969302Y600753D01*
X969390Y600770D01*
X969478Y600783D01*
X969567Y600793D01*
X969656Y600799D01*
X969745Y600801D01*
X969834Y600799D01*
X969923Y600793D01*
X970012Y600783D01*
X970100Y600770D01*
X970188Y600753D01*
X970275Y600731D01*
X970360Y600706D01*
X970445Y600678D01*
X970528Y600645D01*
X970610Y600609D01*
X970690Y600570D01*
X970768Y600527D01*
X970844Y600481D01*
X970919Y600431D01*
X970991Y600378D01*
X971060Y600322D01*
X971127Y600263D01*
X971192Y600202D01*
X971253Y600137D01*
X971312Y600070D01*
X971368Y600001D01*
X971421Y599929D01*
X971471Y599854D01*
X971517Y599778D01*
X971560Y599700D01*
X971599Y599620D01*
X971635Y599538D01*
X971668Y599455D01*
X971696Y599370D01*
X971721Y599285D01*
X971743Y599198D01*
X971760Y599110D01*
X971773Y599022D01*
X971783Y598933D01*
X971789Y598844D01*
X971791Y598755D01*
X971791Y595481D01*
X971789Y595392D01*
X971783Y595303D01*
X971773Y595214D01*
X971760Y595126D01*
X971743Y595038D01*
X971721Y594951D01*
X971696Y594866D01*
X971668Y594781D01*
X971635Y594698D01*
X971599Y594616D01*
X971560Y594536D01*
X971517Y594458D01*
X971471Y594382D01*
X971421Y594307D01*
X971368Y594235D01*
X971312Y594166D01*
X971253Y594099D01*
X971192Y594034D01*
X971127Y593973D01*
X971060Y593914D01*
X970991Y593858D01*
X970919Y593805D01*
X970844Y593755D01*
X970768Y593709D01*
X970690Y593666D01*
X970610Y593627D01*
X970528Y593591D01*
X970445Y593558D01*
X970360Y593530D01*
X970275Y593505D01*
X970188Y593483D01*
X970100Y593466D01*
X970012Y593453D01*
X969923Y593443D01*
X969834Y593437D01*
X969745Y593435D01*
X969656Y593437D01*
X969567Y593443D01*
X969478Y593453D01*
X969390Y593466D01*
X969302Y593483D01*
X969215Y593505D01*
X969130Y593530D01*
X969045Y593558D01*
X968962Y593591D01*
X968880Y593627D01*
X968800Y593666D01*
X968722Y593709D01*
X968646Y593755D01*
X968571Y593805D01*
X968499Y593858D01*
X968430Y593914D01*
X968363Y593973D01*
X968298Y594034D01*
X968237Y594099D01*
X968178Y594166D01*
X968122Y594235D01*
X968069Y594307D01*
X968019Y594382D01*
X967973Y594458D01*
X967930Y594536D01*
X967891Y594616D01*
X967855Y594698D01*
X967822Y594781D01*
X967794Y594866D01*
X967769Y594951D01*
X967747Y595038D01*
X967730Y595126D01*
X967717Y595214D01*
X967707Y595303D01*
X967701Y595392D01*
X967699Y595481D01*
X974604Y593435D02*
X977060Y600801D01*
X979515Y593435D01*
X978901Y595277D02*
X975218Y595277D01*
X982624Y593435D02*
X982624Y600801D01*
X984670Y600801D01*
X984759Y600799D01*
X984848Y600793D01*
X984937Y600783D01*
X985025Y600770D01*
X985113Y600753D01*
X985200Y600731D01*
X985285Y600706D01*
X985370Y600678D01*
X985453Y600645D01*
X985535Y600609D01*
X985615Y600570D01*
X985693Y600527D01*
X985769Y600481D01*
X985844Y600431D01*
X985916Y600378D01*
X985985Y600322D01*
X986052Y600263D01*
X986117Y600202D01*
X986178Y600137D01*
X986237Y600070D01*
X986293Y600001D01*
X986346Y599929D01*
X986396Y599854D01*
X986442Y599778D01*
X986485Y599700D01*
X986524Y599620D01*
X986560Y599538D01*
X986593Y599455D01*
X986621Y599370D01*
X986646Y599285D01*
X986668Y599198D01*
X986685Y599110D01*
X986698Y599022D01*
X986708Y598933D01*
X986714Y598844D01*
X986716Y598755D01*
X986714Y598666D01*
X986708Y598577D01*
X986698Y598488D01*
X986685Y598400D01*
X986668Y598312D01*
X986646Y598225D01*
X986621Y598140D01*
X986593Y598055D01*
X986560Y597972D01*
X986524Y597890D01*
X986485Y597810D01*
X986442Y597732D01*
X986396Y597656D01*
X986346Y597581D01*
X986293Y597509D01*
X986237Y597440D01*
X986178Y597373D01*
X986117Y597308D01*
X986052Y597247D01*
X985985Y597188D01*
X985916Y597132D01*
X985844Y597079D01*
X985769Y597029D01*
X985693Y596983D01*
X985615Y596940D01*
X985535Y596901D01*
X985453Y596865D01*
X985370Y596832D01*
X985285Y596804D01*
X985200Y596779D01*
X985113Y596757D01*
X985025Y596740D01*
X984937Y596727D01*
X984848Y596717D01*
X984759Y596711D01*
X984670Y596709D01*
X982624Y596709D01*
X985079Y596709D02*
X986716Y593435D01*
X990132Y593435D02*
X990132Y600801D01*
X992178Y600801D01*
X992267Y600799D01*
X992356Y600793D01*
X992445Y600783D01*
X992533Y600770D01*
X992621Y600753D01*
X992708Y600731D01*
X992793Y600706D01*
X992878Y600678D01*
X992961Y600645D01*
X993043Y600609D01*
X993123Y600570D01*
X993201Y600527D01*
X993277Y600481D01*
X993352Y600431D01*
X993424Y600378D01*
X993493Y600322D01*
X993560Y600263D01*
X993625Y600202D01*
X993686Y600137D01*
X993745Y600070D01*
X993801Y600001D01*
X993854Y599929D01*
X993904Y599854D01*
X993950Y599778D01*
X993993Y599700D01*
X994032Y599620D01*
X994068Y599538D01*
X994101Y599455D01*
X994129Y599370D01*
X994154Y599285D01*
X994176Y599198D01*
X994193Y599110D01*
X994206Y599022D01*
X994216Y598933D01*
X994222Y598844D01*
X994224Y598755D01*
X994224Y595481D01*
X994222Y595392D01*
X994216Y595303D01*
X994206Y595214D01*
X994193Y595126D01*
X994176Y595038D01*
X994154Y594951D01*
X994129Y594866D01*
X994101Y594781D01*
X994068Y594698D01*
X994032Y594616D01*
X993993Y594536D01*
X993950Y594458D01*
X993904Y594382D01*
X993854Y594307D01*
X993801Y594235D01*
X993745Y594166D01*
X993686Y594099D01*
X993625Y594034D01*
X993560Y593973D01*
X993493Y593914D01*
X993424Y593858D01*
X993352Y593805D01*
X993277Y593755D01*
X993201Y593709D01*
X993123Y593666D01*
X993043Y593627D01*
X992961Y593591D01*
X992878Y593558D01*
X992793Y593530D01*
X992708Y593505D01*
X992621Y593483D01*
X992533Y593466D01*
X992445Y593453D01*
X992356Y593443D01*
X992267Y593437D01*
X992178Y593435D01*
X990132Y593435D01*
X913543Y588609D02*
X913543Y581243D01*
X913543Y588609D02*
X915589Y588609D01*
X915678Y588607D01*
X915767Y588601D01*
X915856Y588591D01*
X915944Y588578D01*
X916032Y588561D01*
X916119Y588539D01*
X916204Y588514D01*
X916289Y588486D01*
X916372Y588453D01*
X916454Y588417D01*
X916534Y588378D01*
X916612Y588335D01*
X916688Y588289D01*
X916763Y588239D01*
X916835Y588186D01*
X916904Y588130D01*
X916971Y588071D01*
X917036Y588010D01*
X917097Y587945D01*
X917156Y587878D01*
X917212Y587809D01*
X917265Y587737D01*
X917315Y587662D01*
X917361Y587586D01*
X917404Y587508D01*
X917443Y587428D01*
X917479Y587346D01*
X917512Y587263D01*
X917540Y587178D01*
X917565Y587093D01*
X917587Y587006D01*
X917604Y586918D01*
X917617Y586830D01*
X917627Y586741D01*
X917633Y586652D01*
X917635Y586563D01*
X917633Y586474D01*
X917627Y586385D01*
X917617Y586296D01*
X917604Y586208D01*
X917587Y586120D01*
X917565Y586033D01*
X917540Y585948D01*
X917512Y585863D01*
X917479Y585780D01*
X917443Y585698D01*
X917404Y585618D01*
X917361Y585540D01*
X917315Y585464D01*
X917265Y585389D01*
X917212Y585317D01*
X917156Y585248D01*
X917097Y585181D01*
X917036Y585116D01*
X916971Y585055D01*
X916904Y584996D01*
X916835Y584940D01*
X916763Y584887D01*
X916688Y584837D01*
X916612Y584791D01*
X916534Y584748D01*
X916454Y584709D01*
X916372Y584673D01*
X916289Y584640D01*
X916204Y584612D01*
X916119Y584587D01*
X916032Y584565D01*
X915944Y584548D01*
X915856Y584535D01*
X915767Y584525D01*
X915678Y584519D01*
X915589Y584517D01*
X913543Y584517D01*
X915998Y584517D02*
X917635Y581243D01*
X921067Y581243D02*
X924340Y581243D01*
X921067Y581243D02*
X921067Y588609D01*
X924340Y588609D01*
X923522Y585335D02*
X921067Y585335D01*
X926738Y588609D02*
X929193Y581243D01*
X931648Y588609D01*
X935076Y587586D02*
X935010Y587447D01*
X934949Y587308D01*
X934890Y587166D01*
X934836Y587023D01*
X934785Y586879D01*
X934737Y586734D01*
X934694Y586587D01*
X934654Y586439D01*
X934617Y586291D01*
X934585Y586141D01*
X934556Y585991D01*
X934531Y585840D01*
X934510Y585689D01*
X934493Y585537D01*
X934479Y585384D01*
X934470Y585232D01*
X934464Y585079D01*
X934462Y584926D01*
X935076Y587586D02*
X935102Y587656D01*
X935132Y587726D01*
X935165Y587793D01*
X935201Y587859D01*
X935240Y587923D01*
X935283Y587985D01*
X935329Y588044D01*
X935377Y588102D01*
X935428Y588156D01*
X935482Y588209D01*
X935539Y588258D01*
X935598Y588305D01*
X935659Y588348D01*
X935722Y588389D01*
X935787Y588426D01*
X935854Y588461D01*
X935923Y588491D01*
X935993Y588519D01*
X936064Y588542D01*
X936136Y588563D01*
X936209Y588579D01*
X936283Y588592D01*
X936358Y588602D01*
X936433Y588607D01*
X936508Y588609D01*
X936583Y588607D01*
X936658Y588602D01*
X936733Y588592D01*
X936807Y588579D01*
X936880Y588563D01*
X936952Y588542D01*
X937023Y588519D01*
X937093Y588491D01*
X937162Y588461D01*
X937229Y588426D01*
X937294Y588389D01*
X937357Y588348D01*
X937418Y588305D01*
X937477Y588258D01*
X937534Y588209D01*
X937588Y588156D01*
X937639Y588102D01*
X937688Y588044D01*
X937733Y587985D01*
X937776Y587923D01*
X937815Y587859D01*
X937852Y587793D01*
X937884Y587725D01*
X937914Y587656D01*
X937940Y587586D01*
X938005Y587448D01*
X938067Y587308D01*
X938125Y587166D01*
X938180Y587023D01*
X938231Y586879D01*
X938279Y586734D01*
X938322Y586587D01*
X938362Y586440D01*
X938399Y586291D01*
X938431Y586141D01*
X938460Y585991D01*
X938485Y585840D01*
X938506Y585689D01*
X938523Y585537D01*
X938537Y585384D01*
X938546Y585232D01*
X938552Y585079D01*
X938554Y584926D01*
X934462Y584926D02*
X934464Y584773D01*
X934470Y584620D01*
X934479Y584467D01*
X934493Y584315D01*
X934510Y584163D01*
X934531Y584012D01*
X934556Y583861D01*
X934585Y583710D01*
X934617Y583561D01*
X934654Y583412D01*
X934694Y583265D01*
X934737Y583118D01*
X934785Y582973D01*
X934836Y582828D01*
X934891Y582686D01*
X934949Y582544D01*
X935011Y582404D01*
X935076Y582266D01*
X935102Y582195D01*
X935132Y582126D01*
X935165Y582059D01*
X935201Y581993D01*
X935240Y581929D01*
X935283Y581867D01*
X935329Y581808D01*
X935377Y581750D01*
X935428Y581696D01*
X935482Y581643D01*
X935539Y581594D01*
X935598Y581547D01*
X935659Y581504D01*
X935722Y581463D01*
X935787Y581426D01*
X935854Y581391D01*
X935923Y581361D01*
X935993Y581333D01*
X936064Y581310D01*
X936136Y581289D01*
X936209Y581273D01*
X936283Y581260D01*
X936358Y581250D01*
X936433Y581245D01*
X936508Y581243D01*
X937940Y582266D02*
X938005Y582404D01*
X938067Y582544D01*
X938125Y582686D01*
X938180Y582829D01*
X938231Y582973D01*
X938279Y583118D01*
X938322Y583265D01*
X938362Y583413D01*
X938399Y583561D01*
X938431Y583711D01*
X938460Y583861D01*
X938485Y584012D01*
X938506Y584163D01*
X938523Y584315D01*
X938537Y584468D01*
X938546Y584620D01*
X938552Y584773D01*
X938554Y584926D01*
X937940Y582266D02*
X937914Y582196D01*
X937884Y582126D01*
X937852Y582059D01*
X937815Y581993D01*
X937776Y581929D01*
X937733Y581867D01*
X937687Y581808D01*
X937639Y581750D01*
X937588Y581696D01*
X937534Y581643D01*
X937477Y581594D01*
X937418Y581547D01*
X937357Y581504D01*
X937294Y581463D01*
X937229Y581426D01*
X937162Y581391D01*
X937093Y581361D01*
X937023Y581333D01*
X936952Y581310D01*
X936880Y581289D01*
X936807Y581273D01*
X936733Y581260D01*
X936658Y581250D01*
X936583Y581245D01*
X936508Y581243D01*
X934871Y582880D02*
X938145Y586972D01*
D12*
X880491Y576072D03*
D13*
X880491Y576326D03*
D14*
X880618Y576580D03*
D15*
X880491Y576834D03*
D16*
X880491Y577088D03*
D17*
X880618Y577342D03*
D18*
X878586Y577596D03*
D12*
X880491Y577596D03*
D18*
X882650Y577596D03*
X878078Y577850D03*
D12*
X880491Y577850D03*
D18*
X882904Y577850D03*
D13*
X877697Y578104D03*
D12*
X880491Y578104D03*
D18*
X883412Y578104D03*
D13*
X877189Y578358D03*
D12*
X880491Y578358D03*
D18*
X883920Y578358D03*
X876808Y578612D03*
D12*
X880491Y578612D03*
D13*
X884301Y578612D03*
D18*
X876300Y578866D03*
D12*
X880491Y578866D03*
D13*
X884809Y578866D03*
D18*
X875792Y579120D03*
D12*
X880491Y579120D03*
D18*
X885190Y579120D03*
D13*
X875411Y579374D03*
D12*
X880491Y579374D03*
D18*
X885698Y579374D03*
D13*
X874903Y579628D03*
D12*
X880491Y579628D03*
D18*
X886206Y579628D03*
X874522Y579882D03*
D12*
X880491Y579882D03*
D18*
X886460Y579882D03*
X874268Y580136D03*
D12*
X880491Y580136D03*
D18*
X886968Y580136D03*
D19*
X873633Y580390D03*
D12*
X880491Y580390D03*
D18*
X887476Y580390D03*
X873252Y580644D03*
D12*
X880491Y580644D03*
D18*
X887730Y580644D03*
X872744Y580898D03*
D12*
X880491Y580898D03*
D18*
X888238Y580898D03*
D13*
X872363Y581152D03*
D12*
X880491Y581152D03*
D18*
X888746Y581152D03*
X871982Y581406D03*
D12*
X880491Y581406D03*
D13*
X889127Y581406D03*
D18*
X871474Y581660D03*
D12*
X880491Y581660D03*
D13*
X889635Y581660D03*
X871093Y581914D03*
D12*
X880491Y581914D03*
D18*
X890016Y581914D03*
X870458Y582168D03*
D12*
X880491Y582168D03*
D18*
X890524Y582168D03*
X870204Y582422D03*
D12*
X880491Y582422D03*
D13*
X890905Y582422D03*
D18*
X869696Y582676D03*
D12*
X880491Y582676D03*
D13*
X891413Y582676D03*
D18*
X869188Y582930D03*
D12*
X880491Y582930D03*
D18*
X891794Y582930D03*
X868934Y583184D03*
D12*
X880491Y583184D03*
D18*
X892302Y583184D03*
X868426Y583438D03*
D12*
X880491Y583438D03*
D18*
X892810Y583438D03*
X867918Y583692D03*
D12*
X880491Y583692D03*
D18*
X893064Y583692D03*
X867410Y583946D03*
D12*
X880491Y583946D03*
D19*
X893699Y583946D03*
D18*
X867156Y584200D03*
D12*
X880491Y584200D03*
D18*
X894080Y584200D03*
X866648Y584454D03*
D12*
X880491Y584454D03*
D18*
X894334Y584454D03*
X866140Y584708D03*
D12*
X880491Y584708D03*
D19*
X894969Y584708D03*
D18*
X865886Y584962D03*
D12*
X880491Y584962D03*
D18*
X895350Y584962D03*
D19*
X865251Y585216D03*
D12*
X880491Y585216D03*
D18*
X895858Y585216D03*
X864870Y585470D03*
D12*
X880491Y585470D03*
D18*
X896112Y585470D03*
D13*
X864489Y585724D03*
D20*
X880618Y585724D03*
D18*
X896620Y585724D03*
X864108Y585978D03*
D19*
X880491Y585978D03*
D18*
X897128Y585978D03*
X863600Y586232D03*
D21*
X880618Y586232D03*
D13*
X897509Y586232D03*
D18*
X863092Y586486D03*
D22*
X880618Y586486D03*
D19*
X898017Y586486D03*
D13*
X862711Y586740D03*
D23*
X880491Y586740D03*
D18*
X898398Y586740D03*
D19*
X862203Y586994D03*
D24*
X880491Y586994D03*
D18*
X898906Y586994D03*
X861822Y587248D03*
D25*
X880618Y587248D03*
D18*
X899160Y587248D03*
X861314Y587502D03*
D26*
X880618Y587502D03*
D13*
X899795Y587502D03*
X860933Y587756D03*
D27*
X880491Y587756D03*
D18*
X900176Y587756D03*
D13*
X860425Y588010D03*
D28*
X880618Y588010D03*
D18*
X900684Y588010D03*
X860044Y588264D03*
D29*
X880491Y588264D03*
D18*
X901192Y588264D03*
X859536Y588518D03*
D30*
X880618Y588518D03*
D18*
X901446Y588518D03*
X859028Y588772D03*
D31*
X880618Y588772D03*
D18*
X901954Y588772D03*
D19*
X858901Y589026D03*
D32*
X880491Y589026D03*
D18*
X902462Y589026D03*
X858266Y589280D03*
D33*
X880618Y589280D03*
D13*
X902843Y589280D03*
D18*
X857758Y589534D03*
D34*
X880491Y589534D03*
D18*
X903224Y589534D03*
X857504Y589788D03*
D35*
X880491Y589788D03*
D18*
X903732Y589788D03*
X856996Y590042D03*
D36*
X880618Y590042D03*
D18*
X904240Y590042D03*
X856488Y590296D03*
D37*
X880618Y590296D03*
D18*
X904494Y590296D03*
D13*
X856361Y590550D03*
D38*
X880491Y590550D03*
D13*
X904621Y590550D03*
D18*
X856488Y590804D03*
D39*
X880618Y590804D03*
D18*
X904494Y590804D03*
D19*
X856615Y591058D03*
D40*
X880491Y591058D03*
D18*
X904494Y591058D03*
D41*
X856869Y591312D03*
D42*
X880491Y591312D03*
D14*
X904240Y591312D03*
D15*
X857123Y591566D03*
D43*
X880618Y591566D03*
D21*
X903986Y591566D03*
D12*
X856107Y591820D03*
D13*
X858139Y591820D03*
D44*
X880618Y591820D03*
D18*
X902970Y591820D03*
D45*
X905002Y591820D03*
X855980Y592074D03*
D18*
X858520Y592074D03*
D46*
X880491Y592074D03*
D18*
X902716Y592074D03*
D45*
X905002Y592074D03*
X855980Y592328D03*
D18*
X859028Y592328D03*
D47*
X880491Y592328D03*
D18*
X901954Y592328D03*
D45*
X905002Y592328D03*
X855980Y592582D03*
D13*
X859409Y592582D03*
D48*
X880618Y592582D03*
D18*
X901700Y592582D03*
D45*
X905002Y592582D03*
X855980Y592836D03*
D18*
X859790Y592836D03*
D49*
X880491Y592836D03*
D13*
X901319Y592836D03*
D45*
X905002Y592836D03*
X855980Y593090D03*
D18*
X860298Y593090D03*
D50*
X880618Y593090D03*
D18*
X900684Y593090D03*
D45*
X905002Y593090D03*
X855980Y593344D03*
D18*
X860806Y593344D03*
D51*
X880491Y593344D03*
D18*
X900430Y593344D03*
D45*
X905002Y593344D03*
X855980Y593598D03*
D19*
X861187Y593598D03*
D52*
X880491Y593598D03*
D18*
X899922Y593598D03*
D45*
X905002Y593598D03*
X855980Y593852D03*
D18*
X861568Y593852D03*
D53*
X880491Y593852D03*
D19*
X899541Y593852D03*
D45*
X905002Y593852D03*
X855980Y594106D03*
D18*
X862076Y594106D03*
D54*
X880491Y594106D03*
D18*
X899160Y594106D03*
D45*
X905002Y594106D03*
X855980Y594360D03*
D18*
X862584Y594360D03*
D55*
X880618Y594360D03*
D13*
X898525Y594360D03*
D45*
X905002Y594360D03*
X855980Y594614D03*
D18*
X862838Y594614D03*
D56*
X880618Y594614D03*
D18*
X898144Y594614D03*
D45*
X905002Y594614D03*
X855980Y594868D03*
D13*
X863219Y594868D03*
D57*
X881507Y594868D03*
D45*
X905002Y594868D03*
X855980Y595122D03*
D12*
X863473Y595122D03*
D58*
X880618Y595122D03*
D20*
X897636Y595122D03*
D45*
X905002Y595122D03*
X855980Y595376D03*
D59*
X863600Y595376D03*
D60*
X880491Y595376D03*
D59*
X897382Y595376D03*
D45*
X905002Y595376D03*
X855980Y595630D03*
D54*
X880491Y595630D03*
D45*
X905002Y595630D03*
X855980Y595884D03*
D59*
X864108Y595884D03*
D53*
X880491Y595884D03*
D61*
X897001Y595884D03*
D45*
X905002Y595884D03*
X855980Y596138D03*
D12*
X864235Y596138D03*
D62*
X880618Y596138D03*
D12*
X896747Y596138D03*
D45*
X905002Y596138D03*
X855980Y596392D03*
D13*
X864489Y596392D03*
D51*
X880491Y596392D03*
D20*
X896620Y596392D03*
D45*
X905002Y596392D03*
X855980Y596646D03*
D19*
X864743Y596646D03*
D63*
X880491Y596646D03*
D18*
X896366Y596646D03*
D45*
X905002Y596646D03*
X855980Y596900D03*
D41*
X864997Y596900D03*
D64*
X880618Y596900D03*
D14*
X896112Y596900D03*
D45*
X905002Y596900D03*
X855980Y597154D03*
D21*
X865124Y597154D03*
D65*
X880491Y597154D03*
D21*
X895858Y597154D03*
D45*
X905002Y597154D03*
X855980Y597408D03*
D66*
X865378Y597408D03*
D47*
X880491Y597408D03*
D66*
X895604Y597408D03*
D45*
X905002Y597408D03*
X855980Y597662D03*
D22*
X865632Y597662D03*
D67*
X880491Y597662D03*
D68*
X895477Y597662D03*
D45*
X905002Y597662D03*
X855980Y597916D03*
D16*
X865759Y597916D03*
D44*
X880618Y597916D03*
D16*
X895223Y597916D03*
D45*
X905002Y597916D03*
X855980Y598170D03*
D23*
X866013Y598170D03*
D69*
X880491Y598170D03*
D23*
X894969Y598170D03*
D45*
X905002Y598170D03*
X855980Y598424D03*
D70*
X866267Y598424D03*
D71*
X880618Y598424D03*
D17*
X894842Y598424D03*
D45*
X905002Y598424D03*
X855980Y598678D03*
D72*
X866394Y598678D03*
D73*
X880618Y598678D03*
D72*
X894588Y598678D03*
D45*
X905002Y598678D03*
X855980Y598932D03*
D74*
X866648Y598932D03*
D75*
X880491Y598932D03*
D74*
X894334Y598932D03*
D45*
X905002Y598932D03*
X855980Y599186D03*
D25*
X866902Y599186D03*
D38*
X880491Y599186D03*
D76*
X894207Y599186D03*
D45*
X905002Y599186D03*
X855980Y599440D03*
D77*
X867029Y599440D03*
D78*
X880491Y599440D03*
D77*
X893953Y599440D03*
D45*
X905002Y599440D03*
X855980Y599694D03*
D79*
X867283Y599694D03*
D36*
X880618Y599694D03*
D79*
X893699Y599694D03*
D45*
X905002Y599694D03*
X855980Y599948D03*
D80*
X867537Y599948D03*
D81*
X880491Y599948D03*
D82*
X893572Y599948D03*
D45*
X905002Y599948D03*
X855980Y600202D03*
D27*
X867791Y600202D03*
D34*
X880491Y600202D03*
D83*
X893318Y600202D03*
D45*
X905002Y600202D03*
X855980Y600456D03*
D84*
X867918Y600456D03*
D33*
X880618Y600456D03*
D84*
X893064Y600456D03*
D45*
X905002Y600456D03*
X855980Y600710D03*
D28*
X868172Y600710D03*
D32*
X880491Y600710D03*
D28*
X892810Y600710D03*
D45*
X905002Y600710D03*
X855980Y600964D03*
D85*
X868426Y600964D03*
D86*
X880491Y600964D03*
D85*
X892556Y600964D03*
D45*
X905002Y600964D03*
X855980Y601218D03*
D29*
X868553Y601218D03*
D30*
X880618Y601218D03*
D29*
X892429Y601218D03*
D45*
X905002Y601218D03*
X855980Y601472D03*
D87*
X868934Y601472D03*
D29*
X880491Y601472D03*
D88*
X892175Y601472D03*
D45*
X905002Y601472D03*
X855980Y601726D03*
D89*
X869061Y601726D03*
D28*
X880618Y601726D03*
D89*
X891921Y601726D03*
D45*
X905002Y601726D03*
X855980Y601980D03*
D90*
X869315Y601980D03*
D27*
X880491Y601980D03*
D90*
X891667Y601980D03*
D45*
X905002Y601980D03*
X855980Y602234D03*
D86*
X869569Y602234D03*
D79*
X880491Y602234D03*
D91*
X891540Y602234D03*
D45*
X905002Y602234D03*
X855980Y602488D03*
D31*
X869696Y602488D03*
D77*
X880491Y602488D03*
D31*
X891286Y602488D03*
D45*
X905002Y602488D03*
X855980Y602742D03*
D92*
X869950Y602742D03*
D24*
X880491Y602742D03*
D92*
X891032Y602742D03*
D45*
X905002Y602742D03*
X855980Y602996D03*
D93*
X870204Y602996D03*
D70*
X880491Y602996D03*
D93*
X890778Y602996D03*
D45*
X905002Y602996D03*
X855980Y603250D03*
D33*
X870458Y603250D03*
D22*
X880618Y603250D03*
D94*
X890651Y603250D03*
D45*
X905002Y603250D03*
X855980Y603504D03*
D95*
X870712Y603504D03*
D15*
X880491Y603504D03*
D96*
X890397Y603504D03*
D45*
X905002Y603504D03*
X855980Y603758D03*
D34*
X870839Y603758D03*
D19*
X880491Y603758D03*
D34*
X890143Y603758D03*
D45*
X905002Y603758D03*
X855980Y604012D03*
D35*
X871093Y604012D03*
D12*
X880491Y604012D03*
D35*
X889889Y604012D03*
D45*
X905002Y604012D03*
X855980Y604266D03*
D97*
X871220Y604266D03*
X889762Y604266D03*
D45*
X905002Y604266D03*
X855980Y604520D03*
D98*
X871474Y604520D03*
X889508Y604520D03*
D45*
X905002Y604520D03*
X855980Y604774D03*
D36*
X871728Y604774D03*
X889254Y604774D03*
D45*
X905002Y604774D03*
X855980Y605028D03*
D99*
X871855Y605028D03*
X889127Y605028D03*
D45*
X905002Y605028D03*
X855980Y605282D03*
D99*
X871855Y605282D03*
X889127Y605282D03*
D45*
X905002Y605282D03*
X855980Y605536D03*
D37*
X871982Y605536D03*
D99*
X889127Y605536D03*
D45*
X905002Y605536D03*
X855980Y605790D03*
D37*
X871982Y605790D03*
D99*
X889127Y605790D03*
D45*
X905002Y605790D03*
X855980Y606044D03*
D37*
X871982Y606044D03*
D99*
X889127Y606044D03*
D45*
X905002Y606044D03*
X855980Y606298D03*
D37*
X871982Y606298D03*
D99*
X889127Y606298D03*
D45*
X905002Y606298D03*
X855980Y606552D03*
D37*
X871982Y606552D03*
D99*
X889127Y606552D03*
D45*
X905002Y606552D03*
X855980Y606806D03*
D37*
X871982Y606806D03*
D99*
X889127Y606806D03*
D45*
X905002Y606806D03*
X855980Y607060D03*
D37*
X871982Y607060D03*
D99*
X889127Y607060D03*
D45*
X905002Y607060D03*
X855980Y607314D03*
D37*
X871982Y607314D03*
D99*
X889127Y607314D03*
D45*
X905002Y607314D03*
X855980Y607568D03*
D37*
X871982Y607568D03*
D99*
X889127Y607568D03*
D45*
X905002Y607568D03*
X855980Y607822D03*
D37*
X871982Y607822D03*
D99*
X889127Y607822D03*
D45*
X905002Y607822D03*
X855980Y608076D03*
D37*
X871982Y608076D03*
D99*
X889127Y608076D03*
D45*
X905002Y608076D03*
X855980Y608330D03*
D37*
X871982Y608330D03*
D99*
X889127Y608330D03*
D45*
X905002Y608330D03*
X855980Y608584D03*
D37*
X871982Y608584D03*
D99*
X889127Y608584D03*
D45*
X905002Y608584D03*
X855980Y608838D03*
D37*
X871982Y608838D03*
D99*
X889127Y608838D03*
D45*
X905002Y608838D03*
X855980Y609092D03*
D37*
X871982Y609092D03*
D99*
X889127Y609092D03*
D45*
X905002Y609092D03*
X855980Y609346D03*
D37*
X871982Y609346D03*
D99*
X889127Y609346D03*
D45*
X905002Y609346D03*
X855980Y609600D03*
D37*
X871982Y609600D03*
D99*
X889127Y609600D03*
D45*
X905002Y609600D03*
X855980Y609854D03*
D37*
X871982Y609854D03*
D99*
X889127Y609854D03*
D45*
X905002Y609854D03*
X855980Y610108D03*
D37*
X871982Y610108D03*
D99*
X889127Y610108D03*
D45*
X905002Y610108D03*
X855980Y610362D03*
D37*
X871982Y610362D03*
D99*
X889127Y610362D03*
D45*
X905002Y610362D03*
X855980Y610616D03*
D37*
X871982Y610616D03*
D99*
X889127Y610616D03*
D45*
X905002Y610616D03*
X855980Y610870D03*
D37*
X871982Y610870D03*
D99*
X889127Y610870D03*
D45*
X905002Y610870D03*
X855980Y611124D03*
D37*
X871982Y611124D03*
D99*
X889127Y611124D03*
D45*
X905002Y611124D03*
X855980Y611378D03*
D37*
X871982Y611378D03*
D99*
X889127Y611378D03*
D45*
X905002Y611378D03*
X855980Y611632D03*
D37*
X871982Y611632D03*
D99*
X889127Y611632D03*
D45*
X905002Y611632D03*
X855980Y611886D03*
D37*
X871982Y611886D03*
D99*
X889127Y611886D03*
D45*
X905002Y611886D03*
X855980Y612140D03*
D37*
X871982Y612140D03*
D99*
X889127Y612140D03*
D45*
X905002Y612140D03*
X855980Y612394D03*
D37*
X871982Y612394D03*
D99*
X889127Y612394D03*
D45*
X905002Y612394D03*
X855980Y612648D03*
D37*
X871982Y612648D03*
D99*
X889127Y612648D03*
D45*
X905002Y612648D03*
X855980Y612902D03*
D37*
X871982Y612902D03*
D99*
X889127Y612902D03*
D45*
X905002Y612902D03*
X855980Y613156D03*
D37*
X871982Y613156D03*
D99*
X889127Y613156D03*
D45*
X905002Y613156D03*
X855980Y613410D03*
D37*
X871982Y613410D03*
D99*
X889127Y613410D03*
D45*
X905002Y613410D03*
X855980Y613664D03*
D37*
X871982Y613664D03*
D99*
X889127Y613664D03*
D45*
X905002Y613664D03*
X855980Y613918D03*
D37*
X871982Y613918D03*
X889254Y613918D03*
D45*
X905002Y613918D03*
X855980Y614172D03*
D78*
X871855Y614172D03*
D37*
X889254Y614172D03*
D45*
X905002Y614172D03*
X855980Y614426D03*
D100*
X871601Y614426D03*
D101*
X889508Y614426D03*
D45*
X905002Y614426D03*
X855980Y614680D03*
D38*
X871347Y614680D03*
D102*
X889762Y614680D03*
D45*
X905002Y614680D03*
X855980Y614934D03*
D18*
X862838Y614934D03*
D98*
X872490Y614934D03*
D81*
X888619Y614934D03*
D18*
X898144Y614934D03*
D45*
X905002Y614934D03*
X855980Y615188D03*
D18*
X862584Y615188D03*
D81*
X872617Y615188D03*
D97*
X888492Y615188D03*
D18*
X898652Y615188D03*
D45*
X905002Y615188D03*
X855980Y615442D03*
D19*
X861949Y615442D03*
D35*
X872871Y615442D03*
D103*
X888238Y615442D03*
D19*
X899033Y615442D03*
D45*
X905002Y615442D03*
X855980Y615696D03*
D18*
X861568Y615696D03*
D34*
X873125Y615696D03*
D95*
X887984Y615696D03*
D19*
X899541Y615696D03*
D45*
X905002Y615696D03*
X855980Y615950D03*
D19*
X861187Y615950D03*
D95*
X873252Y615950D03*
D96*
X887857Y615950D03*
D18*
X899922Y615950D03*
D45*
X905002Y615950D03*
X855980Y616204D03*
D18*
X860806Y616204D03*
D33*
X873506Y616204D03*
D94*
X887603Y616204D03*
D18*
X900430Y616204D03*
D45*
X905002Y616204D03*
X855980Y616458D03*
D18*
X860298Y616458D03*
D93*
X873760Y616458D03*
X887476Y616458D03*
D18*
X900684Y616458D03*
D45*
X905002Y616458D03*
X855980Y616712D03*
D13*
X859917Y616712D03*
D92*
X874014Y616712D03*
D104*
X887095Y616712D03*
D18*
X901192Y616712D03*
D45*
X905002Y616712D03*
X855980Y616966D03*
D18*
X859536Y616966D03*
D31*
X874268Y616966D03*
X886968Y616966D03*
D13*
X901573Y616966D03*
D45*
X905002Y616966D03*
X855980Y617220D03*
D18*
X859028Y617220D03*
D86*
X874395Y617220D03*
D91*
X886714Y617220D03*
D18*
X901954Y617220D03*
D45*
X905002Y617220D03*
X855980Y617474D03*
D18*
X858520Y617474D03*
D90*
X874649Y617474D03*
D30*
X886460Y617474D03*
D18*
X902716Y617474D03*
D45*
X905002Y617474D03*
D12*
X856107Y617728D03*
D18*
X858266Y617728D03*
D89*
X874903Y617728D03*
X886333Y617728D03*
D18*
X902970Y617728D03*
D45*
X905002Y617728D03*
D15*
X857123Y617982D03*
D88*
X875157Y617982D03*
X886079Y617982D03*
D13*
X903351Y617982D03*
D12*
X904875Y617982D03*
D41*
X856869Y618236D03*
D105*
X875284Y618236D03*
D29*
X885825Y618236D03*
D14*
X904240Y618236D03*
D19*
X856615Y618490D03*
D85*
X875538Y618490D03*
D106*
X885571Y618490D03*
D18*
X904494Y618490D03*
X856488Y618744D03*
D28*
X875792Y618744D03*
X885444Y618744D03*
D13*
X904621Y618744D03*
X856361Y618998D03*
D107*
X875919Y618998D03*
D84*
X885190Y618998D03*
D13*
X904621Y618998D03*
D18*
X856488Y619252D03*
D83*
X876300Y619252D03*
X884936Y619252D03*
D18*
X904494Y619252D03*
D14*
X856742Y619506D03*
D80*
X876427Y619506D03*
X884809Y619506D03*
D18*
X904240Y619506D03*
X857504Y619760D03*
D79*
X876681Y619760D03*
X884555Y619760D03*
D18*
X903732Y619760D03*
X857758Y620014D03*
D26*
X876808Y620014D03*
D77*
X884301Y620014D03*
D18*
X903224Y620014D03*
X858266Y620268D03*
D25*
X877062Y620268D03*
X884174Y620268D03*
D13*
X902843Y620268D03*
D19*
X858901Y620522D03*
D76*
X877189Y620522D03*
D74*
X883920Y620522D03*
D18*
X902462Y620522D03*
X859028Y620776D03*
D24*
X877443Y620776D03*
X883793Y620776D03*
D18*
X901954Y620776D03*
X859536Y621030D03*
D70*
X877697Y621030D03*
X883539Y621030D03*
D18*
X901446Y621030D03*
X860044Y621284D03*
D23*
X877951Y621284D03*
D108*
X883158Y621284D03*
D18*
X901192Y621284D03*
D13*
X860425Y621538D03*
D16*
X878205Y621538D03*
X883031Y621538D03*
D18*
X900684Y621538D03*
D13*
X860933Y621792D03*
D22*
X878332Y621792D03*
D68*
X882777Y621792D03*
D18*
X900176Y621792D03*
X861314Y622046D03*
D66*
X878586Y622046D03*
D15*
X882523Y622046D03*
D13*
X899795Y622046D03*
D18*
X861822Y622300D03*
D21*
X878840Y622300D03*
X882396Y622300D03*
D18*
X899160Y622300D03*
D19*
X862203Y622554D03*
D41*
X878967Y622554D03*
D14*
X882142Y622554D03*
D18*
X898906Y622554D03*
D13*
X862711Y622808D03*
D19*
X879221Y622808D03*
D18*
X881888Y622808D03*
X898398Y622808D03*
X863092Y623062D03*
D13*
X879475Y623062D03*
X881761Y623062D03*
D19*
X898017Y623062D03*
D18*
X863600Y623316D03*
D12*
X879729Y623316D03*
D20*
X881634Y623316D03*
D13*
X897509Y623316D03*
D18*
X864108Y623570D03*
D61*
X879729Y623570D03*
X881253Y623570D03*
D18*
X897128Y623570D03*
D13*
X864489Y623824D03*
D18*
X896620Y623824D03*
X864870Y624078D03*
D45*
X880618Y624078D03*
D18*
X896112Y624078D03*
D19*
X865251Y624332D03*
D12*
X880491Y624332D03*
D18*
X895858Y624332D03*
X865886Y624586D03*
D12*
X880491Y624586D03*
D18*
X895350Y624586D03*
X866140Y624840D03*
D12*
X880491Y624840D03*
D19*
X894969Y624840D03*
D18*
X866648Y625094D03*
D12*
X880491Y625094D03*
D18*
X894334Y625094D03*
X867156Y625348D03*
D12*
X880491Y625348D03*
D18*
X894080Y625348D03*
X867410Y625602D03*
D12*
X880491Y625602D03*
D19*
X893699Y625602D03*
D18*
X867918Y625856D03*
D12*
X880491Y625856D03*
D18*
X893064Y625856D03*
X868426Y626110D03*
D12*
X880491Y626110D03*
D18*
X892810Y626110D03*
X868934Y626364D03*
D12*
X880491Y626364D03*
D18*
X892302Y626364D03*
X869188Y626618D03*
D12*
X880491Y626618D03*
D18*
X891794Y626618D03*
X869696Y626872D03*
D12*
X880491Y626872D03*
D13*
X891413Y626872D03*
D18*
X870204Y627126D03*
D12*
X880491Y627126D03*
D13*
X890905Y627126D03*
D18*
X870458Y627380D03*
D12*
X880491Y627380D03*
D18*
X890524Y627380D03*
D13*
X871093Y627634D03*
D12*
X880491Y627634D03*
D18*
X890016Y627634D03*
X871474Y627888D03*
D12*
X880491Y627888D03*
D13*
X889635Y627888D03*
D18*
X871982Y628142D03*
D12*
X880491Y628142D03*
D13*
X889127Y628142D03*
X872363Y628396D03*
D12*
X880491Y628396D03*
D18*
X888746Y628396D03*
X872744Y628650D03*
D12*
X880491Y628650D03*
D18*
X888238Y628650D03*
X873252Y628904D03*
D12*
X880491Y628904D03*
D18*
X887730Y628904D03*
D19*
X873633Y629158D03*
D12*
X880491Y629158D03*
D18*
X887476Y629158D03*
X874268Y629412D03*
D12*
X880491Y629412D03*
D18*
X886968Y629412D03*
X874522Y629666D03*
D12*
X880491Y629666D03*
D18*
X886460Y629666D03*
D13*
X874903Y629920D03*
D12*
X880491Y629920D03*
D18*
X886206Y629920D03*
D13*
X875411Y630174D03*
D12*
X880491Y630174D03*
D18*
X885698Y630174D03*
X875792Y630428D03*
D12*
X880491Y630428D03*
D18*
X885190Y630428D03*
D13*
X876427Y630682D03*
D12*
X880491Y630682D03*
D13*
X884809Y630682D03*
D18*
X876808Y630936D03*
D12*
X880491Y630936D03*
D13*
X884301Y630936D03*
X877189Y631190D03*
D12*
X880491Y631190D03*
D18*
X883920Y631190D03*
D13*
X877697Y631444D03*
D12*
X880491Y631444D03*
D18*
X883412Y631444D03*
X878078Y631698D03*
D12*
X880491Y631698D03*
D18*
X882904Y631698D03*
D13*
X878459Y631952D03*
D12*
X880491Y631952D03*
D18*
X882650Y631952D03*
D17*
X880618Y632206D03*
D16*
X880491Y632460D03*
D15*
X880491Y632714D03*
D14*
X880618Y632968D03*
D18*
X880618Y633222D03*
D13*
X880491Y633476D03*
D109*
X445600Y486000D03*
X449600Y486000D03*
X453600Y486000D03*
X457600Y486000D03*
X461600Y486000D03*
X465600Y486000D03*
X469600Y486000D03*
X473600Y486000D03*
X477600Y486000D03*
X481600Y486000D03*
X485600Y486000D03*
X489600Y486000D03*
X493600Y486000D03*
X497600Y486000D03*
X501600Y486000D03*
X505600Y486000D03*
X509600Y486000D03*
X513600Y486000D03*
X517600Y486000D03*
X521600Y486000D03*
X525600Y486000D03*
X529600Y486000D03*
X533600Y486000D03*
X537600Y486000D03*
X541600Y486000D03*
X545600Y486000D03*
X549600Y486000D03*
X553600Y486000D03*
X557600Y486000D03*
X561600Y486000D03*
X565600Y486000D03*
X569600Y486000D03*
X573600Y486000D03*
X577600Y486000D03*
X581600Y486000D03*
X445600Y455200D03*
X449600Y455200D03*
X453600Y455200D03*
X457600Y455200D03*
X461600Y455200D03*
X465600Y455200D03*
X469600Y455200D03*
X473600Y455200D03*
X477600Y455200D03*
X481600Y455200D03*
X485600Y455200D03*
X489600Y455200D03*
X493600Y455200D03*
X497600Y455200D03*
X501600Y455200D03*
X505600Y455200D03*
X509600Y455200D03*
X513600Y455200D03*
X517600Y455200D03*
X521600Y455200D03*
X525600Y455200D03*
X529600Y455200D03*
X533600Y455200D03*
X537600Y455200D03*
X541600Y455200D03*
X545600Y455200D03*
X549600Y455200D03*
X553600Y455200D03*
X557600Y455200D03*
X561600Y455200D03*
X565600Y455200D03*
X569600Y455200D03*
X573600Y455200D03*
X577600Y455200D03*
X581600Y455200D03*
X445650Y359050D03*
X449650Y359050D03*
X453650Y359050D03*
X457650Y359050D03*
X461650Y359050D03*
X465650Y359050D03*
X469650Y359050D03*
X473650Y359050D03*
X477650Y359050D03*
X481650Y359050D03*
X485650Y359050D03*
X489650Y359050D03*
X493650Y359050D03*
X497650Y359050D03*
X501650Y359050D03*
X505650Y359050D03*
X509650Y359050D03*
X513650Y359050D03*
X517650Y359050D03*
X521650Y359050D03*
X525650Y359050D03*
X529650Y359050D03*
X533650Y359050D03*
X537650Y359050D03*
X541650Y359050D03*
X545650Y359050D03*
X549650Y359050D03*
X553650Y359050D03*
X557650Y359050D03*
X561650Y359050D03*
X565650Y359050D03*
X569650Y359050D03*
X573650Y359050D03*
X577650Y359050D03*
X581650Y359050D03*
X445650Y328250D03*
X449650Y328250D03*
X453650Y328250D03*
X457650Y328250D03*
X461650Y328250D03*
X465650Y328250D03*
X469650Y328250D03*
X473650Y328250D03*
X477650Y328250D03*
X481650Y328250D03*
X485650Y328250D03*
X489650Y328250D03*
X493650Y328250D03*
X497650Y328250D03*
X501650Y328250D03*
X505650Y328250D03*
X509650Y328250D03*
X513650Y328250D03*
X517650Y328250D03*
X521650Y328250D03*
X525650Y328250D03*
X529650Y328250D03*
X533650Y328250D03*
X537650Y328250D03*
X541650Y328250D03*
X545650Y328250D03*
X549650Y328250D03*
X553650Y328250D03*
X557650Y328250D03*
X561650Y328250D03*
X565650Y328250D03*
X569650Y328250D03*
X573650Y328250D03*
X577650Y328250D03*
X581650Y328250D03*
D110*
X249200Y664300D02*
X249200Y684300D01*
X188200Y684300D02*
X188200Y664300D01*
X208200Y626300D02*
X228200Y626300D01*
D111*
X309700Y692100D03*
X309700Y628300D03*
D112*
X388100Y608500D03*
X435100Y608500D03*
X482100Y608500D03*
D113*
X369050Y703800D03*
X501150Y703800D03*
D114*
X559000Y692700D03*
X559000Y629300D03*
D115*
X610000Y653500D03*
X610000Y670500D03*
X644000Y653500D03*
X644000Y670500D03*
X679000Y660500D03*
X679000Y643500D03*
D116*
X682945Y691825D02*
X675055Y691825D01*
X675055Y699715D01*
X682945Y699715D01*
X682945Y691825D01*
X682945Y695205D02*
X675055Y695205D01*
X675055Y698585D02*
X682945Y698585D01*
X682945Y674285D02*
X675055Y674285D01*
X675055Y682175D01*
X682945Y682175D01*
X682945Y674285D01*
X682945Y677665D02*
X675055Y677665D01*
X675055Y681045D02*
X682945Y681045D01*
D117*
X150600Y377100D03*
X133600Y377100D03*
X150600Y398600D03*
X133600Y398600D03*
X151600Y424100D03*
X134600Y424100D03*
D118*
X729000Y685530D03*
X729000Y676000D03*
X729000Y666470D03*
X755000Y666470D03*
X755000Y685530D03*
D115*
X701000Y643500D03*
X701000Y660500D03*
X782000Y665500D03*
X782000Y648500D03*
X810000Y665500D03*
X810000Y648500D03*
D119*
X842000Y686000D03*
X842000Y656000D03*
D117*
X738500Y643000D03*
X721500Y643000D03*
D115*
X759000Y642500D03*
X759000Y625500D03*
D120*
X214200Y332000D03*
X214200Y351000D03*
X193200Y341500D03*
D117*
X155300Y332000D03*
X172300Y332000D03*
X231300Y332500D03*
X248300Y332500D03*
D116*
X168525Y347055D02*
X168525Y354945D01*
X176415Y354945D01*
X176415Y347055D01*
X168525Y347055D01*
X168525Y350435D02*
X176415Y350435D01*
X176415Y353815D02*
X168525Y353815D01*
X150985Y354945D02*
X150985Y347055D01*
X150985Y354945D02*
X158875Y354945D01*
X158875Y347055D01*
X150985Y347055D01*
X150985Y350435D02*
X158875Y350435D01*
X158875Y353815D02*
X150985Y353815D01*
D117*
X244700Y473800D03*
X227700Y473800D03*
X244700Y559300D03*
X227700Y559300D03*
X227300Y495200D03*
X244300Y495200D03*
X227300Y580700D03*
X244300Y580700D03*
X243700Y515800D03*
X226700Y515800D03*
X243700Y602300D03*
X226700Y602300D03*
D121*
X958500Y275000D03*
X958500Y339000D03*
D122*
X956250Y307000D03*
X956250Y313500D03*
X956250Y300500D03*
X956250Y294000D03*
X956250Y320000D03*
D123*
X983000Y295000D03*
X983000Y319000D03*
D124*
X923250Y536000D03*
X923250Y532000D03*
X923250Y528000D03*
X923250Y524000D03*
X923250Y520000D03*
X923250Y516000D03*
X923250Y512000D03*
X923250Y508000D03*
X923250Y504000D03*
X923250Y500000D03*
X923250Y496000D03*
X923250Y492000D03*
X923250Y488000D03*
X923250Y484000D03*
X923250Y480000D03*
X923250Y476000D03*
X923250Y472000D03*
X923250Y468000D03*
X923250Y464000D03*
D125*
X927500Y559500D03*
X927500Y440500D03*
D126*
X967000Y445750D03*
X967000Y554250D03*
D127*
X854000Y272000D03*
X854000Y281500D03*
X854000Y291000D03*
X829000Y291000D03*
X829000Y272000D03*
D128*
X884500Y275900D03*
X927500Y275900D03*
D117*
X875500Y433000D03*
X892500Y433000D03*
D129*
X137700Y297700D03*
X137700Y272300D03*
X137700Y246900D03*
X137700Y221500D03*
X137700Y196100D03*
X137700Y170700D03*
D117*
X845500Y310000D03*
X828500Y310000D03*
D115*
X937500Y323600D03*
X937500Y340600D03*
D117*
X883500Y245000D03*
X866500Y245000D03*
X829500Y245000D03*
X846500Y245000D03*
X849500Y433000D03*
X832500Y433000D03*
D130*
X795820Y533450D03*
X795820Y526950D03*
X795820Y520450D03*
X795820Y513950D03*
X795820Y507450D03*
X795820Y500950D03*
X795820Y494450D03*
X795820Y487950D03*
X795820Y481450D03*
X795820Y474950D03*
X795820Y468450D03*
X795820Y461950D03*
X854580Y461950D03*
X854580Y468450D03*
X854580Y474950D03*
X854580Y481450D03*
X854580Y487950D03*
X854580Y494450D03*
X854580Y500950D03*
X854580Y507450D03*
X854580Y513950D03*
X854580Y520450D03*
X854580Y526950D03*
X854580Y533450D03*
D117*
X794500Y433000D03*
X811500Y433000D03*
X847400Y555800D03*
X830400Y555800D03*
D131*
X276500Y169800D03*
X301900Y169800D03*
X327300Y169800D03*
X352700Y169800D03*
X378100Y169800D03*
X403500Y169800D03*
X276500Y195200D03*
X301900Y195200D03*
X327300Y195200D03*
X352700Y195200D03*
X378100Y195200D03*
X403500Y195200D03*
X428900Y169800D03*
X428900Y195200D03*
X454300Y169800D03*
X479700Y169800D03*
X505100Y169800D03*
X530500Y169800D03*
X555900Y169800D03*
X581300Y169800D03*
X454300Y195200D03*
X479700Y195200D03*
X505100Y195200D03*
X530500Y195200D03*
X555900Y195200D03*
X581300Y195200D03*
X606700Y169800D03*
X606700Y195200D03*
X632100Y169800D03*
X657500Y169800D03*
X682900Y169800D03*
X708300Y169800D03*
X733700Y169800D03*
X759100Y169800D03*
X632100Y195200D03*
X657500Y195200D03*
X682900Y195200D03*
X708300Y195200D03*
X733700Y195200D03*
X759100Y195200D03*
D132*
X251750Y385950D03*
X251750Y398650D03*
X251750Y411350D03*
X251750Y424050D03*
X172250Y424050D03*
X172250Y411350D03*
X172250Y398650D03*
X172250Y385950D03*
D133*
X126250Y470500D03*
X205750Y470500D03*
X126250Y515500D03*
X205750Y515500D03*
X126250Y559500D03*
X205750Y559500D03*
X126250Y604500D03*
X205750Y604500D03*
D134*
X923980Y177000D03*
X990020Y177000D03*
D135*
X847000Y163250D03*
X847000Y192750D03*
D136*
X863000Y178000D03*
M02*
