G04 EAGLE Gerber X2 export*
%TF.Part,Single*%
%TF.FileFunction,Other,Top Paste*%
%TF.FilePolarity,Positive*%
%TF.GenerationSoftware,Autodesk,EAGLE,9.0.0*%
%TF.CreationDate,2018-09-12T04:39:06Z*%
G75*
%MOMM*%
%FSLAX34Y34*%
%LPD*%
%AMOC8*
5,1,8,0,0,1.08239X$1,22.5*%
G01*
%ADD10C,0.000000*%
%ADD11C,0.650000*%


D10*
X0Y0D02*
X490000Y0D01*
X490000Y360000D01*
X0Y360000D01*
X0Y0D01*
D11*
X13400Y349500D03*
X24700Y349500D03*
X36000Y349500D03*
X58600Y349500D03*
X69900Y349500D03*
X81200Y349500D03*
X92500Y349500D03*
X103800Y349500D03*
X115100Y349500D03*
X126400Y349500D03*
X137700Y349500D03*
X149000Y349500D03*
X160300Y349500D03*
X171600Y349500D03*
X182900Y349500D03*
X194200Y349500D03*
X205500Y349500D03*
X216800Y349500D03*
X228100Y349500D03*
X239400Y349500D03*
X250700Y349500D03*
X262000Y349500D03*
X273300Y349500D03*
X284600Y349500D03*
X295900Y349500D03*
X307200Y349500D03*
X318500Y349500D03*
X329800Y349500D03*
X341100Y349500D03*
X352400Y349500D03*
X363700Y349500D03*
X375000Y349500D03*
X386300Y349500D03*
X397600Y349500D03*
X408900Y349500D03*
X420200Y349500D03*
X431500Y349500D03*
X442800Y349500D03*
X454100Y349500D03*
X465400Y349500D03*
X476700Y349500D03*
X13400Y338200D03*
X24700Y338200D03*
X36000Y338200D03*
X47300Y338200D03*
X58600Y338200D03*
X69900Y338200D03*
X81200Y338200D03*
X92500Y338200D03*
X103800Y338200D03*
X115100Y338200D03*
X126400Y338200D03*
X137700Y338200D03*
X149000Y338200D03*
X160300Y338200D03*
X171600Y338200D03*
X182900Y338200D03*
X194200Y338200D03*
X205500Y338200D03*
X216800Y338200D03*
X228100Y338200D03*
X239400Y338200D03*
X250700Y338200D03*
X262000Y338200D03*
X273300Y338200D03*
X284600Y338200D03*
X295900Y338200D03*
X307200Y338200D03*
X318500Y338200D03*
X329800Y338200D03*
X341100Y338200D03*
X352400Y338200D03*
X363700Y338200D03*
X375000Y338200D03*
X386300Y338200D03*
X397600Y338200D03*
X408900Y338200D03*
X420200Y338200D03*
X431500Y338200D03*
X442800Y338200D03*
X454100Y338200D03*
X465400Y338200D03*
X476700Y338200D03*
X13400Y10500D03*
X24700Y10500D03*
X36000Y10500D03*
X47300Y10500D03*
X58600Y10500D03*
X69900Y10500D03*
X81200Y10500D03*
X92500Y10500D03*
X103800Y10500D03*
X115100Y10500D03*
X126400Y10500D03*
X137700Y10500D03*
X149000Y10500D03*
X160300Y10500D03*
X171600Y10500D03*
X182900Y10500D03*
X194200Y10500D03*
X205500Y10500D03*
X216800Y10500D03*
X228100Y10500D03*
X239400Y10500D03*
X250700Y10500D03*
X262000Y10500D03*
X273300Y10500D03*
X284600Y10500D03*
X295900Y10500D03*
X307200Y10500D03*
X318500Y10500D03*
X329800Y10500D03*
X341100Y10500D03*
X352400Y10500D03*
X363700Y10500D03*
X375000Y10500D03*
X386300Y10500D03*
X397600Y10500D03*
X408900Y10500D03*
X420200Y10500D03*
X431500Y10500D03*
X442800Y10500D03*
X454100Y10500D03*
X465400Y10500D03*
X476700Y10500D03*
X13400Y21800D03*
X24700Y21800D03*
X36000Y21800D03*
X47300Y21800D03*
X58600Y21800D03*
X69900Y21800D03*
X81200Y21800D03*
X92500Y21800D03*
X103800Y21800D03*
X115100Y21800D03*
X126400Y21800D03*
X137700Y21800D03*
X149000Y21800D03*
X160300Y21800D03*
X171600Y21800D03*
X182900Y21800D03*
X194200Y21800D03*
X205500Y21800D03*
X216800Y21800D03*
X228100Y21800D03*
X239400Y21800D03*
X250700Y21800D03*
X262000Y21800D03*
X273300Y21800D03*
X284600Y21800D03*
X295900Y21800D03*
X307200Y21800D03*
X318500Y21800D03*
X329800Y21800D03*
X341100Y21800D03*
X352400Y21800D03*
X363700Y21800D03*
X375000Y21800D03*
X386300Y21800D03*
X397600Y21800D03*
X408900Y21800D03*
X420200Y21800D03*
X431500Y21800D03*
X442800Y21800D03*
X454100Y21800D03*
X465400Y21800D03*
X476700Y21800D03*
X13400Y326900D03*
X13400Y315600D03*
X13400Y304300D03*
X13400Y293000D03*
X13400Y281700D03*
X13400Y270400D03*
X13400Y259100D03*
X13400Y247800D03*
X13400Y236500D03*
X13400Y225200D03*
X13400Y213900D03*
X13400Y202600D03*
X13400Y191300D03*
X13400Y180000D03*
X13400Y168700D03*
X13400Y157400D03*
X13400Y146100D03*
X13400Y134800D03*
X13400Y123500D03*
X13400Y112200D03*
X13400Y100900D03*
X13400Y89600D03*
X13400Y78300D03*
X13400Y67000D03*
X13400Y55700D03*
X13400Y44400D03*
X13400Y33100D03*
X24700Y304300D03*
X24700Y293000D03*
X24700Y259100D03*
X24700Y247800D03*
X24700Y236500D03*
X24700Y225200D03*
X24700Y213900D03*
X24700Y191300D03*
X24700Y180000D03*
X24700Y146100D03*
X24700Y134800D03*
X24700Y123500D03*
X24700Y112200D03*
X24700Y100900D03*
X24700Y89600D03*
X24700Y78300D03*
X24700Y67000D03*
X24700Y55700D03*
X24700Y44400D03*
X24700Y33100D03*
X442800Y326900D03*
X454100Y326900D03*
X465400Y326900D03*
X476700Y326900D03*
X465400Y315600D03*
X465400Y304300D03*
X465400Y293000D03*
X465400Y281700D03*
X465400Y270400D03*
X465400Y259100D03*
X465400Y247800D03*
X465400Y236500D03*
X465400Y225200D03*
X465400Y213900D03*
X465400Y202600D03*
X465400Y191300D03*
X465400Y180000D03*
X465400Y168700D03*
X465400Y157400D03*
X465400Y146100D03*
X465400Y134800D03*
X465400Y123500D03*
X465400Y112200D03*
X465400Y100900D03*
X465400Y89600D03*
X465400Y78300D03*
X465400Y67000D03*
X465400Y55700D03*
X465400Y44400D03*
X465400Y33100D03*
X476700Y33100D03*
X476700Y44400D03*
X476700Y55700D03*
X476700Y67000D03*
X476700Y78300D03*
X476700Y89600D03*
X476700Y100900D03*
X476700Y112200D03*
X476700Y123500D03*
X476700Y134800D03*
X476700Y146100D03*
X476700Y157400D03*
X476700Y168700D03*
X476700Y180000D03*
X476700Y191300D03*
X476700Y202600D03*
X476700Y213900D03*
X476700Y225200D03*
X476700Y236500D03*
X476700Y247800D03*
X476700Y259100D03*
X476700Y270400D03*
X476700Y281700D03*
X476700Y304300D03*
X476700Y293000D03*
X476700Y315600D03*
X442800Y33100D03*
X454100Y33100D03*
X122200Y257500D03*
X133500Y257500D03*
X144800Y257500D03*
X356500Y257500D03*
X367800Y257500D03*
X379100Y257500D03*
X122200Y246200D03*
X379100Y246200D03*
X122200Y234900D03*
X379100Y234900D03*
X122200Y125100D03*
X379100Y125100D03*
X122200Y113800D03*
X379100Y113800D03*
X122200Y102500D03*
X133500Y102500D03*
X144800Y102500D03*
X356500Y102500D03*
X367800Y102500D03*
X379100Y102500D03*
M02*
