G04 EAGLE Gerber X2 export*
%TF.Part,Single*%
%TF.FileFunction,Other,Bottom Layer Cooper*%
%TF.FilePolarity,Positive*%
%TF.GenerationSoftware,Autodesk,EAGLE,9.0.0*%
%TF.CreationDate,2018-09-12T04:39:06Z*%
G75*
%MOMM*%
%FSLAX34Y34*%
%LPD*%
%AMOC8*
5,1,8,0,0,1.08239X$1,22.5*%
G01*
%ADD10C,0.000000*%
%ADD11R,0.230000X0.660000*%
%ADD12R,0.350000X0.660000*%
%ADD13C,0.600000*%
%ADD14C,0.127000*%
%ADD15C,0.203200*%
%ADD16C,0.254000*%
%ADD17C,0.554000*%
%ADD18C,0.604000*%

G36*
X485620Y3822D02*
X485620Y3822D01*
X485686Y3824D01*
X485729Y3842D01*
X485776Y3850D01*
X485833Y3884D01*
X485893Y3909D01*
X485928Y3940D01*
X485969Y3965D01*
X486011Y4016D01*
X486059Y4060D01*
X486081Y4102D01*
X486110Y4139D01*
X486131Y4201D01*
X486162Y4260D01*
X486170Y4314D01*
X486182Y4351D01*
X486181Y4391D01*
X486189Y4445D01*
X486189Y355555D01*
X486178Y355620D01*
X486176Y355686D01*
X486158Y355729D01*
X486150Y355776D01*
X486116Y355833D01*
X486091Y355893D01*
X486060Y355928D01*
X486035Y355969D01*
X485984Y356011D01*
X485940Y356059D01*
X485898Y356081D01*
X485861Y356110D01*
X485799Y356131D01*
X485740Y356162D01*
X485686Y356170D01*
X485649Y356182D01*
X485609Y356181D01*
X485555Y356189D01*
X4445Y356189D01*
X4380Y356178D01*
X4314Y356176D01*
X4271Y356158D01*
X4224Y356150D01*
X4167Y356116D01*
X4107Y356091D01*
X4072Y356060D01*
X4031Y356035D01*
X3989Y355984D01*
X3941Y355940D01*
X3919Y355898D01*
X3890Y355861D01*
X3869Y355799D01*
X3838Y355740D01*
X3830Y355686D01*
X3818Y355649D01*
X3819Y355609D01*
X3811Y355555D01*
X3811Y4445D01*
X3822Y4380D01*
X3824Y4314D01*
X3842Y4271D01*
X3850Y4224D01*
X3884Y4167D01*
X3909Y4107D01*
X3940Y4072D01*
X3965Y4031D01*
X4016Y3989D01*
X4060Y3941D01*
X4102Y3919D01*
X4139Y3890D01*
X4201Y3869D01*
X4260Y3838D01*
X4314Y3830D01*
X4351Y3818D01*
X4391Y3819D01*
X4445Y3811D01*
X485555Y3811D01*
X485620Y3822D01*
G37*
%LPC*%
G36*
X16206Y8599D02*
X16206Y8599D01*
X14184Y9437D01*
X12637Y10984D01*
X11799Y13006D01*
X11799Y15194D01*
X12637Y17216D01*
X14184Y18763D01*
X16206Y19601D01*
X18103Y19601D01*
X18145Y19608D01*
X18188Y19606D01*
X18255Y19628D01*
X18324Y19640D01*
X18361Y19662D01*
X18401Y19675D01*
X18474Y19729D01*
X18517Y19755D01*
X18531Y19771D01*
X18552Y19787D01*
X26845Y28079D01*
X26882Y28133D01*
X26927Y28181D01*
X26946Y28225D01*
X26973Y28263D01*
X26989Y28327D01*
X27015Y28388D01*
X27017Y28435D01*
X27029Y28481D01*
X27022Y28546D01*
X27025Y28612D01*
X27010Y28657D01*
X27005Y28704D01*
X26976Y28763D01*
X26956Y28826D01*
X26923Y28870D01*
X26906Y28905D01*
X26877Y28932D01*
X26845Y28976D01*
X25237Y30584D01*
X24399Y32606D01*
X24399Y34794D01*
X25237Y36816D01*
X26784Y38363D01*
X27489Y38655D01*
X27564Y38704D01*
X27643Y38746D01*
X27658Y38764D01*
X27678Y38777D01*
X27732Y38848D01*
X27790Y38915D01*
X27799Y38937D01*
X27813Y38956D01*
X27839Y39041D01*
X27870Y39125D01*
X27870Y39148D01*
X27877Y39171D01*
X27871Y39260D01*
X27872Y39349D01*
X27864Y39371D01*
X27862Y39395D01*
X27826Y39476D01*
X27795Y39560D01*
X27780Y39578D01*
X27770Y39600D01*
X27708Y39663D01*
X27650Y39731D01*
X27627Y39744D01*
X27613Y39759D01*
X27567Y39781D01*
X27489Y39827D01*
X26984Y40037D01*
X25437Y41584D01*
X24599Y43606D01*
X24599Y45794D01*
X25437Y47816D01*
X26984Y49363D01*
X27298Y49493D01*
X27373Y49541D01*
X27451Y49584D01*
X27467Y49602D01*
X27487Y49614D01*
X27540Y49686D01*
X27599Y49753D01*
X27607Y49775D01*
X27622Y49794D01*
X27647Y49879D01*
X27679Y49962D01*
X27679Y49986D01*
X27686Y50009D01*
X27680Y50098D01*
X27680Y50187D01*
X27672Y50209D01*
X27671Y50233D01*
X27634Y50314D01*
X27604Y50398D01*
X27588Y50416D01*
X27579Y50437D01*
X27516Y50501D01*
X27459Y50569D01*
X27436Y50582D01*
X27421Y50597D01*
X27376Y50619D01*
X27298Y50665D01*
X26884Y50837D01*
X25337Y52384D01*
X24499Y54406D01*
X24499Y56594D01*
X25337Y58616D01*
X26884Y60163D01*
X28093Y60664D01*
X28168Y60712D01*
X28246Y60755D01*
X28262Y60772D01*
X28282Y60785D01*
X28335Y60856D01*
X28394Y60923D01*
X28402Y60946D01*
X28417Y60965D01*
X28442Y61050D01*
X28474Y61133D01*
X28474Y61157D01*
X28481Y61180D01*
X28475Y61269D01*
X28475Y61357D01*
X28467Y61380D01*
X28466Y61403D01*
X28429Y61485D01*
X28399Y61568D01*
X28383Y61587D01*
X28374Y61608D01*
X28311Y61672D01*
X28254Y61739D01*
X28231Y61753D01*
X28216Y61768D01*
X28171Y61789D01*
X28093Y61836D01*
X26884Y62337D01*
X25337Y63884D01*
X24499Y65906D01*
X24499Y68094D01*
X25337Y70116D01*
X26884Y71663D01*
X28072Y72155D01*
X28147Y72204D01*
X28225Y72246D01*
X28241Y72264D01*
X28261Y72277D01*
X28315Y72348D01*
X28373Y72415D01*
X28382Y72437D01*
X28396Y72456D01*
X28421Y72541D01*
X28453Y72625D01*
X28453Y72648D01*
X28460Y72671D01*
X28454Y72760D01*
X28455Y72849D01*
X28447Y72871D01*
X28445Y72895D01*
X28408Y72976D01*
X28378Y73060D01*
X28363Y73078D01*
X28353Y73100D01*
X28291Y73163D01*
X28233Y73231D01*
X28210Y73245D01*
X28196Y73259D01*
X28150Y73281D01*
X28072Y73327D01*
X27084Y73737D01*
X25537Y75284D01*
X24699Y77306D01*
X24699Y79494D01*
X25537Y81516D01*
X27084Y83063D01*
X29106Y83901D01*
X31294Y83901D01*
X33316Y83063D01*
X34671Y81708D01*
X34706Y81684D01*
X34734Y81653D01*
X34797Y81620D01*
X34856Y81580D01*
X34896Y81569D01*
X34933Y81550D01*
X35024Y81536D01*
X35073Y81524D01*
X35093Y81526D01*
X35118Y81522D01*
X64241Y81440D01*
X64284Y81448D01*
X64327Y81446D01*
X64393Y81467D01*
X64462Y81479D01*
X64499Y81501D01*
X64541Y81514D01*
X64612Y81567D01*
X64655Y81593D01*
X64669Y81610D01*
X64691Y81626D01*
X70675Y87609D01*
X70712Y87663D01*
X70758Y87711D01*
X70776Y87755D01*
X70803Y87794D01*
X70819Y87857D01*
X70845Y87918D01*
X70847Y87965D01*
X70859Y88011D01*
X70852Y88076D01*
X70855Y88142D01*
X70840Y88187D01*
X70836Y88234D01*
X70806Y88293D01*
X70786Y88356D01*
X70754Y88400D01*
X70736Y88435D01*
X70707Y88462D01*
X70675Y88506D01*
X70574Y88607D01*
X38987Y120195D01*
X38955Y120217D01*
X38928Y120246D01*
X38863Y120281D01*
X38802Y120323D01*
X38765Y120332D01*
X38730Y120351D01*
X38634Y120366D01*
X38585Y120379D01*
X38567Y120377D01*
X38545Y120380D01*
X35263Y120414D01*
X35217Y120406D01*
X35172Y120408D01*
X35108Y120388D01*
X35041Y120377D01*
X35002Y120354D01*
X34958Y120340D01*
X34890Y120290D01*
X34847Y120265D01*
X34832Y120246D01*
X34808Y120228D01*
X33516Y118937D01*
X31494Y118099D01*
X29306Y118099D01*
X27284Y118937D01*
X25737Y120484D01*
X24899Y122506D01*
X24899Y124694D01*
X25737Y126716D01*
X27284Y128263D01*
X28010Y128564D01*
X28085Y128612D01*
X28163Y128654D01*
X28179Y128672D01*
X28199Y128685D01*
X28252Y128756D01*
X28311Y128823D01*
X28320Y128846D01*
X28334Y128864D01*
X28359Y128950D01*
X28391Y129033D01*
X28391Y129057D01*
X28398Y129080D01*
X28392Y129168D01*
X28393Y129257D01*
X28384Y129280D01*
X28383Y129303D01*
X28346Y129384D01*
X28316Y129468D01*
X28301Y129487D01*
X28291Y129508D01*
X28229Y129571D01*
X28171Y129639D01*
X28148Y129653D01*
X28133Y129668D01*
X28088Y129689D01*
X28010Y129736D01*
X27284Y130037D01*
X25737Y131584D01*
X24899Y133606D01*
X24899Y135794D01*
X25737Y137816D01*
X27284Y139363D01*
X28322Y139793D01*
X28397Y139841D01*
X28476Y139884D01*
X28491Y139902D01*
X28511Y139914D01*
X28565Y139986D01*
X28623Y140053D01*
X28632Y140075D01*
X28646Y140094D01*
X28671Y140179D01*
X28703Y140262D01*
X28703Y140286D01*
X28710Y140309D01*
X28704Y140398D01*
X28705Y140487D01*
X28697Y140509D01*
X28695Y140533D01*
X28659Y140614D01*
X28628Y140698D01*
X28613Y140716D01*
X28603Y140737D01*
X28541Y140801D01*
X28483Y140869D01*
X28460Y140882D01*
X28446Y140897D01*
X28400Y140919D01*
X28322Y140965D01*
X27184Y141437D01*
X25637Y142984D01*
X24799Y145006D01*
X24799Y147194D01*
X24838Y147287D01*
X24854Y147363D01*
X24879Y147436D01*
X24878Y147472D01*
X24886Y147506D01*
X24875Y147583D01*
X24873Y147661D01*
X24859Y147693D01*
X24854Y147729D01*
X24817Y147797D01*
X24788Y147868D01*
X24764Y147895D01*
X24747Y147926D01*
X24689Y147977D01*
X24637Y148034D01*
X24605Y148050D01*
X24579Y148074D01*
X24506Y148101D01*
X24437Y148137D01*
X24397Y148143D01*
X24369Y148153D01*
X24322Y148154D01*
X24252Y148164D01*
X22976Y148164D01*
X22923Y148155D01*
X22868Y148155D01*
X22813Y148135D01*
X22755Y148125D01*
X22708Y148097D01*
X22658Y148079D01*
X22613Y148040D01*
X22562Y148010D01*
X22528Y147968D01*
X22486Y147933D01*
X22450Y147872D01*
X22421Y147836D01*
X22411Y147807D01*
X22390Y147773D01*
X22063Y146984D01*
X20516Y145437D01*
X18494Y144599D01*
X16306Y144599D01*
X14284Y145437D01*
X12737Y146984D01*
X11899Y149006D01*
X11899Y151194D01*
X12737Y153216D01*
X14284Y154763D01*
X16306Y155601D01*
X18494Y155601D01*
X20516Y154763D01*
X20658Y154622D01*
X20692Y154597D01*
X20721Y154566D01*
X20784Y154534D01*
X20842Y154493D01*
X20883Y154483D01*
X20921Y154463D01*
X21010Y154450D01*
X21059Y154437D01*
X21080Y154440D01*
X21106Y154436D01*
X29876Y154436D01*
X29952Y154449D01*
X30030Y154455D01*
X30062Y154469D01*
X30097Y154475D01*
X30164Y154515D01*
X30234Y154547D01*
X30260Y154571D01*
X30290Y154590D01*
X30339Y154650D01*
X30394Y154704D01*
X30409Y154736D01*
X30432Y154764D01*
X30456Y154837D01*
X30489Y154907D01*
X30492Y154943D01*
X30503Y154976D01*
X30501Y155054D01*
X30507Y155131D01*
X30498Y155170D01*
X30497Y155201D01*
X30479Y155244D01*
X30462Y155313D01*
X30299Y155706D01*
X30299Y157894D01*
X31137Y159916D01*
X32684Y161463D01*
X34706Y162301D01*
X35865Y162301D01*
X35930Y162312D01*
X35996Y162314D01*
X36039Y162332D01*
X36086Y162340D01*
X36143Y162374D01*
X36203Y162399D01*
X36238Y162430D01*
X36279Y162455D01*
X36321Y162506D01*
X36369Y162550D01*
X36391Y162592D01*
X36420Y162629D01*
X36441Y162691D01*
X36472Y162750D01*
X36480Y162804D01*
X36492Y162841D01*
X36491Y162881D01*
X36499Y162935D01*
X36499Y164394D01*
X37337Y166416D01*
X38884Y167963D01*
X40906Y168801D01*
X43094Y168801D01*
X45116Y167963D01*
X46458Y166622D01*
X46493Y166597D01*
X46521Y166566D01*
X46584Y166534D01*
X46642Y166493D01*
X46683Y166483D01*
X46721Y166463D01*
X46810Y166450D01*
X46859Y166437D01*
X46880Y166440D01*
X46906Y166436D01*
X95017Y166436D01*
X95070Y166445D01*
X95124Y166445D01*
X95180Y166465D01*
X95238Y166475D01*
X95284Y166503D01*
X95335Y166521D01*
X95380Y166560D01*
X95431Y166590D01*
X95465Y166632D01*
X95506Y166667D01*
X95543Y166728D01*
X95572Y166764D01*
X95582Y166793D01*
X95603Y166827D01*
X96137Y168116D01*
X97684Y169663D01*
X99706Y170501D01*
X101894Y170501D01*
X103916Y169663D01*
X104701Y168878D01*
X104731Y168857D01*
X104741Y168846D01*
X104759Y168837D01*
X104803Y168795D01*
X104847Y168777D01*
X104886Y168750D01*
X104949Y168733D01*
X105010Y168708D01*
X105057Y168705D01*
X105103Y168694D01*
X105168Y168700D01*
X105234Y168698D01*
X105279Y168712D01*
X105326Y168717D01*
X105385Y168746D01*
X105448Y168766D01*
X105492Y168799D01*
X105527Y168816D01*
X105554Y168845D01*
X105586Y168868D01*
X105588Y168870D01*
X105598Y168878D01*
X106484Y169763D01*
X108506Y170601D01*
X110694Y170601D01*
X112716Y169763D01*
X113301Y169178D01*
X113356Y169140D01*
X113403Y169095D01*
X113447Y169077D01*
X113486Y169050D01*
X113549Y169033D01*
X113610Y169008D01*
X113657Y169005D01*
X113703Y168994D01*
X113768Y169000D01*
X113834Y168998D01*
X113879Y169012D01*
X113926Y169017D01*
X113985Y169046D01*
X114048Y169066D01*
X114092Y169099D01*
X114127Y169116D01*
X114154Y169145D01*
X114198Y169178D01*
X114784Y169763D01*
X116806Y170601D01*
X118994Y170601D01*
X121016Y169763D01*
X121802Y168978D01*
X121856Y168940D01*
X121903Y168895D01*
X121947Y168877D01*
X121986Y168850D01*
X122049Y168833D01*
X122110Y168808D01*
X122157Y168805D01*
X122203Y168794D01*
X122268Y168800D01*
X122334Y168798D01*
X122379Y168812D01*
X122426Y168817D01*
X122485Y168846D01*
X122548Y168866D01*
X122592Y168899D01*
X122627Y168916D01*
X122654Y168945D01*
X122699Y168978D01*
X123384Y169663D01*
X125406Y170501D01*
X127594Y170501D01*
X129616Y169663D01*
X130452Y168828D01*
X130506Y168790D01*
X130553Y168745D01*
X130597Y168727D01*
X130636Y168700D01*
X130699Y168683D01*
X130760Y168658D01*
X130807Y168655D01*
X130853Y168644D01*
X130918Y168650D01*
X130984Y168648D01*
X131029Y168662D01*
X131076Y168667D01*
X131135Y168696D01*
X131198Y168716D01*
X131242Y168749D01*
X131277Y168766D01*
X131304Y168795D01*
X131349Y168828D01*
X132084Y169563D01*
X134106Y170401D01*
X136294Y170401D01*
X138316Y169563D01*
X139201Y168678D01*
X139256Y168640D01*
X139303Y168595D01*
X139347Y168577D01*
X139386Y168550D01*
X139449Y168533D01*
X139510Y168508D01*
X139557Y168505D01*
X139603Y168494D01*
X139668Y168500D01*
X139734Y168498D01*
X139779Y168512D01*
X139826Y168517D01*
X139885Y168546D01*
X139948Y168566D01*
X139992Y168599D01*
X140027Y168616D01*
X140054Y168645D01*
X140098Y168678D01*
X140984Y169563D01*
X143006Y170401D01*
X145194Y170401D01*
X147216Y169563D01*
X147851Y168928D01*
X147906Y168890D01*
X147953Y168845D01*
X147997Y168827D01*
X148036Y168800D01*
X148099Y168783D01*
X148160Y168758D01*
X148207Y168755D01*
X148253Y168744D01*
X148318Y168750D01*
X148384Y168748D01*
X148429Y168762D01*
X148476Y168767D01*
X148535Y168796D01*
X148598Y168816D01*
X148642Y168849D01*
X148677Y168866D01*
X148704Y168895D01*
X148748Y168928D01*
X149484Y169663D01*
X151506Y170501D01*
X153694Y170501D01*
X155716Y169663D01*
X157058Y168322D01*
X157093Y168297D01*
X157121Y168266D01*
X157184Y168234D01*
X157242Y168193D01*
X157283Y168183D01*
X157321Y168163D01*
X157380Y168155D01*
X158174Y167360D01*
X158238Y167316D01*
X158296Y167265D01*
X158330Y167252D01*
X158359Y167232D01*
X158434Y167213D01*
X158506Y167185D01*
X158542Y167185D01*
X158576Y167176D01*
X158653Y167184D01*
X158730Y167184D01*
X158764Y167196D01*
X158799Y167199D01*
X158868Y167234D01*
X158941Y167260D01*
X158968Y167283D01*
X159000Y167299D01*
X159053Y167355D01*
X159112Y167405D01*
X159133Y167440D01*
X159154Y167462D01*
X159172Y167505D01*
X159209Y167566D01*
X159437Y168116D01*
X160984Y169663D01*
X163006Y170501D01*
X165194Y170501D01*
X167216Y169663D01*
X168763Y168116D01*
X169601Y166094D01*
X169601Y165832D01*
X169612Y165767D01*
X169614Y165702D01*
X169632Y165658D01*
X169640Y165611D01*
X169674Y165555D01*
X169699Y165494D01*
X169730Y165459D01*
X169755Y165418D01*
X169806Y165377D01*
X169850Y165328D01*
X169892Y165306D01*
X169929Y165277D01*
X169991Y165256D01*
X170050Y165226D01*
X170104Y165217D01*
X170141Y165205D01*
X170181Y165206D01*
X170235Y165198D01*
X182476Y165198D01*
X182518Y165205D01*
X182560Y165203D01*
X182627Y165225D01*
X182649Y165229D01*
X189192Y165229D01*
X189193Y165229D01*
X189266Y165229D01*
X189330Y165241D01*
X189396Y165243D01*
X189440Y165261D01*
X189487Y165269D01*
X189543Y165303D01*
X189603Y165327D01*
X189639Y165359D01*
X189680Y165384D01*
X189721Y165434D01*
X189769Y165478D01*
X189791Y165521D01*
X189821Y165558D01*
X189842Y165620D01*
X189872Y165678D01*
X189880Y165733D01*
X189892Y165771D01*
X189891Y165810D01*
X189899Y165863D01*
X189899Y166294D01*
X190737Y168316D01*
X192284Y169863D01*
X194306Y170701D01*
X196494Y170701D01*
X198516Y169863D01*
X199251Y169128D01*
X199306Y169090D01*
X199353Y169045D01*
X199397Y169027D01*
X199436Y169000D01*
X199499Y168983D01*
X199560Y168958D01*
X199607Y168955D01*
X199653Y168944D01*
X199718Y168950D01*
X199784Y168948D01*
X199829Y168962D01*
X199876Y168967D01*
X199935Y168996D01*
X199998Y169016D01*
X200042Y169049D01*
X200077Y169066D01*
X200104Y169095D01*
X200148Y169128D01*
X200884Y169863D01*
X202906Y170701D01*
X205094Y170701D01*
X207116Y169863D01*
X208052Y168928D01*
X208106Y168890D01*
X208153Y168845D01*
X208197Y168827D01*
X208236Y168800D01*
X208299Y168783D01*
X208360Y168758D01*
X208407Y168755D01*
X208453Y168744D01*
X208518Y168750D01*
X208584Y168748D01*
X208629Y168762D01*
X208676Y168767D01*
X208735Y168796D01*
X208798Y168816D01*
X208842Y168849D01*
X208877Y168866D01*
X208904Y168895D01*
X208949Y168928D01*
X209884Y169863D01*
X211906Y170701D01*
X214094Y170701D01*
X216116Y169863D01*
X217201Y168778D01*
X217256Y168740D01*
X217303Y168695D01*
X217347Y168677D01*
X217386Y168650D01*
X217449Y168633D01*
X217510Y168608D01*
X217557Y168605D01*
X217603Y168594D01*
X217668Y168600D01*
X217734Y168598D01*
X217779Y168612D01*
X217826Y168617D01*
X217885Y168646D01*
X217948Y168666D01*
X217992Y168699D01*
X218027Y168716D01*
X218054Y168745D01*
X218098Y168778D01*
X219184Y169863D01*
X221206Y170701D01*
X223394Y170701D01*
X225416Y169863D01*
X226301Y168978D01*
X226356Y168940D01*
X226403Y168895D01*
X226447Y168877D01*
X226486Y168850D01*
X226549Y168833D01*
X226610Y168808D01*
X226657Y168805D01*
X226703Y168794D01*
X226768Y168800D01*
X226834Y168798D01*
X226879Y168812D01*
X226926Y168817D01*
X226985Y168846D01*
X227048Y168866D01*
X227092Y168899D01*
X227127Y168916D01*
X227154Y168945D01*
X227198Y168978D01*
X227984Y169763D01*
X230006Y170601D01*
X232194Y170601D01*
X234216Y169763D01*
X235763Y168216D01*
X236601Y166194D01*
X236601Y164006D01*
X235763Y161984D01*
X234322Y160543D01*
X234301Y160513D01*
X234274Y160489D01*
X234238Y160421D01*
X234194Y160358D01*
X234185Y160323D01*
X234167Y160292D01*
X234150Y160189D01*
X234138Y160141D01*
X234139Y160126D01*
X234136Y160107D01*
X233767Y141743D01*
X233775Y141695D01*
X233773Y141646D01*
X233792Y141585D01*
X233803Y141521D01*
X233827Y141479D01*
X233841Y141432D01*
X233889Y141368D01*
X233913Y141326D01*
X233933Y141309D01*
X233953Y141282D01*
X240436Y134799D01*
X240436Y134285D01*
X240447Y134220D01*
X240449Y134154D01*
X240467Y134111D01*
X240475Y134064D01*
X240509Y134007D01*
X240534Y133947D01*
X240565Y133912D01*
X240590Y133871D01*
X240641Y133829D01*
X240685Y133781D01*
X240727Y133759D01*
X240764Y133730D01*
X240826Y133709D01*
X240885Y133678D01*
X240939Y133670D01*
X240976Y133658D01*
X241016Y133659D01*
X241070Y133651D01*
X241430Y133651D01*
X241495Y133662D01*
X241561Y133664D01*
X241604Y133682D01*
X241651Y133690D01*
X241708Y133724D01*
X241768Y133749D01*
X241803Y133780D01*
X241844Y133805D01*
X241886Y133856D01*
X241934Y133900D01*
X241956Y133942D01*
X241985Y133979D01*
X242006Y134041D01*
X242037Y134100D01*
X242045Y134154D01*
X242057Y134191D01*
X242056Y134231D01*
X242064Y134285D01*
X242064Y160194D01*
X242057Y160236D01*
X242059Y160278D01*
X242037Y160345D01*
X242025Y160415D01*
X242003Y160451D01*
X241990Y160492D01*
X241936Y160564D01*
X241910Y160608D01*
X241894Y160621D01*
X241878Y160642D01*
X240537Y161984D01*
X239699Y164006D01*
X239699Y166194D01*
X240537Y168216D01*
X242084Y169763D01*
X244106Y170601D01*
X246294Y170601D01*
X248316Y169763D01*
X249452Y168628D01*
X249506Y168590D01*
X249553Y168545D01*
X249597Y168527D01*
X249636Y168500D01*
X249699Y168483D01*
X249760Y168458D01*
X249807Y168455D01*
X249853Y168444D01*
X249918Y168450D01*
X249984Y168448D01*
X250029Y168462D01*
X250076Y168467D01*
X250135Y168496D01*
X250198Y168516D01*
X250242Y168549D01*
X250277Y168566D01*
X250304Y168595D01*
X250349Y168628D01*
X251384Y169663D01*
X253406Y170501D01*
X255594Y170501D01*
X257616Y169663D01*
X258501Y168778D01*
X258556Y168740D01*
X258603Y168695D01*
X258647Y168677D01*
X258686Y168650D01*
X258749Y168633D01*
X258810Y168608D01*
X258857Y168605D01*
X258903Y168594D01*
X258968Y168600D01*
X259034Y168598D01*
X259079Y168612D01*
X259126Y168617D01*
X259185Y168646D01*
X259248Y168666D01*
X259292Y168699D01*
X259327Y168716D01*
X259354Y168745D01*
X259398Y168778D01*
X260384Y169763D01*
X262406Y170601D01*
X264594Y170601D01*
X266616Y169763D01*
X267301Y169078D01*
X267356Y169040D01*
X267403Y168995D01*
X267447Y168977D01*
X267486Y168950D01*
X267549Y168933D01*
X267610Y168908D01*
X267657Y168905D01*
X267703Y168894D01*
X267768Y168900D01*
X267834Y168898D01*
X267879Y168912D01*
X267926Y168917D01*
X267985Y168946D01*
X268048Y168966D01*
X268092Y168999D01*
X268127Y169016D01*
X268154Y169045D01*
X268198Y169078D01*
X269084Y169963D01*
X271106Y170801D01*
X273294Y170801D01*
X275316Y169963D01*
X276001Y169278D01*
X276056Y169240D01*
X276103Y169195D01*
X276147Y169177D01*
X276186Y169150D01*
X276249Y169133D01*
X276310Y169108D01*
X276357Y169105D01*
X276403Y169094D01*
X276468Y169100D01*
X276534Y169098D01*
X276579Y169112D01*
X276626Y169117D01*
X276685Y169146D01*
X276748Y169166D01*
X276792Y169199D01*
X276827Y169216D01*
X276854Y169245D01*
X276898Y169278D01*
X277684Y170063D01*
X279706Y170901D01*
X281894Y170901D01*
X283916Y170063D01*
X284501Y169478D01*
X284556Y169440D01*
X284603Y169395D01*
X284647Y169377D01*
X284686Y169350D01*
X284749Y169333D01*
X284810Y169308D01*
X284857Y169305D01*
X284903Y169294D01*
X284968Y169300D01*
X285034Y169298D01*
X285079Y169312D01*
X285126Y169317D01*
X285185Y169346D01*
X285248Y169366D01*
X285292Y169399D01*
X285327Y169416D01*
X285354Y169445D01*
X285398Y169478D01*
X285984Y170063D01*
X288006Y170901D01*
X290194Y170901D01*
X292216Y170063D01*
X293002Y169278D01*
X293056Y169240D01*
X293103Y169195D01*
X293147Y169177D01*
X293186Y169150D01*
X293249Y169133D01*
X293310Y169108D01*
X293357Y169105D01*
X293403Y169094D01*
X293468Y169100D01*
X293534Y169098D01*
X293579Y169112D01*
X293626Y169117D01*
X293685Y169146D01*
X293748Y169166D01*
X293792Y169199D01*
X293827Y169216D01*
X293854Y169245D01*
X293899Y169278D01*
X294484Y169863D01*
X295600Y170325D01*
X295665Y170367D01*
X295734Y170402D01*
X295759Y170427D01*
X295789Y170447D01*
X295835Y170508D01*
X295888Y170565D01*
X295902Y170598D01*
X295923Y170626D01*
X295946Y170700D01*
X295976Y170771D01*
X295977Y170807D01*
X295987Y170841D01*
X295982Y170918D01*
X295986Y170996D01*
X295975Y171029D01*
X295972Y171065D01*
X295941Y171135D01*
X295917Y171209D01*
X295893Y171242D01*
X295881Y171270D01*
X295848Y171303D01*
X295806Y171360D01*
X294164Y173001D01*
X294164Y179794D01*
X294157Y179836D01*
X294159Y179878D01*
X294137Y179945D01*
X294125Y180015D01*
X294103Y180051D01*
X294090Y180092D01*
X294036Y180164D01*
X294010Y180208D01*
X293994Y180221D01*
X293978Y180242D01*
X292637Y181584D01*
X291799Y183606D01*
X291799Y185794D01*
X292637Y187816D01*
X293597Y188777D01*
X293622Y188812D01*
X293653Y188840D01*
X293685Y188903D01*
X293726Y188961D01*
X293736Y189002D01*
X293756Y189040D01*
X293769Y189129D01*
X293782Y189178D01*
X293779Y189199D01*
X293783Y189225D01*
X293783Y221315D01*
X293772Y221380D01*
X293770Y221446D01*
X293752Y221489D01*
X293744Y221536D01*
X293710Y221593D01*
X293685Y221653D01*
X293654Y221688D01*
X293629Y221729D01*
X293578Y221771D01*
X293534Y221819D01*
X293492Y221841D01*
X293455Y221870D01*
X293393Y221891D01*
X293334Y221922D01*
X293280Y221930D01*
X293243Y221942D01*
X293203Y221941D01*
X293149Y221949D01*
X285070Y221949D01*
X285005Y221938D01*
X284939Y221936D01*
X284896Y221918D01*
X284849Y221910D01*
X284792Y221876D01*
X284732Y221851D01*
X284697Y221820D01*
X284656Y221795D01*
X284614Y221744D01*
X284566Y221700D01*
X284544Y221658D01*
X284515Y221621D01*
X284494Y221559D01*
X284463Y221500D01*
X284455Y221446D01*
X284443Y221409D01*
X284444Y221369D01*
X284436Y221315D01*
X284436Y216962D01*
X284443Y216920D01*
X284441Y216877D01*
X284463Y216810D01*
X284475Y216741D01*
X284497Y216704D01*
X284510Y216664D01*
X284564Y216591D01*
X284590Y216548D01*
X284606Y216534D01*
X284622Y216513D01*
X291836Y209299D01*
X291836Y196197D01*
X291814Y196166D01*
X291776Y196128D01*
X291751Y196075D01*
X291717Y196026D01*
X291703Y195974D01*
X291680Y195925D01*
X291676Y195866D01*
X291661Y195809D01*
X291667Y195755D01*
X291662Y195701D01*
X291679Y195632D01*
X291684Y195586D01*
X291698Y195558D01*
X291708Y195519D01*
X291801Y195294D01*
X291801Y193106D01*
X290963Y191084D01*
X289416Y189537D01*
X287394Y188699D01*
X285206Y188699D01*
X283184Y189537D01*
X281637Y191084D01*
X280799Y193106D01*
X280799Y194365D01*
X280788Y194430D01*
X280786Y194496D01*
X280768Y194539D01*
X280760Y194586D01*
X280726Y194643D01*
X280701Y194703D01*
X280670Y194738D01*
X280645Y194779D01*
X280594Y194821D01*
X280550Y194869D01*
X280508Y194891D01*
X280471Y194920D01*
X280409Y194941D01*
X280350Y194972D01*
X280296Y194980D01*
X280259Y194992D01*
X280219Y194991D01*
X280165Y194999D01*
X279106Y194999D01*
X277084Y195837D01*
X275537Y197384D01*
X274699Y199406D01*
X274699Y199765D01*
X274688Y199830D01*
X274686Y199896D01*
X274668Y199939D01*
X274660Y199986D01*
X274626Y200043D01*
X274601Y200103D01*
X274570Y200138D01*
X274545Y200179D01*
X274494Y200221D01*
X274450Y200269D01*
X274408Y200291D01*
X274371Y200320D01*
X274309Y200341D01*
X274250Y200372D01*
X274196Y200380D01*
X274159Y200392D01*
X274119Y200391D01*
X274065Y200399D01*
X272506Y200399D01*
X270484Y201237D01*
X268937Y202784D01*
X268099Y204806D01*
X268099Y206994D01*
X268937Y209016D01*
X269978Y210058D01*
X270003Y210093D01*
X270034Y210121D01*
X270066Y210184D01*
X270107Y210242D01*
X270117Y210283D01*
X270137Y210321D01*
X270150Y210410D01*
X270163Y210459D01*
X270160Y210480D01*
X270164Y210506D01*
X270164Y213665D01*
X270153Y213730D01*
X270151Y213796D01*
X270133Y213839D01*
X270125Y213886D01*
X270091Y213943D01*
X270066Y214003D01*
X270035Y214038D01*
X270010Y214079D01*
X269959Y214121D01*
X269915Y214169D01*
X269873Y214191D01*
X269836Y214220D01*
X269774Y214241D01*
X269715Y214272D01*
X269661Y214280D01*
X269624Y214292D01*
X269584Y214291D01*
X269530Y214299D01*
X268006Y214299D01*
X265984Y215137D01*
X264437Y216684D01*
X263599Y218706D01*
X263599Y220894D01*
X263673Y221072D01*
X263690Y221148D01*
X263714Y221221D01*
X263713Y221257D01*
X263721Y221291D01*
X263710Y221368D01*
X263708Y221446D01*
X263694Y221478D01*
X263689Y221514D01*
X263652Y221582D01*
X263623Y221653D01*
X263600Y221680D01*
X263583Y221711D01*
X263524Y221762D01*
X263472Y221819D01*
X263441Y221835D01*
X263414Y221859D01*
X263341Y221886D01*
X263272Y221922D01*
X263233Y221928D01*
X263204Y221938D01*
X263158Y221939D01*
X263087Y221949D01*
X259114Y221949D01*
X257748Y223315D01*
X257694Y223353D01*
X257647Y223398D01*
X257603Y223416D01*
X257564Y223443D01*
X257501Y223459D01*
X257440Y223485D01*
X257393Y223487D01*
X257347Y223499D01*
X257282Y223492D01*
X257216Y223495D01*
X257171Y223481D01*
X257124Y223476D01*
X257065Y223447D01*
X257002Y223426D01*
X256958Y223394D01*
X256923Y223376D01*
X256896Y223348D01*
X256851Y223315D01*
X255486Y221949D01*
X246054Y221949D01*
X245978Y221936D01*
X245901Y221930D01*
X245868Y221916D01*
X245833Y221910D01*
X245767Y221870D01*
X245696Y221838D01*
X245671Y221814D01*
X245640Y221795D01*
X245592Y221735D01*
X245536Y221681D01*
X245521Y221649D01*
X245499Y221621D01*
X245474Y221548D01*
X245441Y221478D01*
X245438Y221442D01*
X245427Y221409D01*
X245429Y221331D01*
X245423Y221254D01*
X245433Y221215D01*
X245434Y221184D01*
X245451Y221141D01*
X245468Y221072D01*
X245501Y220994D01*
X245501Y218806D01*
X244663Y216784D01*
X243116Y215237D01*
X241094Y214399D01*
X238906Y214399D01*
X236884Y215237D01*
X235249Y216872D01*
X235194Y216910D01*
X235147Y216955D01*
X235103Y216973D01*
X235064Y217000D01*
X235001Y217017D01*
X234940Y217042D01*
X234893Y217045D01*
X234847Y217056D01*
X234782Y217050D01*
X234716Y217052D01*
X234671Y217038D01*
X234624Y217033D01*
X234565Y217004D01*
X234502Y216984D01*
X234458Y216951D01*
X234423Y216934D01*
X234396Y216905D01*
X234352Y216872D01*
X232747Y215267D01*
X230725Y214430D01*
X228536Y214430D01*
X226515Y215267D01*
X226229Y215553D01*
X226175Y215590D01*
X226127Y215636D01*
X226084Y215654D01*
X226045Y215681D01*
X225981Y215697D01*
X225921Y215723D01*
X225873Y215725D01*
X225828Y215737D01*
X225762Y215730D01*
X225696Y215733D01*
X225651Y215719D01*
X225604Y215714D01*
X225546Y215685D01*
X225483Y215664D01*
X225439Y215632D01*
X225403Y215614D01*
X225376Y215586D01*
X225332Y215553D01*
X225116Y215337D01*
X223094Y214499D01*
X220906Y214499D01*
X218884Y215337D01*
X217337Y216884D01*
X216499Y218906D01*
X216499Y221114D01*
X216507Y221148D01*
X216532Y221221D01*
X216531Y221257D01*
X216538Y221291D01*
X216527Y221368D01*
X216525Y221446D01*
X216512Y221478D01*
X216507Y221513D01*
X216470Y221582D01*
X216441Y221653D01*
X216417Y221680D01*
X216400Y221711D01*
X216342Y221762D01*
X216289Y221819D01*
X216258Y221835D01*
X216231Y221859D01*
X216159Y221886D01*
X216090Y221922D01*
X216050Y221928D01*
X216021Y221938D01*
X215975Y221939D01*
X215904Y221949D01*
X211114Y221949D01*
X210381Y222683D01*
X210298Y222740D01*
X210218Y222801D01*
X210206Y222804D01*
X210196Y222811D01*
X210099Y222836D01*
X210002Y222865D01*
X209991Y222864D01*
X209979Y222867D01*
X209879Y222857D01*
X209779Y222850D01*
X209768Y222845D01*
X209756Y222844D01*
X209666Y222799D01*
X209574Y222758D01*
X209565Y222750D01*
X209555Y222744D01*
X209486Y222671D01*
X209414Y222600D01*
X209409Y222590D01*
X209401Y222581D01*
X209362Y222488D01*
X209319Y222397D01*
X209318Y222385D01*
X209313Y222374D01*
X209309Y222274D01*
X209301Y222174D01*
X209304Y222161D01*
X209303Y222150D01*
X209317Y222107D01*
X209346Y221992D01*
X209801Y220894D01*
X209801Y218706D01*
X208963Y216684D01*
X207416Y215137D01*
X205394Y214299D01*
X203206Y214299D01*
X201184Y215137D01*
X199637Y216684D01*
X198799Y218706D01*
X198799Y220894D01*
X198873Y221072D01*
X198890Y221148D01*
X198914Y221221D01*
X198913Y221257D01*
X198921Y221291D01*
X198910Y221368D01*
X198908Y221446D01*
X198894Y221478D01*
X198889Y221514D01*
X198852Y221582D01*
X198823Y221653D01*
X198800Y221680D01*
X198783Y221711D01*
X198724Y221762D01*
X198672Y221819D01*
X198641Y221835D01*
X198614Y221859D01*
X198541Y221886D01*
X198472Y221922D01*
X198433Y221928D01*
X198404Y221938D01*
X198358Y221939D01*
X198287Y221949D01*
X194989Y221949D01*
X194912Y221936D01*
X194835Y221930D01*
X194803Y221916D01*
X194768Y221910D01*
X194701Y221870D01*
X194631Y221838D01*
X194605Y221814D01*
X194575Y221795D01*
X194526Y221735D01*
X194471Y221681D01*
X194456Y221649D01*
X194433Y221621D01*
X194408Y221548D01*
X194376Y221478D01*
X194373Y221442D01*
X194361Y221409D01*
X194364Y221331D01*
X194357Y221254D01*
X194367Y221215D01*
X194368Y221184D01*
X194385Y221141D01*
X194403Y221072D01*
X194601Y220594D01*
X194601Y218406D01*
X193763Y216384D01*
X192216Y214837D01*
X190194Y213999D01*
X188006Y213999D01*
X185984Y214837D01*
X184437Y216384D01*
X183599Y218406D01*
X183599Y220594D01*
X184437Y222616D01*
X185463Y223643D01*
X185488Y223678D01*
X185519Y223706D01*
X185551Y223769D01*
X185592Y223827D01*
X185602Y223868D01*
X185622Y223906D01*
X185635Y223995D01*
X185648Y224044D01*
X185645Y224065D01*
X185649Y224091D01*
X185649Y232086D01*
X186763Y233199D01*
X186807Y233263D01*
X186858Y233321D01*
X186871Y233354D01*
X186891Y233383D01*
X186910Y233458D01*
X186938Y233531D01*
X186938Y233566D01*
X186947Y233601D01*
X186939Y233678D01*
X186939Y233755D01*
X186927Y233789D01*
X186924Y233824D01*
X186889Y233893D01*
X186863Y233966D01*
X186840Y233993D01*
X186824Y234025D01*
X186768Y234078D01*
X186718Y234137D01*
X186683Y234158D01*
X186661Y234179D01*
X186618Y234197D01*
X186557Y234234D01*
X185584Y234637D01*
X184037Y236184D01*
X183199Y238206D01*
X183199Y240394D01*
X184037Y242416D01*
X185584Y243963D01*
X187606Y244801D01*
X189794Y244801D01*
X191816Y243963D01*
X191890Y243912D01*
X191959Y243856D01*
X191981Y243848D01*
X192001Y243835D01*
X192087Y243812D01*
X192171Y243784D01*
X192195Y243785D01*
X192218Y243779D01*
X192307Y243788D01*
X192396Y243790D01*
X192417Y243799D01*
X192441Y243802D01*
X192521Y243841D01*
X192603Y243875D01*
X192621Y243891D01*
X192642Y243901D01*
X192703Y243966D01*
X192769Y244026D01*
X192780Y244047D01*
X192796Y244064D01*
X192831Y244146D01*
X192872Y244226D01*
X192875Y244252D01*
X192884Y244271D01*
X192886Y244321D01*
X192899Y244411D01*
X192899Y245194D01*
X193737Y247216D01*
X194487Y247967D01*
X194538Y248040D01*
X194594Y248109D01*
X194602Y248131D01*
X194615Y248151D01*
X194638Y248237D01*
X194666Y248321D01*
X194665Y248345D01*
X194671Y248368D01*
X194662Y248457D01*
X194660Y248546D01*
X194651Y248568D01*
X194648Y248591D01*
X194609Y248671D01*
X194575Y248753D01*
X194559Y248771D01*
X194549Y248792D01*
X194484Y248853D01*
X194424Y248919D01*
X194403Y248930D01*
X194385Y248946D01*
X194303Y248981D01*
X194224Y249022D01*
X194198Y249025D01*
X194179Y249034D01*
X194128Y249036D01*
X194039Y249049D01*
X187114Y249049D01*
X185649Y250514D01*
X185649Y257953D01*
X185642Y257995D01*
X185644Y258038D01*
X185622Y258105D01*
X185610Y258174D01*
X185588Y258211D01*
X185575Y258251D01*
X185521Y258324D01*
X185495Y258367D01*
X185479Y258381D01*
X185463Y258402D01*
X183987Y259878D01*
X183956Y259900D01*
X183940Y259918D01*
X183937Y259919D01*
X183923Y259934D01*
X183861Y259966D01*
X183803Y260007D01*
X183762Y260017D01*
X183724Y260037D01*
X183634Y260050D01*
X183585Y260063D01*
X183565Y260060D01*
X183538Y260064D01*
X165306Y260064D01*
X165264Y260057D01*
X165222Y260059D01*
X165155Y260037D01*
X165085Y260025D01*
X165049Y260003D01*
X165008Y259990D01*
X164936Y259936D01*
X164892Y259910D01*
X164882Y259897D01*
X164876Y259894D01*
X164871Y259888D01*
X164858Y259878D01*
X163616Y258637D01*
X161594Y257799D01*
X159406Y257799D01*
X157384Y258637D01*
X155837Y260184D01*
X154999Y262206D01*
X154999Y264394D01*
X155837Y266416D01*
X157384Y267963D01*
X159406Y268801D01*
X161594Y268801D01*
X163616Y267963D01*
X165058Y266522D01*
X165093Y266497D01*
X165121Y266466D01*
X165184Y266434D01*
X165242Y266393D01*
X165283Y266383D01*
X165321Y266363D01*
X165410Y266350D01*
X165459Y266337D01*
X165480Y266340D01*
X165506Y266336D01*
X168697Y266336D01*
X168761Y266347D01*
X168827Y266349D01*
X168871Y266367D01*
X168917Y266375D01*
X168974Y266409D01*
X169035Y266434D01*
X169070Y266465D01*
X169111Y266490D01*
X169152Y266541D01*
X169201Y266585D01*
X169222Y266627D01*
X169252Y266664D01*
X169273Y266726D01*
X169303Y266785D01*
X169311Y266839D01*
X169324Y266876D01*
X169323Y266916D01*
X169331Y266970D01*
X169331Y269226D01*
X170168Y271248D01*
X171716Y272795D01*
X173737Y273632D01*
X175926Y273632D01*
X177948Y272795D01*
X179289Y271453D01*
X179324Y271429D01*
X179353Y271398D01*
X179416Y271365D01*
X179474Y271325D01*
X179515Y271314D01*
X179552Y271295D01*
X179642Y271282D01*
X179691Y271269D01*
X179712Y271271D01*
X179738Y271267D01*
X186030Y271267D01*
X186095Y271279D01*
X186161Y271281D01*
X186204Y271299D01*
X186251Y271307D01*
X186308Y271341D01*
X186368Y271365D01*
X186403Y271397D01*
X186444Y271421D01*
X186486Y271472D01*
X186534Y271517D01*
X186556Y271559D01*
X186585Y271595D01*
X186606Y271658D01*
X186637Y271716D01*
X186645Y271771D01*
X186657Y271808D01*
X186656Y271847D01*
X186664Y271902D01*
X186664Y272031D01*
X186657Y272072D01*
X186659Y272115D01*
X186637Y272182D01*
X186625Y272251D01*
X186603Y272288D01*
X186590Y272328D01*
X186536Y272401D01*
X186510Y272445D01*
X186494Y272458D01*
X186478Y272479D01*
X185532Y273426D01*
X184694Y275448D01*
X184694Y277636D01*
X185532Y279658D01*
X187121Y281247D01*
X187159Y281301D01*
X187204Y281349D01*
X187222Y281393D01*
X187249Y281431D01*
X187266Y281495D01*
X187291Y281556D01*
X187293Y281603D01*
X187305Y281649D01*
X187298Y281714D01*
X187301Y281780D01*
X187287Y281825D01*
X187282Y281872D01*
X187253Y281931D01*
X187233Y281994D01*
X187200Y282038D01*
X187183Y282073D01*
X187154Y282100D01*
X187121Y282144D01*
X185364Y283901D01*
X185364Y288494D01*
X185357Y288536D01*
X185359Y288578D01*
X185337Y288645D01*
X185325Y288715D01*
X185303Y288751D01*
X185290Y288792D01*
X185236Y288864D01*
X185210Y288908D01*
X185194Y288921D01*
X185178Y288942D01*
X183937Y290184D01*
X183099Y292206D01*
X183099Y294394D01*
X183937Y296416D01*
X185484Y297963D01*
X187506Y298801D01*
X189694Y298801D01*
X191716Y297963D01*
X193263Y296416D01*
X194101Y294394D01*
X194101Y293073D01*
X194114Y292997D01*
X194120Y292920D01*
X194134Y292887D01*
X194140Y292852D01*
X194180Y292786D01*
X194212Y292715D01*
X194236Y292690D01*
X194255Y292659D01*
X194315Y292610D01*
X194369Y292555D01*
X194401Y292540D01*
X194429Y292518D01*
X194502Y292493D01*
X194572Y292460D01*
X194608Y292457D01*
X194641Y292446D01*
X194719Y292448D01*
X194796Y292442D01*
X194835Y292452D01*
X194866Y292453D01*
X194909Y292470D01*
X194978Y292487D01*
X195976Y292901D01*
X198164Y292901D01*
X200186Y292063D01*
X201733Y290516D01*
X202571Y288494D01*
X202571Y287670D01*
X202582Y287605D01*
X202584Y287539D01*
X202602Y287496D01*
X202610Y287449D01*
X202644Y287392D01*
X202669Y287332D01*
X202700Y287297D01*
X202725Y287256D01*
X202776Y287214D01*
X202820Y287166D01*
X202862Y287144D01*
X202899Y287115D01*
X202961Y287094D01*
X203020Y287063D01*
X203074Y287055D01*
X203111Y287043D01*
X203151Y287044D01*
X203205Y287036D01*
X204824Y287036D01*
X204857Y287022D01*
X204896Y286995D01*
X204960Y286978D01*
X205020Y286953D01*
X205067Y286951D01*
X205113Y286939D01*
X205179Y286946D01*
X205244Y286943D01*
X205289Y286957D01*
X205336Y286962D01*
X205395Y286991D01*
X205458Y287011D01*
X205502Y287044D01*
X205537Y287062D01*
X205565Y287090D01*
X205609Y287123D01*
X206649Y288163D01*
X208671Y289001D01*
X210859Y289001D01*
X212881Y288163D01*
X214428Y286616D01*
X215266Y284594D01*
X215266Y282406D01*
X214428Y280384D01*
X214363Y280319D01*
X214312Y280245D01*
X214256Y280176D01*
X214248Y280154D01*
X214235Y280134D01*
X214212Y280048D01*
X214184Y279964D01*
X214185Y279940D01*
X214179Y279917D01*
X214188Y279828D01*
X214190Y279739D01*
X214199Y279718D01*
X214202Y279694D01*
X214241Y279614D01*
X214275Y279532D01*
X214291Y279514D01*
X214301Y279493D01*
X214366Y279432D01*
X214426Y279366D01*
X214447Y279355D01*
X214465Y279339D01*
X214546Y279304D01*
X214626Y279263D01*
X214652Y279260D01*
X214671Y279251D01*
X214721Y279249D01*
X214811Y279236D01*
X221800Y279236D01*
X221865Y279247D01*
X221931Y279249D01*
X221974Y279267D01*
X222021Y279275D01*
X222078Y279309D01*
X222138Y279334D01*
X222173Y279365D01*
X222214Y279390D01*
X222256Y279441D01*
X222304Y279485D01*
X222326Y279527D01*
X222355Y279564D01*
X222376Y279626D01*
X222407Y279685D01*
X222415Y279739D01*
X222427Y279776D01*
X222426Y279816D01*
X222434Y279870D01*
X222434Y299594D01*
X222427Y299636D01*
X222429Y299678D01*
X222407Y299745D01*
X222395Y299815D01*
X222373Y299851D01*
X222360Y299892D01*
X222306Y299964D01*
X222280Y300008D01*
X222264Y300021D01*
X222248Y300042D01*
X220907Y301384D01*
X220069Y303406D01*
X220069Y305594D01*
X220907Y307616D01*
X222454Y309163D01*
X224476Y310001D01*
X226664Y310001D01*
X228686Y309163D01*
X229852Y307998D01*
X229925Y307947D01*
X229994Y307891D01*
X230016Y307883D01*
X230036Y307870D01*
X230122Y307847D01*
X230206Y307819D01*
X230230Y307820D01*
X230253Y307814D01*
X230342Y307823D01*
X230431Y307825D01*
X230453Y307834D01*
X230476Y307837D01*
X230556Y307876D01*
X230638Y307910D01*
X230656Y307926D01*
X230677Y307936D01*
X230738Y308001D01*
X230804Y308061D01*
X230815Y308082D01*
X230831Y308100D01*
X230866Y308181D01*
X230907Y308261D01*
X230910Y308287D01*
X230919Y308306D01*
X230921Y308357D01*
X230934Y308446D01*
X230934Y318569D01*
X234013Y321648D01*
X234038Y321683D01*
X234069Y321712D01*
X234101Y321774D01*
X234142Y321832D01*
X234152Y321873D01*
X234172Y321911D01*
X234185Y322001D01*
X234198Y322050D01*
X234195Y322070D01*
X234199Y322097D01*
X234199Y323994D01*
X235037Y326016D01*
X236584Y327563D01*
X238606Y328401D01*
X240794Y328401D01*
X242816Y327563D01*
X244363Y326016D01*
X245201Y323994D01*
X245201Y321806D01*
X244351Y319756D01*
X244310Y319712D01*
X244292Y319668D01*
X244265Y319629D01*
X244248Y319566D01*
X244223Y319505D01*
X244220Y319458D01*
X244209Y319412D01*
X244215Y319347D01*
X244213Y319281D01*
X244227Y319236D01*
X244232Y319189D01*
X244261Y319130D01*
X244281Y319067D01*
X244314Y319023D01*
X244331Y318988D01*
X244360Y318961D01*
X244393Y318916D01*
X244563Y318746D01*
X245401Y316724D01*
X245401Y314536D01*
X244563Y312514D01*
X243016Y310967D01*
X240994Y310129D01*
X240570Y310129D01*
X240505Y310118D01*
X240439Y310116D01*
X240396Y310098D01*
X240349Y310090D01*
X240292Y310056D01*
X240232Y310031D01*
X240197Y310000D01*
X240156Y309975D01*
X240114Y309924D01*
X240066Y309880D01*
X240044Y309838D01*
X240015Y309801D01*
X239994Y309739D01*
X239963Y309680D01*
X239955Y309626D01*
X239943Y309589D01*
X239944Y309549D01*
X239936Y309495D01*
X239936Y300862D01*
X239943Y300820D01*
X239941Y300777D01*
X239963Y300710D01*
X239975Y300641D01*
X239997Y300604D01*
X240010Y300564D01*
X240064Y300491D01*
X240090Y300448D01*
X240106Y300434D01*
X240122Y300413D01*
X246148Y294387D01*
X246183Y294362D01*
X246212Y294331D01*
X246274Y294299D01*
X246332Y294258D01*
X246373Y294248D01*
X246411Y294228D01*
X246501Y294215D01*
X246550Y294202D01*
X246570Y294205D01*
X246597Y294201D01*
X248494Y294201D01*
X250090Y293540D01*
X250155Y293526D01*
X250216Y293502D01*
X250263Y293502D01*
X250309Y293492D01*
X250375Y293501D01*
X250440Y293500D01*
X250485Y293517D01*
X250532Y293523D01*
X250589Y293555D01*
X250651Y293577D01*
X250687Y293608D01*
X250729Y293630D01*
X250772Y293680D01*
X250822Y293722D01*
X250851Y293769D01*
X250877Y293799D01*
X250891Y293836D01*
X250919Y293883D01*
X251430Y295116D01*
X252977Y296663D01*
X254999Y297501D01*
X257187Y297501D01*
X259209Y296663D01*
X260756Y295116D01*
X261594Y293094D01*
X261594Y290906D01*
X260756Y288884D01*
X259426Y287554D01*
X259375Y287481D01*
X259319Y287412D01*
X259311Y287389D01*
X259298Y287370D01*
X259276Y287283D01*
X259247Y287199D01*
X259248Y287175D01*
X259242Y287152D01*
X259251Y287064D01*
X259254Y286975D01*
X259263Y286953D01*
X259265Y286929D01*
X259305Y286849D01*
X259338Y286767D01*
X259354Y286749D01*
X259365Y286728D01*
X259429Y286667D01*
X259490Y286601D01*
X259511Y286590D01*
X259528Y286574D01*
X259610Y286539D01*
X259689Y286499D01*
X259715Y286495D01*
X259735Y286487D01*
X259785Y286484D01*
X259874Y286471D01*
X261424Y286471D01*
X263446Y285634D01*
X264993Y284086D01*
X265830Y282065D01*
X265830Y279876D01*
X265699Y279559D01*
X265678Y279461D01*
X265653Y279364D01*
X265654Y279352D01*
X265651Y279340D01*
X265665Y279240D01*
X265676Y279140D01*
X265681Y279130D01*
X265683Y279118D01*
X265731Y279030D01*
X265775Y278939D01*
X265784Y278931D01*
X265790Y278921D01*
X265865Y278855D01*
X265939Y278785D01*
X265950Y278781D01*
X265958Y278773D01*
X266052Y278737D01*
X266145Y278698D01*
X266157Y278697D01*
X266168Y278693D01*
X266269Y278692D01*
X266369Y278688D01*
X266381Y278692D01*
X266393Y278692D01*
X266487Y278726D01*
X266583Y278757D01*
X266593Y278764D01*
X266603Y278768D01*
X266638Y278798D01*
X266734Y278868D01*
X271478Y283613D01*
X271503Y283648D01*
X271534Y283677D01*
X271566Y283739D01*
X271607Y283797D01*
X271617Y283838D01*
X271637Y283876D01*
X271650Y283966D01*
X271663Y284015D01*
X271660Y284035D01*
X271664Y284062D01*
X271664Y287994D01*
X271657Y288036D01*
X271659Y288078D01*
X271637Y288145D01*
X271625Y288215D01*
X271603Y288251D01*
X271590Y288292D01*
X271536Y288364D01*
X271510Y288408D01*
X271494Y288421D01*
X271478Y288442D01*
X270137Y289784D01*
X269299Y291806D01*
X269299Y293994D01*
X270137Y296016D01*
X271684Y297563D01*
X273706Y298401D01*
X275894Y298401D01*
X277916Y297563D01*
X279463Y296016D01*
X280301Y293994D01*
X280301Y292402D01*
X280314Y292326D01*
X280320Y292249D01*
X280334Y292216D01*
X280340Y292181D01*
X280380Y292115D01*
X280412Y292044D01*
X280436Y292019D01*
X280455Y291988D01*
X280515Y291939D01*
X280569Y291884D01*
X280601Y291869D01*
X280629Y291847D01*
X280702Y291822D01*
X280772Y291789D01*
X280808Y291786D01*
X280841Y291775D01*
X280919Y291777D01*
X280996Y291771D01*
X281035Y291781D01*
X281066Y291782D01*
X281109Y291799D01*
X281178Y291816D01*
X282106Y292201D01*
X284294Y292201D01*
X286316Y291363D01*
X287863Y289816D01*
X288701Y287794D01*
X288701Y285606D01*
X287863Y283584D01*
X286316Y282037D01*
X284294Y281199D01*
X283997Y281199D01*
X283955Y281192D01*
X283912Y281194D01*
X283845Y281172D01*
X283776Y281160D01*
X283739Y281138D01*
X283699Y281125D01*
X283626Y281071D01*
X283583Y281045D01*
X283569Y281029D01*
X283548Y281013D01*
X275216Y272681D01*
X275165Y272608D01*
X275109Y272539D01*
X275102Y272517D01*
X275088Y272497D01*
X275066Y272411D01*
X275037Y272327D01*
X275038Y272303D01*
X275032Y272280D01*
X275041Y272191D01*
X275044Y272102D01*
X275053Y272080D01*
X275055Y272057D01*
X275095Y271977D01*
X275128Y271895D01*
X275144Y271877D01*
X275155Y271856D01*
X275220Y271795D01*
X275280Y271729D01*
X275301Y271718D01*
X275318Y271702D01*
X275400Y271667D01*
X275479Y271626D01*
X275505Y271623D01*
X275525Y271614D01*
X275575Y271612D01*
X275665Y271599D01*
X277196Y271599D01*
X279218Y270761D01*
X280765Y269214D01*
X281051Y268525D01*
X281092Y268460D01*
X281127Y268391D01*
X281152Y268366D01*
X281172Y268336D01*
X281234Y268290D01*
X281290Y268237D01*
X281323Y268223D01*
X281351Y268202D01*
X281425Y268180D01*
X281497Y268149D01*
X281532Y268148D01*
X281566Y268138D01*
X281643Y268143D01*
X281721Y268139D01*
X281754Y268150D01*
X281790Y268153D01*
X281861Y268184D01*
X281934Y268208D01*
X281967Y268232D01*
X281995Y268245D01*
X282028Y268277D01*
X282085Y268320D01*
X284078Y270313D01*
X285062Y271297D01*
X285080Y271322D01*
X285103Y271342D01*
X285164Y271444D01*
X285190Y271481D01*
X285193Y271492D01*
X285200Y271503D01*
X285537Y272316D01*
X287084Y273863D01*
X289106Y274701D01*
X291294Y274701D01*
X293316Y273863D01*
X294863Y272316D01*
X295701Y270294D01*
X295701Y268106D01*
X295571Y267794D01*
X295555Y267718D01*
X295530Y267645D01*
X295531Y267609D01*
X295524Y267575D01*
X295534Y267498D01*
X295537Y267420D01*
X295550Y267388D01*
X295555Y267352D01*
X295592Y267284D01*
X295621Y267213D01*
X295645Y267186D01*
X295662Y267155D01*
X295720Y267104D01*
X295772Y267047D01*
X295804Y267031D01*
X295831Y267007D01*
X295903Y266980D01*
X295972Y266944D01*
X296012Y266938D01*
X296040Y266928D01*
X296087Y266927D01*
X296157Y266917D01*
X325857Y266917D01*
X345971Y246803D01*
X346006Y246778D01*
X346034Y246747D01*
X346097Y246715D01*
X346155Y246674D01*
X346196Y246664D01*
X346234Y246644D01*
X346324Y246631D01*
X346372Y246618D01*
X346393Y246621D01*
X346419Y246617D01*
X388081Y246617D01*
X388122Y246624D01*
X388165Y246622D01*
X388232Y246644D01*
X388301Y246656D01*
X388338Y246678D01*
X388378Y246691D01*
X388451Y246745D01*
X388495Y246771D01*
X388508Y246787D01*
X388529Y246803D01*
X453113Y311387D01*
X453138Y311422D01*
X453169Y311450D01*
X453201Y311513D01*
X453242Y311571D01*
X453252Y311612D01*
X453272Y311650D01*
X453285Y311740D01*
X453298Y311788D01*
X453295Y311809D01*
X453299Y311835D01*
X453299Y313194D01*
X454137Y315216D01*
X455684Y316763D01*
X457706Y317601D01*
X459894Y317601D01*
X461916Y316763D01*
X463463Y315216D01*
X464301Y313194D01*
X464301Y311006D01*
X463463Y308984D01*
X461916Y307437D01*
X459894Y306599D01*
X458535Y306599D01*
X458494Y306592D01*
X458451Y306594D01*
X458384Y306572D01*
X458315Y306560D01*
X458278Y306538D01*
X458238Y306525D01*
X458165Y306471D01*
X458121Y306445D01*
X458108Y306429D01*
X458087Y306413D01*
X391257Y239583D01*
X343243Y239583D01*
X323129Y259697D01*
X323094Y259722D01*
X323066Y259753D01*
X323003Y259785D01*
X322945Y259826D01*
X322904Y259836D01*
X322866Y259856D01*
X322776Y259869D01*
X322728Y259882D01*
X322707Y259879D01*
X322681Y259883D01*
X322112Y259883D01*
X322020Y259867D01*
X321927Y259856D01*
X321910Y259847D01*
X321892Y259844D01*
X321811Y259796D01*
X321728Y259753D01*
X321715Y259739D01*
X321698Y259729D01*
X321639Y259657D01*
X321576Y259588D01*
X321569Y259570D01*
X321557Y259555D01*
X321527Y259467D01*
X321492Y259380D01*
X321491Y259361D01*
X321485Y259343D01*
X321488Y259249D01*
X321485Y259156D01*
X321491Y259138D01*
X321492Y259118D01*
X321527Y259032D01*
X321529Y259026D01*
X321536Y257632D01*
X321536Y257630D01*
X321536Y257627D01*
X321556Y256165D01*
X321544Y256116D01*
X321547Y256098D01*
X321543Y256074D01*
X321825Y199089D01*
X321846Y198976D01*
X321866Y198870D01*
X321866Y198869D01*
X321866Y198868D01*
X321924Y198772D01*
X321980Y198677D01*
X321981Y198676D01*
X321986Y198672D01*
X322123Y198555D01*
X325347Y196533D01*
X325425Y196502D01*
X325499Y196463D01*
X325532Y196459D01*
X325556Y196449D01*
X325605Y196448D01*
X325684Y196436D01*
X328599Y196436D01*
X330436Y194599D01*
X330436Y188506D01*
X330443Y188464D01*
X330441Y188422D01*
X330463Y188355D01*
X330475Y188285D01*
X330497Y188249D01*
X330510Y188208D01*
X330564Y188136D01*
X330590Y188092D01*
X330606Y188079D01*
X330622Y188058D01*
X330663Y188016D01*
X331501Y185994D01*
X331501Y183806D01*
X330663Y181784D01*
X330622Y181742D01*
X330597Y181707D01*
X330566Y181679D01*
X330534Y181616D01*
X330493Y181558D01*
X330483Y181517D01*
X330463Y181479D01*
X330450Y181390D01*
X330437Y181341D01*
X330440Y181320D01*
X330436Y181294D01*
X330436Y173001D01*
X328599Y171164D01*
X326522Y171164D01*
X326423Y171146D01*
X326324Y171132D01*
X326313Y171127D01*
X326301Y171125D01*
X326215Y171073D01*
X326126Y171025D01*
X326118Y171017D01*
X326108Y171010D01*
X326045Y170932D01*
X325979Y170857D01*
X325974Y170845D01*
X325967Y170836D01*
X325935Y170741D01*
X325899Y170647D01*
X325899Y170635D01*
X325895Y170624D01*
X325898Y170523D01*
X325897Y170423D01*
X325901Y170411D01*
X325902Y170399D01*
X325939Y170307D01*
X325974Y170212D01*
X325981Y170203D01*
X325986Y170192D01*
X326054Y170117D01*
X326119Y170041D01*
X326130Y170034D01*
X326137Y170026D01*
X326178Y170005D01*
X326280Y169944D01*
X326716Y169763D01*
X327451Y169028D01*
X327506Y168990D01*
X327553Y168945D01*
X327597Y168927D01*
X327636Y168900D01*
X327699Y168883D01*
X327760Y168858D01*
X327807Y168855D01*
X327853Y168844D01*
X327918Y168850D01*
X327984Y168848D01*
X328029Y168862D01*
X328076Y168867D01*
X328135Y168896D01*
X328198Y168916D01*
X328242Y168949D01*
X328277Y168966D01*
X328304Y168995D01*
X328348Y169028D01*
X329084Y169763D01*
X331106Y170601D01*
X333294Y170601D01*
X335316Y169763D01*
X336251Y168828D01*
X336306Y168790D01*
X336353Y168745D01*
X336397Y168727D01*
X336436Y168700D01*
X336499Y168683D01*
X336560Y168658D01*
X336607Y168655D01*
X336653Y168644D01*
X336718Y168650D01*
X336784Y168648D01*
X336829Y168662D01*
X336876Y168667D01*
X336935Y168696D01*
X336998Y168716D01*
X337042Y168749D01*
X337077Y168766D01*
X337104Y168795D01*
X337148Y168828D01*
X337984Y169663D01*
X340006Y170501D01*
X342194Y170501D01*
X344216Y169663D01*
X344901Y168978D01*
X344956Y168940D01*
X345003Y168895D01*
X345047Y168877D01*
X345086Y168850D01*
X345149Y168833D01*
X345210Y168808D01*
X345257Y168805D01*
X345303Y168794D01*
X345368Y168800D01*
X345434Y168798D01*
X345479Y168812D01*
X345526Y168817D01*
X345585Y168846D01*
X345648Y168866D01*
X345692Y168899D01*
X345727Y168916D01*
X345754Y168945D01*
X345798Y168978D01*
X346584Y169763D01*
X348606Y170601D01*
X350794Y170601D01*
X352816Y169763D01*
X353702Y168878D01*
X353731Y168857D01*
X353741Y168846D01*
X353759Y168837D01*
X353803Y168795D01*
X353847Y168777D01*
X353886Y168750D01*
X353949Y168733D01*
X354010Y168708D01*
X354057Y168705D01*
X354103Y168694D01*
X354168Y168700D01*
X354234Y168698D01*
X354279Y168712D01*
X354326Y168717D01*
X354385Y168746D01*
X354448Y168766D01*
X354492Y168799D01*
X354527Y168816D01*
X354554Y168845D01*
X354586Y168868D01*
X354588Y168870D01*
X354599Y168878D01*
X355284Y169563D01*
X357306Y170401D01*
X359494Y170401D01*
X361516Y169563D01*
X362302Y168778D01*
X362356Y168740D01*
X362403Y168695D01*
X362447Y168677D01*
X362486Y168650D01*
X362549Y168633D01*
X362610Y168608D01*
X362657Y168605D01*
X362703Y168594D01*
X362768Y168600D01*
X362834Y168598D01*
X362879Y168612D01*
X362926Y168617D01*
X362985Y168646D01*
X363048Y168666D01*
X363092Y168699D01*
X363127Y168716D01*
X363154Y168745D01*
X363199Y168778D01*
X364084Y169663D01*
X366106Y170501D01*
X368294Y170501D01*
X370316Y169663D01*
X371863Y168116D01*
X372701Y166094D01*
X372701Y163906D01*
X371863Y161884D01*
X370316Y160337D01*
X368294Y159499D01*
X366420Y159499D01*
X366377Y159492D01*
X366334Y159493D01*
X366268Y159472D01*
X366199Y159460D01*
X366162Y159437D01*
X366120Y159424D01*
X366049Y159371D01*
X366006Y159345D01*
X365992Y159329D01*
X365970Y159312D01*
X340960Y134133D01*
X340943Y134109D01*
X339865Y133030D01*
X339864Y133030D01*
X339863Y133029D01*
X338945Y132104D01*
X337648Y132104D01*
X337647Y132104D01*
X337646Y132104D01*
X336145Y132099D01*
X336131Y132103D01*
X336111Y132101D01*
X336086Y132104D01*
X318935Y132104D01*
X318870Y132093D01*
X318804Y132091D01*
X318761Y132073D01*
X318714Y132065D01*
X318657Y132031D01*
X318597Y132006D01*
X318562Y131975D01*
X318521Y131950D01*
X318479Y131899D01*
X318431Y131855D01*
X318409Y131813D01*
X318380Y131776D01*
X318359Y131714D01*
X318328Y131655D01*
X318320Y131601D01*
X318308Y131564D01*
X318309Y131524D01*
X318301Y131470D01*
X318301Y123514D01*
X316836Y122049D01*
X245451Y122049D01*
X245386Y122038D01*
X245320Y122036D01*
X245277Y122018D01*
X245230Y122010D01*
X245173Y121976D01*
X245113Y121951D01*
X245078Y121920D01*
X245037Y121895D01*
X244995Y121844D01*
X244947Y121800D01*
X244925Y121758D01*
X244896Y121721D01*
X244875Y121659D01*
X244844Y121600D01*
X244836Y121546D01*
X244824Y121509D01*
X244825Y121469D01*
X244817Y121415D01*
X244817Y107185D01*
X244828Y107120D01*
X244830Y107054D01*
X244848Y107011D01*
X244856Y106964D01*
X244890Y106907D01*
X244915Y106847D01*
X244946Y106812D01*
X244971Y106771D01*
X245022Y106729D01*
X245066Y106681D01*
X245108Y106659D01*
X245145Y106630D01*
X245207Y106609D01*
X245266Y106578D01*
X245320Y106570D01*
X245357Y106558D01*
X245397Y106559D01*
X245451Y106551D01*
X316836Y106551D01*
X318301Y105086D01*
X318301Y96414D01*
X316836Y94949D01*
X313170Y94949D01*
X313105Y94938D01*
X313039Y94936D01*
X312996Y94918D01*
X312949Y94910D01*
X312892Y94876D01*
X312832Y94851D01*
X312797Y94820D01*
X312756Y94795D01*
X312714Y94744D01*
X312666Y94700D01*
X312644Y94658D01*
X312615Y94621D01*
X312594Y94559D01*
X312563Y94500D01*
X312555Y94446D01*
X312543Y94409D01*
X312544Y94369D01*
X312536Y94315D01*
X312536Y76022D01*
X312543Y75980D01*
X312541Y75938D01*
X312563Y75871D01*
X312575Y75801D01*
X312597Y75765D01*
X312610Y75724D01*
X312664Y75652D01*
X312690Y75608D01*
X312706Y75595D01*
X312722Y75574D01*
X325274Y63022D01*
X325309Y62997D01*
X325337Y62966D01*
X325400Y62934D01*
X325458Y62893D01*
X325499Y62883D01*
X325537Y62863D01*
X325626Y62850D01*
X325675Y62837D01*
X325696Y62840D01*
X325722Y62836D01*
X392999Y62836D01*
X397862Y57972D01*
X397882Y57940D01*
X397898Y57926D01*
X397914Y57905D01*
X410357Y45462D01*
X410392Y45437D01*
X410421Y45406D01*
X410484Y45374D01*
X410542Y45333D01*
X410583Y45323D01*
X410620Y45303D01*
X410710Y45290D01*
X410759Y45277D01*
X410780Y45280D01*
X410806Y45276D01*
X419351Y45276D01*
X434005Y30622D01*
X434037Y30599D01*
X434055Y30579D01*
X434057Y30578D01*
X434069Y30566D01*
X434132Y30534D01*
X434189Y30493D01*
X434230Y30483D01*
X434268Y30463D01*
X434358Y30450D01*
X434407Y30437D01*
X434427Y30440D01*
X434454Y30436D01*
X461399Y30436D01*
X471648Y20187D01*
X471683Y20162D01*
X471712Y20131D01*
X471774Y20099D01*
X471832Y20058D01*
X471873Y20048D01*
X471911Y20028D01*
X472001Y20015D01*
X472050Y20002D01*
X472070Y20005D01*
X472097Y20001D01*
X473994Y20001D01*
X476016Y19163D01*
X477563Y17616D01*
X478401Y15594D01*
X478401Y13406D01*
X477563Y11384D01*
X476016Y9837D01*
X473994Y8999D01*
X471806Y8999D01*
X469784Y9837D01*
X468237Y11384D01*
X467865Y12281D01*
X467817Y12356D01*
X467775Y12434D01*
X467757Y12450D01*
X467744Y12470D01*
X467673Y12523D01*
X467606Y12582D01*
X467584Y12590D01*
X467565Y12605D01*
X467479Y12630D01*
X467396Y12662D01*
X467373Y12662D01*
X467350Y12668D01*
X467261Y12663D01*
X467172Y12663D01*
X467150Y12655D01*
X467126Y12654D01*
X467045Y12617D01*
X466961Y12587D01*
X466943Y12571D01*
X466921Y12562D01*
X466858Y12499D01*
X466790Y12442D01*
X466776Y12419D01*
X466761Y12404D01*
X466740Y12359D01*
X466693Y12281D01*
X466363Y11484D01*
X464816Y9937D01*
X462794Y9099D01*
X460606Y9099D01*
X458584Y9937D01*
X457037Y11484D01*
X456199Y13506D01*
X456199Y15603D01*
X456192Y15645D01*
X456194Y15688D01*
X456172Y15755D01*
X456160Y15824D01*
X456138Y15861D01*
X456125Y15901D01*
X456071Y15974D01*
X456045Y16017D01*
X456029Y16031D01*
X456013Y16052D01*
X452587Y19479D01*
X452552Y19503D01*
X452523Y19534D01*
X452461Y19566D01*
X452403Y19607D01*
X452362Y19617D01*
X452324Y19637D01*
X452234Y19650D01*
X452185Y19663D01*
X452165Y19660D01*
X452138Y19664D01*
X432501Y19664D01*
X430479Y21687D01*
X430478Y21687D01*
X415887Y36278D01*
X415852Y36303D01*
X415823Y36334D01*
X415761Y36366D01*
X415703Y36407D01*
X415662Y36417D01*
X415624Y36437D01*
X415534Y36450D01*
X415485Y36463D01*
X415465Y36460D01*
X415438Y36464D01*
X413702Y36464D01*
X413614Y36448D01*
X413525Y36439D01*
X413504Y36429D01*
X413481Y36425D01*
X413404Y36379D01*
X413324Y36340D01*
X413308Y36323D01*
X413287Y36310D01*
X413231Y36241D01*
X413170Y36177D01*
X413161Y36155D01*
X413146Y36136D01*
X413118Y36052D01*
X413083Y35970D01*
X413082Y35946D01*
X413074Y35924D01*
X413077Y35835D01*
X413073Y35746D01*
X413080Y35723D01*
X413081Y35699D01*
X413114Y35617D01*
X413142Y35532D01*
X413157Y35511D01*
X413165Y35492D01*
X413199Y35454D01*
X413253Y35382D01*
X419536Y29099D01*
X419536Y19506D01*
X419543Y19464D01*
X419541Y19422D01*
X419563Y19355D01*
X419575Y19285D01*
X419597Y19249D01*
X419610Y19208D01*
X419664Y19136D01*
X419690Y19092D01*
X419706Y19079D01*
X419722Y19058D01*
X421063Y17716D01*
X421901Y15694D01*
X421901Y13506D01*
X421063Y11484D01*
X419516Y9937D01*
X417494Y9099D01*
X415306Y9099D01*
X413284Y9937D01*
X411737Y11484D01*
X411327Y12472D01*
X411279Y12547D01*
X411237Y12625D01*
X411219Y12641D01*
X411206Y12661D01*
X411135Y12715D01*
X411068Y12773D01*
X411046Y12782D01*
X411027Y12796D01*
X410941Y12821D01*
X410858Y12853D01*
X410835Y12853D01*
X410812Y12860D01*
X410723Y12854D01*
X410634Y12855D01*
X410612Y12847D01*
X410588Y12845D01*
X410507Y12808D01*
X410423Y12778D01*
X410405Y12763D01*
X410383Y12753D01*
X410320Y12691D01*
X410252Y12633D01*
X410238Y12610D01*
X410223Y12596D01*
X410202Y12550D01*
X410155Y12472D01*
X409663Y11284D01*
X408116Y9737D01*
X406094Y8899D01*
X403906Y8899D01*
X401884Y9737D01*
X400337Y11284D01*
X399945Y12231D01*
X399897Y12306D01*
X399854Y12384D01*
X399836Y12400D01*
X399823Y12420D01*
X399752Y12473D01*
X399685Y12532D01*
X399663Y12540D01*
X399644Y12555D01*
X399559Y12580D01*
X399475Y12612D01*
X399452Y12612D01*
X399429Y12618D01*
X399340Y12613D01*
X399251Y12613D01*
X399229Y12605D01*
X399205Y12604D01*
X399124Y12567D01*
X399040Y12537D01*
X399022Y12521D01*
X399000Y12512D01*
X398937Y12449D01*
X398869Y12392D01*
X398856Y12369D01*
X398841Y12354D01*
X398819Y12308D01*
X398773Y12231D01*
X398463Y11484D01*
X396916Y9937D01*
X394894Y9099D01*
X392706Y9099D01*
X390684Y9937D01*
X389137Y11484D01*
X388776Y12355D01*
X388728Y12430D01*
X388686Y12508D01*
X388668Y12524D01*
X388655Y12544D01*
X388584Y12597D01*
X388517Y12656D01*
X388495Y12664D01*
X388476Y12678D01*
X388390Y12704D01*
X388307Y12735D01*
X388283Y12736D01*
X388261Y12742D01*
X388172Y12736D01*
X388083Y12737D01*
X388060Y12729D01*
X388037Y12727D01*
X387956Y12691D01*
X387872Y12661D01*
X387854Y12645D01*
X387832Y12635D01*
X387769Y12573D01*
X387701Y12515D01*
X387687Y12493D01*
X387672Y12478D01*
X387651Y12432D01*
X387604Y12355D01*
X387280Y11573D01*
X385727Y10020D01*
X383698Y9179D01*
X381502Y9179D01*
X379473Y10020D01*
X377920Y11573D01*
X377475Y12646D01*
X377427Y12721D01*
X377385Y12799D01*
X377367Y12815D01*
X377354Y12835D01*
X377283Y12888D01*
X377216Y12947D01*
X377194Y12956D01*
X377175Y12970D01*
X377089Y12995D01*
X377006Y13027D01*
X376982Y13027D01*
X376960Y13034D01*
X376871Y13028D01*
X376782Y13029D01*
X376759Y13020D01*
X376736Y13019D01*
X376655Y12982D01*
X376571Y12952D01*
X376553Y12937D01*
X376531Y12927D01*
X376468Y12864D01*
X376400Y12807D01*
X376386Y12784D01*
X376371Y12769D01*
X376350Y12724D01*
X376303Y12646D01*
X375863Y11584D01*
X374316Y10037D01*
X372294Y9199D01*
X370106Y9199D01*
X368084Y10037D01*
X366537Y11584D01*
X366207Y12381D01*
X366159Y12456D01*
X366116Y12534D01*
X366098Y12550D01*
X366086Y12570D01*
X366014Y12623D01*
X365947Y12682D01*
X365925Y12690D01*
X365906Y12705D01*
X365821Y12730D01*
X365738Y12762D01*
X365714Y12762D01*
X365691Y12768D01*
X365602Y12763D01*
X365513Y12763D01*
X365491Y12755D01*
X365467Y12754D01*
X365386Y12717D01*
X365302Y12687D01*
X365284Y12671D01*
X365263Y12662D01*
X365199Y12599D01*
X365131Y12542D01*
X365118Y12519D01*
X365103Y12504D01*
X365081Y12458D01*
X365035Y12381D01*
X364663Y11484D01*
X363116Y9937D01*
X361094Y9099D01*
X358906Y9099D01*
X356884Y9937D01*
X355337Y11484D01*
X354977Y12352D01*
X354929Y12426D01*
X354887Y12505D01*
X354869Y12520D01*
X354856Y12540D01*
X354785Y12594D01*
X354718Y12653D01*
X354696Y12661D01*
X354677Y12675D01*
X354591Y12701D01*
X354508Y12732D01*
X354485Y12732D01*
X354462Y12739D01*
X354373Y12733D01*
X354284Y12734D01*
X354262Y12726D01*
X354238Y12724D01*
X354157Y12688D01*
X354073Y12657D01*
X354055Y12642D01*
X354033Y12632D01*
X353970Y12570D01*
X353902Y12512D01*
X353888Y12490D01*
X353873Y12475D01*
X353852Y12429D01*
X353805Y12352D01*
X353363Y11284D01*
X351816Y9737D01*
X349794Y8899D01*
X347606Y8899D01*
X345584Y9737D01*
X344037Y11284D01*
X343545Y12472D01*
X343497Y12547D01*
X343454Y12626D01*
X343436Y12641D01*
X343423Y12661D01*
X343352Y12715D01*
X343285Y12773D01*
X343263Y12782D01*
X343244Y12796D01*
X343159Y12821D01*
X343075Y12853D01*
X343052Y12853D01*
X343029Y12860D01*
X342940Y12854D01*
X342851Y12855D01*
X342829Y12847D01*
X342805Y12845D01*
X342724Y12809D01*
X342640Y12778D01*
X342622Y12763D01*
X342600Y12753D01*
X342537Y12691D01*
X342469Y12633D01*
X342456Y12610D01*
X342441Y12596D01*
X342419Y12550D01*
X342373Y12472D01*
X341963Y11484D01*
X340416Y9937D01*
X338394Y9099D01*
X336206Y9099D01*
X334184Y9937D01*
X332637Y11484D01*
X332315Y12260D01*
X332267Y12335D01*
X332225Y12413D01*
X332207Y12429D01*
X332194Y12449D01*
X332123Y12502D01*
X332056Y12561D01*
X332034Y12570D01*
X332015Y12584D01*
X331929Y12609D01*
X331846Y12641D01*
X331822Y12641D01*
X331800Y12648D01*
X331711Y12642D01*
X331622Y12643D01*
X331599Y12634D01*
X331576Y12633D01*
X331495Y12596D01*
X331411Y12566D01*
X331393Y12551D01*
X331371Y12541D01*
X331308Y12478D01*
X331240Y12421D01*
X331226Y12398D01*
X331211Y12383D01*
X331190Y12338D01*
X331143Y12260D01*
X330863Y11584D01*
X329316Y10037D01*
X327294Y9199D01*
X325106Y9199D01*
X323084Y10037D01*
X321537Y11584D01*
X321127Y12572D01*
X321079Y12647D01*
X321037Y12726D01*
X321019Y12741D01*
X321006Y12761D01*
X320935Y12815D01*
X320868Y12873D01*
X320846Y12882D01*
X320827Y12896D01*
X320741Y12921D01*
X320658Y12953D01*
X320635Y12953D01*
X320612Y12960D01*
X320523Y12954D01*
X320434Y12955D01*
X320412Y12947D01*
X320388Y12945D01*
X320307Y12909D01*
X320223Y12878D01*
X320205Y12863D01*
X320183Y12853D01*
X320120Y12791D01*
X320052Y12733D01*
X320038Y12710D01*
X320023Y12696D01*
X320002Y12650D01*
X319955Y12572D01*
X319463Y11384D01*
X317916Y9837D01*
X315894Y8999D01*
X313706Y8999D01*
X311684Y9837D01*
X310137Y11384D01*
X309299Y13406D01*
X309299Y15594D01*
X310137Y17616D01*
X311478Y18958D01*
X311503Y18993D01*
X311534Y19021D01*
X311566Y19084D01*
X311607Y19142D01*
X311617Y19183D01*
X311637Y19221D01*
X311650Y19310D01*
X311663Y19359D01*
X311660Y19380D01*
X311664Y19406D01*
X311664Y26038D01*
X311657Y26080D01*
X311659Y26123D01*
X311637Y26190D01*
X311625Y26259D01*
X311603Y26296D01*
X311590Y26336D01*
X311536Y26409D01*
X311510Y26452D01*
X311494Y26466D01*
X311478Y26487D01*
X265618Y72347D01*
X265545Y72398D01*
X265476Y72454D01*
X265454Y72461D01*
X265434Y72475D01*
X265348Y72497D01*
X265264Y72526D01*
X265240Y72525D01*
X265217Y72531D01*
X265128Y72522D01*
X265039Y72519D01*
X265017Y72510D01*
X264994Y72508D01*
X264914Y72468D01*
X264832Y72435D01*
X264814Y72419D01*
X264793Y72408D01*
X264732Y72344D01*
X264666Y72283D01*
X264655Y72262D01*
X264639Y72245D01*
X264604Y72163D01*
X264563Y72084D01*
X264560Y72058D01*
X264551Y72038D01*
X264549Y71988D01*
X264536Y71898D01*
X264536Y38462D01*
X264543Y38420D01*
X264541Y38377D01*
X264563Y38310D01*
X264575Y38241D01*
X264597Y38204D01*
X264610Y38164D01*
X264664Y38091D01*
X264690Y38048D01*
X264706Y38034D01*
X264722Y38013D01*
X280736Y21999D01*
X280736Y19006D01*
X280743Y18964D01*
X280741Y18922D01*
X280763Y18855D01*
X280775Y18785D01*
X280797Y18749D01*
X280810Y18708D01*
X280864Y18636D01*
X280890Y18592D01*
X280906Y18579D01*
X280922Y18558D01*
X282163Y17316D01*
X283001Y15294D01*
X283001Y13106D01*
X282163Y11084D01*
X280616Y9537D01*
X278594Y8699D01*
X276406Y8699D01*
X274384Y9537D01*
X272837Y11084D01*
X272457Y12002D01*
X272409Y12076D01*
X272366Y12155D01*
X272348Y12170D01*
X272336Y12190D01*
X272264Y12244D01*
X272197Y12303D01*
X272175Y12311D01*
X272156Y12325D01*
X272071Y12351D01*
X271988Y12382D01*
X271964Y12382D01*
X271941Y12389D01*
X271852Y12383D01*
X271763Y12384D01*
X271741Y12376D01*
X271717Y12374D01*
X271636Y12338D01*
X271552Y12307D01*
X271534Y12292D01*
X271513Y12282D01*
X271449Y12220D01*
X271381Y12162D01*
X271368Y12140D01*
X271353Y12125D01*
X271331Y12079D01*
X271285Y12002D01*
X270863Y10984D01*
X269316Y9437D01*
X267294Y8599D01*
X265106Y8599D01*
X263084Y9437D01*
X261537Y10984D01*
X261015Y12243D01*
X260967Y12318D01*
X260925Y12396D01*
X260907Y12412D01*
X260894Y12432D01*
X260823Y12485D01*
X260756Y12544D01*
X260734Y12552D01*
X260715Y12567D01*
X260629Y12592D01*
X260546Y12624D01*
X260523Y12624D01*
X260500Y12631D01*
X260411Y12625D01*
X260322Y12625D01*
X260300Y12617D01*
X260276Y12616D01*
X260195Y12579D01*
X260111Y12549D01*
X260093Y12533D01*
X260071Y12524D01*
X260008Y12461D01*
X259940Y12404D01*
X259926Y12381D01*
X259911Y12366D01*
X259890Y12321D01*
X259843Y12243D01*
X259363Y11084D01*
X257816Y9537D01*
X255794Y8699D01*
X253606Y8699D01*
X251584Y9537D01*
X250037Y11084D01*
X249686Y11931D01*
X249638Y12006D01*
X249595Y12084D01*
X249578Y12100D01*
X249565Y12120D01*
X249494Y12173D01*
X249427Y12232D01*
X249404Y12240D01*
X249385Y12255D01*
X249300Y12280D01*
X249217Y12312D01*
X249193Y12312D01*
X249170Y12318D01*
X249081Y12313D01*
X248993Y12313D01*
X248970Y12305D01*
X248947Y12304D01*
X248865Y12267D01*
X248782Y12237D01*
X248763Y12221D01*
X248742Y12212D01*
X248678Y12149D01*
X248611Y12092D01*
X248597Y12069D01*
X248582Y12054D01*
X248561Y12008D01*
X248514Y11931D01*
X248163Y11084D01*
X246616Y9537D01*
X244594Y8699D01*
X242406Y8699D01*
X240384Y9537D01*
X238837Y11084D01*
X237999Y13106D01*
X237999Y15294D01*
X238837Y17316D01*
X240178Y18658D01*
X240203Y18693D01*
X240234Y18721D01*
X240266Y18784D01*
X240307Y18842D01*
X240317Y18883D01*
X240337Y18921D01*
X240350Y19010D01*
X240363Y19059D01*
X240360Y19080D01*
X240364Y19106D01*
X240364Y27749D01*
X240349Y27834D01*
X240341Y27920D01*
X240329Y27944D01*
X240325Y27970D01*
X240280Y28044D01*
X240243Y28122D01*
X240224Y28140D01*
X240210Y28163D01*
X240143Y28217D01*
X240081Y28277D01*
X240057Y28288D01*
X240036Y28304D01*
X239954Y28332D01*
X239875Y28366D01*
X239849Y28368D01*
X239824Y28376D01*
X239737Y28374D01*
X239651Y28378D01*
X239626Y28370D01*
X239599Y28370D01*
X239519Y28337D01*
X239436Y28311D01*
X239413Y28294D01*
X239392Y28285D01*
X239355Y28252D01*
X239285Y28201D01*
X226290Y15403D01*
X226264Y15366D01*
X226231Y15336D01*
X226200Y15275D01*
X226160Y15219D01*
X226149Y15176D01*
X226128Y15136D01*
X226116Y15051D01*
X226103Y15003D01*
X226105Y14980D01*
X226101Y14951D01*
X226101Y13106D01*
X225263Y11084D01*
X223716Y9537D01*
X221694Y8699D01*
X219506Y8699D01*
X217484Y9537D01*
X215937Y11084D01*
X215099Y13106D01*
X215099Y15294D01*
X215937Y17316D01*
X217484Y18863D01*
X219506Y19701D01*
X221457Y19701D01*
X221496Y19708D01*
X221536Y19706D01*
X221606Y19728D01*
X221677Y19740D01*
X221712Y19761D01*
X221750Y19773D01*
X221827Y19829D01*
X221871Y19855D01*
X221883Y19869D01*
X221902Y19883D01*
X237075Y34827D01*
X237101Y34863D01*
X237134Y34893D01*
X237165Y34954D01*
X237205Y35010D01*
X237216Y35053D01*
X237237Y35093D01*
X237249Y35178D01*
X237262Y35227D01*
X237260Y35249D01*
X237264Y35278D01*
X237264Y46760D01*
X237248Y46847D01*
X237239Y46936D01*
X237229Y46957D01*
X237225Y46981D01*
X237179Y47057D01*
X237140Y47137D01*
X237123Y47153D01*
X237110Y47174D01*
X237041Y47230D01*
X236977Y47291D01*
X236955Y47300D01*
X236936Y47315D01*
X236852Y47344D01*
X236770Y47378D01*
X236746Y47379D01*
X236724Y47387D01*
X236635Y47384D01*
X236546Y47388D01*
X236523Y47381D01*
X236499Y47380D01*
X236417Y47347D01*
X236332Y47320D01*
X236311Y47304D01*
X236292Y47296D01*
X236254Y47262D01*
X236182Y47208D01*
X208757Y19783D01*
X193677Y19783D01*
X193640Y19777D01*
X193604Y19779D01*
X193531Y19757D01*
X193524Y19756D01*
X191974Y19783D01*
X191969Y19782D01*
X191963Y19783D01*
X190507Y19783D01*
X189495Y20832D01*
X189490Y20835D01*
X189487Y20840D01*
X188457Y21869D01*
X188483Y23325D01*
X188482Y23330D01*
X188483Y23337D01*
X188483Y24858D01*
X188499Y24954D01*
X188512Y25002D01*
X188510Y25018D01*
X188513Y25038D01*
X188783Y40326D01*
X188782Y40331D01*
X188783Y40337D01*
X188783Y41793D01*
X189832Y42805D01*
X189835Y42810D01*
X189840Y42813D01*
X196908Y49882D01*
X196959Y49955D01*
X197015Y50024D01*
X197023Y50046D01*
X197036Y50066D01*
X197058Y50152D01*
X197087Y50236D01*
X197086Y50260D01*
X197092Y50283D01*
X197083Y50372D01*
X197080Y50461D01*
X197071Y50483D01*
X197069Y50506D01*
X197029Y50586D01*
X196996Y50668D01*
X196980Y50686D01*
X196970Y50707D01*
X196905Y50768D01*
X196845Y50834D01*
X196823Y50845D01*
X196806Y50861D01*
X196724Y50896D01*
X196645Y50937D01*
X196619Y50940D01*
X196600Y50949D01*
X196549Y50951D01*
X196460Y50964D01*
X154562Y50964D01*
X154520Y50957D01*
X154477Y50959D01*
X154410Y50937D01*
X154341Y50925D01*
X154304Y50903D01*
X154264Y50890D01*
X154191Y50836D01*
X154148Y50810D01*
X154134Y50794D01*
X154113Y50778D01*
X133622Y30287D01*
X133597Y30252D01*
X133566Y30223D01*
X133534Y30161D01*
X133493Y30103D01*
X133483Y30062D01*
X133463Y30024D01*
X133450Y29934D01*
X133446Y29918D01*
X133443Y29909D01*
X133443Y29906D01*
X133437Y29885D01*
X133440Y29865D01*
X133436Y29838D01*
X133436Y19206D01*
X133443Y19164D01*
X133441Y19122D01*
X133463Y19055D01*
X133475Y18985D01*
X133497Y18949D01*
X133510Y18908D01*
X133564Y18836D01*
X133590Y18792D01*
X133606Y18779D01*
X133622Y18758D01*
X134963Y17416D01*
X135801Y15394D01*
X135801Y13206D01*
X134963Y11184D01*
X133416Y9637D01*
X131394Y8799D01*
X129206Y8799D01*
X127184Y9637D01*
X125637Y11184D01*
X125307Y11981D01*
X125259Y12056D01*
X125216Y12134D01*
X125198Y12150D01*
X125186Y12170D01*
X125114Y12223D01*
X125047Y12282D01*
X125025Y12290D01*
X125006Y12305D01*
X124921Y12330D01*
X124838Y12362D01*
X124814Y12362D01*
X124791Y12368D01*
X124702Y12363D01*
X124613Y12363D01*
X124591Y12355D01*
X124567Y12354D01*
X124486Y12317D01*
X124402Y12287D01*
X124384Y12271D01*
X124363Y12262D01*
X124299Y12199D01*
X124231Y12142D01*
X124218Y12119D01*
X124203Y12104D01*
X124181Y12058D01*
X124135Y11981D01*
X123763Y11084D01*
X122216Y9537D01*
X120194Y8699D01*
X118006Y8699D01*
X115984Y9537D01*
X114437Y11084D01*
X114165Y11739D01*
X114117Y11814D01*
X114075Y11893D01*
X114057Y11908D01*
X114044Y11928D01*
X113973Y11982D01*
X113906Y12040D01*
X113884Y12049D01*
X113865Y12063D01*
X113779Y12088D01*
X113696Y12120D01*
X113672Y12120D01*
X113650Y12127D01*
X113561Y12121D01*
X113472Y12122D01*
X113449Y12114D01*
X113426Y12112D01*
X113345Y12076D01*
X113261Y12045D01*
X113243Y12030D01*
X113221Y12020D01*
X113158Y11958D01*
X113090Y11900D01*
X113076Y11877D01*
X113061Y11863D01*
X113040Y11817D01*
X112993Y11739D01*
X112763Y11184D01*
X111216Y9637D01*
X109194Y8799D01*
X107006Y8799D01*
X104984Y9637D01*
X103437Y11184D01*
X102907Y12464D01*
X102859Y12539D01*
X102816Y12617D01*
X102798Y12633D01*
X102786Y12653D01*
X102714Y12706D01*
X102647Y12765D01*
X102625Y12773D01*
X102606Y12787D01*
X102521Y12813D01*
X102438Y12844D01*
X102414Y12845D01*
X102391Y12851D01*
X102302Y12845D01*
X102213Y12846D01*
X102191Y12838D01*
X102167Y12836D01*
X102086Y12800D01*
X102002Y12770D01*
X101984Y12754D01*
X101963Y12744D01*
X101899Y12682D01*
X101831Y12624D01*
X101818Y12602D01*
X101803Y12587D01*
X101781Y12541D01*
X101735Y12464D01*
X101163Y11084D01*
X99616Y9537D01*
X97594Y8699D01*
X95406Y8699D01*
X93384Y9537D01*
X91837Y11084D01*
X91386Y12172D01*
X91338Y12247D01*
X91295Y12325D01*
X91278Y12341D01*
X91265Y12361D01*
X91194Y12415D01*
X91127Y12473D01*
X91104Y12482D01*
X91085Y12496D01*
X91000Y12521D01*
X90917Y12553D01*
X90893Y12553D01*
X90870Y12560D01*
X90781Y12554D01*
X90693Y12555D01*
X90670Y12547D01*
X90647Y12545D01*
X90565Y12509D01*
X90482Y12478D01*
X90463Y12463D01*
X90442Y12453D01*
X90378Y12391D01*
X90311Y12333D01*
X90297Y12310D01*
X90282Y12296D01*
X90261Y12250D01*
X90214Y12172D01*
X89763Y11084D01*
X88216Y9537D01*
X86194Y8699D01*
X84006Y8699D01*
X81984Y9537D01*
X80437Y11084D01*
X79599Y13106D01*
X79599Y15294D01*
X80437Y17316D01*
X81778Y18658D01*
X81803Y18693D01*
X81834Y18721D01*
X81866Y18784D01*
X81907Y18842D01*
X81917Y18883D01*
X81937Y18921D01*
X81950Y19010D01*
X81963Y19059D01*
X81960Y19080D01*
X81964Y19106D01*
X81964Y30299D01*
X114307Y62642D01*
X114358Y62715D01*
X114414Y62784D01*
X114421Y62806D01*
X114435Y62826D01*
X114457Y62912D01*
X114486Y62996D01*
X114485Y63020D01*
X114491Y63043D01*
X114482Y63132D01*
X114479Y63221D01*
X114470Y63243D01*
X114468Y63266D01*
X114428Y63346D01*
X114395Y63428D01*
X114379Y63446D01*
X114368Y63467D01*
X114304Y63528D01*
X114243Y63594D01*
X114222Y63605D01*
X114205Y63621D01*
X114123Y63656D01*
X114044Y63697D01*
X114018Y63700D01*
X113998Y63709D01*
X113948Y63711D01*
X113858Y63724D01*
X84659Y63724D01*
X84617Y63717D01*
X84574Y63719D01*
X84507Y63697D01*
X84438Y63685D01*
X84401Y63663D01*
X84361Y63650D01*
X84288Y63596D01*
X84245Y63570D01*
X84231Y63554D01*
X84210Y63538D01*
X54622Y33950D01*
X54597Y33915D01*
X54566Y33886D01*
X54534Y33824D01*
X54493Y33766D01*
X54483Y33725D01*
X54463Y33687D01*
X54450Y33597D01*
X54437Y33548D01*
X54440Y33528D01*
X54436Y33501D01*
X54436Y19106D01*
X54443Y19064D01*
X54441Y19022D01*
X54463Y18955D01*
X54475Y18885D01*
X54497Y18849D01*
X54510Y18808D01*
X54564Y18736D01*
X54590Y18692D01*
X54606Y18679D01*
X54622Y18658D01*
X55963Y17316D01*
X56801Y15294D01*
X56801Y13106D01*
X55963Y11084D01*
X54416Y9537D01*
X52394Y8699D01*
X50206Y8699D01*
X48184Y9537D01*
X46637Y11084D01*
X46265Y11981D01*
X46217Y12056D01*
X46175Y12134D01*
X46157Y12150D01*
X46144Y12170D01*
X46073Y12223D01*
X46006Y12282D01*
X45984Y12290D01*
X45965Y12305D01*
X45879Y12330D01*
X45796Y12362D01*
X45773Y12362D01*
X45750Y12368D01*
X45661Y12363D01*
X45572Y12363D01*
X45550Y12355D01*
X45526Y12354D01*
X45445Y12317D01*
X45361Y12287D01*
X45343Y12271D01*
X45321Y12262D01*
X45258Y12199D01*
X45190Y12142D01*
X45176Y12119D01*
X45161Y12104D01*
X45140Y12059D01*
X45093Y11981D01*
X44763Y11184D01*
X43216Y9637D01*
X41194Y8799D01*
X39006Y8799D01*
X36984Y9637D01*
X35437Y11184D01*
X34957Y12343D01*
X34928Y12387D01*
X34925Y12394D01*
X34920Y12401D01*
X34909Y12418D01*
X34866Y12496D01*
X34848Y12512D01*
X34836Y12532D01*
X34764Y12585D01*
X34697Y12644D01*
X34675Y12652D01*
X34656Y12667D01*
X34571Y12692D01*
X34488Y12724D01*
X34464Y12724D01*
X34441Y12731D01*
X34352Y12725D01*
X34263Y12725D01*
X34241Y12717D01*
X34217Y12716D01*
X34136Y12679D01*
X34052Y12649D01*
X34034Y12633D01*
X34013Y12624D01*
X33949Y12561D01*
X33881Y12504D01*
X33868Y12481D01*
X33853Y12466D01*
X33831Y12421D01*
X33785Y12343D01*
X33263Y11084D01*
X31716Y9537D01*
X29694Y8699D01*
X27506Y8699D01*
X25484Y9537D01*
X23937Y11084D01*
X23557Y12002D01*
X23509Y12076D01*
X23466Y12155D01*
X23448Y12170D01*
X23436Y12190D01*
X23364Y12244D01*
X23297Y12303D01*
X23275Y12311D01*
X23256Y12325D01*
X23171Y12351D01*
X23088Y12382D01*
X23064Y12382D01*
X23041Y12389D01*
X22952Y12383D01*
X22863Y12384D01*
X22841Y12376D01*
X22817Y12374D01*
X22736Y12338D01*
X22652Y12307D01*
X22634Y12292D01*
X22613Y12282D01*
X22549Y12220D01*
X22481Y12162D01*
X22468Y12140D01*
X22453Y12125D01*
X22431Y12079D01*
X22385Y12002D01*
X21963Y10984D01*
X20416Y9437D01*
X18394Y8599D01*
X16206Y8599D01*
G37*
%LPD*%
G36*
X163730Y97947D02*
X163730Y97947D01*
X163796Y97949D01*
X163839Y97967D01*
X163886Y97975D01*
X163943Y98009D01*
X164003Y98034D01*
X164038Y98065D01*
X164079Y98090D01*
X164121Y98141D01*
X164169Y98185D01*
X164191Y98227D01*
X164220Y98264D01*
X164241Y98326D01*
X164272Y98385D01*
X164280Y98439D01*
X164292Y98476D01*
X164291Y98516D01*
X164299Y98570D01*
X164299Y105086D01*
X165764Y106551D01*
X237149Y106551D01*
X237214Y106562D01*
X237280Y106564D01*
X237323Y106582D01*
X237370Y106590D01*
X237427Y106624D01*
X237487Y106649D01*
X237522Y106680D01*
X237563Y106705D01*
X237605Y106756D01*
X237653Y106800D01*
X237675Y106842D01*
X237704Y106879D01*
X237725Y106941D01*
X237756Y107000D01*
X237764Y107054D01*
X237776Y107091D01*
X237776Y107099D01*
X237776Y107100D01*
X237775Y107132D01*
X237783Y107185D01*
X237783Y121415D01*
X237772Y121480D01*
X237770Y121546D01*
X237752Y121589D01*
X237744Y121636D01*
X237710Y121693D01*
X237685Y121753D01*
X237654Y121788D01*
X237629Y121829D01*
X237578Y121871D01*
X237534Y121919D01*
X237492Y121941D01*
X237455Y121970D01*
X237393Y121991D01*
X237334Y122022D01*
X237280Y122030D01*
X237243Y122042D01*
X237203Y122041D01*
X237149Y122049D01*
X165764Y122049D01*
X164299Y123514D01*
X164299Y131930D01*
X164288Y131995D01*
X164286Y132061D01*
X164268Y132104D01*
X164260Y132151D01*
X164226Y132208D01*
X164201Y132268D01*
X164170Y132303D01*
X164145Y132344D01*
X164094Y132386D01*
X164050Y132434D01*
X164008Y132456D01*
X163971Y132485D01*
X163909Y132506D01*
X163850Y132537D01*
X163796Y132545D01*
X163759Y132557D01*
X163719Y132556D01*
X163665Y132564D01*
X114201Y132564D01*
X98787Y147978D01*
X98752Y148003D01*
X98723Y148034D01*
X98661Y148066D01*
X98603Y148107D01*
X98562Y148117D01*
X98524Y148137D01*
X98434Y148150D01*
X98385Y148163D01*
X98365Y148160D01*
X98338Y148164D01*
X36348Y148164D01*
X36272Y148151D01*
X36195Y148145D01*
X36162Y148131D01*
X36127Y148125D01*
X36061Y148085D01*
X35990Y148053D01*
X35965Y148029D01*
X35934Y148010D01*
X35885Y147950D01*
X35830Y147896D01*
X35815Y147864D01*
X35793Y147836D01*
X35768Y147763D01*
X35735Y147693D01*
X35732Y147657D01*
X35721Y147624D01*
X35723Y147546D01*
X35717Y147469D01*
X35727Y147430D01*
X35727Y147399D01*
X35745Y147356D01*
X35762Y147287D01*
X35801Y147194D01*
X35801Y145297D01*
X35808Y145255D01*
X35806Y145212D01*
X35828Y145145D01*
X35840Y145076D01*
X35862Y145039D01*
X35875Y144999D01*
X35929Y144926D01*
X35955Y144883D01*
X35971Y144869D01*
X35987Y144848D01*
X41236Y139599D01*
X41236Y134262D01*
X41243Y134220D01*
X41241Y134177D01*
X41263Y134110D01*
X41275Y134041D01*
X41297Y134004D01*
X41310Y133964D01*
X41364Y133891D01*
X41390Y133848D01*
X41406Y133834D01*
X41422Y133813D01*
X43352Y131882D01*
X43387Y131858D01*
X43416Y131827D01*
X43456Y131806D01*
X46984Y128278D01*
X47005Y128250D01*
X47030Y128207D01*
X47047Y128193D01*
X47062Y128172D01*
X77113Y98122D01*
X77148Y98097D01*
X77177Y98066D01*
X77240Y98034D01*
X77297Y97993D01*
X77338Y97983D01*
X77376Y97963D01*
X77466Y97950D01*
X77515Y97937D01*
X77535Y97940D01*
X77562Y97936D01*
X163665Y97936D01*
X163730Y97947D01*
G37*
G36*
X327365Y173677D02*
X327365Y173677D01*
X327431Y173679D01*
X327474Y173697D01*
X327521Y173705D01*
X327578Y173739D01*
X327638Y173764D01*
X327673Y173795D01*
X327714Y173820D01*
X327756Y173871D01*
X327804Y173915D01*
X327826Y173957D01*
X327855Y173994D01*
X327876Y174056D01*
X327907Y174115D01*
X327915Y174169D01*
X327927Y174206D01*
X327926Y174246D01*
X327934Y174300D01*
X327934Y193300D01*
X327923Y193365D01*
X327921Y193431D01*
X327903Y193474D01*
X327895Y193521D01*
X327861Y193578D01*
X327836Y193638D01*
X327805Y193673D01*
X327780Y193714D01*
X327729Y193756D01*
X327685Y193804D01*
X327643Y193826D01*
X327606Y193855D01*
X327544Y193876D01*
X327485Y193907D01*
X327431Y193915D01*
X327394Y193927D01*
X327354Y193926D01*
X327300Y193934D01*
X324782Y193934D01*
X319333Y197352D01*
X319034Y257603D01*
X319022Y257671D01*
X319019Y257739D01*
X319002Y257780D01*
X318993Y257824D01*
X318958Y257883D01*
X318932Y257946D01*
X318901Y257978D01*
X318878Y258016D01*
X318825Y258059D01*
X318778Y258109D01*
X318738Y258129D01*
X318704Y258157D01*
X318638Y258179D01*
X318577Y258209D01*
X318526Y258216D01*
X318491Y258228D01*
X318449Y258226D01*
X318391Y258234D01*
X297291Y257934D01*
X297231Y257922D01*
X297169Y257921D01*
X297122Y257901D01*
X297071Y257891D01*
X297018Y257859D01*
X296962Y257836D01*
X296923Y257801D01*
X296879Y257775D01*
X296841Y257726D01*
X296796Y257685D01*
X296772Y257639D01*
X296740Y257598D01*
X296721Y257540D01*
X296693Y257485D01*
X296684Y257425D01*
X296671Y257385D01*
X296673Y257349D01*
X296666Y257300D01*
X296666Y174300D01*
X296677Y174235D01*
X296679Y174169D01*
X296697Y174126D01*
X296705Y174079D01*
X296739Y174022D01*
X296764Y173962D01*
X296795Y173927D01*
X296820Y173886D01*
X296871Y173845D01*
X296915Y173796D01*
X296957Y173774D01*
X296994Y173745D01*
X297056Y173724D01*
X297115Y173693D01*
X297169Y173685D01*
X297206Y173673D01*
X297246Y173674D01*
X297300Y173666D01*
X327300Y173666D01*
X327365Y173677D01*
G37*
G36*
X207387Y22297D02*
X207387Y22297D01*
X207474Y22300D01*
X207527Y22317D01*
X207582Y22325D01*
X207661Y22360D01*
X207745Y22387D01*
X207784Y22415D01*
X207841Y22441D01*
X207954Y22537D01*
X208018Y22582D01*
X237018Y51582D01*
X237070Y51652D01*
X237130Y51716D01*
X237156Y51765D01*
X237189Y51809D01*
X237220Y51891D01*
X237260Y51969D01*
X237268Y52017D01*
X237290Y52075D01*
X237302Y52223D01*
X237315Y52300D01*
X237315Y71880D01*
X242018Y76582D01*
X242070Y76652D01*
X242130Y76716D01*
X242156Y76765D01*
X242189Y76809D01*
X242220Y76891D01*
X242260Y76969D01*
X242268Y77017D01*
X242290Y77075D01*
X242302Y77223D01*
X242315Y77300D01*
X242315Y89300D01*
X242311Y89329D01*
X242314Y89358D01*
X242308Y89386D01*
X242309Y89408D01*
X242290Y89479D01*
X242275Y89582D01*
X242263Y89608D01*
X242258Y89637D01*
X242240Y89672D01*
X242237Y89683D01*
X242215Y89720D01*
X242206Y89738D01*
X242159Y89841D01*
X242140Y89863D01*
X242127Y89889D01*
X242093Y89925D01*
X242092Y89927D01*
X242085Y89933D01*
X242049Y89971D01*
X241976Y90058D01*
X241951Y90074D01*
X241931Y90095D01*
X241833Y90153D01*
X241739Y90216D01*
X241711Y90224D01*
X241686Y90239D01*
X241576Y90267D01*
X241468Y90301D01*
X241438Y90302D01*
X241410Y90309D01*
X241304Y90306D01*
X241300Y90307D01*
X241291Y90307D01*
X241287Y90306D01*
X241184Y90309D01*
X241155Y90301D01*
X241126Y90300D01*
X241032Y90270D01*
X241010Y90267D01*
X240991Y90258D01*
X240909Y90237D01*
X240883Y90222D01*
X240855Y90213D01*
X240798Y90172D01*
X240750Y90150D01*
X240720Y90125D01*
X240664Y90092D01*
X240621Y90046D01*
X240582Y90018D01*
X191582Y41018D01*
X191535Y40955D01*
X191480Y40899D01*
X191450Y40842D01*
X191411Y40791D01*
X191383Y40717D01*
X191346Y40648D01*
X191336Y40594D01*
X191310Y40525D01*
X191299Y40395D01*
X191285Y40318D01*
X190985Y23318D01*
X190993Y23251D01*
X190991Y23184D01*
X191011Y23111D01*
X191020Y23036D01*
X191046Y22974D01*
X191063Y22909D01*
X191102Y22844D01*
X191131Y22774D01*
X191174Y22722D01*
X191209Y22664D01*
X191264Y22613D01*
X191311Y22554D01*
X191367Y22516D01*
X191416Y22470D01*
X191483Y22435D01*
X191545Y22392D01*
X191609Y22371D01*
X191669Y22340D01*
X191731Y22330D01*
X191815Y22302D01*
X191927Y22297D01*
X192000Y22285D01*
X207300Y22285D01*
X207387Y22297D01*
G37*
%LPC*%
G36*
X437306Y300999D02*
X437306Y300999D01*
X435284Y301837D01*
X433737Y303384D01*
X432899Y305406D01*
X432899Y307594D01*
X433033Y307916D01*
X433047Y307980D01*
X433070Y308042D01*
X433070Y308089D01*
X433080Y308135D01*
X433071Y308200D01*
X433072Y308266D01*
X433056Y308311D01*
X433049Y308357D01*
X433018Y308415D01*
X432995Y308477D01*
X432965Y308513D01*
X432942Y308555D01*
X432893Y308598D01*
X432850Y308648D01*
X432803Y308676D01*
X432773Y308702D01*
X432736Y308716D01*
X432689Y308745D01*
X431984Y309037D01*
X430437Y310584D01*
X429599Y312606D01*
X429599Y314794D01*
X430437Y316816D01*
X431984Y318363D01*
X434006Y319201D01*
X436194Y319201D01*
X438216Y318363D01*
X438924Y317655D01*
X438978Y317618D01*
X439026Y317573D01*
X439069Y317554D01*
X439108Y317527D01*
X439172Y317511D01*
X439232Y317485D01*
X439280Y317483D01*
X439325Y317471D01*
X439391Y317478D01*
X439456Y317475D01*
X439501Y317490D01*
X439548Y317495D01*
X439607Y317524D01*
X439670Y317544D01*
X439714Y317577D01*
X439750Y317594D01*
X439777Y317623D01*
X439821Y317655D01*
X446878Y324713D01*
X446903Y324748D01*
X446934Y324777D01*
X446966Y324839D01*
X447007Y324897D01*
X447017Y324938D01*
X447037Y324976D01*
X447050Y325066D01*
X447063Y325115D01*
X447060Y325135D01*
X447064Y325162D01*
X447064Y328994D01*
X447057Y329036D01*
X447059Y329078D01*
X447037Y329145D01*
X447025Y329215D01*
X447003Y329251D01*
X446990Y329292D01*
X446936Y329364D01*
X446910Y329408D01*
X446894Y329421D01*
X446878Y329442D01*
X445537Y330784D01*
X444699Y332806D01*
X444699Y334994D01*
X445537Y337016D01*
X447084Y338563D01*
X449106Y339401D01*
X451294Y339401D01*
X453316Y338563D01*
X454863Y337016D01*
X455135Y336361D01*
X455183Y336286D01*
X455225Y336207D01*
X455243Y336192D01*
X455256Y336172D01*
X455327Y336118D01*
X455394Y336060D01*
X455416Y336051D01*
X455435Y336037D01*
X455521Y336012D01*
X455604Y335980D01*
X455628Y335980D01*
X455650Y335973D01*
X455739Y335979D01*
X455828Y335978D01*
X455851Y335986D01*
X455874Y335988D01*
X455955Y336024D01*
X456039Y336055D01*
X456057Y336070D01*
X456079Y336080D01*
X456142Y336142D01*
X456210Y336200D01*
X456224Y336223D01*
X456239Y336237D01*
X456260Y336283D01*
X456307Y336361D01*
X456537Y336916D01*
X458084Y338463D01*
X460106Y339301D01*
X462294Y339301D01*
X464316Y338463D01*
X465863Y336916D01*
X466701Y334894D01*
X466701Y332706D01*
X465863Y330684D01*
X464316Y329137D01*
X462294Y328299D01*
X460770Y328299D01*
X460705Y328288D01*
X460639Y328286D01*
X460596Y328268D01*
X460549Y328260D01*
X460492Y328226D01*
X460432Y328201D01*
X460397Y328170D01*
X460356Y328145D01*
X460314Y328094D01*
X460266Y328050D01*
X460244Y328008D01*
X460215Y327971D01*
X460194Y327909D01*
X460163Y327850D01*
X460155Y327796D01*
X460143Y327759D01*
X460144Y327719D01*
X460136Y327665D01*
X460136Y323801D01*
X444087Y307752D01*
X444062Y307717D01*
X444031Y307688D01*
X443999Y307626D01*
X443958Y307568D01*
X443948Y307527D01*
X443928Y307489D01*
X443915Y307399D01*
X443902Y307350D01*
X443905Y307330D01*
X443901Y307303D01*
X443901Y305406D01*
X443063Y303384D01*
X441516Y301837D01*
X439494Y300999D01*
X437306Y300999D01*
G37*
%LPD*%
G36*
X209663Y240382D02*
X209663Y240382D01*
X209717Y240380D01*
X209773Y240398D01*
X209831Y240406D01*
X209879Y240432D01*
X209930Y240449D01*
X209987Y240491D01*
X210028Y240513D01*
X210045Y240532D01*
X210058Y240540D01*
X210065Y240549D01*
X210081Y240560D01*
X210172Y240652D01*
X210210Y240706D01*
X210255Y240753D01*
X210273Y240797D01*
X210300Y240836D01*
X210317Y240899D01*
X210342Y240960D01*
X210345Y241007D01*
X210356Y241053D01*
X210350Y241118D01*
X210352Y241184D01*
X210338Y241229D01*
X210333Y241276D01*
X210304Y241335D01*
X210284Y241398D01*
X210251Y241442D01*
X210234Y241477D01*
X210205Y241504D01*
X210172Y241549D01*
X209837Y241884D01*
X208999Y243906D01*
X208999Y246094D01*
X209837Y248116D01*
X210494Y248773D01*
X210531Y248827D01*
X210576Y248875D01*
X210595Y248918D01*
X210622Y248957D01*
X210638Y249021D01*
X210664Y249081D01*
X210666Y249129D01*
X210678Y249174D01*
X210671Y249240D01*
X210674Y249306D01*
X210659Y249351D01*
X210654Y249397D01*
X210625Y249456D01*
X210605Y249519D01*
X210572Y249563D01*
X210555Y249599D01*
X210526Y249626D01*
X210494Y249670D01*
X209748Y250415D01*
X209694Y250453D01*
X209647Y250498D01*
X209603Y250516D01*
X209564Y250543D01*
X209501Y250559D01*
X209440Y250585D01*
X209393Y250587D01*
X209347Y250599D01*
X209282Y250592D01*
X209216Y250595D01*
X209171Y250581D01*
X209124Y250576D01*
X209065Y250547D01*
X209002Y250526D01*
X208958Y250494D01*
X208923Y250476D01*
X208896Y250448D01*
X208851Y250415D01*
X207486Y249049D01*
X202761Y249049D01*
X202673Y249034D01*
X202585Y249024D01*
X202564Y249014D01*
X202540Y249010D01*
X202463Y248964D01*
X202384Y248925D01*
X202368Y248908D01*
X202347Y248895D01*
X202291Y248826D01*
X202230Y248762D01*
X202221Y248740D01*
X202206Y248721D01*
X202177Y248637D01*
X202143Y248555D01*
X202141Y248531D01*
X202134Y248509D01*
X202136Y248420D01*
X202133Y248331D01*
X202140Y248308D01*
X202140Y248284D01*
X202174Y248202D01*
X202201Y248117D01*
X202217Y248096D01*
X202225Y248077D01*
X202259Y248039D01*
X202313Y247967D01*
X203063Y247216D01*
X203901Y245194D01*
X203901Y243202D01*
X203916Y243118D01*
X203924Y243033D01*
X203936Y243008D01*
X203940Y242981D01*
X203984Y242908D01*
X204021Y242831D01*
X204042Y242809D01*
X204055Y242788D01*
X204093Y242757D01*
X204129Y242720D01*
X204134Y242683D01*
X204169Y242575D01*
X204203Y242471D01*
X204203Y242470D01*
X204204Y242469D01*
X204209Y242462D01*
X204314Y242321D01*
X204336Y242299D01*
X204336Y241341D01*
X204349Y241265D01*
X204355Y241188D01*
X204369Y241155D01*
X204375Y241120D01*
X204415Y241054D01*
X204447Y240983D01*
X204471Y240958D01*
X204490Y240927D01*
X204550Y240878D01*
X204604Y240823D01*
X204636Y240808D01*
X204664Y240786D01*
X204737Y240761D01*
X204807Y240728D01*
X204843Y240725D01*
X204876Y240714D01*
X204954Y240716D01*
X205031Y240710D01*
X205070Y240719D01*
X205101Y240720D01*
X205144Y240738D01*
X205213Y240755D01*
X205806Y241001D01*
X207994Y241001D01*
X209390Y240423D01*
X209410Y240418D01*
X209419Y240414D01*
X209446Y240410D01*
X209493Y240390D01*
X209551Y240387D01*
X209609Y240375D01*
X209663Y240382D01*
G37*
D10*
X0Y0D02*
X490000Y0D01*
X490000Y360000D01*
X0Y360000D01*
X0Y0D01*
D11*
X173300Y254850D03*
X173300Y227750D03*
X177300Y254850D03*
X177300Y227750D03*
X181300Y254850D03*
X181300Y227750D03*
X185300Y254850D03*
X185300Y227750D03*
X189300Y254850D03*
X189300Y227750D03*
X193300Y254850D03*
X193300Y227750D03*
X197300Y254850D03*
X197300Y227750D03*
X201300Y254850D03*
X201300Y227750D03*
X205300Y254850D03*
X205300Y227750D03*
X209300Y254850D03*
X209300Y227750D03*
X213300Y254850D03*
X213300Y227750D03*
X217300Y254850D03*
X217300Y227750D03*
X221300Y254850D03*
X221300Y227750D03*
X225300Y254850D03*
X225300Y227750D03*
X229300Y254850D03*
X229300Y227750D03*
X233300Y254850D03*
X233300Y227750D03*
X237300Y254850D03*
X237300Y227750D03*
X241300Y254850D03*
X241300Y227750D03*
X245300Y254850D03*
X245300Y227750D03*
X249300Y254850D03*
X249300Y227750D03*
X253300Y254850D03*
X253300Y227750D03*
X257300Y254850D03*
X257300Y227750D03*
X261300Y254850D03*
X261300Y227750D03*
X265300Y254850D03*
X265300Y227750D03*
X269300Y254850D03*
X269300Y227750D03*
X273300Y254850D03*
X273300Y227750D03*
X277300Y254850D03*
X277300Y227750D03*
X281300Y254850D03*
X281300Y227750D03*
X285300Y254850D03*
X285300Y227750D03*
X289300Y254850D03*
X289300Y227750D03*
X293300Y254850D03*
X293300Y227750D03*
X297300Y254850D03*
X297300Y227750D03*
X301300Y254850D03*
X301300Y227750D03*
X305300Y254850D03*
X305300Y227750D03*
X309300Y254850D03*
X309300Y227750D03*
D12*
X168550Y254850D03*
X168550Y227750D03*
X314050Y227750D03*
X314050Y254850D03*
D11*
X173300Y127850D03*
X173300Y100750D03*
X177300Y127850D03*
X177300Y100750D03*
X181300Y127850D03*
X181300Y100750D03*
X185300Y127850D03*
X185300Y100750D03*
X189300Y127850D03*
X189300Y100750D03*
X193300Y127850D03*
X193300Y100750D03*
X197300Y127850D03*
X197300Y100750D03*
X201300Y127850D03*
X201300Y100750D03*
X205300Y127850D03*
X205300Y100750D03*
X209300Y127850D03*
X209300Y100750D03*
X213300Y127850D03*
X213300Y100750D03*
X217300Y127850D03*
X217300Y100750D03*
X221300Y127850D03*
X221300Y100750D03*
X225300Y127850D03*
X225300Y100750D03*
X229300Y127850D03*
X229300Y100750D03*
X233300Y127850D03*
X233300Y100750D03*
X237300Y127850D03*
X237300Y100750D03*
X241300Y127850D03*
X241300Y100750D03*
X245300Y127850D03*
X245300Y100750D03*
X249300Y127850D03*
X249300Y100750D03*
X253300Y127850D03*
X253300Y100750D03*
X257300Y127850D03*
X257300Y100750D03*
X261300Y127850D03*
X261300Y100750D03*
X265300Y127850D03*
X265300Y100750D03*
X269300Y127850D03*
X269300Y100750D03*
X273300Y127850D03*
X273300Y100750D03*
X277300Y127850D03*
X277300Y100750D03*
X281300Y127850D03*
X281300Y100750D03*
X285300Y127850D03*
X285300Y100750D03*
X289300Y127850D03*
X289300Y100750D03*
X293300Y127850D03*
X293300Y100750D03*
X297300Y127850D03*
X297300Y100750D03*
X301300Y127850D03*
X301300Y100750D03*
X305300Y127850D03*
X305300Y100750D03*
X309300Y127850D03*
X309300Y100750D03*
D12*
X168550Y127850D03*
X168550Y100750D03*
X314050Y100750D03*
X314050Y127850D03*
D13*
X459900Y100900D03*
D14*
X454900Y100900D01*
D13*
X384600Y102500D03*
X47000Y141900D03*
X105200Y130500D03*
D14*
X92700Y142000D02*
X47000Y141900D01*
X92700Y142000D02*
X94000Y142000D01*
X105200Y130500D01*
D13*
X459900Y168800D03*
D14*
X454000Y101800D02*
X454900Y100900D01*
D13*
X384500Y257500D03*
X386200Y332700D03*
X133200Y246200D03*
D14*
X168300Y254600D02*
X168550Y254850D01*
D15*
X168300Y254600D02*
X168300Y228000D01*
D14*
X168500Y227800D02*
X168550Y227750D01*
D16*
X173300Y227750D01*
X173100Y254850D02*
X168550Y254850D01*
D14*
X173100Y254850D02*
X173300Y254850D01*
D16*
X177300Y254850D01*
D14*
X177800Y254850D01*
D16*
X181100Y254850D01*
D14*
X181300Y254850D01*
D15*
X185300Y254850D01*
D13*
X438300Y323600D03*
D14*
X209300Y227750D02*
X209300Y212600D01*
D13*
X373400Y234800D03*
X457100Y281300D03*
X239400Y332500D03*
X103900Y331400D03*
X171700Y343600D03*
D14*
X171600Y329600D01*
X171900Y329300D01*
X367000Y329300D02*
X369500Y326800D01*
X228600Y329300D02*
X171900Y329300D01*
X228600Y329300D02*
X239700Y329300D01*
X318100Y329300D01*
X367000Y329300D01*
D13*
X318500Y343900D03*
D14*
X318500Y329700D01*
X318100Y329300D01*
X239400Y329600D02*
X239400Y332500D01*
X239400Y329600D02*
X239700Y329300D01*
D16*
X257300Y227750D02*
X257300Y216500D01*
X233600Y212500D02*
X209200Y212500D01*
X233600Y212500D02*
X253300Y212500D01*
X257300Y216500D01*
D14*
X209300Y212600D02*
X209200Y212500D01*
X233300Y212800D02*
X233600Y212500D01*
X233300Y223198D02*
X233300Y227750D01*
X233300Y223198D02*
X234536Y221962D01*
X234536Y217899D01*
X233300Y216663D01*
X233300Y212800D01*
X257300Y246163D02*
X257300Y254850D01*
X257300Y246163D02*
X260605Y242858D01*
X260605Y236505D02*
X257200Y233100D01*
X257200Y227850D01*
X257300Y227750D01*
X260605Y236505D02*
X260605Y242858D01*
X233300Y254850D02*
X232355Y255795D01*
X232355Y258939D01*
X230480Y260814D01*
X230480Y276220D02*
X228110Y278590D01*
X228110Y328810D02*
X228600Y329300D01*
X230475Y302468D02*
X228110Y300103D01*
X230475Y302468D02*
X230475Y306532D01*
X228110Y308897D01*
X228110Y328810D01*
X228110Y300103D02*
X228110Y278590D01*
X230480Y276220D02*
X230480Y260814D01*
X209300Y254850D02*
X209300Y249900D01*
X208800Y249400D01*
X186400Y249400D02*
X185300Y250500D01*
X185300Y254850D01*
X186400Y249400D02*
X208800Y249400D01*
D16*
X173600Y212500D02*
X168500Y217600D01*
X168500Y227800D01*
D14*
X168300Y228000D01*
D16*
X173600Y212500D02*
X209200Y212500D01*
D15*
X173300Y227750D02*
X173300Y254650D01*
D14*
X173100Y254850D01*
D15*
X177300Y254350D02*
X177300Y227750D01*
D14*
X177300Y254350D02*
X177800Y254850D01*
D15*
X181300Y254650D02*
X181300Y227750D01*
D14*
X181300Y254650D02*
X181100Y254850D01*
D16*
X177300Y227750D02*
X173300Y227750D01*
X177300Y227750D02*
X181300Y227750D01*
D15*
X185300Y227750D01*
D14*
X384600Y102500D02*
X453300Y102500D01*
X454000Y101800D01*
X106000Y329300D02*
X103900Y331400D01*
X106000Y329300D02*
X171900Y329300D01*
X369500Y326800D02*
X386000Y326800D01*
X386100Y326900D02*
X386200Y332700D01*
X386100Y326900D02*
X386000Y326800D01*
X386200Y322500D02*
X386200Y267900D01*
X386200Y322500D02*
X386200Y326800D01*
X386100Y326900D01*
X454000Y163400D02*
X454000Y101800D01*
X438300Y323600D02*
X387100Y323400D01*
X386200Y322500D01*
X459400Y168800D02*
X454000Y163400D01*
X459400Y168800D02*
X459900Y168800D01*
D16*
X152500Y246200D02*
X133200Y246200D01*
X152500Y246200D02*
X161300Y255000D01*
X168400Y255000D01*
X168550Y254850D01*
D14*
X384500Y266200D02*
X386200Y267900D01*
X384500Y266200D02*
X384500Y257500D01*
X373400Y234800D02*
X410600Y234800D01*
X457100Y281300D01*
D13*
X133200Y239500D03*
X133200Y232500D03*
X140500Y239400D03*
X140700Y232500D03*
X140500Y246000D03*
X160500Y263300D03*
D14*
X185100Y263200D02*
X189300Y259000D01*
X189300Y254850D01*
X185100Y263200D02*
X160600Y263200D01*
X160500Y263300D01*
X189400Y227850D02*
X189300Y227750D01*
X189400Y227850D02*
X189172Y228078D01*
D13*
X189100Y219500D03*
D14*
X189300Y219700D01*
X189300Y227750D01*
D13*
X197070Y287400D03*
D14*
X205200Y254950D02*
X205300Y254850D01*
X205200Y254950D02*
X205200Y266700D01*
X205300Y266800D01*
X200800Y271300D01*
X200800Y274800D01*
X204900Y281428D02*
X204860Y281468D01*
X204860Y282540D01*
X204900Y281428D02*
X204900Y278900D01*
X200800Y282800D02*
X199200Y282800D01*
X197070Y284930D01*
X197070Y287400D01*
X204900Y278900D02*
X200800Y274800D01*
X200800Y282800D02*
X201900Y283900D01*
X203500Y283900D02*
X204860Y282540D01*
X203500Y283900D02*
X201900Y283900D01*
D13*
X204300Y219800D03*
D14*
X205300Y220400D01*
X205300Y227750D01*
D13*
X188600Y293300D03*
D14*
X196800Y268600D02*
X201300Y264100D01*
X201300Y254850D01*
X196800Y268600D02*
X196800Y276900D01*
X188500Y285200D01*
X188500Y293200D01*
X188600Y293300D01*
D13*
X198400Y244100D03*
D14*
X201200Y241000D02*
X201200Y227850D01*
X201300Y227750D01*
X201200Y241000D02*
X198300Y243200D01*
X198400Y244100D01*
D13*
X190195Y276542D03*
D14*
X197300Y260500D02*
X197300Y254850D01*
X197300Y260500D02*
X189800Y268000D01*
X189800Y276147D01*
X190195Y276542D01*
D13*
X196000Y237200D03*
D14*
X197200Y227850D02*
X197300Y227750D01*
X197300Y232400D01*
X196400Y233300D01*
X196400Y236800D01*
X196000Y237200D01*
D13*
X174832Y268132D03*
D14*
X193300Y260463D02*
X193300Y254850D01*
X193300Y260463D02*
X185632Y268132D01*
X174832Y268132D01*
D13*
X188700Y239300D03*
D14*
X193300Y232000D02*
X193300Y227750D01*
X188700Y236600D02*
X188700Y239300D01*
X188700Y236600D02*
X193300Y232000D01*
D13*
X206900Y235500D03*
D14*
X209445Y232955D02*
X211239Y232955D01*
X209445Y232955D02*
X206900Y235500D01*
X213300Y230894D02*
X213300Y227750D01*
X213300Y230894D02*
X211239Y232955D01*
D13*
X206582Y272482D03*
D14*
X219318Y272482D01*
X221500Y270300D02*
X221600Y270300D01*
X221600Y268400D01*
X220400Y267200D01*
X211000Y267200D02*
X208700Y264900D01*
X208700Y262600D01*
X213300Y260600D02*
X213300Y254850D01*
X221500Y270300D02*
X219318Y272482D01*
X220400Y267200D02*
X211000Y267200D01*
X208700Y262600D02*
X209800Y261500D01*
X212400Y261500D01*
X213300Y260600D01*
D13*
X214200Y236900D03*
D14*
X217300Y227750D02*
X217400Y227650D01*
X217300Y227750D02*
X217300Y234300D01*
X214200Y236900D01*
D13*
X209765Y283500D03*
D14*
X217300Y261000D02*
X217300Y254850D01*
X225400Y273800D02*
X223100Y276100D01*
X209765Y278735D02*
X209765Y283500D01*
X212400Y276100D02*
X223100Y276100D01*
X212400Y276100D02*
X209765Y278735D01*
X225400Y273800D02*
X225400Y265000D01*
X224200Y263800D01*
X220100Y263800D01*
X217300Y261000D01*
D13*
X222000Y220000D03*
D14*
X221300Y220700D02*
X221300Y227750D01*
X221300Y220700D02*
X222000Y220000D01*
D13*
X214500Y245000D03*
D14*
X221300Y250000D02*
X221300Y254850D01*
X216300Y245000D02*
X214500Y245000D01*
X216300Y245000D02*
X221300Y250000D01*
D13*
X224790Y241730D03*
D14*
X225300Y241220D02*
X225300Y227750D01*
X225300Y241220D02*
X224790Y241730D01*
D13*
X225570Y304500D03*
D14*
X225300Y259200D02*
X225300Y254850D01*
X225570Y277222D02*
X225570Y304500D01*
X225570Y277222D02*
X227940Y274852D01*
X227940Y261840D02*
X225300Y259200D01*
X227940Y261840D02*
X227940Y274852D01*
D13*
X229631Y219931D03*
D14*
X229631Y227419D01*
X229300Y227750D01*
D13*
X239700Y322900D03*
D14*
X237600Y255150D02*
X237300Y254850D01*
X237300Y269508D01*
X234070Y272738D01*
X234070Y317270D01*
X239700Y322900D01*
D13*
X247400Y288700D03*
X240000Y219900D03*
X239900Y315630D03*
D14*
X236800Y312530D01*
X236800Y299300D02*
X247400Y288700D01*
X236800Y299300D02*
X236800Y312530D01*
X237300Y227750D02*
X237300Y222600D01*
X240000Y219900D01*
D13*
X274800Y292900D03*
D14*
X253300Y261000D02*
X253300Y254850D01*
X274800Y282500D02*
X274800Y292900D01*
X274800Y282500D02*
X253300Y261000D01*
D13*
X255700Y239100D03*
D14*
X253300Y236700D02*
X253300Y227750D01*
X253300Y236700D02*
X255700Y239100D01*
D13*
X238975Y277116D03*
D14*
X241400Y269000D02*
X241400Y254950D01*
X241300Y254850D01*
X241400Y269000D02*
X238975Y271425D01*
X238975Y277116D01*
D13*
X239400Y246400D03*
D14*
X241600Y228050D02*
X241300Y227750D01*
X241300Y244500D02*
X239400Y246400D01*
X241300Y234863D02*
X241300Y227750D01*
X241300Y234863D02*
X240595Y235568D01*
X240595Y239632D01*
X241300Y240337D01*
X241300Y244500D01*
D13*
X256093Y292000D03*
D14*
X256093Y287693D01*
X245300Y276900D02*
X245300Y254850D01*
X245300Y276900D02*
X256093Y287693D01*
D13*
X245500Y237600D03*
D14*
X245400Y227850D02*
X245300Y227750D01*
X245300Y237400D01*
X245500Y237600D01*
D13*
X260330Y280970D03*
D14*
X258270Y280970D01*
X249300Y272000D02*
X249300Y254850D01*
X249300Y272000D02*
X258270Y280970D01*
D13*
X252100Y246600D03*
D14*
X249900Y228350D02*
X249300Y227750D01*
X249300Y243800D02*
X252100Y246600D01*
X249300Y234463D02*
X249300Y227750D01*
X249300Y234463D02*
X250405Y235568D01*
X250405Y239632D01*
X249300Y240737D01*
X249300Y243800D01*
D13*
X283200Y286700D03*
D14*
X282500Y284400D02*
X261300Y263200D01*
X261300Y254850D01*
X282500Y284400D02*
X283200Y286700D01*
D13*
X276102Y266098D03*
D14*
X269698Y266098D01*
X265300Y261700D01*
X265300Y254850D01*
D13*
X290200Y269200D03*
D14*
X281300Y263100D02*
X281300Y254850D01*
X281300Y263100D02*
X287400Y269200D01*
X290200Y269200D01*
D13*
X263400Y247000D03*
D14*
X261500Y227950D02*
X261300Y227750D01*
X261300Y233608D01*
X263145Y235453D01*
X263145Y246745D02*
X263400Y247000D01*
X263145Y246745D02*
X263145Y235453D01*
D13*
X269700Y239300D03*
D14*
X265200Y227850D02*
X265300Y227750D01*
X265300Y232800D01*
X269700Y237200D02*
X269700Y239300D01*
X269700Y237200D02*
X265300Y232800D01*
X269300Y227750D02*
X269300Y220000D01*
X269100Y219800D01*
D13*
X269100Y219800D03*
D14*
X273300Y206200D02*
X273600Y205900D01*
X273300Y222537D02*
X273300Y227750D01*
X273300Y222537D02*
X274005Y221832D01*
X274005Y217768D01*
X273300Y217063D01*
X273300Y206200D01*
D13*
X273600Y205900D03*
D14*
X277300Y211700D02*
X277300Y227750D01*
X277300Y211700D02*
X280200Y208800D01*
D13*
X280200Y200500D03*
X435100Y313700D03*
D14*
X280200Y208800D02*
X280200Y200500D01*
D13*
X450200Y333900D03*
D14*
X440300Y313700D02*
X435100Y313700D01*
X440300Y313700D02*
X450200Y323600D01*
X450200Y333900D01*
X281300Y227750D02*
X281300Y215400D01*
X288700Y208000D01*
X288700Y197500D01*
X286300Y195100D02*
X286300Y194200D01*
D13*
X286300Y194200D03*
X438400Y306500D03*
D14*
X288700Y197500D02*
X286300Y195100D01*
D13*
X461200Y333800D03*
D14*
X457000Y325100D02*
X438400Y306500D01*
X457000Y329600D02*
X461200Y333800D01*
X457000Y329600D02*
X457000Y325100D01*
D15*
X289300Y260100D02*
X289300Y254850D01*
X289300Y260100D02*
X292600Y263400D01*
X324400Y263400D01*
X344700Y243100D01*
D13*
X458800Y312100D03*
D15*
X289300Y254850D02*
X289300Y227750D01*
X344700Y243100D02*
X378600Y243100D01*
X389800Y243100D01*
X458800Y312100D01*
D13*
X297300Y184700D03*
D15*
X297300Y226700D01*
D14*
X297200Y227650D01*
X297300Y227750D01*
D13*
X304100Y184700D03*
X310900Y184700D03*
X318100Y184700D03*
D15*
X301300Y187500D02*
X301300Y227750D01*
X301300Y187500D02*
X304100Y184700D01*
X305300Y190300D02*
X305300Y227750D01*
X305300Y190300D02*
X310900Y184700D01*
X309300Y193500D02*
X309300Y227750D01*
X309300Y193500D02*
X318100Y184700D01*
X297300Y227000D02*
X297300Y254850D01*
D14*
X297300Y227000D02*
X297300Y226700D01*
D15*
X301300Y227750D02*
X301300Y254850D01*
D14*
X305300Y254850D02*
X305300Y254700D01*
D15*
X305300Y227750D01*
X309300Y227750D02*
X309300Y254850D01*
X301300Y227750D02*
X297300Y227750D01*
X301300Y227750D02*
X305300Y227750D01*
X309300Y227750D01*
X301300Y254850D02*
X297300Y254850D01*
X301300Y254850D02*
X305150Y254850D01*
D14*
X305300Y254700D01*
D15*
X305300Y254850D02*
X309300Y254850D01*
X314050Y254850D01*
X314050Y227750D02*
X309300Y227750D01*
X314050Y227750D02*
X314050Y254850D01*
X314050Y227750D02*
X314050Y196850D01*
X326000Y184900D01*
D13*
X326000Y184900D03*
X135200Y164900D03*
D14*
X145658Y154442D01*
X185158Y154442D02*
X205400Y134800D01*
X205400Y128250D01*
X205300Y127850D01*
X185158Y154442D02*
X145658Y154442D01*
D13*
X35800Y156800D03*
D14*
X98092Y156700D01*
X116552Y138240D02*
X171952Y138440D01*
X174492Y135900D02*
X174800Y135700D01*
X174492Y135900D02*
X171952Y138440D01*
X116552Y138240D02*
X98092Y156700D01*
X174800Y135700D02*
X177300Y133200D01*
X177300Y127850D01*
D13*
X30400Y134700D03*
D14*
X74948Y92260D02*
X127940Y92260D01*
X128000Y92200D01*
X177355Y99805D02*
X177300Y100750D01*
X177355Y95563D02*
X172992Y92200D01*
X177355Y95563D02*
X177355Y99805D01*
X172992Y92200D02*
X128000Y92200D01*
X41192Y126030D02*
X41178Y126030D01*
X41192Y126030D02*
X41920Y125288D01*
X74948Y92260D01*
X41178Y126030D02*
X41140Y126068D01*
X39032Y126068D01*
X30400Y134700D01*
D13*
X42000Y163300D03*
D14*
X95084Y163300D01*
X116642Y141742D01*
X173458Y141742D01*
X181400Y133800D01*
X181400Y127950D01*
X181300Y127850D01*
D13*
X30400Y123600D03*
D14*
X40116Y123500D01*
X73896Y89720D01*
X126888Y89720D02*
X126948Y89660D01*
X175360Y89660D01*
X126888Y89720D02*
X73896Y89720D01*
X175360Y89660D02*
X181300Y95600D01*
X181300Y100750D01*
D13*
X17400Y150100D03*
D14*
X170800Y135700D02*
X173400Y133100D01*
X173300Y133000D01*
X173300Y127850D01*
X170800Y135700D02*
X115500Y135700D01*
X99900Y151300D01*
X18600Y151300D02*
X17400Y150100D01*
X18600Y151300D02*
X99900Y151300D01*
D13*
X30300Y146100D03*
D14*
X76000Y94800D02*
X172000Y94800D01*
X173300Y96100D01*
X173300Y100750D01*
X42239Y128561D02*
X38100Y132700D01*
X43741Y127059D02*
X76000Y94800D01*
X42267Y128561D02*
X42239Y128561D01*
X42267Y128561D02*
X43741Y127087D01*
X43741Y127059D01*
X38100Y132700D02*
X38100Y138300D01*
X30300Y146100D01*
D13*
X30200Y78400D03*
D14*
X65800Y78300D01*
X74680Y87180D01*
X125836Y87180D02*
X125896Y87120D01*
X176820Y87120D01*
X125836Y87180D02*
X74680Y87180D01*
X176820Y87120D02*
X185300Y95600D01*
X185300Y100750D01*
D13*
X100800Y165000D03*
D14*
X121618Y144282D01*
X189300Y132100D02*
X189300Y127850D01*
X177118Y144282D02*
X121618Y144282D01*
X177118Y144282D02*
X189300Y132100D01*
D13*
X109600Y165100D03*
D14*
X181078Y146822D02*
X193300Y134600D01*
X193300Y127850D01*
X181078Y146822D02*
X127878Y146822D01*
X109600Y165100D01*
D13*
X30000Y67000D03*
D14*
X58092Y67000D01*
X75732Y84640D01*
X124784Y84640D01*
X124844Y84580D01*
X178580Y84580D01*
X189300Y95300D02*
X189300Y100750D01*
X189300Y95300D02*
X178580Y84580D01*
D13*
X30000Y55500D03*
D14*
X123732Y82100D02*
X123792Y82040D01*
X180240Y82040D01*
X123732Y82100D02*
X76784Y82100D01*
X180240Y82040D02*
X193300Y95100D01*
X193300Y100750D01*
X50184Y55500D02*
X30000Y55500D01*
X50184Y55500D02*
X76784Y82100D01*
D13*
X117900Y165100D03*
D14*
X133638Y149362D02*
X182130Y149362D01*
X197192Y134300D02*
X197300Y134300D01*
X197192Y134300D02*
X182130Y149362D01*
X197300Y134300D02*
X197300Y127850D01*
X133638Y149362D02*
X117900Y165100D01*
D13*
X30100Y44700D03*
D14*
X122679Y79560D02*
X122739Y79500D01*
X181700Y79500D01*
X122679Y79560D02*
X77836Y79560D01*
X181700Y79500D02*
X197300Y95100D01*
X197300Y100750D01*
X42976Y44700D02*
X30100Y44700D01*
X42976Y44700D02*
X77836Y79560D01*
D13*
X29900Y33700D03*
D14*
X78889Y77020D02*
X121627Y77020D01*
X121687Y76960D01*
X183160Y76960D01*
X201300Y95100D01*
X201300Y100750D01*
X35569Y33700D02*
X29900Y33700D01*
X35569Y33700D02*
X78889Y77020D01*
D13*
X126500Y165000D03*
D14*
X201300Y134600D02*
X201300Y127850D01*
X183998Y151902D02*
X139598Y151902D01*
X183998Y151902D02*
X201300Y134600D01*
X139598Y151902D02*
X126500Y165000D01*
D13*
X144100Y164900D03*
D14*
X152118Y156982D01*
X187118Y156982D02*
X209300Y134800D01*
X186172Y156998D02*
X185137Y156982D01*
X186172Y156998D02*
X186188Y156982D01*
X187118Y156982D01*
X185137Y156982D02*
X152118Y156982D01*
X209300Y134800D02*
X209300Y127850D01*
X120635Y74420D02*
X120575Y74480D01*
X120635Y74420D02*
X184212Y74420D01*
D13*
X17300Y14100D03*
D14*
X79941Y74480D02*
X120575Y74480D01*
X205300Y95508D02*
X205300Y100750D01*
X205300Y95508D02*
X184212Y74420D01*
X31600Y28400D02*
X17300Y14100D01*
X31600Y28400D02*
X33861Y28400D01*
X79941Y74480D01*
D13*
X28600Y14200D03*
D14*
X119523Y71940D02*
X119583Y71880D01*
X185264Y71880D01*
X119523Y71940D02*
X80993Y71940D01*
X209300Y95916D02*
X209300Y100750D01*
X209300Y95916D02*
X185264Y71880D01*
X39060Y24660D02*
X28600Y14200D01*
X39060Y24660D02*
X39060Y30007D01*
X80993Y71940D01*
D13*
X164100Y165000D03*
D14*
X217255Y127995D02*
X217300Y127850D01*
X184069Y162093D02*
X184037Y162062D01*
X217255Y134137D02*
X217255Y127995D01*
X217255Y134137D02*
X189199Y162093D01*
X184069Y162093D01*
X167038Y162062D02*
X164100Y165000D01*
X167038Y162062D02*
X184037Y162062D01*
D13*
X51300Y14200D03*
D14*
X117419Y66860D02*
X117479Y66800D01*
X187369Y66800D01*
X117419Y66860D02*
X83097Y66860D01*
X217300Y96732D02*
X217300Y100750D01*
X217300Y96732D02*
X187369Y66800D01*
X51300Y14658D02*
X51300Y14200D01*
X51300Y35063D01*
X83097Y66860D01*
D13*
X152600Y165000D03*
D14*
X156100Y165000D01*
X161578Y159522D01*
X211840Y135860D02*
X211840Y135852D01*
X211840Y135860D02*
X213400Y134300D01*
X211840Y135852D02*
X188139Y159553D01*
X185121Y159553D02*
X185090Y159522D01*
X185121Y159553D02*
X188139Y159553D01*
X185090Y159522D02*
X161578Y159522D01*
X213400Y134300D02*
X213400Y127950D01*
X213300Y127850D01*
D13*
X40100Y14300D03*
D14*
X118471Y69400D02*
X118531Y69340D01*
X186316Y69340D01*
X118471Y69400D02*
X82045Y69400D01*
X213300Y96324D02*
X213300Y100750D01*
X213300Y96324D02*
X186316Y69340D01*
X82045Y69400D02*
X46200Y33555D01*
X46200Y19700D01*
X40800Y14300D01*
X40100Y14300D01*
D13*
X85100Y14200D03*
D14*
X120360Y64260D02*
X188421Y64260D01*
X221300Y97139D02*
X221300Y100750D01*
X221300Y97139D02*
X188421Y64260D01*
X85100Y29000D02*
X85100Y14200D01*
X85100Y29000D02*
X120360Y64260D01*
D13*
X195400Y165200D03*
D14*
X221000Y128150D02*
X221300Y127850D01*
X221000Y128150D02*
X221000Y133884D01*
X219795Y135089D01*
X219795Y135192D01*
X195400Y159587D02*
X195400Y165200D01*
X195400Y159587D02*
X219795Y135192D01*
D13*
X254700Y14200D03*
D14*
X254700Y22500D02*
X253300Y23900D01*
X254700Y22500D02*
X254700Y14200D01*
X253300Y23900D02*
X253300Y100750D01*
D13*
X204000Y165200D03*
D14*
X204000Y154579D01*
X225100Y128050D02*
X225300Y127850D01*
X225100Y133479D02*
X204000Y154579D01*
X225100Y133479D02*
X225100Y128050D01*
D13*
X96500Y14200D03*
D14*
X131820Y61720D02*
X189473Y61720D01*
X225300Y97547D02*
X225300Y100750D01*
X225300Y97547D02*
X189473Y61720D01*
X96500Y26400D02*
X96500Y14200D01*
X96500Y26400D02*
X131820Y61720D01*
D13*
X213000Y165200D03*
D14*
X213000Y149600D01*
X229300Y133300D02*
X229300Y127850D01*
X229300Y133300D02*
X213000Y149600D01*
D13*
X108100Y14300D03*
D14*
X193680Y59180D02*
X229300Y94800D01*
X229300Y100750D01*
X193680Y59180D02*
X142780Y59180D01*
X108100Y24500D02*
X108100Y14300D01*
X108100Y24500D02*
X142780Y59180D01*
D13*
X222300Y165200D03*
D14*
X222300Y144900D01*
X233300Y133900D02*
X233300Y127850D01*
X233300Y133900D02*
X222300Y144900D01*
D13*
X119100Y14200D03*
D14*
X195140Y56640D02*
X233300Y94800D01*
X233300Y100750D01*
X195140Y56640D02*
X148640Y56640D01*
X119100Y27100D02*
X119100Y14200D01*
X119100Y27100D02*
X148640Y56640D01*
D13*
X130300Y14300D03*
D14*
X196600Y54100D02*
X237300Y94800D01*
X237300Y100750D01*
X196600Y54100D02*
X153000Y54100D01*
X130300Y31400D02*
X130300Y14300D01*
X130300Y31400D02*
X153000Y54100D01*
D13*
X231100Y165100D03*
D14*
X230600Y140200D01*
X237300Y133500D02*
X237300Y127850D01*
X237300Y133500D02*
X230600Y140200D01*
D13*
X245200Y165100D03*
D14*
X245200Y127950D01*
X245300Y127850D01*
D13*
X254500Y165000D03*
D14*
X254500Y160900D01*
X249200Y155600D01*
X249200Y127950D01*
X249300Y127850D01*
D13*
X243500Y14200D03*
D14*
X249300Y73000D02*
X249300Y100750D01*
X243500Y67200D02*
X243500Y14200D01*
X243500Y67200D02*
X249300Y73000D01*
D13*
X263500Y165100D03*
D14*
X253300Y154900D01*
X253300Y127850D01*
D13*
X266200Y14100D03*
D14*
X266100Y21300D02*
X257300Y30100D01*
X266100Y21300D02*
X266100Y14200D01*
X266200Y14100D01*
X257300Y30100D02*
X257300Y100750D01*
D13*
X272200Y165300D03*
D14*
X257400Y150500D01*
X257400Y127950D02*
X257300Y127850D01*
X257400Y127950D02*
X257400Y150500D01*
D13*
X280800Y165400D03*
D14*
X261300Y145900D01*
X261300Y127850D01*
D13*
X277500Y14200D03*
D14*
X261400Y100650D02*
X261300Y100750D01*
X261400Y36900D02*
X277600Y20700D01*
X277600Y14300D01*
X277500Y14200D01*
X261400Y36900D02*
X261400Y100650D01*
D13*
X297600Y165200D03*
D14*
X287960Y155560D01*
X278500Y155560D01*
X269300Y146360D01*
X269300Y127850D01*
D13*
X289100Y165400D03*
D14*
X281800Y158100D01*
X277092Y158100D01*
X265300Y146308D02*
X265300Y127850D01*
X265300Y146308D02*
X277092Y158100D01*
D13*
X337300Y14600D03*
D14*
X329100Y33800D02*
X315784Y33800D01*
X273100Y100550D02*
X273300Y100750D01*
X273100Y76484D02*
X315784Y33800D01*
X273100Y76484D02*
X273100Y100550D01*
X337300Y25600D02*
X337300Y14600D01*
X337300Y25600D02*
X329100Y33800D01*
D13*
X306300Y165400D03*
D14*
X293920Y153020D01*
X279552Y153020D01*
X273300Y146768D02*
X273300Y127850D01*
X273300Y146768D02*
X279552Y153020D01*
D13*
X326200Y14700D03*
D14*
X269300Y76692D02*
X269300Y100750D01*
X316592Y29400D02*
X320200Y29400D01*
X316592Y29400D02*
X269300Y76692D01*
X320200Y29400D02*
X326200Y23400D01*
X326200Y14700D01*
D13*
X314800Y14500D03*
D14*
X265100Y100550D02*
X265300Y100750D01*
X265100Y100550D02*
X265100Y77300D01*
X314800Y27600D02*
X314800Y14500D01*
X314800Y27600D02*
X265100Y77300D01*
D13*
X314700Y165200D03*
D14*
X300180Y150480D01*
X285400Y150480D01*
X281400Y146480D01*
X281400Y127950D02*
X281300Y127850D01*
X281400Y127950D02*
X281400Y146480D01*
D13*
X360000Y14600D03*
D14*
X343400Y41700D02*
X315069Y41700D01*
X281300Y75469D02*
X281300Y100750D01*
X281300Y75469D02*
X315069Y41700D01*
X360000Y25100D02*
X360000Y14600D01*
X360000Y25100D02*
X343400Y41700D01*
D13*
X348700Y14400D03*
D14*
X337360Y36340D02*
X316836Y36340D01*
X277100Y100550D02*
X277300Y100750D01*
X277100Y76076D02*
X316836Y36340D01*
X277100Y76076D02*
X277100Y100550D01*
X348700Y25000D02*
X348700Y14400D01*
X348700Y25000D02*
X337360Y36340D01*
D13*
X323600Y165100D03*
D14*
X306440Y147940D01*
X292100Y147940D01*
X285200Y141040D01*
X285200Y127950D02*
X285300Y127850D01*
X285200Y127950D02*
X285200Y141040D01*
D13*
X358400Y164900D03*
D14*
X331580Y137780D01*
X302680Y137780D02*
X301300Y136400D01*
X301300Y127850D01*
X302680Y137780D02*
X331580Y137780D01*
D13*
X332200Y165100D03*
D14*
X312500Y145400D01*
X293152Y145400D01*
X289300Y141548D02*
X289300Y127850D01*
X289300Y141548D02*
X293152Y145400D01*
D13*
X341100Y165000D03*
D14*
X318960Y142860D01*
X295060Y142860D02*
X293300Y141100D01*
X293300Y127850D01*
X295060Y142860D02*
X318960Y142860D01*
D13*
X349700Y165100D03*
D14*
X325120Y140320D01*
X299620Y140320D02*
X297200Y137900D01*
X297300Y137800D01*
X297300Y127850D01*
X299620Y140320D02*
X325120Y140320D01*
D13*
X367200Y165000D03*
D14*
X337640Y135240D01*
X307300Y135240D01*
X305300Y133240D01*
X305300Y127850D01*
D13*
X371200Y14700D03*
D14*
X285300Y75061D02*
X285300Y100750D01*
X315901Y44460D02*
X351740Y44460D01*
X315901Y44460D02*
X285300Y75061D01*
X371200Y25000D02*
X371200Y14700D01*
X371200Y25000D02*
X351740Y44460D01*
D13*
X393800Y14600D03*
D14*
X370760Y49540D02*
X319952Y49540D01*
X293300Y76192D01*
X293300Y100750D01*
X393800Y26500D02*
X393800Y14600D01*
X393800Y26500D02*
X370760Y49540D01*
D13*
X405000Y14400D03*
D14*
X403100Y16300D01*
X403100Y28400D01*
X321004Y52080D02*
X297300Y75784D01*
X297300Y100750D01*
X321004Y52080D02*
X379420Y52080D01*
X403100Y28400D01*
D13*
X416400Y14600D03*
D14*
X322056Y54620D02*
X301300Y75376D01*
X301300Y100750D01*
X322056Y54620D02*
X389580Y54620D01*
X416400Y27800D02*
X416400Y14600D01*
X416400Y27800D02*
X389580Y54620D01*
D13*
X461700Y14600D03*
D14*
X417000Y39600D02*
X408192Y39600D01*
X323109Y57160D02*
X305300Y74969D01*
X305300Y100750D01*
X390632Y57160D02*
X408192Y39600D01*
X390632Y57160D02*
X323109Y57160D01*
X460300Y16200D02*
X461700Y14600D01*
X433800Y22800D02*
X417000Y39600D01*
X453700Y22800D02*
X460300Y16200D01*
X453700Y22800D02*
X433800Y22800D01*
D13*
X472900Y14500D03*
D14*
X309400Y100650D02*
X309300Y100750D01*
X409244Y42140D02*
X418052Y42140D01*
X432892Y27300D01*
X394592Y56792D02*
X394084Y57300D01*
X394592Y56792D02*
X409244Y42140D01*
X309400Y74461D02*
X309400Y100650D01*
X309400Y74461D02*
X324161Y59700D01*
X394592Y56808D02*
X394592Y56792D01*
X394592Y56808D02*
X391700Y59700D01*
X324161Y59700D01*
X432892Y27300D02*
X460100Y27300D01*
X472900Y14500D01*
D13*
X205500Y30000D03*
D15*
X205500Y47800D02*
X241400Y83700D01*
X241400Y100650D01*
D14*
X241300Y100750D01*
D15*
X241300Y127850D01*
D17*
X194000Y30100D03*
D15*
X205500Y30000D02*
X205500Y47800D01*
X205500Y30000D02*
X194100Y30000D01*
X194000Y30100D01*
D13*
X234200Y235700D03*
D14*
X229100Y254650D02*
X229300Y254850D01*
X229400Y254750D01*
X231361Y249645D02*
X232455Y249645D01*
X233900Y248200D01*
X229300Y251706D02*
X229300Y254850D01*
X229300Y251706D02*
X231361Y249645D01*
X233900Y236000D02*
X234200Y235700D01*
X233900Y236000D02*
X233900Y248200D01*
D18*
X382600Y14700D03*
D14*
X318900Y47000D02*
X289300Y76600D01*
X289300Y100750D01*
X318900Y47000D02*
X360700Y47000D01*
X382600Y14700D02*
X382669Y14654D01*
X382900Y14500D01*
X382669Y14654D02*
X382669Y25031D01*
X360700Y47000D01*
X245300Y74600D02*
X245300Y100750D01*
X245300Y74600D02*
X240400Y69700D01*
X240400Y33700D01*
X220600Y14200D01*
D13*
X220600Y14200D03*
M02*
