M48
;GenerationSoftware,Autodesk,EAGLE,9.0.0*%
;CreationDate,2018-09-12T04:39:06Z*%
FMAT,2
ICI,OFF
METRIC,TZ,000.000
T3C0.254
T2C0.300
T1C0.350
%
G90
M71
T1
X38260Y1470
T2
X45990Y10090
X38460Y10250
X4700Y14190
X10520Y13050
X45990Y16880
X38450Y25750
X38620Y33270
X13320Y24620
X43830Y32360
X37340Y23480
X45710Y28130
X23940Y33250
X10390Y33140
X17170Y34360
X31850Y34390
X13320Y23950
X13320Y23250
X14050Y23940
X14070Y23250
X14050Y24600
X16050Y26330
X18910Y21950
X19707Y28740
X20430Y21980
X18860Y29330
X19840Y24410
X19020Y27654
X19600Y23720
X17483Y26813
X18870Y23930
X20690Y23550
X20658Y27248
X21420Y23690
X20977Y28350
X22200Y22000
X21450Y24500
X22479Y24173
X22557Y30450
X22963Y21993
X23420Y23570
X22060Y1420
X23990Y31563
X27480Y29290
X25570Y23910
X23897Y27712
X23940Y24640
X25609Y29200
X24550Y23760
X26033Y28097
X25210Y24660
X28320Y28670
X27610Y26610
X29020Y26920
X26340Y24700
X26970Y23930
X26910Y21980
X27360Y20590
X28020Y20050
X43510Y31370
X45020Y33390
X28630Y19420
X43840Y30650
X46120Y33380
X45880Y31210
X29730Y18470
X30410Y18470
X31090Y18470
X31810Y18470
X32600Y18490
X13520Y16490
X3580Y15680
X3040Y13470
X4200Y16330
X3040Y12360
X1740Y15010
X3030Y14610
X3020Y7840
X10080Y16500
X10960Y16510
X3000Y6700
X3000Y5550
X11790Y16510
X3010Y4470
X2990Y3370
X12650Y16500
X14410Y16490
X1730Y1410
X2860Y1420
X16410Y16500
X5130Y1420
X15260Y16500
X4010Y1430
X8510Y1420
X19540Y16520
X25470Y1420
X20400Y16520
X9650Y1420
X21300Y16520
X10810Y1430
X22230Y16520
X11910Y1420
X13030Y1430
X23110Y16510
X24520Y16510
X25450Y16500
X24350Y1420
X26350Y16510
X26620Y1410
X27220Y16530
X28080Y16540
X27750Y1420
X29760Y16520
X28910Y16540
X33730Y1460
X30630Y16540
X32620Y1470
X31480Y1450
X31470Y16520
X36000Y1460
X34870Y1440
X32360Y16510
X35840Y16490
X33220Y16510
X34110Y16500
X34970Y16510
X36720Y16500
X37120Y1470
X39380Y1460
X40500Y1440
X41640Y1460
X46170Y1460
X47290Y1450
X20550Y3000
X19400Y3010
T3
X23970Y32290
X24740Y28870
X24000Y21990
M30