M48
;GenerationSoftware,Autodesk,EAGLE,9.0.0*%
;CreationDate,2018-07-20T06:24:49Z*%
FMAT,2
ICI,OFF
METRIC,TZ,000.000
T3C0.254
T2C0.300
T1C0.350
%
G90
M71
T1
X39900Y2320
T2
X35790Y11520
X47810Y11360
X38050Y11520
X5970Y15460
X12360Y13780
X14520Y11520
X47810Y18140
X38050Y27020
X39900Y35090
X14520Y27020
X45550Y33960
X38050Y24760
X47810Y29440
X25210Y35090
X11650Y35090
X18430Y35090
X33120Y35090
X16360Y27600
X20180Y23220
X20977Y30010
X21700Y23250
X20130Y30600
X21110Y25680
X20290Y28924
X20870Y24990
X18753Y28083
X20140Y25200
X21960Y24820
X21928Y28518
X22690Y24960
X22246Y29620
X23470Y23270
X22720Y25770
X23749Y25443
X23827Y31720
X24233Y23263
X24690Y24840
X37110Y17760
X25260Y32833
X28750Y30560
X26840Y25180
X25167Y28982
X25210Y25910
X26879Y30470
X25820Y25030
X27303Y29367
X26480Y25930
X29590Y29940
X28880Y27880
X30290Y28190
X27610Y25970
X28240Y25200
X28180Y23250
X28630Y21860
X29290Y21320
X44780Y32640
X46680Y35090
X29900Y20690
X45110Y31920
X47810Y35090
X47810Y32830
X31000Y19740
X31680Y19740
X32360Y19740
X33080Y19740
X14790Y17760
X3730Y16940
X3740Y14750
X4900Y17600
X3740Y13620
X2610Y15880
X3740Y15880
X3740Y9100
X11350Y17770
X12230Y17780
X3740Y7970
X3740Y6840
X13060Y17780
X3740Y5710
X3740Y4580
X13920Y17770
X15680Y17760
X2610Y2320
X3740Y2320
X17680Y17770
X6000Y2320
X16530Y17770
X4870Y2320
X9390Y2320
X20810Y17790
X26340Y2320
X21670Y17790
X10520Y2320
X22570Y17790
X11650Y2320
X23500Y17790
X12780Y2320
X13910Y2320
X24380Y17780
X25790Y17780
X26720Y17770
X27620Y17780
X27470Y2320
X28490Y17800
X29350Y17810
X28600Y2320
X31030Y17790
X30180Y17810
X35380Y2320
X31900Y17810
X34250Y2320
X33120Y2320
X32740Y17790
X37640Y2320
X36510Y2320
X33630Y17780
X25210Y2320
X34490Y17780
X35380Y17770
X36240Y17780
X37990Y17770
X38770Y2320
X41030Y2320
X42160Y2320
X43290Y2320
X47810Y2320
X48940Y2320
X21820Y3450
X21820Y2320
X20690Y2320
X20690Y3450
T3
X25240Y33560
X26010Y30140
X25270Y23260
M30