G04 EAGLE Gerber X2 export*
%TF.Part,Single*%
%TF.FileFunction,Other,Solder stop mask TOP*%
%TF.FilePolarity,Positive*%
%TF.GenerationSoftware,Autodesk,EAGLE,9.0.0*%
%TF.CreationDate,2018-07-20T06:24:49Z*%
G75*
%MOMM*%
%FSLAX34Y34*%
%LPD*%
%AMOC8*
5,1,8,0,0,1.08239X$1,22.5*%
G01*
%ADD10C,0.777000*%
%ADD11C,0.727000*%
%ADD12C,0.681000*%
%ADD13C,0.731000*%


D10*
X26100Y362200D03*
X37400Y362200D03*
X48700Y362200D03*
X71300Y362200D03*
X82600Y362200D03*
X93900Y362200D03*
X105200Y362200D03*
X116500Y362200D03*
X127800Y362200D03*
X139100Y362200D03*
X150400Y362200D03*
X161700Y362200D03*
X173000Y362200D03*
X184300Y362200D03*
X195600Y362200D03*
X206900Y362200D03*
X218200Y362200D03*
X229500Y362200D03*
X240800Y362200D03*
X252100Y362200D03*
X263400Y362200D03*
X274700Y362200D03*
X286000Y362200D03*
X297300Y362200D03*
X308600Y362200D03*
X319900Y362200D03*
X331200Y362200D03*
X342500Y362200D03*
X353800Y362200D03*
X365100Y362200D03*
X376400Y362200D03*
X387700Y362200D03*
X399000Y362200D03*
X410300Y362200D03*
X421600Y362200D03*
X432900Y362200D03*
X444200Y362200D03*
X455500Y362200D03*
X466800Y362200D03*
X478100Y362200D03*
X489400Y362200D03*
X26100Y350900D03*
X37400Y350900D03*
X48700Y350900D03*
X60000Y350900D03*
X71300Y350900D03*
X82600Y350900D03*
X93900Y350900D03*
X105200Y350900D03*
X116500Y350900D03*
X127800Y350900D03*
X139100Y350900D03*
X150400Y350900D03*
X161700Y350900D03*
X173000Y350900D03*
X184300Y350900D03*
X195600Y350900D03*
X206900Y350900D03*
X218200Y350900D03*
X229500Y350900D03*
X240800Y350900D03*
X252100Y350900D03*
X263400Y350900D03*
X274700Y350900D03*
X286000Y350900D03*
X297300Y350900D03*
X308600Y350900D03*
X319900Y350900D03*
X331200Y350900D03*
X342500Y350900D03*
X353800Y350900D03*
X365100Y350900D03*
X376400Y350900D03*
X387700Y350900D03*
X399000Y350900D03*
X410300Y350900D03*
X421600Y350900D03*
X432900Y350900D03*
X444200Y350900D03*
X455500Y350900D03*
X466800Y350900D03*
X478100Y350900D03*
X489400Y350900D03*
X26100Y23200D03*
X37400Y23200D03*
X48700Y23200D03*
X60000Y23200D03*
X71300Y23200D03*
X82600Y23200D03*
X93900Y23200D03*
X105200Y23200D03*
X116500Y23200D03*
X127800Y23200D03*
X139100Y23200D03*
X150400Y23200D03*
X161700Y23200D03*
X173000Y23200D03*
X184300Y23200D03*
X195600Y23200D03*
X206900Y23200D03*
X218200Y23200D03*
X229500Y23200D03*
X240800Y23200D03*
X252100Y23200D03*
X263400Y23200D03*
X274700Y23200D03*
X286000Y23200D03*
X297300Y23200D03*
X308600Y23200D03*
X319900Y23200D03*
X331200Y23200D03*
X342500Y23200D03*
X353800Y23200D03*
X365100Y23200D03*
X376400Y23200D03*
X387700Y23200D03*
X399000Y23200D03*
X410300Y23200D03*
X421600Y23200D03*
X432900Y23200D03*
X444200Y23200D03*
X455500Y23200D03*
X466800Y23200D03*
X478100Y23200D03*
X489400Y23200D03*
X26100Y34500D03*
X37400Y34500D03*
X48700Y34500D03*
X60000Y34500D03*
X71300Y34500D03*
X82600Y34500D03*
X93900Y34500D03*
X105200Y34500D03*
X116500Y34500D03*
X127800Y34500D03*
X139100Y34500D03*
X150400Y34500D03*
X161700Y34500D03*
X173000Y34500D03*
X184300Y34500D03*
X195600Y34500D03*
X206900Y34500D03*
X218200Y34500D03*
X229500Y34500D03*
X240800Y34500D03*
X252100Y34500D03*
X263400Y34500D03*
X274700Y34500D03*
X286000Y34500D03*
X297300Y34500D03*
X308600Y34500D03*
X319900Y34500D03*
X331200Y34500D03*
X342500Y34500D03*
X353800Y34500D03*
X365100Y34500D03*
X376400Y34500D03*
X387700Y34500D03*
X399000Y34500D03*
X410300Y34500D03*
X421600Y34500D03*
X432900Y34500D03*
X444200Y34500D03*
X455500Y34500D03*
X466800Y34500D03*
X478100Y34500D03*
X489400Y34500D03*
X26100Y339600D03*
X26100Y328300D03*
X26100Y317000D03*
X26100Y305700D03*
X26100Y294400D03*
X26100Y283100D03*
X26100Y271800D03*
X26100Y260500D03*
X26100Y249200D03*
X26100Y237900D03*
X26100Y226600D03*
X26100Y215300D03*
X26100Y204000D03*
X26100Y192700D03*
X26100Y181400D03*
X26100Y170100D03*
X26100Y158800D03*
X26100Y147500D03*
X26100Y136200D03*
X26100Y124900D03*
X26100Y113600D03*
X26100Y102300D03*
X26100Y91000D03*
X26100Y79700D03*
X26100Y68400D03*
X26100Y57100D03*
X26100Y45800D03*
X37400Y317000D03*
X37400Y305700D03*
X37400Y271800D03*
X37400Y260500D03*
X37400Y249200D03*
X37400Y237900D03*
X37400Y226600D03*
X37400Y204000D03*
X37400Y192700D03*
X37400Y158800D03*
X37400Y147500D03*
X37400Y136200D03*
X37400Y124900D03*
X37400Y113600D03*
X37400Y102300D03*
X37400Y91000D03*
X37400Y79700D03*
X37400Y68400D03*
X37400Y57100D03*
X37400Y45800D03*
X455500Y339600D03*
X466800Y339600D03*
X478100Y339600D03*
X489400Y339600D03*
X478100Y328300D03*
X478100Y317000D03*
X478100Y305700D03*
X478100Y294400D03*
X478100Y283100D03*
X478100Y271800D03*
X478100Y260500D03*
X478100Y249200D03*
X478100Y237900D03*
X478100Y226600D03*
X478100Y215300D03*
X478100Y204000D03*
X478100Y192700D03*
X478100Y181400D03*
X478100Y170100D03*
X478100Y158800D03*
X478100Y147500D03*
X478100Y136200D03*
X478100Y124900D03*
X478100Y113600D03*
X478100Y102300D03*
X478100Y91000D03*
X478100Y79700D03*
X478100Y68400D03*
X478100Y57100D03*
X478100Y45800D03*
X489400Y45800D03*
X489400Y57100D03*
X489400Y68400D03*
X489400Y79700D03*
X489400Y91000D03*
X489400Y102300D03*
X489400Y113600D03*
X489400Y124900D03*
X489400Y136200D03*
X489400Y147500D03*
X489400Y158800D03*
X489400Y170100D03*
X489400Y181400D03*
X489400Y192700D03*
X489400Y204000D03*
X489400Y215300D03*
X489400Y226600D03*
X489400Y237900D03*
X489400Y249200D03*
X489400Y260500D03*
X489400Y271800D03*
X489400Y283100D03*
X489400Y294400D03*
X489400Y317000D03*
X489400Y305700D03*
X489400Y328300D03*
X455500Y45800D03*
X466800Y45800D03*
X123600Y270200D03*
X134900Y270200D03*
X145200Y270200D03*
X357900Y270200D03*
X369200Y270200D03*
X380500Y270200D03*
X123600Y258900D03*
X380500Y258900D03*
X123600Y247600D03*
X380500Y247600D03*
X123600Y137800D03*
X380500Y137800D03*
X123600Y126500D03*
X380500Y126500D03*
X123600Y115200D03*
X134900Y115200D03*
X145200Y115200D03*
X357900Y115200D03*
X369200Y115200D03*
X380500Y115200D03*
D11*
X357900Y115200D03*
X478100Y113600D03*
X380500Y115200D03*
X59700Y154600D03*
X123600Y137800D03*
X145200Y115200D03*
X478100Y181400D03*
X380500Y270200D03*
X399000Y350900D03*
X145200Y270200D03*
X455500Y339600D03*
X380500Y247600D03*
X478100Y294400D03*
X252100Y350900D03*
X116500Y350900D03*
X184300Y350900D03*
X331200Y350900D03*
X163600Y276000D03*
X201800Y232200D03*
X209770Y300100D03*
X217000Y232500D03*
X201300Y306000D03*
X211100Y256800D03*
X202895Y289242D03*
X208700Y249900D03*
X187532Y280832D03*
X201400Y252000D03*
X219600Y248200D03*
X219282Y285182D03*
X226900Y249600D03*
X222465Y296200D03*
X234700Y232700D03*
X227200Y257700D03*
X237490Y254430D03*
X238270Y317200D03*
X242331Y232631D03*
X252400Y335600D03*
X260100Y301400D03*
X252700Y232600D03*
X252600Y328330D03*
X287500Y305600D03*
X268400Y251800D03*
X251675Y289816D03*
X252100Y259100D03*
X268793Y304700D03*
X258200Y250300D03*
X273030Y293670D03*
X264800Y259300D03*
X295900Y299400D03*
X288802Y278798D03*
X302900Y281900D03*
X276100Y259700D03*
X282400Y252000D03*
X281800Y232500D03*
X286300Y218600D03*
X292900Y213200D03*
X447800Y326400D03*
X466800Y350900D03*
X299000Y206900D03*
X451100Y319200D03*
X478100Y350900D03*
X478100Y328300D03*
X310000Y197400D03*
X316800Y197400D03*
X323600Y197400D03*
X330800Y197400D03*
X147900Y177600D03*
X37300Y169400D03*
X37400Y147500D03*
X49000Y176000D03*
X37400Y136200D03*
X26100Y158800D03*
X37400Y158800D03*
X37400Y91000D03*
X113500Y177700D03*
X122300Y177800D03*
X37400Y79700D03*
X37400Y68400D03*
X130600Y177800D03*
X37400Y57100D03*
X37400Y45800D03*
X139200Y177700D03*
X156800Y177600D03*
X26100Y23200D03*
X37400Y23200D03*
X176800Y177700D03*
X60000Y23200D03*
X165300Y177700D03*
X48700Y23200D03*
X93900Y23200D03*
X208100Y177900D03*
X263400Y23200D03*
X216700Y177900D03*
X105200Y23200D03*
X225700Y177900D03*
X116500Y23200D03*
X235000Y177900D03*
X127800Y23200D03*
X139100Y23200D03*
X243800Y177800D03*
X257900Y177800D03*
X267200Y177700D03*
X252100Y23200D03*
X276200Y177800D03*
X274700Y23200D03*
X284900Y178000D03*
X293500Y178100D03*
X286000Y23200D03*
X310300Y177900D03*
X301800Y178100D03*
X353800Y23200D03*
X319000Y178100D03*
X342500Y23200D03*
X331200Y23200D03*
X327400Y177900D03*
X376400Y23200D03*
X365100Y23200D03*
X336300Y177800D03*
X371100Y177600D03*
X344900Y177800D03*
X353800Y177700D03*
X362400Y177800D03*
X379900Y177700D03*
X387700Y23200D03*
X410300Y23200D03*
X421600Y23200D03*
X432900Y23200D03*
X478100Y23200D03*
X489400Y23200D03*
X218200Y34500D03*
D12*
X218200Y23200D03*
X206900Y23200D03*
X206900Y34500D03*
D11*
X246900Y248400D03*
D13*
X399000Y23200D03*
M02*
