G04 EAGLE Gerber X2 export*
%TF.Part,Single*%
%TF.FileFunction,Other,Silk screen Bottom*%
%TF.FilePolarity,Positive*%
%TF.GenerationSoftware,Autodesk,EAGLE,9.0.0*%
%TF.CreationDate,2018-07-20T06:24:49Z*%
G75*
%MOMM*%
%FSLAX34Y34*%
%LPD*%
%AMOC8*
5,1,8,0,0,1.08239X$1,22.5*%
G01*
%ADD10C,0.000000*%
%ADD11C,0.050800*%
%ADD12C,0.025400*%
%ADD13C,0.100000*%
%ADD14C,0.101600*%


D10*
X11000Y11000D02*
X504500Y11000D01*
X504500Y374400D01*
X11000Y374400D01*
X11000Y11000D01*
D11*
X187746Y276600D02*
X186194Y277842D01*
X186194Y272254D01*
X187746Y272254D02*
X184642Y272254D01*
X186039Y234842D02*
X185966Y234840D01*
X185893Y234834D01*
X185820Y234825D01*
X185749Y234811D01*
X185677Y234794D01*
X185607Y234774D01*
X185538Y234749D01*
X185471Y234721D01*
X185405Y234690D01*
X185341Y234655D01*
X185278Y234617D01*
X185218Y234575D01*
X185160Y234531D01*
X185104Y234483D01*
X185051Y234433D01*
X185001Y234380D01*
X184953Y234324D01*
X184909Y234266D01*
X184867Y234206D01*
X184829Y234144D01*
X184794Y234079D01*
X184763Y234013D01*
X184735Y233946D01*
X184710Y233877D01*
X184690Y233807D01*
X184673Y233735D01*
X184659Y233664D01*
X184650Y233591D01*
X184644Y233518D01*
X184642Y233445D01*
X186039Y234842D02*
X186123Y234840D01*
X186206Y234834D01*
X186289Y234825D01*
X186371Y234811D01*
X186453Y234794D01*
X186534Y234772D01*
X186614Y234747D01*
X186692Y234719D01*
X186770Y234687D01*
X186845Y234651D01*
X186919Y234612D01*
X186991Y234569D01*
X187061Y234523D01*
X187128Y234474D01*
X187194Y234421D01*
X187256Y234366D01*
X187316Y234308D01*
X187374Y234247D01*
X187428Y234184D01*
X187480Y234118D01*
X187528Y234050D01*
X187573Y233979D01*
X187615Y233907D01*
X187653Y233832D01*
X187688Y233756D01*
X187719Y233679D01*
X187747Y233600D01*
X185108Y232359D02*
X185054Y232412D01*
X185003Y232469D01*
X184955Y232528D01*
X184910Y232589D01*
X184869Y232652D01*
X184830Y232718D01*
X184795Y232785D01*
X184763Y232854D01*
X184735Y232925D01*
X184711Y232996D01*
X184690Y233069D01*
X184673Y233143D01*
X184659Y233218D01*
X184650Y233293D01*
X184644Y233369D01*
X184642Y233445D01*
X185107Y232358D02*
X187746Y229254D01*
X184642Y229254D01*
X324883Y275358D02*
X326746Y275358D01*
X324883Y275359D02*
X324813Y275357D01*
X324744Y275351D01*
X324675Y275341D01*
X324607Y275328D01*
X324539Y275310D01*
X324473Y275289D01*
X324408Y275264D01*
X324344Y275236D01*
X324282Y275204D01*
X324222Y275169D01*
X324164Y275130D01*
X324109Y275088D01*
X324055Y275043D01*
X324005Y274995D01*
X323957Y274945D01*
X323912Y274891D01*
X323870Y274836D01*
X323831Y274778D01*
X323796Y274718D01*
X323764Y274656D01*
X323736Y274592D01*
X323711Y274527D01*
X323690Y274461D01*
X323672Y274393D01*
X323659Y274325D01*
X323649Y274256D01*
X323643Y274187D01*
X323641Y274117D01*
X323642Y274117D02*
X323642Y273806D01*
X323644Y273729D01*
X323650Y273651D01*
X323659Y273575D01*
X323673Y273498D01*
X323690Y273423D01*
X323711Y273349D01*
X323736Y273275D01*
X323764Y273203D01*
X323796Y273133D01*
X323831Y273064D01*
X323870Y272997D01*
X323912Y272932D01*
X323957Y272869D01*
X324005Y272808D01*
X324056Y272750D01*
X324110Y272695D01*
X324167Y272642D01*
X324226Y272593D01*
X324288Y272546D01*
X324352Y272502D01*
X324418Y272462D01*
X324486Y272425D01*
X324556Y272391D01*
X324627Y272361D01*
X324700Y272335D01*
X324774Y272312D01*
X324849Y272293D01*
X324924Y272278D01*
X325001Y272266D01*
X325078Y272258D01*
X325155Y272254D01*
X325233Y272254D01*
X325310Y272258D01*
X325387Y272266D01*
X325464Y272278D01*
X325539Y272293D01*
X325614Y272312D01*
X325688Y272335D01*
X325761Y272361D01*
X325832Y272391D01*
X325902Y272425D01*
X325970Y272462D01*
X326036Y272502D01*
X326100Y272546D01*
X326162Y272593D01*
X326221Y272642D01*
X326278Y272695D01*
X326332Y272750D01*
X326383Y272808D01*
X326431Y272869D01*
X326476Y272932D01*
X326518Y272997D01*
X326557Y273064D01*
X326592Y273133D01*
X326624Y273203D01*
X326652Y273275D01*
X326677Y273349D01*
X326698Y273423D01*
X326715Y273498D01*
X326729Y273575D01*
X326738Y273651D01*
X326744Y273729D01*
X326746Y273806D01*
X326746Y275358D01*
X326744Y275456D01*
X326738Y275553D01*
X326729Y275650D01*
X326715Y275747D01*
X326698Y275843D01*
X326677Y275938D01*
X326653Y276032D01*
X326624Y276126D01*
X326592Y276218D01*
X326557Y276309D01*
X326518Y276398D01*
X326475Y276486D01*
X326429Y276572D01*
X326380Y276656D01*
X326327Y276738D01*
X326272Y276818D01*
X326213Y276896D01*
X326151Y276971D01*
X326086Y277044D01*
X326018Y277114D01*
X325948Y277182D01*
X325875Y277247D01*
X325800Y277309D01*
X325722Y277368D01*
X325642Y277423D01*
X325560Y277476D01*
X325476Y277525D01*
X325390Y277571D01*
X325302Y277614D01*
X325213Y277653D01*
X325122Y277688D01*
X325030Y277720D01*
X324936Y277749D01*
X324842Y277773D01*
X324747Y277794D01*
X324651Y277811D01*
X324554Y277825D01*
X324457Y277834D01*
X324360Y277840D01*
X324262Y277842D01*
X320018Y274738D02*
X318155Y274738D01*
X320018Y274737D02*
X320088Y274739D01*
X320157Y274745D01*
X320226Y274755D01*
X320294Y274768D01*
X320362Y274786D01*
X320428Y274807D01*
X320493Y274832D01*
X320557Y274860D01*
X320619Y274892D01*
X320679Y274927D01*
X320737Y274966D01*
X320792Y275008D01*
X320846Y275053D01*
X320896Y275101D01*
X320944Y275151D01*
X320989Y275205D01*
X321031Y275260D01*
X321070Y275318D01*
X321105Y275378D01*
X321137Y275440D01*
X321165Y275504D01*
X321190Y275569D01*
X321211Y275635D01*
X321229Y275703D01*
X321242Y275771D01*
X321252Y275840D01*
X321258Y275909D01*
X321260Y275979D01*
X321260Y276290D01*
X321259Y276290D02*
X321257Y276367D01*
X321251Y276445D01*
X321242Y276521D01*
X321228Y276598D01*
X321211Y276673D01*
X321190Y276747D01*
X321165Y276821D01*
X321137Y276893D01*
X321105Y276963D01*
X321070Y277032D01*
X321031Y277099D01*
X320989Y277164D01*
X320944Y277227D01*
X320896Y277288D01*
X320845Y277346D01*
X320791Y277401D01*
X320734Y277454D01*
X320675Y277503D01*
X320613Y277550D01*
X320549Y277594D01*
X320483Y277634D01*
X320415Y277671D01*
X320345Y277705D01*
X320274Y277735D01*
X320201Y277761D01*
X320127Y277784D01*
X320052Y277803D01*
X319977Y277818D01*
X319900Y277830D01*
X319823Y277838D01*
X319746Y277842D01*
X319668Y277842D01*
X319591Y277838D01*
X319514Y277830D01*
X319437Y277818D01*
X319362Y277803D01*
X319287Y277784D01*
X319213Y277761D01*
X319140Y277735D01*
X319069Y277705D01*
X318999Y277671D01*
X318931Y277634D01*
X318865Y277594D01*
X318801Y277550D01*
X318739Y277503D01*
X318680Y277454D01*
X318623Y277401D01*
X318569Y277346D01*
X318518Y277288D01*
X318470Y277227D01*
X318425Y277164D01*
X318383Y277099D01*
X318344Y277032D01*
X318309Y276963D01*
X318277Y276893D01*
X318249Y276821D01*
X318224Y276747D01*
X318203Y276673D01*
X318186Y276598D01*
X318172Y276521D01*
X318163Y276445D01*
X318157Y276367D01*
X318155Y276290D01*
X318155Y274738D01*
X318157Y274640D01*
X318163Y274543D01*
X318172Y274446D01*
X318186Y274349D01*
X318203Y274253D01*
X318224Y274158D01*
X318248Y274064D01*
X318277Y273970D01*
X318309Y273878D01*
X318344Y273787D01*
X318383Y273698D01*
X318426Y273610D01*
X318472Y273524D01*
X318521Y273440D01*
X318574Y273358D01*
X318629Y273278D01*
X318688Y273200D01*
X318750Y273125D01*
X318815Y273052D01*
X318883Y272982D01*
X318953Y272914D01*
X319026Y272849D01*
X319101Y272787D01*
X319179Y272728D01*
X319259Y272673D01*
X319341Y272620D01*
X319425Y272571D01*
X319511Y272525D01*
X319599Y272482D01*
X319688Y272443D01*
X319779Y272408D01*
X319871Y272376D01*
X319965Y272347D01*
X320059Y272323D01*
X320154Y272302D01*
X320250Y272285D01*
X320347Y272271D01*
X320444Y272262D01*
X320541Y272256D01*
X320639Y272254D01*
X326746Y234842D02*
X326746Y234221D01*
X326746Y234842D02*
X323642Y234842D01*
X325194Y229254D01*
X321260Y232048D02*
X321258Y232179D01*
X321253Y232309D01*
X321243Y232439D01*
X321230Y232569D01*
X321214Y232699D01*
X321194Y232828D01*
X321170Y232956D01*
X321142Y233083D01*
X321111Y233210D01*
X321076Y233336D01*
X321038Y233461D01*
X320996Y233585D01*
X320951Y233707D01*
X320902Y233828D01*
X320850Y233948D01*
X320794Y234066D01*
X320771Y234126D01*
X320745Y234186D01*
X320716Y234243D01*
X320683Y234299D01*
X320647Y234353D01*
X320609Y234405D01*
X320567Y234455D01*
X320523Y234502D01*
X320476Y234547D01*
X320426Y234589D01*
X320375Y234628D01*
X320321Y234664D01*
X320265Y234697D01*
X320208Y234727D01*
X320149Y234754D01*
X320088Y234777D01*
X320027Y234797D01*
X319964Y234813D01*
X319900Y234826D01*
X319836Y234835D01*
X319772Y234840D01*
X319707Y234842D01*
X319642Y234840D01*
X319578Y234835D01*
X319514Y234826D01*
X319450Y234813D01*
X319387Y234797D01*
X319326Y234777D01*
X319265Y234754D01*
X319206Y234727D01*
X319149Y234697D01*
X319093Y234664D01*
X319039Y234628D01*
X318988Y234589D01*
X318938Y234547D01*
X318891Y234502D01*
X318847Y234455D01*
X318805Y234405D01*
X318767Y234353D01*
X318731Y234299D01*
X318698Y234243D01*
X318669Y234186D01*
X318643Y234126D01*
X318620Y234066D01*
X318621Y234066D02*
X318565Y233948D01*
X318513Y233828D01*
X318464Y233707D01*
X318419Y233585D01*
X318377Y233461D01*
X318339Y233336D01*
X318304Y233210D01*
X318273Y233084D01*
X318245Y232956D01*
X318221Y232828D01*
X318201Y232699D01*
X318185Y232569D01*
X318172Y232439D01*
X318162Y232309D01*
X318157Y232179D01*
X318155Y232048D01*
X321259Y232048D02*
X321257Y231917D01*
X321252Y231787D01*
X321242Y231657D01*
X321229Y231527D01*
X321213Y231397D01*
X321193Y231269D01*
X321169Y231140D01*
X321141Y231013D01*
X321110Y230886D01*
X321075Y230760D01*
X321037Y230635D01*
X320995Y230512D01*
X320950Y230389D01*
X320901Y230268D01*
X320849Y230148D01*
X320793Y230030D01*
X320794Y230030D02*
X320771Y229970D01*
X320745Y229910D01*
X320716Y229853D01*
X320683Y229797D01*
X320647Y229743D01*
X320609Y229691D01*
X320567Y229641D01*
X320523Y229594D01*
X320476Y229549D01*
X320426Y229507D01*
X320375Y229468D01*
X320321Y229432D01*
X320265Y229399D01*
X320208Y229369D01*
X320149Y229342D01*
X320088Y229319D01*
X320027Y229299D01*
X319964Y229283D01*
X319900Y229270D01*
X319836Y229261D01*
X319772Y229256D01*
X319707Y229254D01*
X318621Y230030D02*
X318565Y230148D01*
X318513Y230268D01*
X318464Y230389D01*
X318419Y230511D01*
X318377Y230635D01*
X318339Y230760D01*
X318304Y230886D01*
X318273Y231012D01*
X318245Y231140D01*
X318221Y231268D01*
X318201Y231397D01*
X318185Y231527D01*
X318172Y231657D01*
X318162Y231787D01*
X318157Y231917D01*
X318155Y232048D01*
X318620Y230030D02*
X318643Y229970D01*
X318669Y229910D01*
X318698Y229853D01*
X318731Y229797D01*
X318767Y229743D01*
X318805Y229691D01*
X318847Y229641D01*
X318891Y229594D01*
X318938Y229549D01*
X318988Y229507D01*
X319039Y229468D01*
X319093Y229432D01*
X319149Y229399D01*
X319206Y229369D01*
X319265Y229342D01*
X319326Y229319D01*
X319387Y229299D01*
X319450Y229283D01*
X319514Y229270D01*
X319578Y229261D01*
X319642Y229256D01*
X319707Y229254D01*
X320949Y230496D02*
X318466Y233600D01*
X187746Y150600D02*
X186194Y151842D01*
X186194Y146254D01*
X187746Y146254D02*
X184642Y146254D01*
X187039Y107842D02*
X186966Y107840D01*
X186893Y107834D01*
X186820Y107825D01*
X186749Y107811D01*
X186677Y107794D01*
X186607Y107774D01*
X186538Y107749D01*
X186471Y107721D01*
X186405Y107690D01*
X186341Y107655D01*
X186278Y107617D01*
X186218Y107575D01*
X186160Y107531D01*
X186104Y107483D01*
X186051Y107433D01*
X186001Y107380D01*
X185953Y107324D01*
X185909Y107266D01*
X185867Y107206D01*
X185829Y107144D01*
X185794Y107079D01*
X185763Y107013D01*
X185735Y106946D01*
X185710Y106877D01*
X185690Y106807D01*
X185673Y106735D01*
X185659Y106664D01*
X185650Y106591D01*
X185644Y106518D01*
X185642Y106445D01*
X187039Y107842D02*
X187123Y107840D01*
X187206Y107834D01*
X187289Y107825D01*
X187371Y107811D01*
X187453Y107794D01*
X187534Y107772D01*
X187614Y107747D01*
X187692Y107719D01*
X187770Y107687D01*
X187845Y107651D01*
X187919Y107612D01*
X187991Y107569D01*
X188061Y107523D01*
X188128Y107474D01*
X188194Y107421D01*
X188256Y107366D01*
X188316Y107308D01*
X188374Y107247D01*
X188428Y107184D01*
X188480Y107118D01*
X188528Y107050D01*
X188573Y106979D01*
X188615Y106907D01*
X188653Y106832D01*
X188688Y106756D01*
X188719Y106679D01*
X188747Y106600D01*
X186108Y105359D02*
X186054Y105412D01*
X186003Y105469D01*
X185955Y105528D01*
X185910Y105589D01*
X185869Y105652D01*
X185830Y105718D01*
X185795Y105785D01*
X185763Y105854D01*
X185735Y105925D01*
X185711Y105996D01*
X185690Y106069D01*
X185673Y106143D01*
X185659Y106218D01*
X185650Y106293D01*
X185644Y106369D01*
X185642Y106445D01*
X186107Y105358D02*
X188746Y102254D01*
X185642Y102254D01*
X323883Y149358D02*
X325746Y149358D01*
X323883Y149359D02*
X323813Y149357D01*
X323744Y149351D01*
X323675Y149341D01*
X323607Y149328D01*
X323539Y149310D01*
X323473Y149289D01*
X323408Y149264D01*
X323344Y149236D01*
X323282Y149204D01*
X323222Y149169D01*
X323164Y149130D01*
X323109Y149088D01*
X323055Y149043D01*
X323005Y148995D01*
X322957Y148945D01*
X322912Y148891D01*
X322870Y148836D01*
X322831Y148778D01*
X322796Y148718D01*
X322764Y148656D01*
X322736Y148592D01*
X322711Y148527D01*
X322690Y148461D01*
X322672Y148393D01*
X322659Y148325D01*
X322649Y148256D01*
X322643Y148187D01*
X322641Y148117D01*
X322642Y148117D02*
X322642Y147806D01*
X322644Y147729D01*
X322650Y147651D01*
X322659Y147575D01*
X322673Y147498D01*
X322690Y147423D01*
X322711Y147349D01*
X322736Y147275D01*
X322764Y147203D01*
X322796Y147133D01*
X322831Y147064D01*
X322870Y146997D01*
X322912Y146932D01*
X322957Y146869D01*
X323005Y146808D01*
X323056Y146750D01*
X323110Y146695D01*
X323167Y146642D01*
X323226Y146593D01*
X323288Y146546D01*
X323352Y146502D01*
X323418Y146462D01*
X323486Y146425D01*
X323556Y146391D01*
X323627Y146361D01*
X323700Y146335D01*
X323774Y146312D01*
X323849Y146293D01*
X323924Y146278D01*
X324001Y146266D01*
X324078Y146258D01*
X324155Y146254D01*
X324233Y146254D01*
X324310Y146258D01*
X324387Y146266D01*
X324464Y146278D01*
X324539Y146293D01*
X324614Y146312D01*
X324688Y146335D01*
X324761Y146361D01*
X324832Y146391D01*
X324902Y146425D01*
X324970Y146462D01*
X325036Y146502D01*
X325100Y146546D01*
X325162Y146593D01*
X325221Y146642D01*
X325278Y146695D01*
X325332Y146750D01*
X325383Y146808D01*
X325431Y146869D01*
X325476Y146932D01*
X325518Y146997D01*
X325557Y147064D01*
X325592Y147133D01*
X325624Y147203D01*
X325652Y147275D01*
X325677Y147349D01*
X325698Y147423D01*
X325715Y147498D01*
X325729Y147575D01*
X325738Y147651D01*
X325744Y147729D01*
X325746Y147806D01*
X325746Y149358D01*
X325744Y149456D01*
X325738Y149553D01*
X325729Y149650D01*
X325715Y149747D01*
X325698Y149843D01*
X325677Y149938D01*
X325653Y150032D01*
X325624Y150126D01*
X325592Y150218D01*
X325557Y150309D01*
X325518Y150398D01*
X325475Y150486D01*
X325429Y150572D01*
X325380Y150656D01*
X325327Y150738D01*
X325272Y150818D01*
X325213Y150896D01*
X325151Y150971D01*
X325086Y151044D01*
X325018Y151114D01*
X324948Y151182D01*
X324875Y151247D01*
X324800Y151309D01*
X324722Y151368D01*
X324642Y151423D01*
X324560Y151476D01*
X324476Y151525D01*
X324390Y151571D01*
X324302Y151614D01*
X324213Y151653D01*
X324122Y151688D01*
X324030Y151720D01*
X323936Y151749D01*
X323842Y151773D01*
X323747Y151794D01*
X323651Y151811D01*
X323554Y151825D01*
X323457Y151834D01*
X323360Y151840D01*
X323262Y151842D01*
X319018Y148738D02*
X317155Y148738D01*
X319018Y148737D02*
X319088Y148739D01*
X319157Y148745D01*
X319226Y148755D01*
X319294Y148768D01*
X319362Y148786D01*
X319428Y148807D01*
X319493Y148832D01*
X319557Y148860D01*
X319619Y148892D01*
X319679Y148927D01*
X319737Y148966D01*
X319792Y149008D01*
X319846Y149053D01*
X319896Y149101D01*
X319944Y149151D01*
X319989Y149205D01*
X320031Y149260D01*
X320070Y149318D01*
X320105Y149378D01*
X320137Y149440D01*
X320165Y149504D01*
X320190Y149569D01*
X320211Y149635D01*
X320229Y149703D01*
X320242Y149771D01*
X320252Y149840D01*
X320258Y149909D01*
X320260Y149979D01*
X320260Y150290D01*
X320259Y150290D02*
X320257Y150367D01*
X320251Y150445D01*
X320242Y150521D01*
X320228Y150598D01*
X320211Y150673D01*
X320190Y150747D01*
X320165Y150821D01*
X320137Y150893D01*
X320105Y150963D01*
X320070Y151032D01*
X320031Y151099D01*
X319989Y151164D01*
X319944Y151227D01*
X319896Y151288D01*
X319845Y151346D01*
X319791Y151401D01*
X319734Y151454D01*
X319675Y151503D01*
X319613Y151550D01*
X319549Y151594D01*
X319483Y151634D01*
X319415Y151671D01*
X319345Y151705D01*
X319274Y151735D01*
X319201Y151761D01*
X319127Y151784D01*
X319052Y151803D01*
X318977Y151818D01*
X318900Y151830D01*
X318823Y151838D01*
X318746Y151842D01*
X318668Y151842D01*
X318591Y151838D01*
X318514Y151830D01*
X318437Y151818D01*
X318362Y151803D01*
X318287Y151784D01*
X318213Y151761D01*
X318140Y151735D01*
X318069Y151705D01*
X317999Y151671D01*
X317931Y151634D01*
X317865Y151594D01*
X317801Y151550D01*
X317739Y151503D01*
X317680Y151454D01*
X317623Y151401D01*
X317569Y151346D01*
X317518Y151288D01*
X317470Y151227D01*
X317425Y151164D01*
X317383Y151099D01*
X317344Y151032D01*
X317309Y150963D01*
X317277Y150893D01*
X317249Y150821D01*
X317224Y150747D01*
X317203Y150673D01*
X317186Y150598D01*
X317172Y150521D01*
X317163Y150445D01*
X317157Y150367D01*
X317155Y150290D01*
X317155Y148738D01*
X317157Y148640D01*
X317163Y148543D01*
X317172Y148446D01*
X317186Y148349D01*
X317203Y148253D01*
X317224Y148158D01*
X317248Y148064D01*
X317277Y147970D01*
X317309Y147878D01*
X317344Y147787D01*
X317383Y147698D01*
X317426Y147610D01*
X317472Y147524D01*
X317521Y147440D01*
X317574Y147358D01*
X317629Y147278D01*
X317688Y147200D01*
X317750Y147125D01*
X317815Y147052D01*
X317883Y146982D01*
X317953Y146914D01*
X318026Y146849D01*
X318101Y146787D01*
X318179Y146728D01*
X318259Y146673D01*
X318341Y146620D01*
X318425Y146571D01*
X318511Y146525D01*
X318599Y146482D01*
X318688Y146443D01*
X318779Y146408D01*
X318871Y146376D01*
X318965Y146347D01*
X319059Y146323D01*
X319154Y146302D01*
X319250Y146285D01*
X319347Y146271D01*
X319444Y146262D01*
X319541Y146256D01*
X319639Y146254D01*
X326746Y107842D02*
X326746Y107221D01*
X326746Y107842D02*
X323642Y107842D01*
X325194Y102254D01*
X321260Y105048D02*
X321258Y105179D01*
X321253Y105309D01*
X321243Y105439D01*
X321230Y105569D01*
X321214Y105699D01*
X321194Y105828D01*
X321170Y105956D01*
X321142Y106083D01*
X321111Y106210D01*
X321076Y106336D01*
X321038Y106461D01*
X320996Y106585D01*
X320951Y106707D01*
X320902Y106828D01*
X320850Y106948D01*
X320794Y107066D01*
X320771Y107126D01*
X320745Y107186D01*
X320716Y107243D01*
X320683Y107299D01*
X320647Y107353D01*
X320609Y107405D01*
X320567Y107455D01*
X320523Y107502D01*
X320476Y107547D01*
X320426Y107589D01*
X320375Y107628D01*
X320321Y107664D01*
X320265Y107697D01*
X320208Y107727D01*
X320149Y107754D01*
X320088Y107777D01*
X320027Y107797D01*
X319964Y107813D01*
X319900Y107826D01*
X319836Y107835D01*
X319772Y107840D01*
X319707Y107842D01*
X319642Y107840D01*
X319578Y107835D01*
X319514Y107826D01*
X319450Y107813D01*
X319387Y107797D01*
X319326Y107777D01*
X319265Y107754D01*
X319206Y107727D01*
X319149Y107697D01*
X319093Y107664D01*
X319039Y107628D01*
X318988Y107589D01*
X318938Y107547D01*
X318891Y107502D01*
X318847Y107455D01*
X318805Y107405D01*
X318767Y107353D01*
X318731Y107299D01*
X318698Y107243D01*
X318669Y107186D01*
X318643Y107126D01*
X318620Y107066D01*
X318621Y107066D02*
X318565Y106948D01*
X318513Y106828D01*
X318464Y106707D01*
X318419Y106585D01*
X318377Y106461D01*
X318339Y106336D01*
X318304Y106210D01*
X318273Y106084D01*
X318245Y105956D01*
X318221Y105828D01*
X318201Y105699D01*
X318185Y105569D01*
X318172Y105439D01*
X318162Y105309D01*
X318157Y105179D01*
X318155Y105048D01*
X321259Y105048D02*
X321257Y104917D01*
X321252Y104787D01*
X321242Y104657D01*
X321229Y104527D01*
X321213Y104397D01*
X321193Y104269D01*
X321169Y104140D01*
X321141Y104013D01*
X321110Y103886D01*
X321075Y103760D01*
X321037Y103635D01*
X320995Y103512D01*
X320950Y103389D01*
X320901Y103268D01*
X320849Y103148D01*
X320793Y103030D01*
X320794Y103030D02*
X320771Y102970D01*
X320745Y102910D01*
X320716Y102853D01*
X320683Y102797D01*
X320647Y102743D01*
X320609Y102691D01*
X320567Y102641D01*
X320523Y102594D01*
X320476Y102549D01*
X320426Y102507D01*
X320375Y102468D01*
X320321Y102432D01*
X320265Y102399D01*
X320208Y102369D01*
X320149Y102342D01*
X320088Y102319D01*
X320027Y102299D01*
X319964Y102283D01*
X319900Y102270D01*
X319836Y102261D01*
X319772Y102256D01*
X319707Y102254D01*
X318621Y103030D02*
X318565Y103148D01*
X318513Y103268D01*
X318464Y103389D01*
X318419Y103511D01*
X318377Y103635D01*
X318339Y103760D01*
X318304Y103886D01*
X318273Y104012D01*
X318245Y104140D01*
X318221Y104268D01*
X318201Y104397D01*
X318185Y104527D01*
X318172Y104657D01*
X318162Y104787D01*
X318157Y104917D01*
X318155Y105048D01*
X318620Y103030D02*
X318643Y102970D01*
X318669Y102910D01*
X318698Y102853D01*
X318731Y102797D01*
X318767Y102743D01*
X318805Y102691D01*
X318847Y102641D01*
X318891Y102594D01*
X318938Y102549D01*
X318988Y102507D01*
X319039Y102468D01*
X319093Y102432D01*
X319149Y102399D01*
X319206Y102369D01*
X319265Y102342D01*
X319326Y102319D01*
X319387Y102299D01*
X319450Y102283D01*
X319514Y102270D01*
X319578Y102261D01*
X319642Y102256D01*
X319707Y102254D01*
X320949Y103496D02*
X318466Y106600D01*
X62746Y254930D02*
X58400Y254930D01*
X58330Y254928D01*
X58261Y254922D01*
X58192Y254912D01*
X58124Y254899D01*
X58056Y254881D01*
X57990Y254860D01*
X57925Y254835D01*
X57861Y254807D01*
X57799Y254775D01*
X57739Y254740D01*
X57681Y254701D01*
X57626Y254659D01*
X57572Y254614D01*
X57522Y254566D01*
X57474Y254516D01*
X57429Y254462D01*
X57387Y254407D01*
X57348Y254349D01*
X57313Y254289D01*
X57281Y254227D01*
X57253Y254163D01*
X57228Y254098D01*
X57207Y254032D01*
X57189Y253964D01*
X57176Y253896D01*
X57166Y253827D01*
X57160Y253758D01*
X57158Y253688D01*
X57158Y253067D01*
X58400Y257416D02*
X59642Y257416D01*
X59712Y257418D01*
X59781Y257424D01*
X59850Y257434D01*
X59918Y257447D01*
X59986Y257465D01*
X60052Y257486D01*
X60117Y257511D01*
X60181Y257539D01*
X60243Y257571D01*
X60303Y257606D01*
X60361Y257645D01*
X60416Y257687D01*
X60470Y257732D01*
X60520Y257780D01*
X60568Y257830D01*
X60613Y257884D01*
X60655Y257939D01*
X60694Y257997D01*
X60729Y258057D01*
X60761Y258119D01*
X60789Y258183D01*
X60814Y258248D01*
X60835Y258314D01*
X60853Y258382D01*
X60866Y258450D01*
X60876Y258519D01*
X60882Y258588D01*
X60884Y258658D01*
X60882Y258728D01*
X60876Y258797D01*
X60866Y258866D01*
X60853Y258934D01*
X60835Y259002D01*
X60814Y259068D01*
X60789Y259133D01*
X60761Y259197D01*
X60729Y259259D01*
X60694Y259319D01*
X60655Y259377D01*
X60613Y259432D01*
X60568Y259486D01*
X60520Y259536D01*
X60470Y259584D01*
X60416Y259629D01*
X60361Y259671D01*
X60303Y259710D01*
X60243Y259745D01*
X60181Y259777D01*
X60117Y259805D01*
X60052Y259830D01*
X59986Y259851D01*
X59918Y259869D01*
X59850Y259882D01*
X59781Y259892D01*
X59712Y259898D01*
X59642Y259900D01*
X58400Y259900D01*
X58330Y259898D01*
X58261Y259892D01*
X58192Y259882D01*
X58124Y259869D01*
X58056Y259851D01*
X57990Y259830D01*
X57925Y259805D01*
X57861Y259777D01*
X57799Y259745D01*
X57739Y259710D01*
X57681Y259671D01*
X57626Y259629D01*
X57572Y259584D01*
X57522Y259536D01*
X57474Y259486D01*
X57429Y259432D01*
X57387Y259377D01*
X57348Y259319D01*
X57313Y259259D01*
X57281Y259197D01*
X57253Y259133D01*
X57228Y259068D01*
X57207Y259002D01*
X57189Y258934D01*
X57176Y258866D01*
X57166Y258797D01*
X57160Y258728D01*
X57158Y258658D01*
X57160Y258588D01*
X57166Y258519D01*
X57176Y258450D01*
X57189Y258382D01*
X57207Y258314D01*
X57228Y258248D01*
X57253Y258183D01*
X57281Y258119D01*
X57313Y258057D01*
X57348Y257997D01*
X57387Y257939D01*
X57429Y257884D01*
X57474Y257830D01*
X57522Y257780D01*
X57572Y257732D01*
X57626Y257687D01*
X57681Y257645D01*
X57739Y257606D01*
X57799Y257571D01*
X57861Y257539D01*
X57925Y257511D01*
X57990Y257486D01*
X58056Y257465D01*
X58124Y257447D01*
X58192Y257434D01*
X58261Y257424D01*
X58330Y257418D01*
X58400Y257416D01*
X57158Y262387D02*
X60883Y262387D01*
X60883Y264249D01*
X60262Y264249D01*
X57158Y266914D02*
X57158Y268466D01*
X57158Y266914D02*
X57160Y266856D01*
X57165Y266797D01*
X57174Y266740D01*
X57187Y266682D01*
X57204Y266626D01*
X57223Y266571D01*
X57247Y266518D01*
X57273Y266465D01*
X57303Y266415D01*
X57336Y266367D01*
X57372Y266321D01*
X57410Y266277D01*
X57452Y266235D01*
X57496Y266197D01*
X57542Y266161D01*
X57590Y266128D01*
X57640Y266098D01*
X57693Y266072D01*
X57746Y266048D01*
X57801Y266029D01*
X57857Y266012D01*
X57915Y265999D01*
X57972Y265990D01*
X58031Y265985D01*
X58089Y265983D01*
X59952Y265983D01*
X60010Y265985D01*
X60069Y265990D01*
X60126Y265999D01*
X60184Y266012D01*
X60240Y266029D01*
X60295Y266048D01*
X60348Y266072D01*
X60401Y266098D01*
X60451Y266128D01*
X60499Y266161D01*
X60545Y266197D01*
X60589Y266235D01*
X60631Y266277D01*
X60669Y266321D01*
X60705Y266367D01*
X60738Y266415D01*
X60768Y266465D01*
X60794Y266518D01*
X60818Y266571D01*
X60837Y266626D01*
X60854Y266682D01*
X60867Y266740D01*
X60876Y266797D01*
X60881Y266856D01*
X60883Y266914D01*
X60883Y268466D01*
X56227Y268466D01*
X56166Y268464D01*
X56105Y268458D01*
X56045Y268448D01*
X55986Y268434D01*
X55928Y268417D01*
X55871Y268395D01*
X55815Y268370D01*
X55762Y268341D01*
X55710Y268309D01*
X55660Y268274D01*
X55613Y268235D01*
X55569Y268193D01*
X55527Y268149D01*
X55488Y268102D01*
X55453Y268052D01*
X55421Y268001D01*
X55392Y267947D01*
X55367Y267891D01*
X55345Y267834D01*
X55328Y267776D01*
X55314Y267717D01*
X55304Y267657D01*
X55298Y267596D01*
X55296Y267535D01*
X55295Y267535D02*
X55295Y266293D01*
X57158Y271881D02*
X57158Y273433D01*
X57158Y271881D02*
X57160Y271823D01*
X57165Y271764D01*
X57174Y271707D01*
X57187Y271649D01*
X57204Y271593D01*
X57223Y271538D01*
X57247Y271485D01*
X57273Y271432D01*
X57303Y271382D01*
X57336Y271334D01*
X57372Y271288D01*
X57410Y271244D01*
X57452Y271202D01*
X57496Y271164D01*
X57542Y271128D01*
X57590Y271095D01*
X57640Y271065D01*
X57693Y271039D01*
X57746Y271015D01*
X57801Y270996D01*
X57857Y270979D01*
X57915Y270966D01*
X57972Y270957D01*
X58031Y270952D01*
X58089Y270950D01*
X58089Y270949D02*
X59642Y270949D01*
X59712Y270951D01*
X59781Y270957D01*
X59850Y270967D01*
X59918Y270980D01*
X59986Y270998D01*
X60052Y271019D01*
X60117Y271044D01*
X60181Y271072D01*
X60243Y271104D01*
X60303Y271139D01*
X60361Y271178D01*
X60416Y271220D01*
X60470Y271265D01*
X60520Y271313D01*
X60568Y271363D01*
X60613Y271417D01*
X60655Y271472D01*
X60694Y271530D01*
X60729Y271590D01*
X60761Y271652D01*
X60789Y271716D01*
X60814Y271781D01*
X60835Y271847D01*
X60853Y271915D01*
X60866Y271983D01*
X60876Y272052D01*
X60882Y272121D01*
X60884Y272191D01*
X60882Y272261D01*
X60876Y272330D01*
X60866Y272399D01*
X60853Y272467D01*
X60835Y272535D01*
X60814Y272601D01*
X60789Y272666D01*
X60761Y272730D01*
X60729Y272792D01*
X60694Y272852D01*
X60655Y272910D01*
X60613Y272965D01*
X60568Y273019D01*
X60520Y273069D01*
X60470Y273117D01*
X60416Y273162D01*
X60361Y273204D01*
X60303Y273243D01*
X60243Y273278D01*
X60181Y273310D01*
X60117Y273338D01*
X60052Y273363D01*
X59986Y273384D01*
X59918Y273402D01*
X59850Y273415D01*
X59781Y273425D01*
X59712Y273431D01*
X59642Y273433D01*
X59021Y273433D01*
X59021Y270949D01*
X60262Y281042D02*
X60262Y281973D01*
X57158Y281973D01*
X57158Y280110D01*
X57160Y280040D01*
X57166Y279971D01*
X57176Y279902D01*
X57189Y279834D01*
X57207Y279766D01*
X57228Y279700D01*
X57253Y279635D01*
X57281Y279571D01*
X57313Y279509D01*
X57348Y279449D01*
X57387Y279391D01*
X57429Y279336D01*
X57474Y279282D01*
X57522Y279232D01*
X57572Y279184D01*
X57626Y279139D01*
X57681Y279097D01*
X57739Y279058D01*
X57799Y279023D01*
X57861Y278991D01*
X57925Y278963D01*
X57990Y278938D01*
X58056Y278917D01*
X58124Y278899D01*
X58192Y278886D01*
X58261Y278876D01*
X58330Y278870D01*
X58400Y278868D01*
X61504Y278868D01*
X61574Y278870D01*
X61643Y278876D01*
X61712Y278886D01*
X61780Y278899D01*
X61848Y278917D01*
X61914Y278938D01*
X61979Y278963D01*
X62043Y278991D01*
X62105Y279023D01*
X62165Y279058D01*
X62223Y279097D01*
X62278Y279139D01*
X62332Y279184D01*
X62382Y279232D01*
X62430Y279282D01*
X62475Y279336D01*
X62517Y279391D01*
X62556Y279449D01*
X62591Y279509D01*
X62623Y279571D01*
X62651Y279635D01*
X62676Y279700D01*
X62697Y279766D01*
X62715Y279834D01*
X62728Y279902D01*
X62738Y279971D01*
X62744Y280040D01*
X62746Y280110D01*
X62746Y281973D01*
X59331Y285540D02*
X59331Y286937D01*
X59332Y285540D02*
X59330Y285476D01*
X59324Y285411D01*
X59315Y285348D01*
X59302Y285285D01*
X59285Y285223D01*
X59264Y285162D01*
X59240Y285102D01*
X59212Y285044D01*
X59181Y284987D01*
X59147Y284933D01*
X59109Y284880D01*
X59068Y284830D01*
X59025Y284783D01*
X58979Y284738D01*
X58930Y284696D01*
X58879Y284657D01*
X58825Y284621D01*
X58770Y284588D01*
X58712Y284559D01*
X58654Y284533D01*
X58593Y284510D01*
X58532Y284491D01*
X58469Y284476D01*
X58405Y284465D01*
X58342Y284457D01*
X58277Y284453D01*
X58213Y284453D01*
X58148Y284457D01*
X58085Y284465D01*
X58021Y284476D01*
X57958Y284491D01*
X57897Y284510D01*
X57836Y284533D01*
X57778Y284559D01*
X57720Y284588D01*
X57665Y284621D01*
X57611Y284657D01*
X57560Y284696D01*
X57511Y284738D01*
X57465Y284783D01*
X57422Y284830D01*
X57381Y284880D01*
X57343Y284933D01*
X57309Y284987D01*
X57278Y285044D01*
X57250Y285102D01*
X57226Y285162D01*
X57205Y285223D01*
X57188Y285285D01*
X57175Y285348D01*
X57166Y285411D01*
X57160Y285476D01*
X57158Y285540D01*
X57158Y286937D01*
X59952Y286937D01*
X60010Y286935D01*
X60069Y286930D01*
X60126Y286921D01*
X60184Y286908D01*
X60240Y286891D01*
X60295Y286872D01*
X60348Y286848D01*
X60401Y286822D01*
X60451Y286792D01*
X60499Y286759D01*
X60545Y286723D01*
X60589Y286685D01*
X60631Y286643D01*
X60669Y286599D01*
X60705Y286553D01*
X60738Y286505D01*
X60768Y286455D01*
X60794Y286402D01*
X60818Y286349D01*
X60837Y286294D01*
X60854Y286238D01*
X60867Y286180D01*
X60876Y286123D01*
X60881Y286064D01*
X60883Y286006D01*
X60883Y284764D01*
X60883Y289635D02*
X57158Y289635D01*
X60883Y289635D02*
X60883Y291498D01*
X60262Y291498D01*
X60883Y293078D02*
X60883Y295561D01*
X57158Y293078D01*
X57158Y295561D01*
X59331Y298707D02*
X59331Y300104D01*
X59332Y298707D02*
X59330Y298643D01*
X59324Y298578D01*
X59315Y298515D01*
X59302Y298452D01*
X59285Y298390D01*
X59264Y298329D01*
X59240Y298269D01*
X59212Y298211D01*
X59181Y298154D01*
X59147Y298100D01*
X59109Y298047D01*
X59068Y297997D01*
X59025Y297950D01*
X58979Y297905D01*
X58930Y297863D01*
X58879Y297824D01*
X58825Y297788D01*
X58770Y297755D01*
X58712Y297726D01*
X58654Y297700D01*
X58593Y297677D01*
X58532Y297658D01*
X58469Y297643D01*
X58405Y297632D01*
X58342Y297624D01*
X58277Y297620D01*
X58213Y297620D01*
X58148Y297624D01*
X58085Y297632D01*
X58021Y297643D01*
X57958Y297658D01*
X57897Y297677D01*
X57836Y297700D01*
X57778Y297726D01*
X57720Y297755D01*
X57665Y297788D01*
X57611Y297824D01*
X57560Y297863D01*
X57511Y297905D01*
X57465Y297950D01*
X57422Y297997D01*
X57381Y298047D01*
X57343Y298100D01*
X57309Y298154D01*
X57278Y298211D01*
X57250Y298269D01*
X57226Y298329D01*
X57205Y298390D01*
X57188Y298452D01*
X57175Y298515D01*
X57166Y298578D01*
X57160Y298643D01*
X57158Y298707D01*
X57158Y300104D01*
X59952Y300104D01*
X60010Y300102D01*
X60069Y300097D01*
X60126Y300088D01*
X60184Y300075D01*
X60240Y300058D01*
X60295Y300039D01*
X60348Y300015D01*
X60401Y299989D01*
X60451Y299959D01*
X60499Y299926D01*
X60545Y299890D01*
X60589Y299852D01*
X60631Y299810D01*
X60669Y299766D01*
X60705Y299720D01*
X60738Y299672D01*
X60768Y299622D01*
X60794Y299569D01*
X60818Y299516D01*
X60837Y299461D01*
X60854Y299405D01*
X60867Y299347D01*
X60876Y299290D01*
X60881Y299231D01*
X60883Y299173D01*
X60883Y297931D01*
X53602Y254930D02*
X48014Y253067D01*
X48014Y256792D02*
X53602Y254930D01*
X49411Y256327D02*
X49411Y253533D01*
X48014Y259083D02*
X53602Y259083D01*
X53602Y260635D01*
X53600Y260712D01*
X53594Y260790D01*
X53585Y260866D01*
X53571Y260943D01*
X53554Y261018D01*
X53533Y261092D01*
X53508Y261166D01*
X53480Y261238D01*
X53448Y261308D01*
X53413Y261377D01*
X53374Y261444D01*
X53332Y261509D01*
X53287Y261572D01*
X53239Y261633D01*
X53188Y261691D01*
X53134Y261746D01*
X53077Y261799D01*
X53018Y261848D01*
X52956Y261895D01*
X52892Y261939D01*
X52826Y261979D01*
X52758Y262016D01*
X52688Y262050D01*
X52617Y262080D01*
X52544Y262106D01*
X52470Y262129D01*
X52395Y262148D01*
X52320Y262163D01*
X52243Y262175D01*
X52166Y262183D01*
X52089Y262187D01*
X52011Y262187D01*
X51934Y262183D01*
X51857Y262175D01*
X51780Y262163D01*
X51705Y262148D01*
X51630Y262129D01*
X51556Y262106D01*
X51483Y262080D01*
X51412Y262050D01*
X51342Y262016D01*
X51274Y261979D01*
X51208Y261939D01*
X51144Y261895D01*
X51082Y261848D01*
X51023Y261799D01*
X50966Y261746D01*
X50912Y261691D01*
X50861Y261633D01*
X50813Y261572D01*
X50768Y261509D01*
X50726Y261444D01*
X50687Y261377D01*
X50652Y261308D01*
X50620Y261238D01*
X50592Y261166D01*
X50567Y261092D01*
X50546Y261018D01*
X50529Y260943D01*
X50515Y260866D01*
X50506Y260790D01*
X50500Y260712D01*
X50498Y260635D01*
X50498Y259083D01*
X50498Y260945D02*
X48014Y262187D01*
X48014Y265720D02*
X53602Y265720D01*
X53602Y267272D02*
X53602Y264167D01*
X53602Y269743D02*
X48014Y269743D01*
X48014Y269122D02*
X48014Y270364D01*
X53602Y270364D02*
X53602Y269122D01*
X53602Y272846D02*
X48014Y272846D01*
X50187Y272846D02*
X53602Y275950D01*
X51429Y274087D02*
X48014Y275950D01*
X48014Y278066D02*
X48014Y279929D01*
X48016Y279999D01*
X48022Y280068D01*
X48032Y280137D01*
X48045Y280205D01*
X48063Y280273D01*
X48084Y280339D01*
X48109Y280404D01*
X48137Y280468D01*
X48169Y280530D01*
X48204Y280590D01*
X48243Y280648D01*
X48285Y280703D01*
X48330Y280757D01*
X48378Y280807D01*
X48428Y280855D01*
X48482Y280900D01*
X48537Y280942D01*
X48595Y280981D01*
X48655Y281016D01*
X48717Y281048D01*
X48781Y281076D01*
X48846Y281101D01*
X48912Y281122D01*
X48980Y281140D01*
X49048Y281153D01*
X49117Y281163D01*
X49186Y281169D01*
X49256Y281171D01*
X49877Y281171D01*
X49947Y281169D01*
X50016Y281163D01*
X50085Y281153D01*
X50153Y281140D01*
X50221Y281122D01*
X50287Y281101D01*
X50352Y281076D01*
X50416Y281048D01*
X50478Y281016D01*
X50538Y280981D01*
X50596Y280942D01*
X50651Y280900D01*
X50705Y280855D01*
X50755Y280807D01*
X50803Y280757D01*
X50848Y280703D01*
X50890Y280648D01*
X50929Y280590D01*
X50964Y280530D01*
X50996Y280468D01*
X51024Y280404D01*
X51049Y280339D01*
X51070Y280273D01*
X51088Y280205D01*
X51101Y280137D01*
X51111Y280068D01*
X51117Y279999D01*
X51119Y279929D01*
X51118Y279929D02*
X51118Y278066D01*
X53602Y278066D01*
X53602Y281171D01*
X48014Y283552D02*
X48014Y285105D01*
X48016Y285182D01*
X48022Y285260D01*
X48031Y285336D01*
X48045Y285413D01*
X48062Y285488D01*
X48083Y285562D01*
X48108Y285636D01*
X48136Y285708D01*
X48168Y285778D01*
X48203Y285847D01*
X48242Y285914D01*
X48284Y285979D01*
X48329Y286042D01*
X48377Y286103D01*
X48428Y286161D01*
X48482Y286216D01*
X48539Y286269D01*
X48598Y286318D01*
X48660Y286365D01*
X48724Y286409D01*
X48790Y286449D01*
X48858Y286486D01*
X48928Y286520D01*
X48999Y286550D01*
X49072Y286576D01*
X49146Y286599D01*
X49221Y286618D01*
X49296Y286633D01*
X49373Y286645D01*
X49450Y286653D01*
X49527Y286657D01*
X49605Y286657D01*
X49682Y286653D01*
X49759Y286645D01*
X49836Y286633D01*
X49911Y286618D01*
X49986Y286599D01*
X50060Y286576D01*
X50133Y286550D01*
X50204Y286520D01*
X50274Y286486D01*
X50342Y286449D01*
X50408Y286409D01*
X50472Y286365D01*
X50534Y286318D01*
X50593Y286269D01*
X50650Y286216D01*
X50704Y286161D01*
X50755Y286103D01*
X50803Y286042D01*
X50848Y285979D01*
X50890Y285914D01*
X50929Y285847D01*
X50964Y285778D01*
X50996Y285708D01*
X51024Y285636D01*
X51049Y285562D01*
X51070Y285488D01*
X51087Y285413D01*
X51101Y285336D01*
X51110Y285260D01*
X51116Y285182D01*
X51118Y285105D01*
X53602Y285415D02*
X53602Y283552D01*
X53602Y285415D02*
X53600Y285485D01*
X53594Y285554D01*
X53584Y285623D01*
X53571Y285691D01*
X53553Y285759D01*
X53532Y285825D01*
X53507Y285890D01*
X53479Y285954D01*
X53447Y286016D01*
X53412Y286076D01*
X53373Y286134D01*
X53331Y286189D01*
X53286Y286243D01*
X53238Y286293D01*
X53188Y286341D01*
X53134Y286386D01*
X53079Y286428D01*
X53021Y286467D01*
X52961Y286502D01*
X52899Y286534D01*
X52835Y286562D01*
X52770Y286587D01*
X52704Y286608D01*
X52636Y286626D01*
X52568Y286639D01*
X52499Y286649D01*
X52430Y286655D01*
X52360Y286657D01*
X52290Y286655D01*
X52221Y286649D01*
X52152Y286639D01*
X52084Y286626D01*
X52016Y286608D01*
X51950Y286587D01*
X51885Y286562D01*
X51821Y286534D01*
X51759Y286502D01*
X51699Y286467D01*
X51641Y286428D01*
X51586Y286386D01*
X51532Y286341D01*
X51482Y286293D01*
X51434Y286243D01*
X51389Y286189D01*
X51347Y286134D01*
X51308Y286076D01*
X51273Y286016D01*
X51241Y285954D01*
X51213Y285890D01*
X51188Y285825D01*
X51167Y285759D01*
X51149Y285691D01*
X51136Y285623D01*
X51126Y285554D01*
X51120Y285485D01*
X51118Y285415D01*
X51118Y284173D01*
X50808Y289039D02*
X50939Y289041D01*
X51069Y289046D01*
X51199Y289056D01*
X51329Y289069D01*
X51459Y289085D01*
X51588Y289105D01*
X51716Y289129D01*
X51843Y289157D01*
X51970Y289188D01*
X52096Y289223D01*
X52221Y289261D01*
X52345Y289303D01*
X52467Y289348D01*
X52588Y289397D01*
X52708Y289449D01*
X52826Y289505D01*
X52826Y289504D02*
X52886Y289527D01*
X52946Y289553D01*
X53003Y289582D01*
X53059Y289615D01*
X53113Y289651D01*
X53165Y289689D01*
X53215Y289731D01*
X53262Y289775D01*
X53307Y289822D01*
X53349Y289872D01*
X53388Y289923D01*
X53424Y289977D01*
X53457Y290033D01*
X53487Y290090D01*
X53514Y290149D01*
X53537Y290210D01*
X53557Y290271D01*
X53573Y290334D01*
X53586Y290398D01*
X53595Y290462D01*
X53600Y290526D01*
X53602Y290591D01*
X53600Y290656D01*
X53595Y290720D01*
X53586Y290784D01*
X53573Y290848D01*
X53557Y290911D01*
X53537Y290972D01*
X53514Y291033D01*
X53487Y291092D01*
X53457Y291149D01*
X53424Y291205D01*
X53388Y291259D01*
X53349Y291310D01*
X53307Y291360D01*
X53262Y291407D01*
X53215Y291451D01*
X53165Y291493D01*
X53113Y291531D01*
X53059Y291567D01*
X53003Y291600D01*
X52946Y291629D01*
X52886Y291655D01*
X52826Y291678D01*
X52708Y291734D01*
X52588Y291786D01*
X52467Y291835D01*
X52345Y291880D01*
X52221Y291922D01*
X52096Y291960D01*
X51970Y291995D01*
X51844Y292026D01*
X51716Y292054D01*
X51588Y292078D01*
X51459Y292098D01*
X51329Y292114D01*
X51199Y292127D01*
X51069Y292137D01*
X50939Y292142D01*
X50808Y292144D01*
X50808Y289039D02*
X50677Y289041D01*
X50547Y289046D01*
X50417Y289056D01*
X50287Y289069D01*
X50157Y289085D01*
X50028Y289105D01*
X49900Y289129D01*
X49773Y289157D01*
X49646Y289188D01*
X49520Y289223D01*
X49395Y289261D01*
X49271Y289303D01*
X49149Y289348D01*
X49028Y289397D01*
X48908Y289449D01*
X48790Y289505D01*
X48790Y289504D02*
X48730Y289527D01*
X48670Y289553D01*
X48613Y289582D01*
X48557Y289615D01*
X48503Y289651D01*
X48451Y289689D01*
X48401Y289731D01*
X48354Y289775D01*
X48309Y289822D01*
X48267Y289872D01*
X48228Y289923D01*
X48192Y289977D01*
X48159Y290033D01*
X48129Y290090D01*
X48102Y290149D01*
X48079Y290210D01*
X48059Y290271D01*
X48043Y290334D01*
X48030Y290398D01*
X48021Y290462D01*
X48016Y290526D01*
X48014Y290591D01*
X48790Y291677D02*
X48908Y291733D01*
X49028Y291785D01*
X49149Y291834D01*
X49271Y291879D01*
X49395Y291921D01*
X49520Y291959D01*
X49646Y291994D01*
X49772Y292025D01*
X49900Y292053D01*
X50028Y292077D01*
X50157Y292097D01*
X50287Y292113D01*
X50417Y292126D01*
X50547Y292136D01*
X50677Y292141D01*
X50808Y292143D01*
X48790Y291678D02*
X48730Y291655D01*
X48670Y291629D01*
X48613Y291600D01*
X48557Y291567D01*
X48503Y291531D01*
X48451Y291493D01*
X48401Y291451D01*
X48354Y291407D01*
X48309Y291360D01*
X48267Y291310D01*
X48228Y291259D01*
X48192Y291205D01*
X48159Y291149D01*
X48129Y291092D01*
X48102Y291033D01*
X48079Y290972D01*
X48059Y290911D01*
X48043Y290848D01*
X48030Y290784D01*
X48021Y290720D01*
X48016Y290656D01*
X48014Y290591D01*
X49256Y289349D02*
X52360Y291833D01*
X48014Y299131D02*
X48016Y299201D01*
X48022Y299270D01*
X48032Y299339D01*
X48045Y299407D01*
X48063Y299475D01*
X48084Y299541D01*
X48109Y299606D01*
X48137Y299670D01*
X48169Y299732D01*
X48204Y299792D01*
X48243Y299850D01*
X48285Y299905D01*
X48330Y299959D01*
X48378Y300009D01*
X48428Y300057D01*
X48482Y300102D01*
X48537Y300144D01*
X48595Y300183D01*
X48655Y300218D01*
X48717Y300250D01*
X48781Y300278D01*
X48846Y300303D01*
X48912Y300324D01*
X48980Y300342D01*
X49048Y300355D01*
X49117Y300365D01*
X49186Y300371D01*
X49256Y300373D01*
X48014Y299131D02*
X48016Y299032D01*
X48021Y298934D01*
X48031Y298836D01*
X48044Y298738D01*
X48060Y298641D01*
X48080Y298544D01*
X48104Y298449D01*
X48132Y298354D01*
X48163Y298260D01*
X48197Y298168D01*
X48235Y298077D01*
X48276Y297987D01*
X48321Y297899D01*
X48369Y297813D01*
X48420Y297729D01*
X48474Y297647D01*
X48532Y297566D01*
X48592Y297488D01*
X48655Y297413D01*
X48721Y297339D01*
X48790Y297269D01*
X52360Y297423D02*
X52430Y297425D01*
X52499Y297431D01*
X52568Y297441D01*
X52636Y297454D01*
X52704Y297472D01*
X52770Y297493D01*
X52835Y297518D01*
X52899Y297546D01*
X52961Y297578D01*
X53021Y297613D01*
X53079Y297652D01*
X53134Y297694D01*
X53188Y297739D01*
X53238Y297787D01*
X53286Y297837D01*
X53331Y297891D01*
X53373Y297946D01*
X53412Y298004D01*
X53447Y298064D01*
X53479Y298126D01*
X53507Y298190D01*
X53532Y298255D01*
X53553Y298321D01*
X53571Y298389D01*
X53584Y298457D01*
X53594Y298526D01*
X53600Y298595D01*
X53602Y298665D01*
X53600Y298759D01*
X53594Y298852D01*
X53585Y298945D01*
X53572Y299038D01*
X53555Y299130D01*
X53535Y299221D01*
X53510Y299312D01*
X53483Y299401D01*
X53451Y299489D01*
X53416Y299576D01*
X53378Y299662D01*
X53336Y299745D01*
X53291Y299827D01*
X53243Y299908D01*
X53191Y299986D01*
X53136Y300062D01*
X51274Y298045D02*
X51310Y297986D01*
X51350Y297930D01*
X51393Y297876D01*
X51438Y297824D01*
X51487Y297775D01*
X51538Y297729D01*
X51591Y297686D01*
X51647Y297645D01*
X51705Y297608D01*
X51765Y297573D01*
X51826Y297543D01*
X51889Y297515D01*
X51954Y297491D01*
X52020Y297471D01*
X52087Y297454D01*
X52154Y297441D01*
X52222Y297432D01*
X52291Y297426D01*
X52360Y297424D01*
X50342Y299752D02*
X50306Y299811D01*
X50266Y299867D01*
X50223Y299921D01*
X50178Y299973D01*
X50129Y300022D01*
X50078Y300068D01*
X50025Y300111D01*
X49969Y300152D01*
X49911Y300189D01*
X49851Y300224D01*
X49790Y300254D01*
X49727Y300282D01*
X49662Y300306D01*
X49596Y300326D01*
X49529Y300343D01*
X49462Y300356D01*
X49394Y300365D01*
X49325Y300371D01*
X49256Y300373D01*
X50342Y299752D02*
X51274Y298044D01*
X52050Y302572D02*
X49566Y302572D01*
X52050Y302572D02*
X52127Y302574D01*
X52205Y302580D01*
X52281Y302589D01*
X52358Y302603D01*
X52433Y302620D01*
X52507Y302641D01*
X52581Y302666D01*
X52653Y302694D01*
X52723Y302726D01*
X52792Y302761D01*
X52859Y302800D01*
X52924Y302842D01*
X52987Y302887D01*
X53048Y302935D01*
X53106Y302986D01*
X53161Y303040D01*
X53214Y303097D01*
X53263Y303156D01*
X53310Y303218D01*
X53354Y303282D01*
X53394Y303348D01*
X53431Y303416D01*
X53465Y303486D01*
X53495Y303557D01*
X53521Y303630D01*
X53544Y303704D01*
X53563Y303779D01*
X53578Y303854D01*
X53590Y303931D01*
X53598Y304008D01*
X53602Y304085D01*
X53602Y304163D01*
X53598Y304240D01*
X53590Y304317D01*
X53578Y304394D01*
X53563Y304469D01*
X53544Y304544D01*
X53521Y304618D01*
X53495Y304691D01*
X53465Y304762D01*
X53431Y304832D01*
X53394Y304900D01*
X53354Y304966D01*
X53310Y305030D01*
X53263Y305092D01*
X53214Y305151D01*
X53161Y305208D01*
X53106Y305262D01*
X53048Y305313D01*
X52987Y305361D01*
X52924Y305406D01*
X52859Y305448D01*
X52792Y305487D01*
X52723Y305522D01*
X52653Y305554D01*
X52581Y305582D01*
X52507Y305607D01*
X52433Y305628D01*
X52358Y305645D01*
X52281Y305659D01*
X52205Y305668D01*
X52127Y305674D01*
X52050Y305676D01*
X49566Y305676D01*
X49489Y305674D01*
X49411Y305668D01*
X49335Y305659D01*
X49258Y305645D01*
X49183Y305628D01*
X49109Y305607D01*
X49035Y305582D01*
X48963Y305554D01*
X48893Y305522D01*
X48824Y305487D01*
X48757Y305448D01*
X48692Y305406D01*
X48629Y305361D01*
X48568Y305313D01*
X48510Y305262D01*
X48455Y305208D01*
X48402Y305151D01*
X48353Y305092D01*
X48306Y305030D01*
X48262Y304966D01*
X48222Y304900D01*
X48185Y304832D01*
X48151Y304762D01*
X48121Y304691D01*
X48095Y304618D01*
X48072Y304544D01*
X48053Y304469D01*
X48038Y304394D01*
X48026Y304317D01*
X48018Y304240D01*
X48014Y304163D01*
X48014Y304085D01*
X48018Y304008D01*
X48026Y303931D01*
X48038Y303854D01*
X48053Y303779D01*
X48072Y303704D01*
X48095Y303630D01*
X48121Y303557D01*
X48151Y303486D01*
X48185Y303416D01*
X48222Y303348D01*
X48262Y303282D01*
X48306Y303218D01*
X48353Y303156D01*
X48402Y303097D01*
X48455Y303040D01*
X48510Y302986D01*
X48568Y302935D01*
X48629Y302887D01*
X48692Y302842D01*
X48757Y302800D01*
X48824Y302761D01*
X48893Y302726D01*
X48963Y302694D01*
X49035Y302666D01*
X49109Y302641D01*
X49183Y302620D01*
X49258Y302603D01*
X49335Y302589D01*
X49411Y302580D01*
X49489Y302574D01*
X49566Y302572D01*
X48014Y308296D02*
X53602Y308296D01*
X50498Y310159D01*
X53602Y312022D01*
X48014Y312022D01*
X50808Y317600D02*
X50951Y317602D01*
X51093Y317608D01*
X51235Y317617D01*
X51377Y317631D01*
X51519Y317648D01*
X51660Y317669D01*
X51800Y317693D01*
X51940Y317722D01*
X52079Y317754D01*
X52217Y317790D01*
X52354Y317830D01*
X52490Y317873D01*
X52625Y317920D01*
X52758Y317971D01*
X52890Y318025D01*
X53020Y318082D01*
X53149Y318143D01*
X53277Y318208D01*
X53402Y318276D01*
X53525Y318347D01*
X53647Y318422D01*
X53767Y318499D01*
X53884Y318580D01*
X53999Y318664D01*
X54112Y318752D01*
X54223Y318842D01*
X50808Y317600D02*
X50665Y317602D01*
X50523Y317608D01*
X50381Y317617D01*
X50239Y317631D01*
X50097Y317648D01*
X49956Y317669D01*
X49816Y317693D01*
X49676Y317722D01*
X49537Y317754D01*
X49399Y317790D01*
X49262Y317830D01*
X49126Y317873D01*
X48991Y317920D01*
X48858Y317971D01*
X48726Y318025D01*
X48596Y318082D01*
X48467Y318143D01*
X48339Y318208D01*
X48214Y318276D01*
X48091Y318347D01*
X47969Y318422D01*
X47849Y318499D01*
X47732Y318580D01*
X47617Y318664D01*
X47504Y318752D01*
X47393Y318842D01*
X48014Y321262D02*
X53602Y321262D01*
X53602Y322814D01*
X53600Y322891D01*
X53594Y322969D01*
X53585Y323045D01*
X53571Y323122D01*
X53554Y323197D01*
X53533Y323271D01*
X53508Y323345D01*
X53480Y323417D01*
X53448Y323487D01*
X53413Y323556D01*
X53374Y323623D01*
X53332Y323688D01*
X53287Y323751D01*
X53239Y323812D01*
X53188Y323870D01*
X53134Y323925D01*
X53077Y323978D01*
X53018Y324027D01*
X52956Y324074D01*
X52892Y324118D01*
X52826Y324158D01*
X52758Y324195D01*
X52688Y324229D01*
X52617Y324259D01*
X52544Y324285D01*
X52470Y324308D01*
X52395Y324327D01*
X52320Y324342D01*
X52243Y324354D01*
X52166Y324362D01*
X52089Y324366D01*
X52011Y324366D01*
X51934Y324362D01*
X51857Y324354D01*
X51780Y324342D01*
X51705Y324327D01*
X51630Y324308D01*
X51556Y324285D01*
X51483Y324259D01*
X51412Y324229D01*
X51342Y324195D01*
X51274Y324158D01*
X51208Y324118D01*
X51144Y324074D01*
X51082Y324027D01*
X51023Y323978D01*
X50966Y323925D01*
X50912Y323870D01*
X50861Y323812D01*
X50813Y323751D01*
X50768Y323688D01*
X50726Y323623D01*
X50687Y323556D01*
X50652Y323487D01*
X50620Y323417D01*
X50592Y323345D01*
X50567Y323271D01*
X50546Y323197D01*
X50529Y323122D01*
X50515Y323045D01*
X50506Y322969D01*
X50500Y322891D01*
X50498Y322814D01*
X50498Y321262D01*
X50498Y323124D02*
X48014Y324366D01*
X48014Y328264D02*
X53602Y326401D01*
X53602Y330127D02*
X48014Y328264D01*
X50808Y332198D02*
X50939Y332200D01*
X51069Y332205D01*
X51199Y332215D01*
X51329Y332228D01*
X51459Y332244D01*
X51588Y332264D01*
X51716Y332288D01*
X51843Y332316D01*
X51970Y332347D01*
X52096Y332382D01*
X52221Y332420D01*
X52345Y332462D01*
X52467Y332507D01*
X52588Y332556D01*
X52708Y332608D01*
X52826Y332664D01*
X52826Y332663D02*
X52886Y332686D01*
X52946Y332712D01*
X53003Y332741D01*
X53059Y332774D01*
X53113Y332810D01*
X53165Y332848D01*
X53215Y332890D01*
X53262Y332934D01*
X53307Y332981D01*
X53349Y333031D01*
X53388Y333082D01*
X53424Y333136D01*
X53457Y333192D01*
X53487Y333249D01*
X53514Y333308D01*
X53537Y333369D01*
X53557Y333430D01*
X53573Y333493D01*
X53586Y333557D01*
X53595Y333621D01*
X53600Y333685D01*
X53602Y333750D01*
X53600Y333815D01*
X53595Y333879D01*
X53586Y333943D01*
X53573Y334007D01*
X53557Y334070D01*
X53537Y334131D01*
X53514Y334192D01*
X53487Y334251D01*
X53457Y334308D01*
X53424Y334364D01*
X53388Y334418D01*
X53349Y334469D01*
X53307Y334519D01*
X53262Y334566D01*
X53215Y334610D01*
X53165Y334652D01*
X53113Y334690D01*
X53059Y334726D01*
X53003Y334759D01*
X52946Y334788D01*
X52886Y334814D01*
X52826Y334837D01*
X52708Y334893D01*
X52588Y334945D01*
X52467Y334994D01*
X52345Y335039D01*
X52221Y335081D01*
X52096Y335119D01*
X51970Y335154D01*
X51844Y335185D01*
X51716Y335213D01*
X51588Y335237D01*
X51459Y335257D01*
X51329Y335273D01*
X51199Y335286D01*
X51069Y335296D01*
X50939Y335301D01*
X50808Y335303D01*
X50808Y332198D02*
X50677Y332200D01*
X50547Y332205D01*
X50417Y332215D01*
X50287Y332228D01*
X50157Y332244D01*
X50028Y332264D01*
X49900Y332288D01*
X49773Y332316D01*
X49646Y332347D01*
X49520Y332382D01*
X49395Y332420D01*
X49271Y332462D01*
X49149Y332507D01*
X49028Y332556D01*
X48908Y332608D01*
X48790Y332664D01*
X48790Y332663D02*
X48730Y332686D01*
X48670Y332712D01*
X48613Y332741D01*
X48557Y332774D01*
X48503Y332810D01*
X48451Y332848D01*
X48401Y332890D01*
X48354Y332934D01*
X48309Y332981D01*
X48267Y333031D01*
X48228Y333082D01*
X48192Y333136D01*
X48159Y333192D01*
X48129Y333249D01*
X48102Y333308D01*
X48079Y333369D01*
X48059Y333430D01*
X48043Y333493D01*
X48030Y333557D01*
X48021Y333621D01*
X48016Y333685D01*
X48014Y333750D01*
X48790Y334837D02*
X48908Y334893D01*
X49028Y334945D01*
X49149Y334994D01*
X49271Y335039D01*
X49395Y335081D01*
X49520Y335119D01*
X49646Y335154D01*
X49772Y335185D01*
X49900Y335213D01*
X50028Y335237D01*
X50157Y335257D01*
X50287Y335273D01*
X50417Y335286D01*
X50547Y335296D01*
X50677Y335301D01*
X50808Y335303D01*
X48790Y334837D02*
X48730Y334814D01*
X48670Y334788D01*
X48613Y334759D01*
X48557Y334726D01*
X48503Y334690D01*
X48451Y334652D01*
X48401Y334610D01*
X48354Y334566D01*
X48309Y334519D01*
X48267Y334469D01*
X48228Y334418D01*
X48192Y334364D01*
X48159Y334308D01*
X48129Y334251D01*
X48102Y334192D01*
X48079Y334131D01*
X48059Y334070D01*
X48043Y334007D01*
X48030Y333943D01*
X48021Y333879D01*
X48016Y333815D01*
X48014Y333750D01*
X49256Y332509D02*
X52360Y334992D01*
X50808Y338746D02*
X50665Y338744D01*
X50523Y338738D01*
X50381Y338729D01*
X50239Y338715D01*
X50097Y338698D01*
X49956Y338677D01*
X49816Y338653D01*
X49676Y338624D01*
X49537Y338592D01*
X49399Y338556D01*
X49262Y338516D01*
X49126Y338473D01*
X48991Y338426D01*
X48858Y338375D01*
X48726Y338321D01*
X48596Y338264D01*
X48467Y338203D01*
X48339Y338138D01*
X48214Y338070D01*
X48091Y337999D01*
X47969Y337924D01*
X47849Y337847D01*
X47732Y337766D01*
X47617Y337682D01*
X47504Y337594D01*
X47393Y337504D01*
X50808Y338746D02*
X50951Y338744D01*
X51093Y338738D01*
X51235Y338729D01*
X51377Y338715D01*
X51519Y338698D01*
X51660Y338677D01*
X51800Y338653D01*
X51940Y338624D01*
X52079Y338592D01*
X52217Y338556D01*
X52354Y338516D01*
X52490Y338473D01*
X52625Y338426D01*
X52758Y338375D01*
X52890Y338321D01*
X53020Y338264D01*
X53149Y338203D01*
X53277Y338138D01*
X53402Y338070D01*
X53525Y337999D01*
X53647Y337924D01*
X53767Y337847D01*
X53884Y337766D01*
X53999Y337682D01*
X54112Y337594D01*
X54223Y337504D01*
D12*
X323873Y205521D02*
X322942Y202727D01*
X322010Y205521D01*
X320747Y205521D02*
X320747Y202727D01*
X320437Y202727D02*
X321058Y202727D01*
X321058Y205521D02*
X320437Y205521D01*
X319237Y205521D02*
X319237Y202727D01*
X317685Y202727D02*
X319237Y205521D01*
X317685Y205521D02*
X317685Y202727D01*
X218473Y40914D02*
X216610Y40914D01*
X217542Y41845D02*
X217542Y39982D01*
X215392Y39827D02*
X214616Y39827D01*
X214561Y39829D01*
X214506Y39835D01*
X214451Y39845D01*
X214397Y39858D01*
X214345Y39876D01*
X214294Y39897D01*
X214244Y39922D01*
X214196Y39950D01*
X214151Y39982D01*
X214108Y40017D01*
X214067Y40054D01*
X214030Y40095D01*
X213995Y40138D01*
X213963Y40183D01*
X213935Y40231D01*
X213910Y40281D01*
X213889Y40332D01*
X213871Y40384D01*
X213858Y40438D01*
X213848Y40493D01*
X213842Y40548D01*
X213840Y40603D01*
X213842Y40658D01*
X213848Y40713D01*
X213858Y40768D01*
X213871Y40822D01*
X213889Y40874D01*
X213910Y40925D01*
X213935Y40975D01*
X213963Y41023D01*
X213995Y41068D01*
X214030Y41111D01*
X214067Y41152D01*
X214108Y41189D01*
X214151Y41224D01*
X214196Y41256D01*
X214244Y41284D01*
X214294Y41309D01*
X214345Y41330D01*
X214397Y41348D01*
X214451Y41361D01*
X214506Y41371D01*
X214561Y41377D01*
X214616Y41379D01*
X214460Y42621D02*
X215392Y42621D01*
X214460Y42621D02*
X214411Y42619D01*
X214363Y42613D01*
X214315Y42604D01*
X214268Y42591D01*
X214222Y42574D01*
X214178Y42553D01*
X214136Y42529D01*
X214095Y42502D01*
X214057Y42472D01*
X214021Y42439D01*
X213988Y42403D01*
X213958Y42365D01*
X213931Y42324D01*
X213907Y42282D01*
X213886Y42238D01*
X213869Y42192D01*
X213856Y42145D01*
X213847Y42097D01*
X213841Y42049D01*
X213839Y42000D01*
X213841Y41951D01*
X213847Y41903D01*
X213856Y41855D01*
X213869Y41808D01*
X213886Y41762D01*
X213907Y41718D01*
X213931Y41676D01*
X213958Y41635D01*
X213988Y41597D01*
X214021Y41561D01*
X214057Y41528D01*
X214095Y41498D01*
X214136Y41471D01*
X214178Y41447D01*
X214222Y41426D01*
X214268Y41409D01*
X214315Y41396D01*
X214363Y41387D01*
X214411Y41381D01*
X214460Y41379D01*
X215081Y41379D01*
X212804Y42621D02*
X211872Y39827D01*
X210941Y42621D01*
X209905Y39827D02*
X209129Y39827D01*
X209074Y39829D01*
X209019Y39835D01*
X208964Y39845D01*
X208910Y39858D01*
X208858Y39876D01*
X208807Y39897D01*
X208757Y39922D01*
X208709Y39950D01*
X208664Y39982D01*
X208621Y40017D01*
X208580Y40054D01*
X208543Y40095D01*
X208508Y40138D01*
X208476Y40183D01*
X208448Y40231D01*
X208423Y40281D01*
X208402Y40332D01*
X208384Y40384D01*
X208371Y40438D01*
X208361Y40493D01*
X208355Y40548D01*
X208353Y40603D01*
X208355Y40658D01*
X208361Y40713D01*
X208371Y40768D01*
X208384Y40822D01*
X208402Y40874D01*
X208423Y40925D01*
X208448Y40975D01*
X208476Y41023D01*
X208508Y41068D01*
X208543Y41111D01*
X208580Y41152D01*
X208621Y41189D01*
X208664Y41224D01*
X208709Y41256D01*
X208757Y41284D01*
X208807Y41309D01*
X208858Y41330D01*
X208910Y41348D01*
X208964Y41361D01*
X209019Y41371D01*
X209074Y41377D01*
X209129Y41379D01*
X208974Y42621D02*
X209905Y42621D01*
X208974Y42621D02*
X208925Y42619D01*
X208877Y42613D01*
X208829Y42604D01*
X208782Y42591D01*
X208736Y42574D01*
X208692Y42553D01*
X208650Y42529D01*
X208609Y42502D01*
X208571Y42472D01*
X208535Y42439D01*
X208502Y42403D01*
X208472Y42365D01*
X208445Y42324D01*
X208421Y42282D01*
X208400Y42238D01*
X208383Y42192D01*
X208370Y42145D01*
X208361Y42097D01*
X208355Y42049D01*
X208353Y42000D01*
X208355Y41951D01*
X208361Y41903D01*
X208370Y41855D01*
X208383Y41808D01*
X208400Y41762D01*
X208421Y41718D01*
X208445Y41676D01*
X208472Y41635D01*
X208502Y41597D01*
X208535Y41561D01*
X208571Y41528D01*
X208609Y41498D01*
X208650Y41471D01*
X208692Y41447D01*
X208736Y41426D01*
X208782Y41409D01*
X208829Y41396D01*
X208877Y41387D01*
X208925Y41381D01*
X208974Y41379D01*
X209595Y41379D01*
D13*
X176400Y244750D02*
X176400Y263250D01*
X331600Y263250D02*
X331600Y244750D01*
D14*
X157730Y250964D02*
X157730Y260052D01*
X157731Y250964D02*
X157733Y250865D01*
X157739Y250765D01*
X157748Y250666D01*
X157761Y250568D01*
X157778Y250470D01*
X157799Y250372D01*
X157824Y250276D01*
X157852Y250181D01*
X157884Y250087D01*
X157919Y249994D01*
X157958Y249902D01*
X158001Y249812D01*
X158046Y249724D01*
X158096Y249637D01*
X158148Y249553D01*
X158204Y249470D01*
X158262Y249390D01*
X158324Y249312D01*
X158389Y249237D01*
X158457Y249164D01*
X158527Y249094D01*
X158600Y249026D01*
X158675Y248961D01*
X158753Y248899D01*
X158833Y248841D01*
X158916Y248785D01*
X159000Y248733D01*
X159087Y248683D01*
X159175Y248638D01*
X159265Y248595D01*
X159357Y248556D01*
X159450Y248521D01*
X159544Y248489D01*
X159639Y248461D01*
X159735Y248436D01*
X159833Y248415D01*
X159931Y248398D01*
X160029Y248385D01*
X160128Y248376D01*
X160228Y248370D01*
X160327Y248368D01*
X161625Y248368D01*
X152457Y257456D02*
X149211Y260052D01*
X149211Y248368D01*
X145966Y248368D02*
X152457Y248368D01*
D13*
X176400Y136250D02*
X176400Y117750D01*
X331600Y117750D02*
X331600Y136250D01*
D14*
X157430Y133052D02*
X157430Y123964D01*
X157431Y123964D02*
X157433Y123865D01*
X157439Y123765D01*
X157448Y123666D01*
X157461Y123568D01*
X157478Y123470D01*
X157499Y123372D01*
X157524Y123276D01*
X157552Y123181D01*
X157584Y123087D01*
X157619Y122994D01*
X157658Y122902D01*
X157701Y122812D01*
X157746Y122724D01*
X157796Y122637D01*
X157848Y122553D01*
X157904Y122470D01*
X157962Y122390D01*
X158024Y122312D01*
X158089Y122237D01*
X158157Y122164D01*
X158227Y122094D01*
X158300Y122026D01*
X158375Y121961D01*
X158453Y121899D01*
X158533Y121841D01*
X158616Y121785D01*
X158700Y121733D01*
X158787Y121683D01*
X158875Y121638D01*
X158965Y121595D01*
X159057Y121556D01*
X159150Y121521D01*
X159244Y121489D01*
X159339Y121461D01*
X159435Y121436D01*
X159533Y121415D01*
X159631Y121398D01*
X159729Y121385D01*
X159828Y121376D01*
X159928Y121370D01*
X160027Y121368D01*
X161325Y121368D01*
X148587Y133052D02*
X148480Y133050D01*
X148374Y133044D01*
X148268Y133034D01*
X148162Y133021D01*
X148056Y133003D01*
X147952Y132982D01*
X147848Y132957D01*
X147745Y132928D01*
X147644Y132896D01*
X147544Y132859D01*
X147445Y132819D01*
X147347Y132776D01*
X147251Y132729D01*
X147157Y132678D01*
X147065Y132624D01*
X146975Y132567D01*
X146887Y132507D01*
X146802Y132443D01*
X146719Y132376D01*
X146638Y132306D01*
X146560Y132234D01*
X146484Y132158D01*
X146412Y132080D01*
X146342Y131999D01*
X146275Y131916D01*
X146211Y131831D01*
X146151Y131743D01*
X146094Y131653D01*
X146040Y131561D01*
X145989Y131467D01*
X145942Y131371D01*
X145899Y131273D01*
X145859Y131174D01*
X145822Y131074D01*
X145790Y130973D01*
X145761Y130870D01*
X145736Y130766D01*
X145715Y130662D01*
X145697Y130556D01*
X145684Y130450D01*
X145674Y130344D01*
X145668Y130238D01*
X145666Y130131D01*
X148587Y133052D02*
X148708Y133050D01*
X148829Y133044D01*
X148949Y133034D01*
X149070Y133021D01*
X149189Y133003D01*
X149309Y132982D01*
X149427Y132957D01*
X149544Y132928D01*
X149661Y132895D01*
X149776Y132859D01*
X149890Y132818D01*
X150003Y132775D01*
X150115Y132727D01*
X150224Y132676D01*
X150332Y132621D01*
X150439Y132563D01*
X150543Y132502D01*
X150645Y132437D01*
X150745Y132369D01*
X150843Y132298D01*
X150939Y132224D01*
X151032Y132147D01*
X151122Y132066D01*
X151210Y131983D01*
X151295Y131897D01*
X151378Y131808D01*
X151457Y131717D01*
X151534Y131623D01*
X151607Y131527D01*
X151677Y131429D01*
X151744Y131328D01*
X151808Y131225D01*
X151869Y131120D01*
X151926Y131013D01*
X151979Y130905D01*
X152029Y130795D01*
X152075Y130683D01*
X152118Y130570D01*
X152157Y130455D01*
X146640Y127859D02*
X146561Y127937D01*
X146485Y128017D01*
X146412Y128100D01*
X146342Y128186D01*
X146275Y128273D01*
X146211Y128364D01*
X146151Y128456D01*
X146093Y128550D01*
X146039Y128647D01*
X145989Y128745D01*
X145942Y128845D01*
X145898Y128946D01*
X145858Y129049D01*
X145822Y129154D01*
X145790Y129259D01*
X145761Y129366D01*
X145736Y129473D01*
X145714Y129582D01*
X145697Y129691D01*
X145683Y129800D01*
X145674Y129910D01*
X145668Y130021D01*
X145666Y130131D01*
X146639Y127859D02*
X152157Y121368D01*
X145666Y121368D01*
M02*
