G04 EAGLE Gerber X2 export*
%TF.Part,Single*%
%TF.FileFunction,Other,Silk screen TOP*%
%TF.FilePolarity,Positive*%
%TF.GenerationSoftware,Autodesk,EAGLE,9.0.0*%
%TF.CreationDate,2018-07-20T06:24:49Z*%
G75*
%MOMM*%
%FSLAX34Y34*%
%LPD*%
%AMOC8*
5,1,8,0,0,1.08239X$1,22.5*%
G01*
%ADD10C,0.000000*%
%ADD11C,0.152400*%
%ADD12C,0.101600*%
%ADD13C,0.127000*%


D10*
X11000Y11000D02*
X504500Y11000D01*
X504500Y374400D01*
X11000Y374400D01*
X11000Y11000D01*
D11*
X12700Y12700D02*
X502700Y12700D01*
X502700Y372700D01*
X12700Y372700D01*
X12700Y12700D01*
D12*
X208508Y193708D02*
X212403Y205392D01*
X216297Y193708D01*
X215324Y196629D02*
X209482Y196629D01*
X221042Y193708D02*
X221042Y205392D01*
X224287Y205392D01*
X224400Y205390D01*
X224513Y205384D01*
X224626Y205374D01*
X224739Y205360D01*
X224851Y205343D01*
X224962Y205321D01*
X225072Y205296D01*
X225182Y205266D01*
X225290Y205233D01*
X225397Y205196D01*
X225503Y205156D01*
X225607Y205111D01*
X225710Y205063D01*
X225811Y205012D01*
X225910Y204957D01*
X226007Y204899D01*
X226102Y204837D01*
X226195Y204772D01*
X226285Y204704D01*
X226373Y204633D01*
X226459Y204558D01*
X226542Y204481D01*
X226622Y204401D01*
X226699Y204318D01*
X226774Y204232D01*
X226845Y204144D01*
X226913Y204054D01*
X226978Y203961D01*
X227040Y203866D01*
X227098Y203769D01*
X227153Y203670D01*
X227204Y203569D01*
X227252Y203466D01*
X227297Y203362D01*
X227337Y203256D01*
X227374Y203149D01*
X227407Y203041D01*
X227437Y202931D01*
X227462Y202821D01*
X227484Y202710D01*
X227501Y202598D01*
X227515Y202485D01*
X227525Y202372D01*
X227531Y202259D01*
X227533Y202146D01*
X227531Y202033D01*
X227525Y201920D01*
X227515Y201807D01*
X227501Y201694D01*
X227484Y201582D01*
X227462Y201471D01*
X227437Y201361D01*
X227407Y201251D01*
X227374Y201143D01*
X227337Y201036D01*
X227297Y200930D01*
X227252Y200826D01*
X227204Y200723D01*
X227153Y200622D01*
X227098Y200523D01*
X227040Y200426D01*
X226978Y200331D01*
X226913Y200238D01*
X226845Y200148D01*
X226774Y200060D01*
X226699Y199974D01*
X226622Y199891D01*
X226542Y199811D01*
X226459Y199734D01*
X226373Y199659D01*
X226285Y199588D01*
X226195Y199520D01*
X226102Y199455D01*
X226007Y199393D01*
X225910Y199335D01*
X225811Y199280D01*
X225710Y199229D01*
X225607Y199181D01*
X225503Y199136D01*
X225397Y199096D01*
X225290Y199059D01*
X225182Y199026D01*
X225072Y198996D01*
X224962Y198971D01*
X224851Y198949D01*
X224739Y198932D01*
X224626Y198918D01*
X224513Y198908D01*
X224400Y198902D01*
X224287Y198900D01*
X224287Y198901D02*
X221042Y198901D01*
X224936Y198901D02*
X227533Y193708D01*
X234882Y193708D02*
X234882Y205392D01*
X238127Y205392D02*
X231636Y205392D01*
X243264Y205392D02*
X243264Y193708D01*
X244562Y193708D02*
X241965Y193708D01*
X241965Y205392D02*
X244562Y205392D01*
X249712Y205392D02*
X249712Y193708D01*
X249712Y198252D02*
X256203Y205392D01*
X252309Y200848D02*
X256203Y193708D01*
X260592Y193708D02*
X264487Y193708D01*
X264586Y193710D01*
X264686Y193716D01*
X264785Y193725D01*
X264883Y193738D01*
X264981Y193755D01*
X265079Y193776D01*
X265175Y193801D01*
X265270Y193829D01*
X265364Y193861D01*
X265457Y193896D01*
X265549Y193935D01*
X265639Y193978D01*
X265727Y194023D01*
X265814Y194073D01*
X265898Y194125D01*
X265981Y194181D01*
X266061Y194239D01*
X266139Y194301D01*
X266214Y194366D01*
X266287Y194434D01*
X266357Y194504D01*
X266425Y194577D01*
X266490Y194652D01*
X266552Y194730D01*
X266610Y194810D01*
X266666Y194893D01*
X266718Y194977D01*
X266768Y195064D01*
X266813Y195152D01*
X266856Y195242D01*
X266895Y195334D01*
X266930Y195427D01*
X266962Y195521D01*
X266990Y195616D01*
X267015Y195712D01*
X267036Y195810D01*
X267053Y195908D01*
X267066Y196006D01*
X267075Y196105D01*
X267081Y196205D01*
X267083Y196304D01*
X267083Y197603D01*
X267081Y197702D01*
X267075Y197802D01*
X267066Y197901D01*
X267053Y197999D01*
X267036Y198097D01*
X267015Y198195D01*
X266990Y198291D01*
X266962Y198386D01*
X266930Y198480D01*
X266895Y198573D01*
X266856Y198665D01*
X266813Y198755D01*
X266768Y198843D01*
X266718Y198930D01*
X266666Y199014D01*
X266610Y199097D01*
X266552Y199177D01*
X266490Y199255D01*
X266425Y199330D01*
X266357Y199403D01*
X266287Y199473D01*
X266214Y199541D01*
X266139Y199606D01*
X266061Y199668D01*
X265981Y199726D01*
X265898Y199782D01*
X265814Y199834D01*
X265727Y199884D01*
X265639Y199929D01*
X265549Y199972D01*
X265457Y200011D01*
X265364Y200046D01*
X265270Y200078D01*
X265175Y200106D01*
X265079Y200131D01*
X264981Y200152D01*
X264883Y200169D01*
X264785Y200182D01*
X264686Y200191D01*
X264586Y200197D01*
X264487Y200199D01*
X260592Y200199D01*
X260592Y205392D01*
X267083Y205392D01*
X272022Y193708D02*
X275268Y193708D01*
X275381Y193710D01*
X275494Y193716D01*
X275607Y193726D01*
X275720Y193740D01*
X275832Y193757D01*
X275943Y193779D01*
X276053Y193804D01*
X276163Y193834D01*
X276271Y193867D01*
X276378Y193904D01*
X276484Y193944D01*
X276588Y193989D01*
X276691Y194037D01*
X276792Y194088D01*
X276891Y194143D01*
X276988Y194201D01*
X277083Y194263D01*
X277176Y194328D01*
X277266Y194396D01*
X277354Y194467D01*
X277440Y194542D01*
X277523Y194619D01*
X277603Y194699D01*
X277680Y194782D01*
X277755Y194868D01*
X277826Y194956D01*
X277894Y195046D01*
X277959Y195139D01*
X278021Y195234D01*
X278079Y195331D01*
X278134Y195430D01*
X278185Y195531D01*
X278233Y195634D01*
X278278Y195738D01*
X278318Y195844D01*
X278355Y195951D01*
X278388Y196059D01*
X278418Y196169D01*
X278443Y196279D01*
X278465Y196390D01*
X278482Y196502D01*
X278496Y196615D01*
X278506Y196728D01*
X278512Y196841D01*
X278514Y196954D01*
X278512Y197067D01*
X278506Y197180D01*
X278496Y197293D01*
X278482Y197406D01*
X278465Y197518D01*
X278443Y197629D01*
X278418Y197739D01*
X278388Y197849D01*
X278355Y197957D01*
X278318Y198064D01*
X278278Y198170D01*
X278233Y198274D01*
X278185Y198377D01*
X278134Y198478D01*
X278079Y198577D01*
X278021Y198674D01*
X277959Y198769D01*
X277894Y198862D01*
X277826Y198952D01*
X277755Y199040D01*
X277680Y199126D01*
X277603Y199209D01*
X277523Y199289D01*
X277440Y199366D01*
X277354Y199441D01*
X277266Y199512D01*
X277176Y199580D01*
X277083Y199645D01*
X276988Y199707D01*
X276891Y199765D01*
X276792Y199820D01*
X276691Y199871D01*
X276588Y199919D01*
X276484Y199964D01*
X276378Y200004D01*
X276271Y200041D01*
X276163Y200074D01*
X276053Y200104D01*
X275943Y200129D01*
X275832Y200151D01*
X275720Y200168D01*
X275607Y200182D01*
X275494Y200192D01*
X275381Y200198D01*
X275268Y200200D01*
X275917Y205392D02*
X272022Y205392D01*
X275917Y205392D02*
X276018Y205390D01*
X276118Y205384D01*
X276218Y205374D01*
X276318Y205361D01*
X276417Y205343D01*
X276516Y205322D01*
X276613Y205297D01*
X276710Y205268D01*
X276805Y205235D01*
X276899Y205199D01*
X276991Y205159D01*
X277082Y205116D01*
X277171Y205069D01*
X277258Y205019D01*
X277344Y204965D01*
X277427Y204908D01*
X277507Y204848D01*
X277586Y204785D01*
X277662Y204718D01*
X277735Y204649D01*
X277805Y204577D01*
X277873Y204503D01*
X277938Y204426D01*
X277999Y204346D01*
X278058Y204264D01*
X278113Y204180D01*
X278165Y204094D01*
X278214Y204006D01*
X278259Y203916D01*
X278301Y203824D01*
X278339Y203731D01*
X278373Y203636D01*
X278404Y203541D01*
X278431Y203444D01*
X278454Y203346D01*
X278474Y203247D01*
X278489Y203147D01*
X278501Y203047D01*
X278509Y202947D01*
X278513Y202846D01*
X278513Y202746D01*
X278509Y202645D01*
X278501Y202545D01*
X278489Y202445D01*
X278474Y202345D01*
X278454Y202246D01*
X278431Y202148D01*
X278404Y202051D01*
X278373Y201956D01*
X278339Y201861D01*
X278301Y201768D01*
X278259Y201676D01*
X278214Y201586D01*
X278165Y201498D01*
X278113Y201412D01*
X278058Y201328D01*
X277999Y201246D01*
X277938Y201166D01*
X277873Y201089D01*
X277805Y201015D01*
X277735Y200943D01*
X277662Y200874D01*
X277586Y200807D01*
X277507Y200744D01*
X277427Y200684D01*
X277344Y200627D01*
X277258Y200573D01*
X277171Y200523D01*
X277082Y200476D01*
X276991Y200433D01*
X276899Y200393D01*
X276805Y200357D01*
X276710Y200324D01*
X276613Y200295D01*
X276516Y200270D01*
X276417Y200249D01*
X276318Y200231D01*
X276218Y200218D01*
X276118Y200208D01*
X276018Y200202D01*
X275917Y200200D01*
X275917Y200199D02*
X273320Y200199D01*
X283452Y199550D02*
X283455Y199780D01*
X283463Y200010D01*
X283477Y200239D01*
X283496Y200468D01*
X283521Y200697D01*
X283551Y200924D01*
X283586Y201152D01*
X283627Y201378D01*
X283673Y201603D01*
X283725Y201827D01*
X283782Y202049D01*
X283844Y202271D01*
X283912Y202490D01*
X283985Y202708D01*
X284063Y202925D01*
X284146Y203139D01*
X284234Y203351D01*
X284327Y203561D01*
X284426Y203769D01*
X284425Y203769D02*
X284458Y203859D01*
X284494Y203948D01*
X284534Y204036D01*
X284578Y204121D01*
X284625Y204205D01*
X284675Y204287D01*
X284729Y204367D01*
X284785Y204444D01*
X284845Y204520D01*
X284908Y204593D01*
X284973Y204663D01*
X285042Y204731D01*
X285113Y204795D01*
X285186Y204857D01*
X285262Y204916D01*
X285340Y204972D01*
X285421Y205025D01*
X285503Y205074D01*
X285587Y205120D01*
X285674Y205163D01*
X285761Y205202D01*
X285851Y205238D01*
X285941Y205270D01*
X286033Y205298D01*
X286126Y205323D01*
X286220Y205344D01*
X286314Y205361D01*
X286409Y205375D01*
X286505Y205384D01*
X286601Y205390D01*
X286697Y205392D01*
X286793Y205390D01*
X286889Y205384D01*
X286985Y205375D01*
X287080Y205361D01*
X287174Y205344D01*
X287268Y205323D01*
X287361Y205298D01*
X287453Y205270D01*
X287543Y205238D01*
X287633Y205202D01*
X287720Y205163D01*
X287807Y205120D01*
X287891Y205074D01*
X287973Y205025D01*
X288054Y204972D01*
X288132Y204916D01*
X288208Y204857D01*
X288281Y204795D01*
X288352Y204731D01*
X288421Y204663D01*
X288486Y204593D01*
X288549Y204520D01*
X288609Y204444D01*
X288665Y204367D01*
X288719Y204287D01*
X288769Y204205D01*
X288816Y204121D01*
X288860Y204036D01*
X288900Y203948D01*
X288936Y203859D01*
X288969Y203769D01*
X288970Y203769D02*
X289069Y203562D01*
X289162Y203352D01*
X289250Y203139D01*
X289333Y202925D01*
X289411Y202709D01*
X289484Y202491D01*
X289552Y202271D01*
X289614Y202050D01*
X289671Y201827D01*
X289723Y201603D01*
X289769Y201378D01*
X289810Y201152D01*
X289845Y200925D01*
X289875Y200697D01*
X289900Y200468D01*
X289919Y200239D01*
X289933Y200010D01*
X289941Y199780D01*
X289944Y199550D01*
X283452Y199550D02*
X283455Y199320D01*
X283463Y199090D01*
X283477Y198861D01*
X283496Y198632D01*
X283521Y198403D01*
X283551Y198175D01*
X283586Y197948D01*
X283627Y197722D01*
X283673Y197497D01*
X283725Y197273D01*
X283782Y197050D01*
X283844Y196829D01*
X283912Y196609D01*
X283985Y196391D01*
X284063Y196175D01*
X284146Y195961D01*
X284234Y195749D01*
X284327Y195538D01*
X284426Y195331D01*
X284425Y195331D02*
X284458Y195241D01*
X284494Y195152D01*
X284535Y195064D01*
X284578Y194979D01*
X284625Y194895D01*
X284675Y194813D01*
X284729Y194733D01*
X284785Y194656D01*
X284845Y194580D01*
X284908Y194507D01*
X284973Y194437D01*
X285042Y194369D01*
X285113Y194305D01*
X285186Y194243D01*
X285262Y194184D01*
X285340Y194128D01*
X285421Y194075D01*
X285503Y194026D01*
X285587Y193980D01*
X285674Y193937D01*
X285761Y193898D01*
X285851Y193862D01*
X285941Y193830D01*
X286033Y193802D01*
X286126Y193777D01*
X286220Y193756D01*
X286314Y193739D01*
X286409Y193725D01*
X286505Y193716D01*
X286601Y193710D01*
X286697Y193708D01*
X288969Y195331D02*
X289068Y195538D01*
X289161Y195749D01*
X289249Y195961D01*
X289332Y196175D01*
X289410Y196391D01*
X289483Y196609D01*
X289551Y196829D01*
X289613Y197050D01*
X289670Y197273D01*
X289722Y197497D01*
X289768Y197722D01*
X289809Y197948D01*
X289844Y198175D01*
X289874Y198403D01*
X289899Y198632D01*
X289918Y198861D01*
X289932Y199090D01*
X289940Y199320D01*
X289943Y199550D01*
X288969Y195331D02*
X288936Y195241D01*
X288900Y195152D01*
X288860Y195064D01*
X288816Y194979D01*
X288769Y194895D01*
X288719Y194813D01*
X288665Y194733D01*
X288609Y194656D01*
X288549Y194580D01*
X288486Y194507D01*
X288421Y194437D01*
X288352Y194369D01*
X288281Y194305D01*
X288208Y194243D01*
X288132Y194184D01*
X288054Y194128D01*
X287973Y194075D01*
X287891Y194026D01*
X287807Y193980D01*
X287720Y193937D01*
X287633Y193898D01*
X287543Y193862D01*
X287453Y193830D01*
X287361Y193802D01*
X287268Y193777D01*
X287174Y193756D01*
X287080Y193739D01*
X286985Y193725D01*
X286889Y193716D01*
X286793Y193710D01*
X286697Y193708D01*
X284101Y196304D02*
X289294Y202796D01*
D13*
X26276Y372669D02*
X12944Y361122D01*
X26032Y372669D02*
X26276Y372669D01*
X23876Y372372D02*
X13264Y363113D01*
X13716Y362887D02*
X24498Y372146D01*
X22126Y371922D02*
X13264Y364808D01*
X12870Y366502D02*
X20884Y372146D01*
X20434Y371922D02*
X13264Y366050D01*
X12870Y367518D02*
X19360Y372372D01*
X13096Y369042D01*
X12644Y369042D02*
X17046Y372372D01*
X14958Y371922D02*
X13264Y370284D01*
X13096Y371356D02*
X14280Y372146D01*
X25852Y372316D02*
X13604Y359446D01*
X13208Y359895D02*
X16144Y363228D01*
X14844Y360688D02*
X12982Y358823D01*
M02*
