G04 EAGLE Gerber X2 export*
%TF.Part,Single*%
%TF.FileFunction,Other,Solder stop mask Bottom*%
%TF.FilePolarity,Positive*%
%TF.GenerationSoftware,Autodesk,EAGLE,9.0.0*%
%TF.CreationDate,2018-07-20T06:24:49Z*%
G75*
%MOMM*%
%FSLAX34Y34*%
%LPD*%
%AMOC8*
5,1,8,0,0,1.08239X$1,22.5*%
G01*
%ADD10R,0.357000X0.787000*%
%ADD11R,0.477000X0.787000*%
%ADD12C,0.727000*%
%ADD13C,0.681000*%
%ADD14C,0.731000*%


D10*
X186000Y267550D03*
X186000Y240450D03*
X190000Y267550D03*
X190000Y240450D03*
X194000Y267550D03*
X194000Y240450D03*
X198000Y267550D03*
X198000Y240450D03*
X202000Y267550D03*
X202000Y240450D03*
X206000Y267550D03*
X206000Y240450D03*
X210000Y267550D03*
X210000Y240450D03*
X214000Y267550D03*
X214000Y240450D03*
X218000Y267550D03*
X218000Y240450D03*
X222000Y267550D03*
X222000Y240450D03*
X226000Y267550D03*
X226000Y240450D03*
X230000Y267550D03*
X230000Y240450D03*
X234000Y267550D03*
X234000Y240450D03*
X238000Y267550D03*
X238000Y240450D03*
X242000Y267550D03*
X242000Y240450D03*
X246000Y267550D03*
X246000Y240450D03*
X250000Y267550D03*
X250000Y240450D03*
X254000Y267550D03*
X254000Y240450D03*
X258000Y267550D03*
X258000Y240450D03*
X262000Y267550D03*
X262000Y240450D03*
X266000Y267550D03*
X266000Y240450D03*
X270000Y267550D03*
X270000Y240450D03*
X274000Y267550D03*
X274000Y240450D03*
X278000Y267550D03*
X278000Y240450D03*
X282000Y267550D03*
X282000Y240450D03*
X286000Y267550D03*
X286000Y240450D03*
X290000Y267550D03*
X290000Y240450D03*
X294000Y267550D03*
X294000Y240450D03*
X298000Y267550D03*
X298000Y240450D03*
X302000Y267550D03*
X302000Y240450D03*
X306000Y267550D03*
X306000Y240450D03*
X310000Y267550D03*
X310000Y240450D03*
X314000Y267550D03*
X314000Y240450D03*
X318000Y267550D03*
X318000Y240450D03*
X322000Y267550D03*
X322000Y240450D03*
D11*
X181250Y267550D03*
X181250Y240450D03*
X326750Y240450D03*
X326750Y267550D03*
D10*
X186000Y140550D03*
X186000Y113450D03*
X190000Y140550D03*
X190000Y113450D03*
X194000Y140550D03*
X194000Y113450D03*
X198000Y140550D03*
X198000Y113450D03*
X202000Y140550D03*
X202000Y113450D03*
X206000Y140550D03*
X206000Y113450D03*
X210000Y140550D03*
X210000Y113450D03*
X214000Y140550D03*
X214000Y113450D03*
X218000Y140550D03*
X218000Y113450D03*
X222000Y140550D03*
X222000Y113450D03*
X226000Y140550D03*
X226000Y113450D03*
X230000Y140550D03*
X230000Y113450D03*
X234000Y140550D03*
X234000Y113450D03*
X238000Y140550D03*
X238000Y113450D03*
X242000Y140550D03*
X242000Y113450D03*
X246000Y140550D03*
X246000Y113450D03*
X250000Y140550D03*
X250000Y113450D03*
X254000Y140550D03*
X254000Y113450D03*
X258000Y140550D03*
X258000Y113450D03*
X262000Y140550D03*
X262000Y113450D03*
X266000Y140550D03*
X266000Y113450D03*
X270000Y140550D03*
X270000Y113450D03*
X274000Y140550D03*
X274000Y113450D03*
X278000Y140550D03*
X278000Y113450D03*
X282000Y140550D03*
X282000Y113450D03*
X286000Y140550D03*
X286000Y113450D03*
X290000Y140550D03*
X290000Y113450D03*
X294000Y140550D03*
X294000Y113450D03*
X298000Y140550D03*
X298000Y113450D03*
X302000Y140550D03*
X302000Y113450D03*
X306000Y140550D03*
X306000Y113450D03*
X310000Y140550D03*
X310000Y113450D03*
X314000Y140550D03*
X314000Y113450D03*
X318000Y140550D03*
X318000Y113450D03*
X322000Y140550D03*
X322000Y113450D03*
D11*
X181250Y140550D03*
X181250Y113450D03*
X326750Y113450D03*
X326750Y140550D03*
D12*
X357900Y115200D03*
X478100Y113600D03*
X380500Y115200D03*
X59700Y154600D03*
X123600Y137800D03*
X145200Y115200D03*
X478100Y181400D03*
X380500Y270200D03*
X399000Y350900D03*
X145200Y270200D03*
X455500Y339600D03*
X380500Y247600D03*
X478100Y294400D03*
X252100Y350900D03*
X116500Y350900D03*
X184300Y350900D03*
X331200Y350900D03*
X163600Y276000D03*
X201800Y232200D03*
X209770Y300100D03*
X217000Y232500D03*
X201300Y306000D03*
X211100Y256800D03*
X202895Y289242D03*
X208700Y249900D03*
X187532Y280832D03*
X201400Y252000D03*
X219600Y248200D03*
X219282Y285182D03*
X226900Y249600D03*
X222465Y296200D03*
X234700Y232700D03*
X227200Y257700D03*
X237490Y254430D03*
X238270Y317200D03*
X242331Y232631D03*
X252400Y335600D03*
X260100Y301400D03*
X252700Y232600D03*
X252600Y328330D03*
X287500Y305600D03*
X268400Y251800D03*
X251675Y289816D03*
X252100Y259100D03*
X268793Y304700D03*
X258200Y250300D03*
X273030Y293670D03*
X264800Y259300D03*
X295900Y299400D03*
X288802Y278798D03*
X302900Y281900D03*
X276100Y259700D03*
X282400Y252000D03*
X281800Y232500D03*
X286300Y218600D03*
X292900Y213200D03*
X447800Y326400D03*
X466800Y350900D03*
X299000Y206900D03*
X451100Y319200D03*
X478100Y350900D03*
X478100Y328300D03*
X310000Y197400D03*
X316800Y197400D03*
X323600Y197400D03*
X330800Y197400D03*
X147900Y177600D03*
X37300Y169400D03*
X37400Y147500D03*
X49000Y176000D03*
X37400Y136200D03*
X26100Y158800D03*
X37400Y158800D03*
X37400Y91000D03*
X113500Y177700D03*
X122300Y177800D03*
X37400Y79700D03*
X37400Y68400D03*
X130600Y177800D03*
X37400Y57100D03*
X37400Y45800D03*
X139200Y177700D03*
X156800Y177600D03*
X26100Y23200D03*
X37400Y23200D03*
X176800Y177700D03*
X60000Y23200D03*
X165300Y177700D03*
X48700Y23200D03*
X93900Y23200D03*
X208100Y177900D03*
X263400Y23200D03*
X216700Y177900D03*
X105200Y23200D03*
X225700Y177900D03*
X116500Y23200D03*
X235000Y177900D03*
X127800Y23200D03*
X139100Y23200D03*
X243800Y177800D03*
X257900Y177800D03*
X267200Y177700D03*
X252100Y23200D03*
X276200Y177800D03*
X274700Y23200D03*
X284900Y178000D03*
X293500Y178100D03*
X286000Y23200D03*
X310300Y177900D03*
X301800Y178100D03*
X353800Y23200D03*
X319000Y178100D03*
X342500Y23200D03*
X331200Y23200D03*
X327400Y177900D03*
X376400Y23200D03*
X365100Y23200D03*
X336300Y177800D03*
X371100Y177600D03*
X344900Y177800D03*
X353800Y177700D03*
X362400Y177800D03*
X379900Y177700D03*
X387700Y23200D03*
X410300Y23200D03*
X421600Y23200D03*
X432900Y23200D03*
X478100Y23200D03*
X489400Y23200D03*
X218200Y34500D03*
D13*
X218200Y23200D03*
X206900Y23200D03*
X206900Y34500D03*
D12*
X246900Y248400D03*
D14*
X399000Y23200D03*
M02*
