G04 EAGLE Gerber X2 export*
%TF.Part,Single*%
%TF.FileFunction,Other,Silk screen Bottom*%
%TF.FilePolarity,Positive*%
%TF.GenerationSoftware,Autodesk,EAGLE,9.0.0*%
%TF.CreationDate,2018-10-03T06:32:16Z*%
G75*
%MOMM*%
%FSLAX34Y34*%
%LPD*%
%AMOC8*
5,1,8,0,0,1.08239X$1,22.5*%
G01*
%ADD10C,0.000000*%
%ADD11C,0.076200*%
%ADD12C,0.127000*%
%ADD13C,0.025400*%
%ADD14C,0.100000*%
%ADD15C,0.101600*%


D10*
X0Y0D02*
X490000Y0D01*
X490000Y360000D01*
X0Y360000D01*
X0Y0D01*
D11*
X169319Y268310D02*
X167273Y269947D01*
X167273Y262581D01*
X169319Y262581D02*
X165227Y262581D01*
X167468Y220848D02*
X167383Y220846D01*
X167298Y220840D01*
X167214Y220830D01*
X167130Y220817D01*
X167046Y220799D01*
X166964Y220778D01*
X166883Y220753D01*
X166803Y220724D01*
X166724Y220691D01*
X166647Y220655D01*
X166572Y220615D01*
X166498Y220572D01*
X166427Y220526D01*
X166358Y220476D01*
X166291Y220423D01*
X166227Y220367D01*
X166166Y220308D01*
X166107Y220247D01*
X166051Y220183D01*
X165998Y220116D01*
X165948Y220047D01*
X165902Y219976D01*
X165859Y219902D01*
X165819Y219827D01*
X165783Y219750D01*
X165750Y219671D01*
X165721Y219591D01*
X165696Y219510D01*
X165675Y219428D01*
X165657Y219344D01*
X165644Y219260D01*
X165634Y219176D01*
X165628Y219091D01*
X165626Y219006D01*
X167468Y220847D02*
X167564Y220845D01*
X167660Y220839D01*
X167755Y220829D01*
X167850Y220816D01*
X167945Y220798D01*
X168038Y220777D01*
X168131Y220752D01*
X168222Y220723D01*
X168313Y220691D01*
X168402Y220655D01*
X168489Y220615D01*
X168575Y220572D01*
X168659Y220526D01*
X168741Y220476D01*
X168821Y220422D01*
X168898Y220366D01*
X168973Y220306D01*
X169046Y220244D01*
X169116Y220178D01*
X169184Y220110D01*
X169249Y220039D01*
X169310Y219966D01*
X169369Y219890D01*
X169425Y219811D01*
X169477Y219731D01*
X169526Y219648D01*
X169572Y219564D01*
X169614Y219478D01*
X169652Y219390D01*
X169687Y219301D01*
X169719Y219210D01*
X166241Y217574D02*
X166181Y217633D01*
X166124Y217695D01*
X166069Y217759D01*
X166018Y217826D01*
X165969Y217895D01*
X165923Y217965D01*
X165880Y218038D01*
X165840Y218112D01*
X165804Y218188D01*
X165771Y218266D01*
X165741Y218345D01*
X165714Y218425D01*
X165691Y218506D01*
X165672Y218588D01*
X165656Y218670D01*
X165643Y218754D01*
X165634Y218838D01*
X165629Y218922D01*
X165627Y219006D01*
X166241Y217573D02*
X169719Y213481D01*
X165627Y213481D01*
X310664Y265773D02*
X313119Y265773D01*
X310664Y265773D02*
X310584Y265771D01*
X310504Y265765D01*
X310424Y265755D01*
X310345Y265742D01*
X310266Y265724D01*
X310189Y265703D01*
X310113Y265677D01*
X310038Y265648D01*
X309964Y265616D01*
X309892Y265580D01*
X309822Y265540D01*
X309755Y265497D01*
X309689Y265451D01*
X309626Y265401D01*
X309565Y265349D01*
X309506Y265294D01*
X309451Y265235D01*
X309399Y265175D01*
X309349Y265111D01*
X309303Y265045D01*
X309260Y264978D01*
X309220Y264908D01*
X309184Y264836D01*
X309152Y264762D01*
X309123Y264688D01*
X309097Y264611D01*
X309076Y264534D01*
X309058Y264455D01*
X309045Y264376D01*
X309035Y264296D01*
X309029Y264216D01*
X309027Y264136D01*
X309027Y263727D01*
X309029Y263638D01*
X309035Y263549D01*
X309045Y263460D01*
X309058Y263372D01*
X309075Y263284D01*
X309097Y263197D01*
X309122Y263112D01*
X309150Y263027D01*
X309183Y262944D01*
X309219Y262862D01*
X309258Y262782D01*
X309301Y262704D01*
X309347Y262628D01*
X309397Y262553D01*
X309450Y262481D01*
X309506Y262412D01*
X309565Y262345D01*
X309626Y262280D01*
X309691Y262219D01*
X309758Y262160D01*
X309827Y262104D01*
X309899Y262051D01*
X309974Y262001D01*
X310050Y261955D01*
X310128Y261912D01*
X310208Y261873D01*
X310290Y261837D01*
X310373Y261804D01*
X310458Y261776D01*
X310543Y261751D01*
X310630Y261729D01*
X310718Y261712D01*
X310806Y261699D01*
X310895Y261689D01*
X310984Y261683D01*
X311073Y261681D01*
X311162Y261683D01*
X311251Y261689D01*
X311340Y261699D01*
X311428Y261712D01*
X311516Y261729D01*
X311603Y261751D01*
X311688Y261776D01*
X311773Y261804D01*
X311856Y261837D01*
X311938Y261873D01*
X312018Y261912D01*
X312096Y261955D01*
X312172Y262001D01*
X312247Y262051D01*
X312319Y262104D01*
X312388Y262160D01*
X312455Y262219D01*
X312520Y262280D01*
X312581Y262345D01*
X312640Y262412D01*
X312696Y262481D01*
X312749Y262553D01*
X312799Y262628D01*
X312845Y262704D01*
X312888Y262782D01*
X312927Y262862D01*
X312963Y262944D01*
X312996Y263027D01*
X313024Y263112D01*
X313049Y263197D01*
X313071Y263284D01*
X313088Y263372D01*
X313101Y263460D01*
X313111Y263549D01*
X313117Y263638D01*
X313119Y263727D01*
X313119Y265773D01*
X313117Y265885D01*
X313111Y265996D01*
X313102Y266108D01*
X313089Y266219D01*
X313071Y266329D01*
X313051Y266439D01*
X313026Y266548D01*
X312998Y266656D01*
X312966Y266763D01*
X312930Y266869D01*
X312891Y266974D01*
X312848Y267077D01*
X312802Y267179D01*
X312752Y267279D01*
X312699Y267378D01*
X312642Y267474D01*
X312583Y267569D01*
X312520Y267661D01*
X312454Y267751D01*
X312385Y267839D01*
X312313Y267925D01*
X312238Y268008D01*
X312160Y268088D01*
X312080Y268166D01*
X311997Y268241D01*
X311911Y268313D01*
X311823Y268382D01*
X311733Y268448D01*
X311641Y268511D01*
X311546Y268570D01*
X311450Y268627D01*
X311351Y268680D01*
X311251Y268730D01*
X311149Y268776D01*
X311046Y268819D01*
X310941Y268858D01*
X310835Y268894D01*
X310728Y268926D01*
X310620Y268954D01*
X310511Y268979D01*
X310401Y268999D01*
X310291Y269017D01*
X310180Y269030D01*
X310068Y269039D01*
X309957Y269045D01*
X309845Y269047D01*
X304167Y264955D02*
X301712Y264955D01*
X304167Y264955D02*
X304245Y264957D01*
X304323Y264962D01*
X304400Y264972D01*
X304477Y264985D01*
X304553Y265001D01*
X304628Y265021D01*
X304702Y265045D01*
X304775Y265072D01*
X304847Y265103D01*
X304917Y265137D01*
X304986Y265174D01*
X305052Y265215D01*
X305117Y265259D01*
X305179Y265305D01*
X305239Y265355D01*
X305297Y265407D01*
X305352Y265462D01*
X305404Y265520D01*
X305454Y265580D01*
X305500Y265642D01*
X305544Y265707D01*
X305585Y265774D01*
X305622Y265842D01*
X305656Y265912D01*
X305687Y265984D01*
X305714Y266057D01*
X305738Y266131D01*
X305758Y266206D01*
X305774Y266282D01*
X305787Y266359D01*
X305797Y266436D01*
X305802Y266514D01*
X305804Y266592D01*
X305804Y267001D01*
X305802Y267090D01*
X305796Y267179D01*
X305786Y267268D01*
X305773Y267356D01*
X305756Y267444D01*
X305734Y267531D01*
X305709Y267616D01*
X305681Y267701D01*
X305648Y267784D01*
X305612Y267866D01*
X305573Y267946D01*
X305530Y268024D01*
X305484Y268100D01*
X305434Y268175D01*
X305381Y268247D01*
X305325Y268316D01*
X305266Y268383D01*
X305205Y268448D01*
X305140Y268509D01*
X305073Y268568D01*
X305004Y268624D01*
X304932Y268677D01*
X304857Y268727D01*
X304781Y268773D01*
X304703Y268816D01*
X304623Y268855D01*
X304541Y268891D01*
X304458Y268924D01*
X304373Y268952D01*
X304288Y268977D01*
X304201Y268999D01*
X304113Y269016D01*
X304025Y269029D01*
X303936Y269039D01*
X303847Y269045D01*
X303758Y269047D01*
X303669Y269045D01*
X303580Y269039D01*
X303491Y269029D01*
X303403Y269016D01*
X303315Y268999D01*
X303228Y268977D01*
X303143Y268952D01*
X303058Y268924D01*
X302975Y268891D01*
X302893Y268855D01*
X302813Y268816D01*
X302735Y268773D01*
X302659Y268727D01*
X302584Y268677D01*
X302512Y268624D01*
X302443Y268568D01*
X302376Y268509D01*
X302311Y268448D01*
X302250Y268383D01*
X302191Y268316D01*
X302135Y268247D01*
X302082Y268175D01*
X302032Y268100D01*
X301986Y268024D01*
X301943Y267946D01*
X301904Y267866D01*
X301868Y267784D01*
X301835Y267701D01*
X301807Y267616D01*
X301782Y267531D01*
X301760Y267444D01*
X301743Y267356D01*
X301730Y267268D01*
X301720Y267179D01*
X301714Y267090D01*
X301712Y267001D01*
X301712Y264955D01*
X301711Y264955D02*
X301713Y264843D01*
X301719Y264732D01*
X301728Y264620D01*
X301741Y264509D01*
X301759Y264399D01*
X301779Y264289D01*
X301804Y264180D01*
X301832Y264072D01*
X301864Y263965D01*
X301900Y263859D01*
X301939Y263754D01*
X301982Y263651D01*
X302028Y263549D01*
X302078Y263449D01*
X302131Y263350D01*
X302188Y263254D01*
X302247Y263159D01*
X302310Y263067D01*
X302376Y262977D01*
X302445Y262889D01*
X302517Y262803D01*
X302592Y262720D01*
X302670Y262640D01*
X302750Y262562D01*
X302833Y262487D01*
X302919Y262415D01*
X303007Y262346D01*
X303097Y262280D01*
X303189Y262217D01*
X303284Y262158D01*
X303380Y262101D01*
X303479Y262048D01*
X303579Y261998D01*
X303681Y261952D01*
X303784Y261909D01*
X303889Y261870D01*
X303995Y261834D01*
X304102Y261802D01*
X304210Y261774D01*
X304319Y261749D01*
X304429Y261729D01*
X304539Y261711D01*
X304650Y261698D01*
X304762Y261689D01*
X304873Y261683D01*
X304985Y261681D01*
X314319Y221747D02*
X314319Y220929D01*
X314319Y221747D02*
X310227Y221747D01*
X312273Y214381D01*
X307004Y218064D02*
X307002Y218217D01*
X306996Y218370D01*
X306987Y218522D01*
X306973Y218675D01*
X306956Y218827D01*
X306935Y218978D01*
X306910Y219129D01*
X306881Y219279D01*
X306849Y219429D01*
X306812Y219577D01*
X306772Y219725D01*
X306729Y219872D01*
X306681Y220017D01*
X306630Y220161D01*
X306576Y220304D01*
X306517Y220446D01*
X306456Y220585D01*
X306390Y220724D01*
X306364Y220794D01*
X306334Y220863D01*
X306302Y220931D01*
X306265Y220997D01*
X306226Y221061D01*
X306183Y221123D01*
X306138Y221182D01*
X306089Y221240D01*
X306038Y221294D01*
X305984Y221347D01*
X305927Y221396D01*
X305868Y221443D01*
X305807Y221486D01*
X305744Y221527D01*
X305679Y221564D01*
X305612Y221599D01*
X305543Y221629D01*
X305473Y221657D01*
X305402Y221680D01*
X305330Y221701D01*
X305257Y221717D01*
X305183Y221730D01*
X305108Y221740D01*
X305033Y221745D01*
X304958Y221747D01*
X304883Y221745D01*
X304808Y221740D01*
X304733Y221730D01*
X304659Y221717D01*
X304586Y221701D01*
X304514Y221680D01*
X304443Y221657D01*
X304373Y221629D01*
X304304Y221599D01*
X304237Y221564D01*
X304172Y221527D01*
X304109Y221486D01*
X304048Y221443D01*
X303989Y221396D01*
X303932Y221347D01*
X303878Y221294D01*
X303827Y221240D01*
X303779Y221182D01*
X303733Y221123D01*
X303690Y221061D01*
X303651Y220997D01*
X303615Y220931D01*
X303582Y220864D01*
X303552Y220794D01*
X303526Y220724D01*
X303461Y220586D01*
X303399Y220446D01*
X303341Y220304D01*
X303286Y220161D01*
X303235Y220017D01*
X303187Y219872D01*
X303144Y219725D01*
X303104Y219578D01*
X303067Y219429D01*
X303035Y219279D01*
X303006Y219129D01*
X302981Y218978D01*
X302960Y218827D01*
X302943Y218675D01*
X302929Y218522D01*
X302920Y218370D01*
X302914Y218217D01*
X302912Y218064D01*
X307004Y218064D02*
X307002Y217911D01*
X306996Y217758D01*
X306987Y217605D01*
X306973Y217453D01*
X306956Y217301D01*
X306935Y217150D01*
X306910Y216999D01*
X306881Y216848D01*
X306849Y216699D01*
X306812Y216550D01*
X306772Y216403D01*
X306729Y216256D01*
X306681Y216111D01*
X306630Y215966D01*
X306575Y215824D01*
X306517Y215682D01*
X306455Y215542D01*
X306390Y215404D01*
X306364Y215334D01*
X306334Y215264D01*
X306302Y215197D01*
X306265Y215131D01*
X306226Y215067D01*
X306183Y215005D01*
X306137Y214946D01*
X306089Y214888D01*
X306038Y214834D01*
X305984Y214781D01*
X305927Y214732D01*
X305868Y214685D01*
X305807Y214642D01*
X305744Y214601D01*
X305679Y214564D01*
X305612Y214529D01*
X305543Y214499D01*
X305473Y214471D01*
X305402Y214448D01*
X305330Y214427D01*
X305257Y214411D01*
X305183Y214398D01*
X305108Y214388D01*
X305033Y214383D01*
X304958Y214381D01*
X303526Y215404D02*
X303461Y215542D01*
X303399Y215682D01*
X303341Y215824D01*
X303286Y215967D01*
X303235Y216111D01*
X303187Y216256D01*
X303144Y216403D01*
X303104Y216551D01*
X303067Y216699D01*
X303035Y216849D01*
X303006Y216999D01*
X302981Y217150D01*
X302960Y217301D01*
X302943Y217453D01*
X302929Y217606D01*
X302920Y217758D01*
X302914Y217911D01*
X302912Y218064D01*
X303526Y215404D02*
X303552Y215333D01*
X303582Y215264D01*
X303615Y215197D01*
X303651Y215131D01*
X303690Y215067D01*
X303733Y215005D01*
X303779Y214946D01*
X303827Y214888D01*
X303878Y214834D01*
X303932Y214781D01*
X303989Y214732D01*
X304048Y214685D01*
X304109Y214642D01*
X304172Y214601D01*
X304237Y214564D01*
X304304Y214529D01*
X304373Y214499D01*
X304443Y214471D01*
X304514Y214448D01*
X304586Y214427D01*
X304659Y214411D01*
X304733Y214398D01*
X304808Y214388D01*
X304883Y214383D01*
X304958Y214381D01*
X306595Y216018D02*
X303321Y220110D01*
X174919Y141610D02*
X172873Y143247D01*
X172873Y135881D01*
X174919Y135881D02*
X170827Y135881D01*
X173168Y93648D02*
X173083Y93646D01*
X172998Y93640D01*
X172914Y93630D01*
X172830Y93617D01*
X172746Y93599D01*
X172664Y93578D01*
X172583Y93553D01*
X172503Y93524D01*
X172424Y93491D01*
X172347Y93455D01*
X172272Y93415D01*
X172198Y93372D01*
X172127Y93326D01*
X172058Y93276D01*
X171991Y93223D01*
X171927Y93167D01*
X171866Y93108D01*
X171807Y93047D01*
X171751Y92983D01*
X171698Y92916D01*
X171648Y92847D01*
X171602Y92776D01*
X171559Y92702D01*
X171519Y92627D01*
X171483Y92550D01*
X171450Y92471D01*
X171421Y92391D01*
X171396Y92310D01*
X171375Y92228D01*
X171357Y92144D01*
X171344Y92060D01*
X171334Y91976D01*
X171328Y91891D01*
X171326Y91806D01*
X173168Y93647D02*
X173264Y93645D01*
X173360Y93639D01*
X173455Y93629D01*
X173550Y93616D01*
X173645Y93598D01*
X173738Y93577D01*
X173831Y93552D01*
X173922Y93523D01*
X174013Y93491D01*
X174102Y93455D01*
X174189Y93415D01*
X174275Y93372D01*
X174359Y93326D01*
X174441Y93276D01*
X174521Y93222D01*
X174598Y93166D01*
X174673Y93106D01*
X174746Y93044D01*
X174816Y92978D01*
X174884Y92910D01*
X174949Y92839D01*
X175010Y92766D01*
X175069Y92690D01*
X175125Y92611D01*
X175177Y92531D01*
X175226Y92448D01*
X175272Y92364D01*
X175314Y92278D01*
X175352Y92190D01*
X175387Y92101D01*
X175419Y92010D01*
X171941Y90374D02*
X171881Y90433D01*
X171824Y90495D01*
X171769Y90559D01*
X171718Y90626D01*
X171669Y90695D01*
X171623Y90765D01*
X171580Y90838D01*
X171540Y90912D01*
X171504Y90988D01*
X171471Y91066D01*
X171441Y91145D01*
X171414Y91225D01*
X171391Y91306D01*
X171372Y91388D01*
X171356Y91470D01*
X171343Y91554D01*
X171334Y91638D01*
X171329Y91722D01*
X171327Y91806D01*
X171941Y90373D02*
X175419Y86281D01*
X171327Y86281D01*
X310764Y140373D02*
X313219Y140373D01*
X310764Y140373D02*
X310684Y140371D01*
X310604Y140365D01*
X310524Y140355D01*
X310445Y140342D01*
X310366Y140324D01*
X310289Y140303D01*
X310213Y140277D01*
X310138Y140248D01*
X310064Y140216D01*
X309992Y140180D01*
X309922Y140140D01*
X309855Y140097D01*
X309789Y140051D01*
X309726Y140001D01*
X309665Y139949D01*
X309606Y139894D01*
X309551Y139835D01*
X309499Y139775D01*
X309449Y139711D01*
X309403Y139645D01*
X309360Y139578D01*
X309320Y139508D01*
X309284Y139436D01*
X309252Y139362D01*
X309223Y139288D01*
X309197Y139211D01*
X309176Y139134D01*
X309158Y139055D01*
X309145Y138976D01*
X309135Y138896D01*
X309129Y138816D01*
X309127Y138736D01*
X309127Y138327D01*
X309129Y138238D01*
X309135Y138149D01*
X309145Y138060D01*
X309158Y137972D01*
X309175Y137884D01*
X309197Y137797D01*
X309222Y137712D01*
X309250Y137627D01*
X309283Y137544D01*
X309319Y137462D01*
X309358Y137382D01*
X309401Y137304D01*
X309447Y137228D01*
X309497Y137153D01*
X309550Y137081D01*
X309606Y137012D01*
X309665Y136945D01*
X309726Y136880D01*
X309791Y136819D01*
X309858Y136760D01*
X309927Y136704D01*
X309999Y136651D01*
X310074Y136601D01*
X310150Y136555D01*
X310228Y136512D01*
X310308Y136473D01*
X310390Y136437D01*
X310473Y136404D01*
X310558Y136376D01*
X310643Y136351D01*
X310730Y136329D01*
X310818Y136312D01*
X310906Y136299D01*
X310995Y136289D01*
X311084Y136283D01*
X311173Y136281D01*
X311262Y136283D01*
X311351Y136289D01*
X311440Y136299D01*
X311528Y136312D01*
X311616Y136329D01*
X311703Y136351D01*
X311788Y136376D01*
X311873Y136404D01*
X311956Y136437D01*
X312038Y136473D01*
X312118Y136512D01*
X312196Y136555D01*
X312272Y136601D01*
X312347Y136651D01*
X312419Y136704D01*
X312488Y136760D01*
X312555Y136819D01*
X312620Y136880D01*
X312681Y136945D01*
X312740Y137012D01*
X312796Y137081D01*
X312849Y137153D01*
X312899Y137228D01*
X312945Y137304D01*
X312988Y137382D01*
X313027Y137462D01*
X313063Y137544D01*
X313096Y137627D01*
X313124Y137712D01*
X313149Y137797D01*
X313171Y137884D01*
X313188Y137972D01*
X313201Y138060D01*
X313211Y138149D01*
X313217Y138238D01*
X313219Y138327D01*
X313219Y140373D01*
X313217Y140485D01*
X313211Y140596D01*
X313202Y140708D01*
X313189Y140819D01*
X313171Y140929D01*
X313151Y141039D01*
X313126Y141148D01*
X313098Y141256D01*
X313066Y141363D01*
X313030Y141469D01*
X312991Y141574D01*
X312948Y141677D01*
X312902Y141779D01*
X312852Y141879D01*
X312799Y141978D01*
X312742Y142074D01*
X312683Y142169D01*
X312620Y142261D01*
X312554Y142351D01*
X312485Y142439D01*
X312413Y142525D01*
X312338Y142608D01*
X312260Y142688D01*
X312180Y142766D01*
X312097Y142841D01*
X312011Y142913D01*
X311923Y142982D01*
X311833Y143048D01*
X311741Y143111D01*
X311646Y143170D01*
X311550Y143227D01*
X311451Y143280D01*
X311351Y143330D01*
X311249Y143376D01*
X311146Y143419D01*
X311041Y143458D01*
X310935Y143494D01*
X310828Y143526D01*
X310720Y143554D01*
X310611Y143579D01*
X310501Y143599D01*
X310391Y143617D01*
X310280Y143630D01*
X310168Y143639D01*
X310057Y143645D01*
X309945Y143647D01*
X304267Y139555D02*
X301812Y139555D01*
X304267Y139555D02*
X304345Y139557D01*
X304423Y139562D01*
X304500Y139572D01*
X304577Y139585D01*
X304653Y139601D01*
X304728Y139621D01*
X304802Y139645D01*
X304875Y139672D01*
X304947Y139703D01*
X305017Y139737D01*
X305086Y139774D01*
X305152Y139815D01*
X305217Y139859D01*
X305279Y139905D01*
X305339Y139955D01*
X305397Y140007D01*
X305452Y140062D01*
X305504Y140120D01*
X305554Y140180D01*
X305600Y140242D01*
X305644Y140307D01*
X305685Y140374D01*
X305722Y140442D01*
X305756Y140512D01*
X305787Y140584D01*
X305814Y140657D01*
X305838Y140731D01*
X305858Y140806D01*
X305874Y140882D01*
X305887Y140959D01*
X305897Y141036D01*
X305902Y141114D01*
X305904Y141192D01*
X305904Y141601D01*
X305902Y141690D01*
X305896Y141779D01*
X305886Y141868D01*
X305873Y141956D01*
X305856Y142044D01*
X305834Y142131D01*
X305809Y142216D01*
X305781Y142301D01*
X305748Y142384D01*
X305712Y142466D01*
X305673Y142546D01*
X305630Y142624D01*
X305584Y142700D01*
X305534Y142775D01*
X305481Y142847D01*
X305425Y142916D01*
X305366Y142983D01*
X305305Y143048D01*
X305240Y143109D01*
X305173Y143168D01*
X305104Y143224D01*
X305032Y143277D01*
X304957Y143327D01*
X304881Y143373D01*
X304803Y143416D01*
X304723Y143455D01*
X304641Y143491D01*
X304558Y143524D01*
X304473Y143552D01*
X304388Y143577D01*
X304301Y143599D01*
X304213Y143616D01*
X304125Y143629D01*
X304036Y143639D01*
X303947Y143645D01*
X303858Y143647D01*
X303769Y143645D01*
X303680Y143639D01*
X303591Y143629D01*
X303503Y143616D01*
X303415Y143599D01*
X303328Y143577D01*
X303243Y143552D01*
X303158Y143524D01*
X303075Y143491D01*
X302993Y143455D01*
X302913Y143416D01*
X302835Y143373D01*
X302759Y143327D01*
X302684Y143277D01*
X302612Y143224D01*
X302543Y143168D01*
X302476Y143109D01*
X302411Y143048D01*
X302350Y142983D01*
X302291Y142916D01*
X302235Y142847D01*
X302182Y142775D01*
X302132Y142700D01*
X302086Y142624D01*
X302043Y142546D01*
X302004Y142466D01*
X301968Y142384D01*
X301935Y142301D01*
X301907Y142216D01*
X301882Y142131D01*
X301860Y142044D01*
X301843Y141956D01*
X301830Y141868D01*
X301820Y141779D01*
X301814Y141690D01*
X301812Y141601D01*
X301812Y139555D01*
X301811Y139555D02*
X301813Y139443D01*
X301819Y139332D01*
X301828Y139220D01*
X301841Y139109D01*
X301859Y138999D01*
X301879Y138889D01*
X301904Y138780D01*
X301932Y138672D01*
X301964Y138565D01*
X302000Y138459D01*
X302039Y138354D01*
X302082Y138251D01*
X302128Y138149D01*
X302178Y138049D01*
X302231Y137950D01*
X302288Y137854D01*
X302347Y137759D01*
X302410Y137667D01*
X302476Y137577D01*
X302545Y137489D01*
X302617Y137403D01*
X302692Y137320D01*
X302770Y137240D01*
X302850Y137162D01*
X302933Y137087D01*
X303019Y137015D01*
X303107Y136946D01*
X303197Y136880D01*
X303289Y136817D01*
X303384Y136758D01*
X303480Y136701D01*
X303579Y136648D01*
X303679Y136598D01*
X303781Y136552D01*
X303884Y136509D01*
X303989Y136470D01*
X304095Y136434D01*
X304202Y136402D01*
X304310Y136374D01*
X304419Y136349D01*
X304529Y136329D01*
X304639Y136311D01*
X304750Y136298D01*
X304862Y136289D01*
X304973Y136283D01*
X305085Y136281D01*
X313919Y93347D02*
X313919Y92529D01*
X313919Y93347D02*
X309827Y93347D01*
X311873Y85981D01*
X306604Y89664D02*
X306602Y89817D01*
X306596Y89970D01*
X306587Y90122D01*
X306573Y90275D01*
X306556Y90427D01*
X306535Y90578D01*
X306510Y90729D01*
X306481Y90879D01*
X306449Y91029D01*
X306412Y91177D01*
X306372Y91325D01*
X306329Y91472D01*
X306281Y91617D01*
X306230Y91761D01*
X306176Y91904D01*
X306117Y92046D01*
X306056Y92185D01*
X305990Y92324D01*
X305964Y92394D01*
X305934Y92463D01*
X305902Y92531D01*
X305865Y92597D01*
X305826Y92661D01*
X305783Y92723D01*
X305738Y92782D01*
X305689Y92840D01*
X305638Y92894D01*
X305584Y92947D01*
X305527Y92996D01*
X305468Y93043D01*
X305407Y93086D01*
X305344Y93127D01*
X305279Y93164D01*
X305212Y93199D01*
X305143Y93229D01*
X305073Y93257D01*
X305002Y93280D01*
X304930Y93301D01*
X304857Y93317D01*
X304783Y93330D01*
X304708Y93340D01*
X304633Y93345D01*
X304558Y93347D01*
X304483Y93345D01*
X304408Y93340D01*
X304333Y93330D01*
X304259Y93317D01*
X304186Y93301D01*
X304114Y93280D01*
X304043Y93257D01*
X303973Y93229D01*
X303904Y93199D01*
X303837Y93164D01*
X303772Y93127D01*
X303709Y93086D01*
X303648Y93043D01*
X303589Y92996D01*
X303532Y92947D01*
X303478Y92894D01*
X303427Y92840D01*
X303379Y92782D01*
X303333Y92723D01*
X303290Y92661D01*
X303251Y92597D01*
X303215Y92531D01*
X303182Y92464D01*
X303152Y92394D01*
X303126Y92324D01*
X303061Y92186D01*
X302999Y92046D01*
X302941Y91904D01*
X302886Y91761D01*
X302835Y91617D01*
X302787Y91472D01*
X302744Y91325D01*
X302704Y91178D01*
X302667Y91029D01*
X302635Y90879D01*
X302606Y90729D01*
X302581Y90578D01*
X302560Y90427D01*
X302543Y90275D01*
X302529Y90122D01*
X302520Y89970D01*
X302514Y89817D01*
X302512Y89664D01*
X306604Y89664D02*
X306602Y89511D01*
X306596Y89358D01*
X306587Y89205D01*
X306573Y89053D01*
X306556Y88901D01*
X306535Y88750D01*
X306510Y88599D01*
X306481Y88448D01*
X306449Y88299D01*
X306412Y88150D01*
X306372Y88003D01*
X306329Y87856D01*
X306281Y87711D01*
X306230Y87566D01*
X306175Y87424D01*
X306117Y87282D01*
X306055Y87142D01*
X305990Y87004D01*
X305964Y86934D01*
X305934Y86864D01*
X305902Y86797D01*
X305865Y86731D01*
X305826Y86667D01*
X305783Y86605D01*
X305737Y86546D01*
X305689Y86488D01*
X305638Y86434D01*
X305584Y86381D01*
X305527Y86332D01*
X305468Y86285D01*
X305407Y86242D01*
X305344Y86201D01*
X305279Y86164D01*
X305212Y86129D01*
X305143Y86099D01*
X305073Y86071D01*
X305002Y86048D01*
X304930Y86027D01*
X304857Y86011D01*
X304783Y85998D01*
X304708Y85988D01*
X304633Y85983D01*
X304558Y85981D01*
X303126Y87004D02*
X303061Y87142D01*
X302999Y87282D01*
X302941Y87424D01*
X302886Y87567D01*
X302835Y87711D01*
X302787Y87856D01*
X302744Y88003D01*
X302704Y88151D01*
X302667Y88299D01*
X302635Y88449D01*
X302606Y88599D01*
X302581Y88750D01*
X302560Y88901D01*
X302543Y89053D01*
X302529Y89206D01*
X302520Y89358D01*
X302514Y89511D01*
X302512Y89664D01*
X303126Y87004D02*
X303152Y86933D01*
X303182Y86864D01*
X303215Y86797D01*
X303251Y86731D01*
X303290Y86667D01*
X303333Y86605D01*
X303379Y86546D01*
X303427Y86488D01*
X303478Y86434D01*
X303532Y86381D01*
X303589Y86332D01*
X303648Y86285D01*
X303709Y86242D01*
X303772Y86201D01*
X303837Y86164D01*
X303904Y86129D01*
X303973Y86099D01*
X304043Y86071D01*
X304114Y86048D01*
X304186Y86027D01*
X304259Y86011D01*
X304333Y85998D01*
X304408Y85988D01*
X304483Y85983D01*
X304558Y85981D01*
X306195Y87618D02*
X302921Y91710D01*
D12*
X108265Y172789D02*
X96214Y172789D01*
X96099Y172787D01*
X95984Y172781D01*
X95869Y172772D01*
X95755Y172758D01*
X95641Y172741D01*
X95528Y172720D01*
X95416Y172695D01*
X95304Y172667D01*
X95194Y172634D01*
X95085Y172598D01*
X94977Y172559D01*
X94870Y172516D01*
X94765Y172469D01*
X94661Y172419D01*
X94559Y172365D01*
X94459Y172308D01*
X94361Y172248D01*
X94265Y172185D01*
X94172Y172118D01*
X94080Y172048D01*
X93991Y171975D01*
X93904Y171900D01*
X93820Y171821D01*
X93739Y171740D01*
X93660Y171656D01*
X93585Y171569D01*
X93512Y171480D01*
X93442Y171388D01*
X93375Y171295D01*
X93312Y171199D01*
X93252Y171101D01*
X93195Y171001D01*
X93141Y170899D01*
X93091Y170795D01*
X93044Y170690D01*
X93001Y170583D01*
X92962Y170475D01*
X92926Y170366D01*
X92893Y170256D01*
X92865Y170144D01*
X92840Y170032D01*
X92819Y169919D01*
X92802Y169805D01*
X92788Y169691D01*
X92779Y169576D01*
X92773Y169461D01*
X92771Y169346D01*
X92771Y167625D01*
X96214Y179361D02*
X99657Y179361D01*
X99773Y179363D01*
X99889Y179369D01*
X100005Y179379D01*
X100121Y179392D01*
X100236Y179410D01*
X100350Y179431D01*
X100464Y179457D01*
X100576Y179486D01*
X100688Y179519D01*
X100798Y179556D01*
X100907Y179596D01*
X101015Y179640D01*
X101121Y179688D01*
X101225Y179739D01*
X101328Y179794D01*
X101429Y179852D01*
X101527Y179913D01*
X101624Y179978D01*
X101718Y180046D01*
X101810Y180117D01*
X101900Y180192D01*
X101987Y180269D01*
X102071Y180349D01*
X102152Y180432D01*
X102231Y180518D01*
X102307Y180606D01*
X102380Y180697D01*
X102449Y180790D01*
X102516Y180885D01*
X102579Y180983D01*
X102639Y181082D01*
X102695Y181184D01*
X102748Y181288D01*
X102798Y181393D01*
X102843Y181500D01*
X102886Y181608D01*
X102924Y181718D01*
X102959Y181829D01*
X102990Y181941D01*
X103017Y182054D01*
X103041Y182168D01*
X103060Y182283D01*
X103076Y182398D01*
X103088Y182514D01*
X103096Y182630D01*
X103100Y182746D01*
X103100Y182862D01*
X103096Y182978D01*
X103088Y183094D01*
X103076Y183210D01*
X103060Y183325D01*
X103041Y183440D01*
X103017Y183554D01*
X102990Y183667D01*
X102959Y183779D01*
X102924Y183890D01*
X102886Y184000D01*
X102843Y184108D01*
X102798Y184215D01*
X102748Y184320D01*
X102695Y184424D01*
X102639Y184525D01*
X102579Y184625D01*
X102516Y184723D01*
X102449Y184818D01*
X102380Y184911D01*
X102307Y185002D01*
X102231Y185090D01*
X102152Y185176D01*
X102071Y185259D01*
X101987Y185339D01*
X101900Y185416D01*
X101810Y185491D01*
X101718Y185562D01*
X101624Y185630D01*
X101527Y185695D01*
X101429Y185756D01*
X101328Y185814D01*
X101225Y185869D01*
X101121Y185920D01*
X101015Y185968D01*
X100907Y186012D01*
X100798Y186052D01*
X100688Y186089D01*
X100576Y186122D01*
X100464Y186151D01*
X100350Y186177D01*
X100236Y186198D01*
X100121Y186216D01*
X100005Y186229D01*
X99889Y186239D01*
X99773Y186245D01*
X99657Y186247D01*
X96214Y186247D01*
X96098Y186245D01*
X95982Y186239D01*
X95866Y186229D01*
X95750Y186216D01*
X95635Y186198D01*
X95521Y186177D01*
X95407Y186151D01*
X95295Y186122D01*
X95183Y186089D01*
X95073Y186052D01*
X94964Y186012D01*
X94856Y185968D01*
X94750Y185920D01*
X94646Y185869D01*
X94543Y185814D01*
X94442Y185756D01*
X94344Y185695D01*
X94247Y185630D01*
X94153Y185562D01*
X94061Y185491D01*
X93971Y185416D01*
X93884Y185339D01*
X93800Y185259D01*
X93719Y185176D01*
X93640Y185090D01*
X93564Y185002D01*
X93491Y184911D01*
X93422Y184818D01*
X93355Y184723D01*
X93292Y184625D01*
X93232Y184526D01*
X93176Y184424D01*
X93123Y184320D01*
X93073Y184215D01*
X93028Y184108D01*
X92985Y184000D01*
X92947Y183890D01*
X92912Y183779D01*
X92881Y183667D01*
X92854Y183554D01*
X92830Y183440D01*
X92811Y183325D01*
X92795Y183210D01*
X92783Y183094D01*
X92775Y182978D01*
X92771Y182862D01*
X92771Y182746D01*
X92775Y182630D01*
X92783Y182514D01*
X92795Y182398D01*
X92811Y182283D01*
X92830Y182168D01*
X92854Y182054D01*
X92881Y181941D01*
X92912Y181829D01*
X92947Y181718D01*
X92985Y181608D01*
X93028Y181500D01*
X93073Y181393D01*
X93123Y181288D01*
X93176Y181184D01*
X93232Y181083D01*
X93292Y180983D01*
X93355Y180885D01*
X93422Y180790D01*
X93491Y180697D01*
X93564Y180606D01*
X93640Y180518D01*
X93719Y180432D01*
X93800Y180349D01*
X93884Y180269D01*
X93971Y180192D01*
X94061Y180117D01*
X94153Y180046D01*
X94247Y179978D01*
X94344Y179913D01*
X94442Y179852D01*
X94543Y179794D01*
X94646Y179739D01*
X94750Y179688D01*
X94856Y179640D01*
X94964Y179596D01*
X95073Y179556D01*
X95183Y179519D01*
X95295Y179486D01*
X95407Y179457D01*
X95521Y179431D01*
X95635Y179410D01*
X95750Y179392D01*
X95866Y179379D01*
X95982Y179369D01*
X96098Y179363D01*
X96214Y179361D01*
X92771Y192819D02*
X103100Y192819D01*
X103100Y197983D01*
X101379Y197983D01*
X92771Y205164D02*
X92771Y209468D01*
X92771Y205164D02*
X92773Y205065D01*
X92779Y204966D01*
X92788Y204868D01*
X92801Y204770D01*
X92818Y204672D01*
X92839Y204576D01*
X92863Y204480D01*
X92891Y204385D01*
X92923Y204291D01*
X92958Y204199D01*
X92997Y204108D01*
X93039Y204018D01*
X93085Y203931D01*
X93134Y203845D01*
X93186Y203761D01*
X93241Y203679D01*
X93300Y203599D01*
X93361Y203521D01*
X93425Y203446D01*
X93493Y203374D01*
X93563Y203304D01*
X93635Y203236D01*
X93710Y203172D01*
X93788Y203111D01*
X93868Y203052D01*
X93950Y202997D01*
X94034Y202945D01*
X94120Y202896D01*
X94207Y202850D01*
X94297Y202808D01*
X94388Y202769D01*
X94480Y202734D01*
X94574Y202702D01*
X94669Y202674D01*
X94765Y202650D01*
X94861Y202629D01*
X94959Y202612D01*
X95057Y202599D01*
X95155Y202590D01*
X95254Y202584D01*
X95353Y202582D01*
X100518Y202582D01*
X100617Y202584D01*
X100716Y202590D01*
X100814Y202599D01*
X100912Y202612D01*
X101010Y202629D01*
X101106Y202650D01*
X101202Y202674D01*
X101297Y202702D01*
X101391Y202734D01*
X101483Y202769D01*
X101574Y202808D01*
X101664Y202850D01*
X101751Y202896D01*
X101837Y202945D01*
X101921Y202997D01*
X102003Y203052D01*
X102083Y203111D01*
X102161Y203172D01*
X102236Y203236D01*
X102308Y203304D01*
X102378Y203374D01*
X102446Y203446D01*
X102510Y203521D01*
X102571Y203599D01*
X102630Y203679D01*
X102685Y203761D01*
X102737Y203845D01*
X102786Y203931D01*
X102832Y204018D01*
X102874Y204108D01*
X102913Y204199D01*
X102948Y204291D01*
X102980Y204385D01*
X103008Y204480D01*
X103032Y204576D01*
X103053Y204672D01*
X103070Y204770D01*
X103083Y204868D01*
X103092Y204966D01*
X103098Y205065D01*
X103100Y205164D01*
X103100Y209468D01*
X90189Y209468D01*
X90088Y209466D01*
X89986Y209460D01*
X89886Y209450D01*
X89785Y209436D01*
X89685Y209418D01*
X89586Y209397D01*
X89488Y209371D01*
X89391Y209342D01*
X89295Y209308D01*
X89201Y209271D01*
X89108Y209231D01*
X89017Y209187D01*
X88927Y209139D01*
X88840Y209088D01*
X88755Y209033D01*
X88671Y208975D01*
X88591Y208914D01*
X88512Y208849D01*
X88436Y208782D01*
X88363Y208712D01*
X88293Y208639D01*
X88226Y208563D01*
X88161Y208485D01*
X88100Y208404D01*
X88042Y208320D01*
X87987Y208235D01*
X87936Y208148D01*
X87888Y208058D01*
X87844Y207967D01*
X87804Y207874D01*
X87767Y207780D01*
X87733Y207684D01*
X87704Y207587D01*
X87678Y207489D01*
X87657Y207390D01*
X87639Y207290D01*
X87625Y207190D01*
X87615Y207089D01*
X87609Y206987D01*
X87607Y206886D01*
X87606Y206886D02*
X87606Y203443D01*
X92771Y218612D02*
X92771Y222916D01*
X92771Y218612D02*
X92773Y218513D01*
X92779Y218414D01*
X92788Y218316D01*
X92801Y218218D01*
X92818Y218120D01*
X92839Y218024D01*
X92863Y217928D01*
X92891Y217833D01*
X92923Y217739D01*
X92958Y217647D01*
X92997Y217556D01*
X93039Y217466D01*
X93085Y217379D01*
X93134Y217293D01*
X93186Y217209D01*
X93241Y217127D01*
X93300Y217047D01*
X93361Y216969D01*
X93425Y216894D01*
X93493Y216822D01*
X93563Y216752D01*
X93635Y216684D01*
X93710Y216620D01*
X93788Y216559D01*
X93868Y216500D01*
X93950Y216445D01*
X94034Y216393D01*
X94120Y216344D01*
X94207Y216298D01*
X94297Y216256D01*
X94388Y216217D01*
X94480Y216182D01*
X94574Y216150D01*
X94669Y216122D01*
X94765Y216098D01*
X94861Y216077D01*
X94959Y216060D01*
X95057Y216047D01*
X95155Y216038D01*
X95254Y216032D01*
X95353Y216030D01*
X99657Y216030D01*
X99773Y216032D01*
X99889Y216038D01*
X100005Y216048D01*
X100121Y216061D01*
X100236Y216079D01*
X100350Y216100D01*
X100464Y216126D01*
X100576Y216155D01*
X100688Y216188D01*
X100798Y216225D01*
X100907Y216265D01*
X101015Y216309D01*
X101121Y216357D01*
X101225Y216408D01*
X101328Y216463D01*
X101429Y216521D01*
X101527Y216582D01*
X101624Y216647D01*
X101718Y216715D01*
X101810Y216786D01*
X101900Y216861D01*
X101987Y216938D01*
X102071Y217018D01*
X102152Y217101D01*
X102231Y217187D01*
X102307Y217275D01*
X102380Y217366D01*
X102449Y217459D01*
X102516Y217554D01*
X102579Y217652D01*
X102639Y217751D01*
X102695Y217853D01*
X102748Y217957D01*
X102798Y218062D01*
X102843Y218169D01*
X102886Y218277D01*
X102924Y218387D01*
X102959Y218498D01*
X102990Y218610D01*
X103017Y218723D01*
X103041Y218837D01*
X103060Y218952D01*
X103076Y219067D01*
X103088Y219183D01*
X103096Y219299D01*
X103100Y219415D01*
X103100Y219531D01*
X103096Y219647D01*
X103088Y219763D01*
X103076Y219879D01*
X103060Y219994D01*
X103041Y220109D01*
X103017Y220223D01*
X102990Y220336D01*
X102959Y220448D01*
X102924Y220559D01*
X102886Y220669D01*
X102843Y220777D01*
X102798Y220884D01*
X102748Y220989D01*
X102695Y221093D01*
X102639Y221194D01*
X102579Y221294D01*
X102516Y221392D01*
X102449Y221487D01*
X102380Y221580D01*
X102307Y221671D01*
X102231Y221759D01*
X102152Y221845D01*
X102071Y221928D01*
X101987Y222008D01*
X101900Y222085D01*
X101810Y222160D01*
X101718Y222231D01*
X101624Y222299D01*
X101527Y222364D01*
X101429Y222425D01*
X101328Y222483D01*
X101225Y222538D01*
X101121Y222589D01*
X101015Y222637D01*
X100907Y222681D01*
X100798Y222721D01*
X100688Y222758D01*
X100576Y222791D01*
X100464Y222820D01*
X100350Y222846D01*
X100236Y222867D01*
X100121Y222885D01*
X100005Y222898D01*
X99889Y222908D01*
X99773Y222914D01*
X99657Y222916D01*
X97936Y222916D01*
X97936Y216030D01*
X101379Y243493D02*
X101379Y246075D01*
X92771Y246075D01*
X92771Y240911D01*
X92773Y240796D01*
X92779Y240681D01*
X92788Y240566D01*
X92802Y240452D01*
X92819Y240338D01*
X92840Y240225D01*
X92865Y240113D01*
X92893Y240001D01*
X92926Y239891D01*
X92962Y239782D01*
X93001Y239674D01*
X93044Y239567D01*
X93091Y239462D01*
X93141Y239358D01*
X93195Y239256D01*
X93252Y239156D01*
X93312Y239058D01*
X93375Y238962D01*
X93442Y238869D01*
X93512Y238777D01*
X93585Y238688D01*
X93660Y238601D01*
X93739Y238517D01*
X93820Y238436D01*
X93904Y238357D01*
X93991Y238282D01*
X94080Y238209D01*
X94172Y238139D01*
X94265Y238072D01*
X94361Y238009D01*
X94459Y237949D01*
X94559Y237892D01*
X94661Y237838D01*
X94765Y237788D01*
X94870Y237741D01*
X94977Y237698D01*
X95085Y237659D01*
X95194Y237623D01*
X95304Y237590D01*
X95416Y237562D01*
X95528Y237537D01*
X95641Y237516D01*
X95755Y237499D01*
X95869Y237485D01*
X95984Y237476D01*
X96099Y237470D01*
X96214Y237468D01*
X104822Y237468D01*
X104937Y237470D01*
X105052Y237476D01*
X105167Y237485D01*
X105281Y237499D01*
X105395Y237516D01*
X105508Y237537D01*
X105620Y237562D01*
X105732Y237590D01*
X105842Y237623D01*
X105951Y237659D01*
X106059Y237698D01*
X106166Y237741D01*
X106271Y237788D01*
X106375Y237838D01*
X106477Y237892D01*
X106577Y237949D01*
X106675Y238009D01*
X106771Y238072D01*
X106864Y238139D01*
X106956Y238209D01*
X107045Y238282D01*
X107132Y238357D01*
X107216Y238436D01*
X107297Y238517D01*
X107375Y238601D01*
X107451Y238688D01*
X107524Y238777D01*
X107594Y238869D01*
X107661Y238962D01*
X107724Y239058D01*
X107784Y239156D01*
X107841Y239256D01*
X107895Y239358D01*
X107945Y239462D01*
X107992Y239567D01*
X108035Y239674D01*
X108074Y239782D01*
X108110Y239891D01*
X108143Y240001D01*
X108171Y240113D01*
X108196Y240225D01*
X108217Y240338D01*
X108234Y240452D01*
X108248Y240566D01*
X108257Y240681D01*
X108263Y240796D01*
X108265Y240911D01*
X108265Y246075D01*
X98796Y255643D02*
X98796Y259516D01*
X98797Y255643D02*
X98795Y255534D01*
X98789Y255426D01*
X98779Y255317D01*
X98766Y255209D01*
X98748Y255102D01*
X98727Y254995D01*
X98701Y254889D01*
X98672Y254785D01*
X98639Y254681D01*
X98603Y254578D01*
X98562Y254477D01*
X98519Y254378D01*
X98471Y254280D01*
X98420Y254184D01*
X98366Y254090D01*
X98308Y253997D01*
X98247Y253907D01*
X98183Y253820D01*
X98115Y253734D01*
X98045Y253651D01*
X97971Y253571D01*
X97895Y253493D01*
X97816Y253419D01*
X97735Y253347D01*
X97650Y253278D01*
X97564Y253212D01*
X97475Y253149D01*
X97384Y253090D01*
X97290Y253034D01*
X97195Y252981D01*
X97098Y252932D01*
X97000Y252886D01*
X96899Y252844D01*
X96797Y252806D01*
X96694Y252771D01*
X96590Y252740D01*
X96485Y252713D01*
X96378Y252689D01*
X96271Y252670D01*
X96164Y252654D01*
X96056Y252642D01*
X95947Y252634D01*
X95838Y252630D01*
X95730Y252630D01*
X95621Y252634D01*
X95512Y252642D01*
X95404Y252654D01*
X95297Y252670D01*
X95190Y252689D01*
X95083Y252713D01*
X94978Y252740D01*
X94874Y252771D01*
X94771Y252806D01*
X94669Y252844D01*
X94568Y252886D01*
X94470Y252932D01*
X94373Y252981D01*
X94277Y253034D01*
X94184Y253090D01*
X94093Y253149D01*
X94004Y253212D01*
X93918Y253278D01*
X93833Y253347D01*
X93752Y253419D01*
X93673Y253493D01*
X93597Y253571D01*
X93523Y253651D01*
X93453Y253734D01*
X93385Y253820D01*
X93321Y253907D01*
X93260Y253997D01*
X93202Y254090D01*
X93148Y254184D01*
X93097Y254280D01*
X93049Y254378D01*
X93006Y254477D01*
X92965Y254578D01*
X92929Y254681D01*
X92896Y254785D01*
X92867Y254889D01*
X92841Y254995D01*
X92820Y255102D01*
X92802Y255209D01*
X92789Y255317D01*
X92779Y255426D01*
X92773Y255534D01*
X92771Y255643D01*
X92771Y259516D01*
X100518Y259516D01*
X100617Y259514D01*
X100716Y259508D01*
X100814Y259499D01*
X100912Y259486D01*
X101010Y259469D01*
X101106Y259448D01*
X101202Y259424D01*
X101297Y259396D01*
X101391Y259364D01*
X101483Y259329D01*
X101574Y259290D01*
X101664Y259248D01*
X101751Y259202D01*
X101837Y259153D01*
X101921Y259101D01*
X102003Y259046D01*
X102083Y258987D01*
X102161Y258926D01*
X102236Y258862D01*
X102308Y258794D01*
X102378Y258724D01*
X102446Y258652D01*
X102510Y258577D01*
X102571Y258499D01*
X102630Y258419D01*
X102685Y258337D01*
X102737Y258253D01*
X102786Y258167D01*
X102832Y258080D01*
X102874Y257990D01*
X102913Y257899D01*
X102948Y257807D01*
X102980Y257713D01*
X103008Y257618D01*
X103032Y257522D01*
X103053Y257426D01*
X103070Y257328D01*
X103083Y257230D01*
X103092Y257132D01*
X103098Y257033D01*
X103100Y256934D01*
X103100Y253491D01*
X103100Y266652D02*
X92771Y266652D01*
X103100Y266652D02*
X103100Y271817D01*
X101379Y271817D01*
X103100Y275988D02*
X103100Y282875D01*
X92771Y275988D01*
X92771Y282875D01*
X98796Y291321D02*
X98796Y295194D01*
X98797Y291321D02*
X98795Y291212D01*
X98789Y291104D01*
X98779Y290995D01*
X98766Y290887D01*
X98748Y290780D01*
X98727Y290673D01*
X98701Y290567D01*
X98672Y290463D01*
X98639Y290359D01*
X98603Y290256D01*
X98562Y290155D01*
X98519Y290056D01*
X98471Y289958D01*
X98420Y289862D01*
X98366Y289768D01*
X98308Y289675D01*
X98247Y289585D01*
X98183Y289498D01*
X98115Y289412D01*
X98045Y289329D01*
X97971Y289249D01*
X97895Y289171D01*
X97816Y289097D01*
X97735Y289025D01*
X97650Y288956D01*
X97564Y288890D01*
X97475Y288827D01*
X97384Y288768D01*
X97290Y288712D01*
X97195Y288659D01*
X97098Y288610D01*
X97000Y288564D01*
X96899Y288522D01*
X96797Y288484D01*
X96694Y288449D01*
X96590Y288418D01*
X96485Y288391D01*
X96378Y288367D01*
X96271Y288348D01*
X96164Y288332D01*
X96056Y288320D01*
X95947Y288312D01*
X95838Y288308D01*
X95730Y288308D01*
X95621Y288312D01*
X95512Y288320D01*
X95404Y288332D01*
X95297Y288348D01*
X95190Y288367D01*
X95083Y288391D01*
X94978Y288418D01*
X94874Y288449D01*
X94771Y288484D01*
X94669Y288522D01*
X94568Y288564D01*
X94470Y288610D01*
X94373Y288659D01*
X94277Y288712D01*
X94184Y288768D01*
X94093Y288827D01*
X94004Y288890D01*
X93918Y288956D01*
X93833Y289025D01*
X93752Y289097D01*
X93673Y289171D01*
X93597Y289249D01*
X93523Y289329D01*
X93453Y289412D01*
X93385Y289498D01*
X93321Y289585D01*
X93260Y289675D01*
X93202Y289768D01*
X93148Y289862D01*
X93097Y289958D01*
X93049Y290056D01*
X93006Y290155D01*
X92965Y290256D01*
X92929Y290359D01*
X92896Y290463D01*
X92867Y290567D01*
X92841Y290673D01*
X92820Y290780D01*
X92802Y290887D01*
X92789Y290995D01*
X92779Y291104D01*
X92773Y291212D01*
X92771Y291321D01*
X92771Y295194D01*
X100518Y295194D01*
X100617Y295192D01*
X100716Y295186D01*
X100814Y295177D01*
X100912Y295164D01*
X101010Y295147D01*
X101106Y295126D01*
X101202Y295102D01*
X101297Y295074D01*
X101391Y295042D01*
X101483Y295007D01*
X101574Y294968D01*
X101664Y294926D01*
X101751Y294880D01*
X101837Y294831D01*
X101921Y294779D01*
X102003Y294724D01*
X102083Y294665D01*
X102161Y294604D01*
X102236Y294540D01*
X102308Y294472D01*
X102378Y294402D01*
X102446Y294330D01*
X102510Y294255D01*
X102571Y294177D01*
X102630Y294097D01*
X102685Y294015D01*
X102737Y293931D01*
X102786Y293845D01*
X102832Y293758D01*
X102874Y293668D01*
X102913Y293577D01*
X102948Y293485D01*
X102980Y293391D01*
X103008Y293296D01*
X103032Y293200D01*
X103053Y293104D01*
X103070Y293006D01*
X103083Y292908D01*
X103092Y292810D01*
X103098Y292711D01*
X103100Y292612D01*
X103100Y289169D01*
X83119Y172789D02*
X67625Y167625D01*
X67625Y177954D02*
X83119Y172789D01*
X71499Y176663D02*
X71499Y168916D01*
X67625Y183932D02*
X83119Y183932D01*
X83119Y188236D01*
X83117Y188366D01*
X83111Y188496D01*
X83101Y188626D01*
X83088Y188755D01*
X83070Y188884D01*
X83049Y189012D01*
X83023Y189139D01*
X82994Y189266D01*
X82961Y189392D01*
X82924Y189516D01*
X82884Y189640D01*
X82839Y189762D01*
X82791Y189883D01*
X82740Y190002D01*
X82685Y190120D01*
X82626Y190236D01*
X82564Y190350D01*
X82498Y190463D01*
X82429Y190573D01*
X82357Y190681D01*
X82282Y190787D01*
X82203Y190890D01*
X82121Y190991D01*
X82037Y191090D01*
X81949Y191186D01*
X81858Y191279D01*
X81765Y191370D01*
X81669Y191458D01*
X81570Y191542D01*
X81469Y191624D01*
X81366Y191703D01*
X81260Y191778D01*
X81152Y191850D01*
X81042Y191919D01*
X80929Y191985D01*
X80815Y192047D01*
X80699Y192106D01*
X80581Y192161D01*
X80462Y192212D01*
X80341Y192260D01*
X80219Y192305D01*
X80095Y192345D01*
X79971Y192382D01*
X79845Y192415D01*
X79718Y192444D01*
X79591Y192470D01*
X79463Y192491D01*
X79334Y192509D01*
X79205Y192522D01*
X79075Y192532D01*
X78945Y192538D01*
X78815Y192540D01*
X78685Y192538D01*
X78555Y192532D01*
X78425Y192522D01*
X78296Y192509D01*
X78167Y192491D01*
X78039Y192470D01*
X77912Y192444D01*
X77785Y192415D01*
X77659Y192382D01*
X77535Y192345D01*
X77411Y192305D01*
X77289Y192260D01*
X77168Y192212D01*
X77049Y192161D01*
X76931Y192106D01*
X76815Y192047D01*
X76701Y191985D01*
X76588Y191919D01*
X76478Y191850D01*
X76370Y191778D01*
X76264Y191703D01*
X76161Y191624D01*
X76060Y191542D01*
X75961Y191458D01*
X75865Y191370D01*
X75772Y191279D01*
X75681Y191186D01*
X75593Y191090D01*
X75509Y190991D01*
X75427Y190890D01*
X75348Y190787D01*
X75273Y190681D01*
X75201Y190573D01*
X75132Y190463D01*
X75066Y190350D01*
X75004Y190236D01*
X74945Y190120D01*
X74890Y190002D01*
X74839Y189883D01*
X74791Y189762D01*
X74746Y189640D01*
X74706Y189516D01*
X74669Y189392D01*
X74636Y189266D01*
X74607Y189139D01*
X74581Y189012D01*
X74560Y188884D01*
X74542Y188755D01*
X74529Y188626D01*
X74519Y188496D01*
X74513Y188366D01*
X74511Y188236D01*
X74511Y183932D01*
X74511Y189097D02*
X67625Y192540D01*
X67625Y202026D02*
X83119Y202026D01*
X83119Y206329D02*
X83119Y197722D01*
X83119Y212927D02*
X67625Y212927D01*
X67625Y211206D02*
X67625Y214649D01*
X83119Y214649D02*
X83119Y211206D01*
X83119Y221208D02*
X67625Y221208D01*
X73650Y221208D02*
X83119Y229816D01*
X77094Y224651D02*
X67625Y229816D01*
X67625Y235382D02*
X67625Y240546D01*
X67627Y240661D01*
X67633Y240776D01*
X67642Y240891D01*
X67656Y241005D01*
X67673Y241119D01*
X67694Y241232D01*
X67719Y241344D01*
X67747Y241456D01*
X67780Y241566D01*
X67816Y241675D01*
X67855Y241783D01*
X67898Y241890D01*
X67945Y241995D01*
X67995Y242099D01*
X68049Y242201D01*
X68106Y242301D01*
X68166Y242399D01*
X68229Y242495D01*
X68296Y242588D01*
X68366Y242680D01*
X68439Y242769D01*
X68515Y242856D01*
X68593Y242940D01*
X68674Y243021D01*
X68759Y243100D01*
X68845Y243175D01*
X68934Y243248D01*
X69026Y243318D01*
X69119Y243385D01*
X69215Y243448D01*
X69313Y243508D01*
X69413Y243565D01*
X69515Y243619D01*
X69619Y243669D01*
X69724Y243716D01*
X69831Y243759D01*
X69939Y243799D01*
X70048Y243834D01*
X70158Y243867D01*
X70270Y243895D01*
X70382Y243920D01*
X70495Y243941D01*
X70609Y243958D01*
X70723Y243972D01*
X70838Y243981D01*
X70953Y243987D01*
X71068Y243989D01*
X72790Y243989D01*
X72905Y243987D01*
X73020Y243981D01*
X73135Y243972D01*
X73249Y243958D01*
X73363Y243941D01*
X73476Y243920D01*
X73588Y243895D01*
X73700Y243867D01*
X73810Y243834D01*
X73919Y243798D01*
X74027Y243759D01*
X74134Y243716D01*
X74239Y243669D01*
X74343Y243619D01*
X74445Y243565D01*
X74545Y243508D01*
X74643Y243448D01*
X74739Y243385D01*
X74832Y243318D01*
X74924Y243248D01*
X75013Y243175D01*
X75100Y243100D01*
X75184Y243021D01*
X75265Y242940D01*
X75344Y242856D01*
X75419Y242769D01*
X75492Y242680D01*
X75562Y242588D01*
X75629Y242495D01*
X75692Y242399D01*
X75752Y242301D01*
X75809Y242201D01*
X75863Y242099D01*
X75913Y241995D01*
X75960Y241890D01*
X76003Y241783D01*
X76042Y241675D01*
X76078Y241566D01*
X76111Y241456D01*
X76139Y241344D01*
X76164Y241232D01*
X76185Y241119D01*
X76202Y241005D01*
X76216Y240891D01*
X76225Y240776D01*
X76231Y240661D01*
X76233Y240546D01*
X76233Y235382D01*
X83119Y235382D01*
X83119Y243989D01*
X67625Y250247D02*
X67625Y254551D01*
X67627Y254681D01*
X67633Y254811D01*
X67643Y254941D01*
X67656Y255070D01*
X67674Y255199D01*
X67695Y255327D01*
X67721Y255454D01*
X67750Y255581D01*
X67783Y255707D01*
X67820Y255831D01*
X67860Y255955D01*
X67905Y256077D01*
X67953Y256198D01*
X68004Y256317D01*
X68059Y256435D01*
X68118Y256551D01*
X68180Y256665D01*
X68246Y256778D01*
X68315Y256888D01*
X68387Y256996D01*
X68462Y257102D01*
X68541Y257205D01*
X68623Y257306D01*
X68707Y257405D01*
X68795Y257501D01*
X68886Y257594D01*
X68979Y257685D01*
X69075Y257773D01*
X69174Y257857D01*
X69275Y257939D01*
X69378Y258018D01*
X69484Y258093D01*
X69592Y258165D01*
X69702Y258234D01*
X69815Y258300D01*
X69929Y258362D01*
X70045Y258421D01*
X70163Y258476D01*
X70282Y258527D01*
X70403Y258575D01*
X70525Y258620D01*
X70649Y258660D01*
X70773Y258697D01*
X70899Y258730D01*
X71026Y258759D01*
X71153Y258785D01*
X71281Y258806D01*
X71410Y258824D01*
X71539Y258837D01*
X71669Y258847D01*
X71799Y258853D01*
X71929Y258855D01*
X72059Y258853D01*
X72189Y258847D01*
X72319Y258837D01*
X72448Y258824D01*
X72577Y258806D01*
X72705Y258785D01*
X72832Y258759D01*
X72959Y258730D01*
X73085Y258697D01*
X73209Y258660D01*
X73333Y258620D01*
X73455Y258575D01*
X73576Y258527D01*
X73695Y258476D01*
X73813Y258421D01*
X73929Y258362D01*
X74043Y258300D01*
X74156Y258234D01*
X74266Y258165D01*
X74374Y258093D01*
X74480Y258018D01*
X74583Y257939D01*
X74684Y257857D01*
X74783Y257773D01*
X74879Y257685D01*
X74972Y257594D01*
X75063Y257501D01*
X75151Y257405D01*
X75235Y257306D01*
X75317Y257205D01*
X75396Y257102D01*
X75471Y256996D01*
X75543Y256888D01*
X75612Y256778D01*
X75678Y256665D01*
X75740Y256551D01*
X75799Y256435D01*
X75854Y256317D01*
X75905Y256198D01*
X75953Y256077D01*
X75998Y255955D01*
X76038Y255831D01*
X76075Y255707D01*
X76108Y255581D01*
X76137Y255454D01*
X76163Y255327D01*
X76184Y255199D01*
X76202Y255070D01*
X76215Y254941D01*
X76225Y254811D01*
X76231Y254681D01*
X76233Y254551D01*
X83119Y255412D02*
X83119Y250247D01*
X83119Y255412D02*
X83117Y255528D01*
X83111Y255644D01*
X83101Y255760D01*
X83088Y255876D01*
X83070Y255991D01*
X83049Y256105D01*
X83023Y256219D01*
X82994Y256331D01*
X82961Y256443D01*
X82924Y256553D01*
X82884Y256662D01*
X82840Y256770D01*
X82792Y256876D01*
X82741Y256980D01*
X82686Y257083D01*
X82628Y257184D01*
X82567Y257282D01*
X82502Y257379D01*
X82434Y257473D01*
X82363Y257565D01*
X82288Y257655D01*
X82211Y257742D01*
X82131Y257826D01*
X82048Y257907D01*
X81962Y257986D01*
X81874Y258062D01*
X81783Y258135D01*
X81690Y258204D01*
X81595Y258271D01*
X81497Y258334D01*
X81398Y258394D01*
X81296Y258450D01*
X81192Y258503D01*
X81087Y258553D01*
X80980Y258598D01*
X80872Y258641D01*
X80762Y258679D01*
X80651Y258714D01*
X80539Y258745D01*
X80426Y258772D01*
X80312Y258796D01*
X80197Y258815D01*
X80082Y258831D01*
X79966Y258843D01*
X79850Y258851D01*
X79734Y258855D01*
X79618Y258855D01*
X79502Y258851D01*
X79386Y258843D01*
X79270Y258831D01*
X79155Y258815D01*
X79040Y258796D01*
X78926Y258772D01*
X78813Y258745D01*
X78701Y258714D01*
X78590Y258679D01*
X78480Y258641D01*
X78372Y258598D01*
X78265Y258553D01*
X78160Y258503D01*
X78056Y258450D01*
X77955Y258394D01*
X77855Y258334D01*
X77757Y258271D01*
X77662Y258204D01*
X77569Y258135D01*
X77478Y258062D01*
X77390Y257986D01*
X77304Y257907D01*
X77221Y257826D01*
X77141Y257742D01*
X77064Y257655D01*
X76989Y257565D01*
X76918Y257473D01*
X76850Y257379D01*
X76785Y257282D01*
X76724Y257184D01*
X76666Y257083D01*
X76611Y256980D01*
X76560Y256876D01*
X76512Y256770D01*
X76468Y256662D01*
X76428Y256553D01*
X76391Y256443D01*
X76358Y256331D01*
X76329Y256219D01*
X76303Y256105D01*
X76282Y255991D01*
X76264Y255876D01*
X76251Y255760D01*
X76241Y255644D01*
X76235Y255528D01*
X76233Y255412D01*
X76233Y251969D01*
X75372Y265113D02*
X75677Y265117D01*
X75981Y265128D01*
X76286Y265146D01*
X76589Y265171D01*
X76892Y265204D01*
X77195Y265244D01*
X77496Y265291D01*
X77796Y265345D01*
X78094Y265407D01*
X78391Y265475D01*
X78687Y265551D01*
X78980Y265633D01*
X79271Y265723D01*
X79560Y265820D01*
X79847Y265923D01*
X80131Y266033D01*
X80413Y266150D01*
X80691Y266274D01*
X80967Y266404D01*
X81070Y266442D01*
X81172Y266482D01*
X81272Y266527D01*
X81371Y266575D01*
X81468Y266626D01*
X81563Y266680D01*
X81657Y266738D01*
X81748Y266799D01*
X81837Y266863D01*
X81924Y266930D01*
X82008Y267000D01*
X82091Y267073D01*
X82170Y267149D01*
X82247Y267227D01*
X82321Y267308D01*
X82392Y267392D01*
X82460Y267478D01*
X82526Y267566D01*
X82588Y267656D01*
X82647Y267749D01*
X82703Y267843D01*
X82756Y267939D01*
X82805Y268037D01*
X82851Y268137D01*
X82893Y268238D01*
X82932Y268341D01*
X82967Y268445D01*
X82999Y268550D01*
X83027Y268656D01*
X83051Y268763D01*
X83072Y268871D01*
X83089Y268979D01*
X83102Y269088D01*
X83111Y269198D01*
X83117Y269307D01*
X83119Y269417D01*
X83117Y269527D01*
X83111Y269636D01*
X83102Y269746D01*
X83089Y269855D01*
X83072Y269963D01*
X83051Y270071D01*
X83027Y270178D01*
X82999Y270284D01*
X82967Y270389D01*
X82932Y270493D01*
X82893Y270596D01*
X82851Y270697D01*
X82805Y270797D01*
X82756Y270895D01*
X82703Y270991D01*
X82647Y271085D01*
X82588Y271178D01*
X82526Y271268D01*
X82460Y271356D01*
X82392Y271442D01*
X82321Y271526D01*
X82247Y271607D01*
X82170Y271685D01*
X82090Y271761D01*
X82008Y271834D01*
X81924Y271904D01*
X81837Y271971D01*
X81748Y272035D01*
X81657Y272096D01*
X81563Y272154D01*
X81468Y272208D01*
X81371Y272259D01*
X81272Y272307D01*
X81172Y272352D01*
X81070Y272392D01*
X80967Y272430D01*
X80691Y272560D01*
X80413Y272684D01*
X80131Y272801D01*
X79847Y272911D01*
X79560Y273014D01*
X79271Y273111D01*
X78980Y273201D01*
X78687Y273283D01*
X78391Y273359D01*
X78094Y273427D01*
X77796Y273489D01*
X77496Y273543D01*
X77195Y273590D01*
X76892Y273630D01*
X76589Y273663D01*
X76286Y273688D01*
X75981Y273706D01*
X75677Y273717D01*
X75372Y273721D01*
X75372Y265113D02*
X75067Y265117D01*
X74763Y265128D01*
X74458Y265146D01*
X74155Y265171D01*
X73852Y265204D01*
X73549Y265244D01*
X73248Y265291D01*
X72948Y265345D01*
X72650Y265407D01*
X72353Y265475D01*
X72057Y265551D01*
X71764Y265633D01*
X71473Y265723D01*
X71184Y265820D01*
X70897Y265923D01*
X70613Y266033D01*
X70331Y266150D01*
X70053Y266274D01*
X69777Y266404D01*
X69674Y266442D01*
X69572Y266482D01*
X69472Y266527D01*
X69373Y266575D01*
X69276Y266626D01*
X69181Y266680D01*
X69087Y266738D01*
X68996Y266799D01*
X68907Y266863D01*
X68820Y266930D01*
X68735Y267000D01*
X68653Y267073D01*
X68574Y267149D01*
X68497Y267227D01*
X68423Y267308D01*
X68352Y267392D01*
X68284Y267478D01*
X68218Y267566D01*
X68156Y267656D01*
X68097Y267749D01*
X68041Y267843D01*
X67988Y267939D01*
X67939Y268038D01*
X67893Y268137D01*
X67851Y268238D01*
X67812Y268341D01*
X67777Y268445D01*
X67745Y268550D01*
X67717Y268656D01*
X67693Y268763D01*
X67672Y268871D01*
X67655Y268979D01*
X67642Y269088D01*
X67633Y269198D01*
X67627Y269307D01*
X67625Y269417D01*
X69777Y272430D02*
X70053Y272560D01*
X70331Y272684D01*
X70613Y272801D01*
X70897Y272911D01*
X71184Y273014D01*
X71473Y273111D01*
X71764Y273201D01*
X72057Y273283D01*
X72353Y273359D01*
X72650Y273427D01*
X72948Y273489D01*
X73248Y273543D01*
X73549Y273590D01*
X73852Y273630D01*
X74155Y273663D01*
X74458Y273688D01*
X74763Y273706D01*
X75067Y273717D01*
X75372Y273721D01*
X69777Y272430D02*
X69674Y272392D01*
X69572Y272352D01*
X69472Y272307D01*
X69373Y272259D01*
X69276Y272208D01*
X69181Y272154D01*
X69087Y272096D01*
X68996Y272035D01*
X68907Y271971D01*
X68820Y271904D01*
X68736Y271834D01*
X68653Y271761D01*
X68574Y271685D01*
X68497Y271607D01*
X68423Y271526D01*
X68352Y271442D01*
X68284Y271356D01*
X68218Y271268D01*
X68156Y271178D01*
X68097Y271085D01*
X68041Y270991D01*
X67988Y270895D01*
X67939Y270797D01*
X67893Y270697D01*
X67851Y270596D01*
X67812Y270493D01*
X67777Y270389D01*
X67745Y270284D01*
X67717Y270178D01*
X67693Y270071D01*
X67672Y269963D01*
X67655Y269855D01*
X67642Y269746D01*
X67633Y269636D01*
X67627Y269527D01*
X67625Y269417D01*
X71068Y265974D02*
X79676Y272860D01*
X67625Y292576D02*
X67627Y292691D01*
X67633Y292806D01*
X67642Y292921D01*
X67656Y293035D01*
X67673Y293149D01*
X67694Y293262D01*
X67719Y293374D01*
X67747Y293486D01*
X67780Y293596D01*
X67816Y293705D01*
X67855Y293813D01*
X67898Y293920D01*
X67945Y294025D01*
X67995Y294129D01*
X68049Y294231D01*
X68106Y294331D01*
X68166Y294429D01*
X68229Y294525D01*
X68296Y294618D01*
X68366Y294710D01*
X68439Y294799D01*
X68515Y294886D01*
X68593Y294970D01*
X68674Y295051D01*
X68758Y295130D01*
X68845Y295205D01*
X68934Y295278D01*
X69026Y295348D01*
X69119Y295415D01*
X69215Y295478D01*
X69313Y295538D01*
X69413Y295595D01*
X69515Y295649D01*
X69619Y295699D01*
X69724Y295746D01*
X69831Y295789D01*
X69939Y295828D01*
X70048Y295864D01*
X70158Y295897D01*
X70270Y295925D01*
X70382Y295950D01*
X70495Y295971D01*
X70609Y295988D01*
X70723Y296002D01*
X70838Y296011D01*
X70953Y296017D01*
X71068Y296019D01*
X67625Y292576D02*
X67627Y292402D01*
X67633Y292228D01*
X67644Y292054D01*
X67658Y291881D01*
X67677Y291708D01*
X67700Y291536D01*
X67727Y291364D01*
X67758Y291192D01*
X67793Y291022D01*
X67832Y290852D01*
X67875Y290684D01*
X67923Y290516D01*
X67974Y290350D01*
X68029Y290185D01*
X68088Y290021D01*
X68151Y289859D01*
X68218Y289699D01*
X68289Y289540D01*
X68364Y289382D01*
X68442Y289227D01*
X68524Y289073D01*
X68610Y288922D01*
X68699Y288773D01*
X68792Y288625D01*
X68888Y288480D01*
X68988Y288338D01*
X69091Y288198D01*
X69197Y288060D01*
X69307Y287925D01*
X69420Y287792D01*
X69536Y287663D01*
X69655Y287536D01*
X69777Y287412D01*
X79676Y287842D02*
X79791Y287844D01*
X79906Y287850D01*
X80021Y287859D01*
X80135Y287873D01*
X80249Y287890D01*
X80362Y287911D01*
X80474Y287936D01*
X80586Y287964D01*
X80696Y287997D01*
X80805Y288033D01*
X80913Y288072D01*
X81020Y288115D01*
X81125Y288162D01*
X81229Y288212D01*
X81331Y288266D01*
X81431Y288323D01*
X81529Y288383D01*
X81625Y288446D01*
X81718Y288513D01*
X81810Y288583D01*
X81899Y288656D01*
X81986Y288731D01*
X82070Y288810D01*
X82151Y288891D01*
X82230Y288975D01*
X82305Y289062D01*
X82378Y289151D01*
X82448Y289243D01*
X82515Y289336D01*
X82578Y289432D01*
X82638Y289530D01*
X82695Y289630D01*
X82749Y289732D01*
X82799Y289836D01*
X82846Y289941D01*
X82889Y290048D01*
X82928Y290156D01*
X82964Y290265D01*
X82997Y290375D01*
X83025Y290487D01*
X83050Y290599D01*
X83071Y290712D01*
X83088Y290826D01*
X83102Y290940D01*
X83111Y291055D01*
X83117Y291170D01*
X83119Y291285D01*
X83117Y291445D01*
X83111Y291604D01*
X83101Y291764D01*
X83087Y291923D01*
X83070Y292082D01*
X83048Y292240D01*
X83022Y292398D01*
X82993Y292555D01*
X82959Y292711D01*
X82922Y292867D01*
X82881Y293021D01*
X82836Y293174D01*
X82788Y293327D01*
X82735Y293478D01*
X82679Y293627D01*
X82619Y293775D01*
X82556Y293922D01*
X82489Y294067D01*
X82418Y294210D01*
X82344Y294352D01*
X82266Y294492D01*
X82185Y294629D01*
X82101Y294765D01*
X82013Y294898D01*
X81922Y295030D01*
X81828Y295159D01*
X76663Y289564D02*
X76724Y289464D01*
X76789Y289366D01*
X76856Y289270D01*
X76927Y289177D01*
X77001Y289086D01*
X77078Y288998D01*
X77158Y288912D01*
X77241Y288829D01*
X77326Y288749D01*
X77414Y288672D01*
X77505Y288598D01*
X77598Y288527D01*
X77693Y288458D01*
X77791Y288394D01*
X77890Y288332D01*
X77992Y288274D01*
X78096Y288219D01*
X78201Y288168D01*
X78308Y288121D01*
X78417Y288077D01*
X78527Y288036D01*
X78638Y288000D01*
X78750Y287967D01*
X78864Y287938D01*
X78978Y287912D01*
X79093Y287891D01*
X79209Y287873D01*
X79325Y287860D01*
X79442Y287850D01*
X79559Y287844D01*
X79676Y287842D01*
X74081Y294298D02*
X74020Y294398D01*
X73955Y294496D01*
X73888Y294592D01*
X73817Y294685D01*
X73743Y294776D01*
X73666Y294864D01*
X73586Y294950D01*
X73503Y295033D01*
X73418Y295113D01*
X73330Y295190D01*
X73239Y295264D01*
X73146Y295335D01*
X73051Y295404D01*
X72953Y295468D01*
X72854Y295530D01*
X72752Y295588D01*
X72648Y295643D01*
X72543Y295694D01*
X72436Y295741D01*
X72327Y295785D01*
X72217Y295826D01*
X72106Y295862D01*
X71994Y295895D01*
X71880Y295924D01*
X71766Y295950D01*
X71651Y295971D01*
X71535Y295989D01*
X71419Y296002D01*
X71302Y296012D01*
X71185Y296018D01*
X71068Y296020D01*
X74081Y294298D02*
X76663Y289564D01*
X78815Y301782D02*
X71929Y301782D01*
X78815Y301782D02*
X78945Y301784D01*
X79075Y301790D01*
X79205Y301800D01*
X79334Y301813D01*
X79463Y301831D01*
X79591Y301852D01*
X79718Y301878D01*
X79845Y301907D01*
X79971Y301940D01*
X80095Y301977D01*
X80219Y302017D01*
X80341Y302062D01*
X80462Y302110D01*
X80581Y302161D01*
X80699Y302216D01*
X80815Y302275D01*
X80929Y302337D01*
X81042Y302403D01*
X81152Y302472D01*
X81260Y302544D01*
X81366Y302619D01*
X81469Y302698D01*
X81570Y302780D01*
X81669Y302864D01*
X81765Y302952D01*
X81858Y303043D01*
X81949Y303136D01*
X82037Y303232D01*
X82121Y303331D01*
X82203Y303432D01*
X82282Y303535D01*
X82357Y303641D01*
X82429Y303749D01*
X82498Y303859D01*
X82564Y303972D01*
X82626Y304086D01*
X82685Y304202D01*
X82740Y304320D01*
X82791Y304439D01*
X82839Y304560D01*
X82884Y304682D01*
X82924Y304806D01*
X82961Y304930D01*
X82994Y305056D01*
X83023Y305183D01*
X83049Y305310D01*
X83070Y305438D01*
X83088Y305567D01*
X83101Y305696D01*
X83111Y305826D01*
X83117Y305956D01*
X83119Y306086D01*
X83117Y306216D01*
X83111Y306346D01*
X83101Y306476D01*
X83088Y306605D01*
X83070Y306734D01*
X83049Y306862D01*
X83023Y306989D01*
X82994Y307116D01*
X82961Y307242D01*
X82924Y307366D01*
X82884Y307490D01*
X82839Y307612D01*
X82791Y307733D01*
X82740Y307852D01*
X82685Y307970D01*
X82626Y308086D01*
X82564Y308200D01*
X82498Y308313D01*
X82429Y308423D01*
X82357Y308531D01*
X82282Y308637D01*
X82203Y308740D01*
X82121Y308841D01*
X82037Y308940D01*
X81949Y309036D01*
X81858Y309129D01*
X81765Y309220D01*
X81669Y309308D01*
X81570Y309392D01*
X81469Y309474D01*
X81366Y309553D01*
X81260Y309628D01*
X81152Y309700D01*
X81042Y309769D01*
X80929Y309835D01*
X80815Y309897D01*
X80699Y309956D01*
X80581Y310011D01*
X80462Y310062D01*
X80341Y310110D01*
X80219Y310155D01*
X80095Y310195D01*
X79971Y310232D01*
X79845Y310265D01*
X79718Y310294D01*
X79591Y310320D01*
X79463Y310341D01*
X79334Y310359D01*
X79205Y310372D01*
X79075Y310382D01*
X78945Y310388D01*
X78815Y310390D01*
X71929Y310390D01*
X71799Y310388D01*
X71669Y310382D01*
X71539Y310372D01*
X71410Y310359D01*
X71281Y310341D01*
X71153Y310320D01*
X71026Y310294D01*
X70899Y310265D01*
X70773Y310232D01*
X70649Y310195D01*
X70525Y310155D01*
X70403Y310110D01*
X70282Y310062D01*
X70163Y310011D01*
X70045Y309956D01*
X69929Y309897D01*
X69815Y309835D01*
X69702Y309769D01*
X69592Y309700D01*
X69484Y309628D01*
X69378Y309553D01*
X69275Y309474D01*
X69174Y309392D01*
X69075Y309308D01*
X68979Y309220D01*
X68886Y309129D01*
X68795Y309036D01*
X68707Y308940D01*
X68623Y308841D01*
X68541Y308740D01*
X68462Y308637D01*
X68387Y308531D01*
X68315Y308423D01*
X68246Y308313D01*
X68180Y308200D01*
X68118Y308086D01*
X68059Y307970D01*
X68004Y307852D01*
X67953Y307733D01*
X67905Y307612D01*
X67860Y307490D01*
X67820Y307366D01*
X67783Y307242D01*
X67750Y307116D01*
X67721Y306989D01*
X67695Y306862D01*
X67674Y306734D01*
X67656Y306605D01*
X67643Y306476D01*
X67633Y306346D01*
X67627Y306216D01*
X67625Y306086D01*
X67627Y305956D01*
X67633Y305826D01*
X67643Y305696D01*
X67656Y305567D01*
X67674Y305438D01*
X67695Y305310D01*
X67721Y305183D01*
X67750Y305056D01*
X67783Y304930D01*
X67820Y304806D01*
X67860Y304682D01*
X67905Y304560D01*
X67953Y304439D01*
X68004Y304320D01*
X68059Y304202D01*
X68118Y304086D01*
X68180Y303972D01*
X68246Y303859D01*
X68315Y303749D01*
X68387Y303641D01*
X68462Y303535D01*
X68541Y303432D01*
X68623Y303331D01*
X68707Y303232D01*
X68795Y303136D01*
X68886Y303043D01*
X68979Y302952D01*
X69075Y302864D01*
X69174Y302780D01*
X69275Y302698D01*
X69378Y302619D01*
X69484Y302544D01*
X69592Y302472D01*
X69702Y302403D01*
X69815Y302337D01*
X69929Y302275D01*
X70045Y302216D01*
X70163Y302161D01*
X70282Y302110D01*
X70403Y302062D01*
X70525Y302017D01*
X70649Y301977D01*
X70773Y301940D01*
X70899Y301907D01*
X71026Y301878D01*
X71153Y301852D01*
X71281Y301831D01*
X71410Y301813D01*
X71539Y301800D01*
X71669Y301790D01*
X71799Y301784D01*
X71929Y301782D01*
X67625Y317274D02*
X83119Y317274D01*
X74511Y322438D01*
X83119Y327603D01*
X67625Y327603D01*
X57973Y167625D02*
X42479Y167625D01*
X57973Y167625D02*
X57973Y171929D01*
X57971Y172059D01*
X57965Y172189D01*
X57955Y172319D01*
X57942Y172448D01*
X57924Y172577D01*
X57903Y172705D01*
X57877Y172832D01*
X57848Y172959D01*
X57815Y173085D01*
X57778Y173209D01*
X57738Y173333D01*
X57693Y173455D01*
X57645Y173576D01*
X57594Y173695D01*
X57539Y173813D01*
X57480Y173929D01*
X57418Y174043D01*
X57352Y174156D01*
X57283Y174266D01*
X57211Y174374D01*
X57136Y174480D01*
X57057Y174583D01*
X56975Y174684D01*
X56891Y174783D01*
X56803Y174879D01*
X56712Y174972D01*
X56619Y175063D01*
X56523Y175151D01*
X56424Y175235D01*
X56323Y175317D01*
X56220Y175396D01*
X56114Y175471D01*
X56006Y175543D01*
X55896Y175612D01*
X55783Y175678D01*
X55669Y175740D01*
X55553Y175799D01*
X55435Y175854D01*
X55316Y175905D01*
X55195Y175953D01*
X55073Y175998D01*
X54949Y176038D01*
X54825Y176075D01*
X54699Y176108D01*
X54572Y176137D01*
X54445Y176163D01*
X54317Y176184D01*
X54188Y176202D01*
X54059Y176215D01*
X53929Y176225D01*
X53799Y176231D01*
X53669Y176233D01*
X53539Y176231D01*
X53409Y176225D01*
X53279Y176215D01*
X53150Y176202D01*
X53021Y176184D01*
X52893Y176163D01*
X52766Y176137D01*
X52639Y176108D01*
X52513Y176075D01*
X52389Y176038D01*
X52265Y175998D01*
X52143Y175953D01*
X52022Y175905D01*
X51903Y175854D01*
X51785Y175799D01*
X51669Y175740D01*
X51555Y175678D01*
X51442Y175612D01*
X51332Y175543D01*
X51224Y175471D01*
X51118Y175396D01*
X51015Y175317D01*
X50914Y175235D01*
X50815Y175151D01*
X50719Y175063D01*
X50626Y174972D01*
X50535Y174879D01*
X50447Y174783D01*
X50363Y174684D01*
X50281Y174583D01*
X50202Y174480D01*
X50127Y174374D01*
X50055Y174266D01*
X49986Y174156D01*
X49920Y174043D01*
X49858Y173929D01*
X49799Y173813D01*
X49744Y173695D01*
X49693Y173576D01*
X49645Y173455D01*
X49600Y173333D01*
X49560Y173209D01*
X49523Y173085D01*
X49490Y172959D01*
X49461Y172832D01*
X49435Y172705D01*
X49414Y172577D01*
X49396Y172448D01*
X49383Y172319D01*
X49373Y172189D01*
X49367Y172059D01*
X49365Y171929D01*
X49365Y167625D01*
X49365Y172789D02*
X42479Y176233D01*
X42479Y182928D02*
X42479Y189814D01*
X42479Y182928D02*
X57973Y182928D01*
X57973Y189814D01*
X51087Y188092D02*
X51087Y182928D01*
X57973Y194428D02*
X42479Y199593D01*
X57973Y204757D01*
X42479Y210155D02*
X42479Y214458D01*
X42481Y214588D01*
X42487Y214718D01*
X42497Y214848D01*
X42510Y214977D01*
X42528Y215106D01*
X42549Y215234D01*
X42575Y215361D01*
X42604Y215488D01*
X42637Y215614D01*
X42674Y215738D01*
X42714Y215862D01*
X42759Y215984D01*
X42807Y216105D01*
X42858Y216224D01*
X42913Y216342D01*
X42972Y216458D01*
X43034Y216572D01*
X43100Y216685D01*
X43169Y216795D01*
X43241Y216903D01*
X43316Y217009D01*
X43395Y217112D01*
X43477Y217213D01*
X43561Y217312D01*
X43649Y217408D01*
X43740Y217501D01*
X43833Y217592D01*
X43929Y217680D01*
X44028Y217764D01*
X44129Y217846D01*
X44232Y217925D01*
X44338Y218000D01*
X44446Y218072D01*
X44556Y218141D01*
X44669Y218207D01*
X44783Y218269D01*
X44899Y218328D01*
X45017Y218383D01*
X45136Y218434D01*
X45257Y218482D01*
X45379Y218527D01*
X45503Y218567D01*
X45627Y218604D01*
X45753Y218637D01*
X45880Y218666D01*
X46007Y218692D01*
X46135Y218713D01*
X46264Y218731D01*
X46393Y218744D01*
X46523Y218754D01*
X46653Y218760D01*
X46783Y218762D01*
X46913Y218760D01*
X47043Y218754D01*
X47173Y218744D01*
X47302Y218731D01*
X47431Y218713D01*
X47559Y218692D01*
X47686Y218666D01*
X47813Y218637D01*
X47939Y218604D01*
X48063Y218567D01*
X48187Y218527D01*
X48309Y218482D01*
X48430Y218434D01*
X48549Y218383D01*
X48667Y218328D01*
X48783Y218269D01*
X48897Y218207D01*
X49010Y218141D01*
X49120Y218072D01*
X49228Y218000D01*
X49334Y217925D01*
X49437Y217846D01*
X49538Y217764D01*
X49637Y217680D01*
X49733Y217592D01*
X49826Y217501D01*
X49917Y217408D01*
X50005Y217312D01*
X50089Y217213D01*
X50171Y217112D01*
X50250Y217009D01*
X50325Y216903D01*
X50397Y216795D01*
X50466Y216685D01*
X50532Y216572D01*
X50594Y216458D01*
X50653Y216342D01*
X50708Y216224D01*
X50759Y216105D01*
X50807Y215984D01*
X50852Y215862D01*
X50892Y215738D01*
X50929Y215614D01*
X50962Y215488D01*
X50991Y215361D01*
X51017Y215234D01*
X51038Y215106D01*
X51056Y214977D01*
X51069Y214848D01*
X51079Y214718D01*
X51085Y214588D01*
X51087Y214458D01*
X57973Y215319D02*
X57973Y210155D01*
X57973Y215319D02*
X57971Y215435D01*
X57965Y215551D01*
X57955Y215667D01*
X57942Y215783D01*
X57924Y215898D01*
X57903Y216012D01*
X57877Y216126D01*
X57848Y216238D01*
X57815Y216350D01*
X57778Y216460D01*
X57738Y216569D01*
X57694Y216677D01*
X57646Y216783D01*
X57595Y216887D01*
X57540Y216990D01*
X57482Y217091D01*
X57421Y217189D01*
X57356Y217286D01*
X57288Y217380D01*
X57217Y217472D01*
X57142Y217562D01*
X57065Y217649D01*
X56985Y217733D01*
X56902Y217814D01*
X56816Y217893D01*
X56728Y217969D01*
X56637Y218042D01*
X56544Y218111D01*
X56449Y218178D01*
X56351Y218241D01*
X56252Y218301D01*
X56150Y218357D01*
X56046Y218410D01*
X55941Y218460D01*
X55834Y218505D01*
X55726Y218548D01*
X55616Y218586D01*
X55505Y218621D01*
X55393Y218652D01*
X55280Y218679D01*
X55166Y218703D01*
X55051Y218722D01*
X54936Y218738D01*
X54820Y218750D01*
X54704Y218758D01*
X54588Y218762D01*
X54472Y218762D01*
X54356Y218758D01*
X54240Y218750D01*
X54124Y218738D01*
X54009Y218722D01*
X53894Y218703D01*
X53780Y218679D01*
X53667Y218652D01*
X53555Y218621D01*
X53444Y218586D01*
X53334Y218548D01*
X53226Y218505D01*
X53119Y218460D01*
X53014Y218410D01*
X52910Y218357D01*
X52809Y218301D01*
X52709Y218241D01*
X52611Y218178D01*
X52516Y218111D01*
X52423Y218042D01*
X52332Y217969D01*
X52244Y217893D01*
X52158Y217814D01*
X52075Y217733D01*
X51995Y217649D01*
X51918Y217562D01*
X51843Y217472D01*
X51772Y217380D01*
X51704Y217286D01*
X51639Y217189D01*
X51578Y217091D01*
X51520Y216990D01*
X51465Y216887D01*
X51414Y216783D01*
X51366Y216677D01*
X51322Y216569D01*
X51282Y216460D01*
X51245Y216350D01*
X51212Y216238D01*
X51183Y216126D01*
X51157Y216012D01*
X51136Y215898D01*
X51118Y215783D01*
X51105Y215667D01*
X51095Y215551D01*
X51089Y215435D01*
X51087Y215319D01*
X51087Y211876D01*
D13*
X310242Y190027D02*
X311173Y192821D01*
X309310Y192821D02*
X310242Y190027D01*
X308047Y190027D02*
X308047Y192821D01*
X308358Y190027D02*
X307737Y190027D01*
X307737Y192821D02*
X308358Y192821D01*
X306537Y192821D02*
X306537Y190027D01*
X304985Y190027D02*
X306537Y192821D01*
X304985Y192821D02*
X304985Y190027D01*
D14*
X163700Y232050D02*
X163700Y250550D01*
X318900Y250550D02*
X318900Y232050D01*
D15*
X145030Y238264D02*
X145030Y247352D01*
X145031Y238264D02*
X145033Y238165D01*
X145039Y238065D01*
X145048Y237966D01*
X145061Y237868D01*
X145078Y237770D01*
X145099Y237672D01*
X145124Y237576D01*
X145152Y237481D01*
X145184Y237387D01*
X145219Y237294D01*
X145258Y237202D01*
X145301Y237112D01*
X145346Y237024D01*
X145396Y236937D01*
X145448Y236853D01*
X145504Y236770D01*
X145562Y236690D01*
X145624Y236612D01*
X145689Y236537D01*
X145757Y236464D01*
X145827Y236394D01*
X145900Y236326D01*
X145975Y236261D01*
X146053Y236199D01*
X146133Y236141D01*
X146216Y236085D01*
X146300Y236033D01*
X146387Y235983D01*
X146475Y235938D01*
X146565Y235895D01*
X146657Y235856D01*
X146750Y235821D01*
X146844Y235789D01*
X146939Y235761D01*
X147035Y235736D01*
X147133Y235715D01*
X147231Y235698D01*
X147329Y235685D01*
X147428Y235676D01*
X147528Y235670D01*
X147627Y235668D01*
X148925Y235668D01*
X139757Y244756D02*
X136511Y247352D01*
X136511Y235668D01*
X133266Y235668D02*
X139757Y235668D01*
D14*
X163700Y123550D02*
X163700Y105050D01*
X318900Y105050D02*
X318900Y123550D01*
D15*
X144730Y120352D02*
X144730Y111264D01*
X144731Y111264D02*
X144733Y111165D01*
X144739Y111065D01*
X144748Y110966D01*
X144761Y110868D01*
X144778Y110770D01*
X144799Y110672D01*
X144824Y110576D01*
X144852Y110481D01*
X144884Y110387D01*
X144919Y110294D01*
X144958Y110202D01*
X145001Y110112D01*
X145046Y110024D01*
X145096Y109937D01*
X145148Y109853D01*
X145204Y109770D01*
X145262Y109690D01*
X145324Y109612D01*
X145389Y109537D01*
X145457Y109464D01*
X145527Y109394D01*
X145600Y109326D01*
X145675Y109261D01*
X145753Y109199D01*
X145833Y109141D01*
X145916Y109085D01*
X146000Y109033D01*
X146087Y108983D01*
X146175Y108938D01*
X146265Y108895D01*
X146357Y108856D01*
X146450Y108821D01*
X146544Y108789D01*
X146639Y108761D01*
X146735Y108736D01*
X146833Y108715D01*
X146931Y108698D01*
X147029Y108685D01*
X147128Y108676D01*
X147228Y108670D01*
X147327Y108668D01*
X148625Y108668D01*
X135887Y120352D02*
X135780Y120350D01*
X135674Y120344D01*
X135568Y120334D01*
X135462Y120321D01*
X135356Y120303D01*
X135252Y120282D01*
X135148Y120257D01*
X135045Y120228D01*
X134944Y120196D01*
X134844Y120159D01*
X134745Y120119D01*
X134647Y120076D01*
X134551Y120029D01*
X134457Y119978D01*
X134365Y119924D01*
X134275Y119867D01*
X134187Y119807D01*
X134102Y119743D01*
X134019Y119676D01*
X133938Y119606D01*
X133860Y119534D01*
X133784Y119458D01*
X133712Y119380D01*
X133642Y119299D01*
X133575Y119216D01*
X133511Y119131D01*
X133451Y119043D01*
X133394Y118953D01*
X133340Y118861D01*
X133289Y118767D01*
X133242Y118671D01*
X133199Y118573D01*
X133159Y118474D01*
X133122Y118374D01*
X133090Y118273D01*
X133061Y118170D01*
X133036Y118066D01*
X133015Y117962D01*
X132997Y117856D01*
X132984Y117750D01*
X132974Y117644D01*
X132968Y117538D01*
X132966Y117431D01*
X135887Y120352D02*
X136008Y120350D01*
X136129Y120344D01*
X136249Y120334D01*
X136370Y120321D01*
X136489Y120303D01*
X136609Y120282D01*
X136727Y120257D01*
X136844Y120228D01*
X136961Y120195D01*
X137076Y120159D01*
X137190Y120118D01*
X137303Y120075D01*
X137415Y120027D01*
X137524Y119976D01*
X137632Y119921D01*
X137739Y119863D01*
X137843Y119802D01*
X137945Y119737D01*
X138045Y119669D01*
X138143Y119598D01*
X138239Y119524D01*
X138332Y119447D01*
X138422Y119366D01*
X138510Y119283D01*
X138595Y119197D01*
X138678Y119108D01*
X138757Y119017D01*
X138834Y118923D01*
X138907Y118827D01*
X138977Y118729D01*
X139044Y118628D01*
X139108Y118525D01*
X139169Y118420D01*
X139226Y118313D01*
X139279Y118205D01*
X139329Y118095D01*
X139375Y117983D01*
X139418Y117870D01*
X139457Y117755D01*
X133940Y115159D02*
X133861Y115237D01*
X133785Y115317D01*
X133712Y115400D01*
X133642Y115486D01*
X133575Y115573D01*
X133511Y115664D01*
X133451Y115756D01*
X133393Y115850D01*
X133339Y115947D01*
X133289Y116045D01*
X133242Y116145D01*
X133198Y116246D01*
X133158Y116349D01*
X133122Y116454D01*
X133090Y116559D01*
X133061Y116666D01*
X133036Y116773D01*
X133014Y116882D01*
X132997Y116991D01*
X132983Y117100D01*
X132974Y117210D01*
X132968Y117321D01*
X132966Y117431D01*
X133939Y115159D02*
X139457Y108668D01*
X132966Y108668D01*
M02*
