G04 EAGLE Gerber X2 export*
%TF.Part,Single*%
%TF.FileFunction,Other,Solder stop mask Bottom*%
%TF.FilePolarity,Positive*%
%TF.GenerationSoftware,Autodesk,EAGLE,9.0.0*%
%TF.CreationDate,2018-10-03T06:32:16Z*%
G75*
%MOMM*%
%FSLAX34Y34*%
%LPD*%
%AMOC8*
5,1,8,0,0,1.08239X$1,22.5*%
G01*
%ADD10C,0.000000*%
%ADD11R,0.357000X0.787000*%
%ADD12R,0.477000X0.787000*%


D10*
X0Y0D02*
X490000Y0D01*
X490000Y360000D01*
X0Y360000D01*
X0Y0D01*
D11*
X173300Y254850D03*
X173300Y227750D03*
X177300Y254850D03*
X177300Y227750D03*
X181300Y254850D03*
X181300Y227750D03*
X185300Y254850D03*
X185300Y227750D03*
X189300Y254850D03*
X189300Y227750D03*
X193300Y254850D03*
X193300Y227750D03*
X197300Y254850D03*
X197300Y227750D03*
X201300Y254850D03*
X201300Y227750D03*
X205300Y254850D03*
X205300Y227750D03*
X209300Y254850D03*
X209300Y227750D03*
X213300Y254850D03*
X213300Y227750D03*
X217300Y254850D03*
X217300Y227750D03*
X221300Y254850D03*
X221300Y227750D03*
X225300Y254850D03*
X225300Y227750D03*
X229300Y254850D03*
X229300Y227750D03*
X233300Y254850D03*
X233300Y227750D03*
X237300Y254850D03*
X237300Y227750D03*
X241300Y254850D03*
X241300Y227750D03*
X245300Y254850D03*
X245300Y227750D03*
X249300Y254850D03*
X249300Y227750D03*
X253300Y254850D03*
X253300Y227750D03*
X257300Y254850D03*
X257300Y227750D03*
X261300Y254850D03*
X261300Y227750D03*
X265300Y254850D03*
X265300Y227750D03*
X269300Y254850D03*
X269300Y227750D03*
X273300Y254850D03*
X273300Y227750D03*
X277300Y254850D03*
X277300Y227750D03*
X281300Y254850D03*
X281300Y227750D03*
X285300Y254850D03*
X285300Y227750D03*
X289300Y254850D03*
X289300Y227750D03*
X293300Y254850D03*
X293300Y227750D03*
X297300Y254850D03*
X297300Y227750D03*
X301300Y254850D03*
X301300Y227750D03*
X305300Y254850D03*
X305300Y227750D03*
X309300Y254850D03*
X309300Y227750D03*
D12*
X168550Y254850D03*
X168550Y227750D03*
X314050Y227750D03*
X314050Y254850D03*
D11*
X173300Y127850D03*
X173300Y100750D03*
X177300Y127850D03*
X177300Y100750D03*
X181300Y127850D03*
X181300Y100750D03*
X185300Y127850D03*
X185300Y100750D03*
X189300Y127850D03*
X189300Y100750D03*
X193300Y127850D03*
X193300Y100750D03*
X197300Y127850D03*
X197300Y100750D03*
X201300Y127850D03*
X201300Y100750D03*
X205300Y127850D03*
X205300Y100750D03*
X209300Y127850D03*
X209300Y100750D03*
X213300Y127850D03*
X213300Y100750D03*
X217300Y127850D03*
X217300Y100750D03*
X221300Y127850D03*
X221300Y100750D03*
X225300Y127850D03*
X225300Y100750D03*
X229300Y127850D03*
X229300Y100750D03*
X233300Y127850D03*
X233300Y100750D03*
X237300Y127850D03*
X237300Y100750D03*
X241300Y127850D03*
X241300Y100750D03*
X245300Y127850D03*
X245300Y100750D03*
X249300Y127850D03*
X249300Y100750D03*
X253300Y127850D03*
X253300Y100750D03*
X257300Y127850D03*
X257300Y100750D03*
X261300Y127850D03*
X261300Y100750D03*
X265300Y127850D03*
X265300Y100750D03*
X269300Y127850D03*
X269300Y100750D03*
X273300Y127850D03*
X273300Y100750D03*
X277300Y127850D03*
X277300Y100750D03*
X281300Y127850D03*
X281300Y100750D03*
X285300Y127850D03*
X285300Y100750D03*
X289300Y127850D03*
X289300Y100750D03*
X293300Y127850D03*
X293300Y100750D03*
X297300Y127850D03*
X297300Y100750D03*
X301300Y127850D03*
X301300Y100750D03*
X305300Y127850D03*
X305300Y100750D03*
X309300Y127850D03*
X309300Y100750D03*
D12*
X168550Y127850D03*
X168550Y100750D03*
X314050Y100750D03*
X314050Y127850D03*
M02*
