G04 EAGLE Gerber X2 export*
%TF.Part,Single*%
%TF.FileFunction,Other,Silk screen TOP*%
%TF.FilePolarity,Positive*%
%TF.GenerationSoftware,Autodesk,EAGLE,9.0.0*%
%TF.CreationDate,2018-10-03T06:32:16Z*%
G75*
%MOMM*%
%FSLAX34Y34*%
%LPD*%
%AMOC8*
5,1,8,0,0,1.08239X$1,22.5*%
G01*
%ADD10C,0.000000*%
%ADD11C,0.508000*%
%ADD12C,0.101600*%
%ADD13C,0.127000*%


D10*
X0Y0D02*
X490000Y0D01*
X490000Y360000D01*
X0Y360000D01*
X0Y0D01*
D11*
X490000Y0D01*
X490000Y360000D01*
X0Y360000D01*
X0Y0D01*
D12*
X195808Y181008D02*
X199703Y192692D01*
X203597Y181008D01*
X202624Y183929D02*
X196782Y183929D01*
X208342Y181008D02*
X208342Y192692D01*
X211587Y192692D01*
X211700Y192690D01*
X211813Y192684D01*
X211926Y192674D01*
X212039Y192660D01*
X212151Y192643D01*
X212262Y192621D01*
X212372Y192596D01*
X212482Y192566D01*
X212590Y192533D01*
X212697Y192496D01*
X212803Y192456D01*
X212907Y192411D01*
X213010Y192363D01*
X213111Y192312D01*
X213210Y192257D01*
X213307Y192199D01*
X213402Y192137D01*
X213495Y192072D01*
X213585Y192004D01*
X213673Y191933D01*
X213759Y191858D01*
X213842Y191781D01*
X213922Y191701D01*
X213999Y191618D01*
X214074Y191532D01*
X214145Y191444D01*
X214213Y191354D01*
X214278Y191261D01*
X214340Y191166D01*
X214398Y191069D01*
X214453Y190970D01*
X214504Y190869D01*
X214552Y190766D01*
X214597Y190662D01*
X214637Y190556D01*
X214674Y190449D01*
X214707Y190341D01*
X214737Y190231D01*
X214762Y190121D01*
X214784Y190010D01*
X214801Y189898D01*
X214815Y189785D01*
X214825Y189672D01*
X214831Y189559D01*
X214833Y189446D01*
X214831Y189333D01*
X214825Y189220D01*
X214815Y189107D01*
X214801Y188994D01*
X214784Y188882D01*
X214762Y188771D01*
X214737Y188661D01*
X214707Y188551D01*
X214674Y188443D01*
X214637Y188336D01*
X214597Y188230D01*
X214552Y188126D01*
X214504Y188023D01*
X214453Y187922D01*
X214398Y187823D01*
X214340Y187726D01*
X214278Y187631D01*
X214213Y187538D01*
X214145Y187448D01*
X214074Y187360D01*
X213999Y187274D01*
X213922Y187191D01*
X213842Y187111D01*
X213759Y187034D01*
X213673Y186959D01*
X213585Y186888D01*
X213495Y186820D01*
X213402Y186755D01*
X213307Y186693D01*
X213210Y186635D01*
X213111Y186580D01*
X213010Y186529D01*
X212907Y186481D01*
X212803Y186436D01*
X212697Y186396D01*
X212590Y186359D01*
X212482Y186326D01*
X212372Y186296D01*
X212262Y186271D01*
X212151Y186249D01*
X212039Y186232D01*
X211926Y186218D01*
X211813Y186208D01*
X211700Y186202D01*
X211587Y186200D01*
X211587Y186201D02*
X208342Y186201D01*
X212236Y186201D02*
X214833Y181008D01*
X222182Y181008D02*
X222182Y192692D01*
X225427Y192692D02*
X218936Y192692D01*
X230564Y192692D02*
X230564Y181008D01*
X231862Y181008D02*
X229265Y181008D01*
X229265Y192692D02*
X231862Y192692D01*
X237012Y192692D02*
X237012Y181008D01*
X237012Y185552D02*
X243503Y192692D01*
X239609Y188148D02*
X243503Y181008D01*
X247892Y181008D02*
X251787Y181008D01*
X251886Y181010D01*
X251986Y181016D01*
X252085Y181025D01*
X252183Y181038D01*
X252281Y181055D01*
X252379Y181076D01*
X252475Y181101D01*
X252570Y181129D01*
X252664Y181161D01*
X252757Y181196D01*
X252849Y181235D01*
X252939Y181278D01*
X253027Y181323D01*
X253114Y181373D01*
X253198Y181425D01*
X253281Y181481D01*
X253361Y181539D01*
X253439Y181601D01*
X253514Y181666D01*
X253587Y181734D01*
X253657Y181804D01*
X253725Y181877D01*
X253790Y181952D01*
X253852Y182030D01*
X253910Y182110D01*
X253966Y182193D01*
X254018Y182277D01*
X254068Y182364D01*
X254113Y182452D01*
X254156Y182542D01*
X254195Y182634D01*
X254230Y182727D01*
X254262Y182821D01*
X254290Y182916D01*
X254315Y183012D01*
X254336Y183110D01*
X254353Y183208D01*
X254366Y183306D01*
X254375Y183405D01*
X254381Y183505D01*
X254383Y183604D01*
X254383Y184903D01*
X254381Y185002D01*
X254375Y185102D01*
X254366Y185201D01*
X254353Y185299D01*
X254336Y185397D01*
X254315Y185495D01*
X254290Y185591D01*
X254262Y185686D01*
X254230Y185780D01*
X254195Y185873D01*
X254156Y185965D01*
X254113Y186055D01*
X254068Y186143D01*
X254018Y186230D01*
X253966Y186314D01*
X253910Y186397D01*
X253852Y186477D01*
X253790Y186555D01*
X253725Y186630D01*
X253657Y186703D01*
X253587Y186773D01*
X253514Y186841D01*
X253439Y186906D01*
X253361Y186968D01*
X253281Y187026D01*
X253198Y187082D01*
X253114Y187134D01*
X253027Y187184D01*
X252939Y187229D01*
X252849Y187272D01*
X252757Y187311D01*
X252664Y187346D01*
X252570Y187378D01*
X252475Y187406D01*
X252379Y187431D01*
X252281Y187452D01*
X252183Y187469D01*
X252085Y187482D01*
X251986Y187491D01*
X251886Y187497D01*
X251787Y187499D01*
X247892Y187499D01*
X247892Y192692D01*
X254383Y192692D01*
X259322Y181008D02*
X262568Y181008D01*
X262681Y181010D01*
X262794Y181016D01*
X262907Y181026D01*
X263020Y181040D01*
X263132Y181057D01*
X263243Y181079D01*
X263353Y181104D01*
X263463Y181134D01*
X263571Y181167D01*
X263678Y181204D01*
X263784Y181244D01*
X263888Y181289D01*
X263991Y181337D01*
X264092Y181388D01*
X264191Y181443D01*
X264288Y181501D01*
X264383Y181563D01*
X264476Y181628D01*
X264566Y181696D01*
X264654Y181767D01*
X264740Y181842D01*
X264823Y181919D01*
X264903Y181999D01*
X264980Y182082D01*
X265055Y182168D01*
X265126Y182256D01*
X265194Y182346D01*
X265259Y182439D01*
X265321Y182534D01*
X265379Y182631D01*
X265434Y182730D01*
X265485Y182831D01*
X265533Y182934D01*
X265578Y183038D01*
X265618Y183144D01*
X265655Y183251D01*
X265688Y183359D01*
X265718Y183469D01*
X265743Y183579D01*
X265765Y183690D01*
X265782Y183802D01*
X265796Y183915D01*
X265806Y184028D01*
X265812Y184141D01*
X265814Y184254D01*
X265812Y184367D01*
X265806Y184480D01*
X265796Y184593D01*
X265782Y184706D01*
X265765Y184818D01*
X265743Y184929D01*
X265718Y185039D01*
X265688Y185149D01*
X265655Y185257D01*
X265618Y185364D01*
X265578Y185470D01*
X265533Y185574D01*
X265485Y185677D01*
X265434Y185778D01*
X265379Y185877D01*
X265321Y185974D01*
X265259Y186069D01*
X265194Y186162D01*
X265126Y186252D01*
X265055Y186340D01*
X264980Y186426D01*
X264903Y186509D01*
X264823Y186589D01*
X264740Y186666D01*
X264654Y186741D01*
X264566Y186812D01*
X264476Y186880D01*
X264383Y186945D01*
X264288Y187007D01*
X264191Y187065D01*
X264092Y187120D01*
X263991Y187171D01*
X263888Y187219D01*
X263784Y187264D01*
X263678Y187304D01*
X263571Y187341D01*
X263463Y187374D01*
X263353Y187404D01*
X263243Y187429D01*
X263132Y187451D01*
X263020Y187468D01*
X262907Y187482D01*
X262794Y187492D01*
X262681Y187498D01*
X262568Y187500D01*
X263217Y192692D02*
X259322Y192692D01*
X263217Y192692D02*
X263318Y192690D01*
X263418Y192684D01*
X263518Y192674D01*
X263618Y192661D01*
X263717Y192643D01*
X263816Y192622D01*
X263913Y192597D01*
X264010Y192568D01*
X264105Y192535D01*
X264199Y192499D01*
X264291Y192459D01*
X264382Y192416D01*
X264471Y192369D01*
X264558Y192319D01*
X264644Y192265D01*
X264727Y192208D01*
X264807Y192148D01*
X264886Y192085D01*
X264962Y192018D01*
X265035Y191949D01*
X265105Y191877D01*
X265173Y191803D01*
X265238Y191726D01*
X265299Y191646D01*
X265358Y191564D01*
X265413Y191480D01*
X265465Y191394D01*
X265514Y191306D01*
X265559Y191216D01*
X265601Y191124D01*
X265639Y191031D01*
X265673Y190936D01*
X265704Y190841D01*
X265731Y190744D01*
X265754Y190646D01*
X265774Y190547D01*
X265789Y190447D01*
X265801Y190347D01*
X265809Y190247D01*
X265813Y190146D01*
X265813Y190046D01*
X265809Y189945D01*
X265801Y189845D01*
X265789Y189745D01*
X265774Y189645D01*
X265754Y189546D01*
X265731Y189448D01*
X265704Y189351D01*
X265673Y189256D01*
X265639Y189161D01*
X265601Y189068D01*
X265559Y188976D01*
X265514Y188886D01*
X265465Y188798D01*
X265413Y188712D01*
X265358Y188628D01*
X265299Y188546D01*
X265238Y188466D01*
X265173Y188389D01*
X265105Y188315D01*
X265035Y188243D01*
X264962Y188174D01*
X264886Y188107D01*
X264807Y188044D01*
X264727Y187984D01*
X264644Y187927D01*
X264558Y187873D01*
X264471Y187823D01*
X264382Y187776D01*
X264291Y187733D01*
X264199Y187693D01*
X264105Y187657D01*
X264010Y187624D01*
X263913Y187595D01*
X263816Y187570D01*
X263717Y187549D01*
X263618Y187531D01*
X263518Y187518D01*
X263418Y187508D01*
X263318Y187502D01*
X263217Y187500D01*
X263217Y187499D02*
X260620Y187499D01*
X270752Y186850D02*
X270755Y187080D01*
X270763Y187310D01*
X270777Y187539D01*
X270796Y187768D01*
X270821Y187997D01*
X270851Y188224D01*
X270886Y188452D01*
X270927Y188678D01*
X270973Y188903D01*
X271025Y189127D01*
X271082Y189349D01*
X271144Y189571D01*
X271212Y189790D01*
X271285Y190008D01*
X271363Y190225D01*
X271446Y190439D01*
X271534Y190651D01*
X271627Y190861D01*
X271726Y191069D01*
X271725Y191069D02*
X271758Y191159D01*
X271794Y191248D01*
X271834Y191336D01*
X271878Y191421D01*
X271925Y191505D01*
X271975Y191587D01*
X272029Y191667D01*
X272085Y191744D01*
X272145Y191820D01*
X272208Y191893D01*
X272273Y191963D01*
X272342Y192031D01*
X272413Y192095D01*
X272486Y192157D01*
X272562Y192216D01*
X272640Y192272D01*
X272721Y192325D01*
X272803Y192374D01*
X272887Y192420D01*
X272974Y192463D01*
X273061Y192502D01*
X273151Y192538D01*
X273241Y192570D01*
X273333Y192598D01*
X273426Y192623D01*
X273520Y192644D01*
X273614Y192661D01*
X273709Y192675D01*
X273805Y192684D01*
X273901Y192690D01*
X273997Y192692D01*
X274093Y192690D01*
X274189Y192684D01*
X274285Y192675D01*
X274380Y192661D01*
X274474Y192644D01*
X274568Y192623D01*
X274661Y192598D01*
X274753Y192570D01*
X274843Y192538D01*
X274933Y192502D01*
X275020Y192463D01*
X275107Y192420D01*
X275191Y192374D01*
X275273Y192325D01*
X275354Y192272D01*
X275432Y192216D01*
X275508Y192157D01*
X275581Y192095D01*
X275652Y192031D01*
X275721Y191963D01*
X275786Y191893D01*
X275849Y191820D01*
X275909Y191744D01*
X275965Y191667D01*
X276019Y191587D01*
X276069Y191505D01*
X276116Y191421D01*
X276160Y191336D01*
X276200Y191248D01*
X276236Y191159D01*
X276269Y191069D01*
X276270Y191069D02*
X276369Y190862D01*
X276462Y190652D01*
X276550Y190439D01*
X276633Y190225D01*
X276711Y190009D01*
X276784Y189791D01*
X276852Y189571D01*
X276914Y189350D01*
X276971Y189127D01*
X277023Y188903D01*
X277069Y188678D01*
X277110Y188452D01*
X277145Y188225D01*
X277175Y187997D01*
X277200Y187768D01*
X277219Y187539D01*
X277233Y187310D01*
X277241Y187080D01*
X277244Y186850D01*
X270752Y186850D02*
X270755Y186620D01*
X270763Y186390D01*
X270777Y186161D01*
X270796Y185932D01*
X270821Y185703D01*
X270851Y185475D01*
X270886Y185248D01*
X270927Y185022D01*
X270973Y184797D01*
X271025Y184573D01*
X271082Y184350D01*
X271144Y184129D01*
X271212Y183909D01*
X271285Y183691D01*
X271363Y183475D01*
X271446Y183261D01*
X271534Y183049D01*
X271627Y182838D01*
X271726Y182631D01*
X271725Y182631D02*
X271758Y182541D01*
X271794Y182452D01*
X271835Y182364D01*
X271878Y182279D01*
X271925Y182195D01*
X271975Y182113D01*
X272029Y182033D01*
X272085Y181956D01*
X272145Y181880D01*
X272208Y181807D01*
X272273Y181737D01*
X272342Y181669D01*
X272413Y181605D01*
X272486Y181543D01*
X272562Y181484D01*
X272640Y181428D01*
X272721Y181375D01*
X272803Y181326D01*
X272887Y181280D01*
X272974Y181237D01*
X273061Y181198D01*
X273151Y181162D01*
X273241Y181130D01*
X273333Y181102D01*
X273426Y181077D01*
X273520Y181056D01*
X273614Y181039D01*
X273709Y181025D01*
X273805Y181016D01*
X273901Y181010D01*
X273997Y181008D01*
X276269Y182631D02*
X276368Y182838D01*
X276461Y183049D01*
X276549Y183261D01*
X276632Y183475D01*
X276710Y183691D01*
X276783Y183909D01*
X276851Y184129D01*
X276913Y184350D01*
X276970Y184573D01*
X277022Y184797D01*
X277068Y185022D01*
X277109Y185248D01*
X277144Y185475D01*
X277174Y185703D01*
X277199Y185932D01*
X277218Y186161D01*
X277232Y186390D01*
X277240Y186620D01*
X277243Y186850D01*
X276269Y182631D02*
X276236Y182541D01*
X276200Y182452D01*
X276160Y182364D01*
X276116Y182279D01*
X276069Y182195D01*
X276019Y182113D01*
X275965Y182033D01*
X275909Y181956D01*
X275849Y181880D01*
X275786Y181807D01*
X275721Y181737D01*
X275652Y181669D01*
X275581Y181605D01*
X275508Y181543D01*
X275432Y181484D01*
X275354Y181428D01*
X275273Y181375D01*
X275191Y181326D01*
X275107Y181280D01*
X275020Y181237D01*
X274933Y181198D01*
X274843Y181162D01*
X274753Y181130D01*
X274661Y181102D01*
X274568Y181077D01*
X274474Y181056D01*
X274380Y181039D01*
X274285Y181025D01*
X274189Y181016D01*
X274093Y181010D01*
X273997Y181008D01*
X271401Y183604D02*
X276594Y190096D01*
D13*
X13576Y359969D02*
X244Y348422D01*
X13332Y359969D02*
X13576Y359969D01*
X11176Y359672D02*
X564Y350413D01*
X1016Y350187D02*
X11798Y359446D01*
X9426Y359222D02*
X564Y352108D01*
X170Y353802D02*
X8184Y359446D01*
X7734Y359222D02*
X564Y353350D01*
X170Y354818D02*
X6660Y359672D01*
X396Y356342D01*
X-56Y356342D02*
X4346Y359672D01*
X2258Y359222D02*
X564Y357584D01*
X396Y358656D02*
X1580Y359446D01*
X13152Y359616D02*
X904Y346746D01*
X508Y347195D02*
X3444Y350528D01*
X2144Y347988D02*
X282Y346123D01*
M02*
